G04 #@! TF.GenerationSoftware,KiCad,Pcbnew,7.0.8*
G04 #@! TF.CreationDate,2026-01-28T21:35:14+01:00*
G04 #@! TF.ProjectId,Apple2Card,4170706c-6532-4436-9172-642e6b696361,rev?*
G04 #@! TF.SameCoordinates,Original*
G04 #@! TF.FileFunction,Copper,L1,Top*
G04 #@! TF.FilePolarity,Positive*
%FSLAX46Y46*%
G04 Gerber Fmt 4.6, Leading zero omitted, Abs format (unit mm)*
G04 Created by KiCad (PCBNEW 7.0.8) date 2026-01-28 21:35:14*
%MOMM*%
%LPD*%
G01*
G04 APERTURE LIST*
G04 #@! TA.AperFunction,ComponentPad*
%ADD10C,1.400000*%
G04 #@! TD*
G04 #@! TA.AperFunction,ComponentPad*
%ADD11O,1.400000X1.400000*%
G04 #@! TD*
G04 #@! TA.AperFunction,ComponentPad*
%ADD12O,1.050000X1.500000*%
G04 #@! TD*
G04 #@! TA.AperFunction,ComponentPad*
%ADD13R,1.050000X1.500000*%
G04 #@! TD*
G04 #@! TA.AperFunction,ComponentPad*
%ADD14C,1.600000*%
G04 #@! TD*
G04 #@! TA.AperFunction,ComponentPad*
%ADD15R,1.700000X1.700000*%
G04 #@! TD*
G04 #@! TA.AperFunction,ComponentPad*
%ADD16O,1.700000X1.700000*%
G04 #@! TD*
G04 #@! TA.AperFunction,ComponentPad*
%ADD17R,1.600000X1.600000*%
G04 #@! TD*
G04 #@! TA.AperFunction,ComponentPad*
%ADD18O,1.600000X1.600000*%
G04 #@! TD*
G04 #@! TA.AperFunction,SMDPad,CuDef*
%ADD19R,1.270000X8.530000*%
G04 #@! TD*
G04 #@! TA.AperFunction,SMDPad,CuDef*
%ADD20R,1.910000X8.530000*%
G04 #@! TD*
G04 #@! TA.AperFunction,ViaPad*
%ADD21C,0.800000*%
G04 #@! TD*
G04 #@! TA.AperFunction,Conductor*
%ADD22C,0.250000*%
G04 #@! TD*
G04 #@! TA.AperFunction,Conductor*
%ADD23C,0.200000*%
G04 #@! TD*
G04 #@! TA.AperFunction,Conductor*
%ADD24C,0.750000*%
G04 #@! TD*
G04 #@! TA.AperFunction,Conductor*
%ADD25C,0.350000*%
G04 #@! TD*
G04 APERTURE END LIST*
D10*
X111252000Y-83566000D03*
D11*
X111252000Y-91186000D03*
D10*
X114554000Y-83566000D03*
D11*
X114554000Y-91186000D03*
D10*
X117856000Y-83566000D03*
D11*
X117856000Y-91186000D03*
D12*
X107442000Y-87376000D03*
X106172000Y-87376000D03*
D13*
X104902000Y-87376000D03*
D14*
X107402000Y-40894000D03*
X102402000Y-40894000D03*
D15*
X106172000Y-79756000D03*
D16*
X103632000Y-79756000D03*
X101092000Y-79756000D03*
D14*
X185674000Y-39330000D03*
X185674000Y-34330000D03*
D17*
X101092000Y-44450000D03*
D18*
X101092000Y-46990000D03*
X101092000Y-49530000D03*
X101092000Y-52070000D03*
X101092000Y-54610000D03*
X101092000Y-57150000D03*
X101092000Y-59690000D03*
X101092000Y-62230000D03*
X101092000Y-64770000D03*
X101092000Y-67310000D03*
X101092000Y-69850000D03*
X101092000Y-72390000D03*
X108712000Y-72390000D03*
X108712000Y-69850000D03*
X108712000Y-67310000D03*
X108712000Y-64770000D03*
X108712000Y-62230000D03*
X108712000Y-59690000D03*
X108712000Y-57150000D03*
X108712000Y-54610000D03*
X108712000Y-52070000D03*
X108712000Y-49530000D03*
X108712000Y-46990000D03*
X108712000Y-44450000D03*
D15*
X120650000Y-50292000D03*
D16*
X123190000Y-50292000D03*
X125730000Y-50292000D03*
X128270000Y-50292000D03*
X130810000Y-50292000D03*
X133350000Y-50292000D03*
X135890000Y-50292000D03*
X138430000Y-50292000D03*
X140970000Y-50292000D03*
X143510000Y-50292000D03*
X146050000Y-50292000D03*
X148590000Y-50292000D03*
X151130000Y-50292000D03*
X153670000Y-50292000D03*
X156210000Y-50292000D03*
X158750000Y-50292000D03*
X161290000Y-50292000D03*
X163830000Y-50292000D03*
X166370000Y-50292000D03*
X168910000Y-50292000D03*
X171450000Y-50292000D03*
X173990000Y-50292000D03*
X176530000Y-50292000D03*
X179070000Y-50292000D03*
X181610000Y-50292000D03*
D17*
X137668000Y-29210000D03*
D18*
X135128000Y-29210000D03*
X132588000Y-29210000D03*
X130048000Y-29210000D03*
X127508000Y-29210000D03*
X124968000Y-29210000D03*
X122428000Y-29210000D03*
X119888000Y-29210000D03*
X117348000Y-29210000D03*
X114808000Y-29210000D03*
X114808000Y-36830000D03*
X117348000Y-36830000D03*
X119888000Y-36830000D03*
X122428000Y-36830000D03*
X124968000Y-36830000D03*
X127508000Y-36830000D03*
X130048000Y-36830000D03*
X132588000Y-36830000D03*
X135128000Y-36830000D03*
X137668000Y-36830000D03*
D19*
X120396000Y-99060000D03*
X123190000Y-99060000D03*
X125730000Y-99060000D03*
X128270000Y-99060000D03*
X130810000Y-99060000D03*
X133350000Y-99060000D03*
X135890000Y-99060000D03*
X138430000Y-99060000D03*
X140970000Y-99060000D03*
X143510000Y-99060000D03*
X146050000Y-99060000D03*
X148590000Y-99060000D03*
X151130000Y-99060000D03*
X153670000Y-99060000D03*
X156210000Y-99060000D03*
X158750000Y-99060000D03*
X161290000Y-99060000D03*
X163830000Y-99060000D03*
X166370000Y-99060000D03*
X168910000Y-99060000D03*
X171450000Y-99060000D03*
X173990000Y-99060000D03*
X176530000Y-99060000D03*
X179070000Y-99060000D03*
D20*
X181864000Y-99060000D03*
D15*
X120650000Y-77978000D03*
D16*
X123190000Y-77978000D03*
X125730000Y-77978000D03*
X128270000Y-77978000D03*
X130810000Y-77978000D03*
X133350000Y-77978000D03*
X135890000Y-77978000D03*
X138430000Y-77978000D03*
X140970000Y-77978000D03*
X143510000Y-77978000D03*
X146050000Y-77978000D03*
X148590000Y-77978000D03*
X151130000Y-77978000D03*
X153670000Y-77978000D03*
X156210000Y-77978000D03*
X158750000Y-77978000D03*
X161290000Y-77978000D03*
X163830000Y-77978000D03*
X166370000Y-77978000D03*
X168910000Y-77978000D03*
X171450000Y-77978000D03*
X173990000Y-77978000D03*
X176530000Y-77978000D03*
X179070000Y-77978000D03*
X181610000Y-77978000D03*
D15*
X120650000Y-72898000D03*
D16*
X123190000Y-72898000D03*
X125730000Y-72898000D03*
X128270000Y-72898000D03*
X130810000Y-72898000D03*
X133350000Y-72898000D03*
X135890000Y-72898000D03*
X138430000Y-72898000D03*
X140970000Y-72898000D03*
X143510000Y-72898000D03*
X146050000Y-72898000D03*
X148590000Y-72898000D03*
X151130000Y-72898000D03*
X153670000Y-72898000D03*
X156210000Y-72898000D03*
X158750000Y-72898000D03*
X161290000Y-72898000D03*
X163830000Y-72898000D03*
X166370000Y-72898000D03*
X168910000Y-72898000D03*
X171450000Y-72898000D03*
X173990000Y-72898000D03*
X176530000Y-72898000D03*
X179070000Y-72898000D03*
X181610000Y-72898000D03*
D15*
X188722000Y-64516000D03*
D16*
X188722000Y-61976000D03*
D17*
X187706000Y-85384000D03*
D14*
X187706000Y-87884000D03*
D17*
X181600000Y-29210000D03*
D18*
X179060000Y-29210000D03*
X176520000Y-29210000D03*
X173980000Y-29210000D03*
X171440000Y-29210000D03*
X168900000Y-29210000D03*
X166360000Y-29210000D03*
X163820000Y-29210000D03*
X161280000Y-29210000D03*
X158740000Y-29210000D03*
X156200000Y-29210000D03*
X153660000Y-29210000D03*
X151120000Y-29210000D03*
X148580000Y-29210000D03*
X148580000Y-44450000D03*
X151120000Y-44450000D03*
X153660000Y-44450000D03*
X156200000Y-44450000D03*
X158740000Y-44450000D03*
X161280000Y-44450000D03*
X163820000Y-44450000D03*
X166360000Y-44450000D03*
X168900000Y-44450000D03*
X171440000Y-44450000D03*
X173980000Y-44450000D03*
X176520000Y-44450000D03*
X179060000Y-44450000D03*
X181600000Y-44450000D03*
D14*
X141478000Y-30520000D03*
X141478000Y-35520000D03*
D15*
X188722000Y-72644000D03*
D16*
X188722000Y-70104000D03*
D15*
X101092000Y-84836000D03*
D16*
X101092000Y-87376000D03*
X181610000Y-55372000D03*
X179070000Y-55372000D03*
X176530000Y-55372000D03*
X173990000Y-55372000D03*
X171450000Y-55372000D03*
X168910000Y-55372000D03*
X166370000Y-55372000D03*
X163830000Y-55372000D03*
X161290000Y-55372000D03*
X158750000Y-55372000D03*
X156210000Y-55372000D03*
X153670000Y-55372000D03*
X151130000Y-55372000D03*
X148590000Y-55372000D03*
X146050000Y-55372000D03*
X143510000Y-55372000D03*
X140970000Y-55372000D03*
X138430000Y-55372000D03*
X135890000Y-55372000D03*
X133350000Y-55372000D03*
X130810000Y-55372000D03*
X128270000Y-55372000D03*
X125730000Y-55372000D03*
X123190000Y-55372000D03*
D15*
X120650000Y-55372000D03*
D21*
X113538000Y-49022000D03*
X113538000Y-45974000D03*
X126238000Y-40386000D03*
X113030000Y-61722000D03*
X158750000Y-40640000D03*
X158750000Y-37846000D03*
X179578000Y-37338000D03*
X179578000Y-40640000D03*
X168910000Y-65278000D03*
X117389500Y-55372000D03*
X110744000Y-74676000D03*
X166370000Y-65278000D03*
X110744000Y-56642000D03*
X111743503Y-56642000D03*
X151130000Y-66294000D03*
X154940000Y-65792500D03*
X157480000Y-65786000D03*
X162560000Y-65278000D03*
X103866068Y-64770000D03*
X140970000Y-42926000D03*
X138430000Y-42926000D03*
X135890000Y-42926000D03*
X133350000Y-42926000D03*
X130556000Y-42926000D03*
X128270000Y-42926000D03*
X125730000Y-42926000D03*
X103416068Y-71374000D03*
X103416068Y-69850000D03*
X138938000Y-40640000D03*
D22*
X125730000Y-42926000D02*
X125730000Y-51054000D01*
D23*
X140970000Y-42926000D02*
X140970000Y-51054000D01*
X138430000Y-42926000D02*
X138430000Y-51054000D01*
X135890000Y-51054000D02*
X135890000Y-42926000D01*
X133350000Y-42926000D02*
X133350000Y-51054000D01*
X130556000Y-42926000D02*
X130810000Y-43180000D01*
X130810000Y-43180000D02*
X130810000Y-51054000D01*
X128270000Y-51054000D02*
X128270000Y-42926000D01*
D22*
X110744000Y-56642000D02*
X110744000Y-55812002D01*
X126883701Y-41402000D02*
X143510000Y-41402000D01*
X124995002Y-41561000D02*
X126724701Y-41561000D01*
X126724701Y-41561000D02*
X126883701Y-41402000D01*
X110744000Y-55812002D02*
X124995002Y-41561000D01*
X143510000Y-41402000D02*
X147828000Y-45720000D01*
X147828000Y-45720000D02*
X160010000Y-45720000D01*
X160010000Y-45720000D02*
X161280000Y-44450000D01*
X111743503Y-56642000D02*
X111743503Y-55448895D01*
X125181398Y-42011000D02*
X126911097Y-42011000D01*
X126911097Y-42011000D02*
X127070097Y-41852000D01*
X127070097Y-41852000D02*
X143323604Y-41852000D01*
X111743503Y-55448895D02*
X125181398Y-42011000D01*
X143323604Y-41852000D02*
X147641604Y-46170000D01*
X147641604Y-46170000D02*
X164640000Y-46170000D01*
X164640000Y-46170000D02*
X166360000Y-44450000D01*
X138938000Y-40640000D02*
X127009305Y-40640000D01*
X127009305Y-40640000D02*
X126538305Y-41111000D01*
X115949604Y-38608000D02*
X111506000Y-38608000D01*
X111506000Y-38608000D02*
X106738000Y-43376000D01*
X126538305Y-41111000D02*
X125937695Y-41111000D01*
X125937695Y-41111000D02*
X124726695Y-39900000D01*
X124726695Y-39900000D02*
X117241604Y-39900000D01*
X117241604Y-39900000D02*
X115949604Y-38608000D01*
X106738000Y-43376000D02*
X106738000Y-67876000D01*
X106738000Y-67876000D02*
X108712000Y-69850000D01*
D24*
X181600000Y-44450000D02*
X184658000Y-44450000D01*
X184658000Y-44450000D02*
X185674000Y-43434000D01*
X185674000Y-43434000D02*
X185674000Y-39330000D01*
X114808000Y-29210000D02*
X112268000Y-29210000D01*
X102402000Y-39076000D02*
X102402000Y-40894000D01*
X112268000Y-29210000D02*
X102402000Y-39076000D01*
D22*
X103632000Y-85977604D02*
X111056000Y-78553604D01*
X104648000Y-91186000D02*
X103632000Y-90170000D01*
X103632000Y-90170000D02*
X103632000Y-85977604D01*
X111056000Y-78553604D02*
X111056000Y-76013305D01*
X111252000Y-91186000D02*
X104648000Y-91186000D01*
X111056000Y-76013305D02*
X110019000Y-74976305D01*
X110019000Y-74976305D02*
X110019000Y-63537000D01*
X110019000Y-63537000D02*
X108712000Y-62230000D01*
X106172000Y-87376000D02*
X106172000Y-84710396D01*
X106172000Y-84710396D02*
X107316396Y-83566000D01*
X107316396Y-83566000D02*
X111252000Y-83566000D01*
X110744000Y-74676000D02*
X111506000Y-75438000D01*
X111506000Y-75438000D02*
X111506000Y-78740000D01*
X111506000Y-78740000D02*
X104902000Y-85344000D01*
X104902000Y-85344000D02*
X104902000Y-87376000D01*
X113030000Y-61722000D02*
X112014000Y-61722000D01*
X112014000Y-61722000D02*
X109982000Y-59690000D01*
X109982000Y-59690000D02*
X108712000Y-59690000D01*
X108712000Y-57150000D02*
X109728000Y-58166000D01*
X109728000Y-58166000D02*
X111888396Y-58166000D01*
X111888396Y-58166000D02*
X113226000Y-56828396D01*
X121920000Y-54102000D02*
X123190000Y-55372000D01*
X113226000Y-56828396D02*
X113226000Y-55239190D01*
X113226000Y-55239190D02*
X119443190Y-49022000D01*
X119443190Y-49022000D02*
X121602810Y-49022000D01*
X121602810Y-49022000D02*
X121920000Y-49339190D01*
X121920000Y-49339190D02*
X121920000Y-54102000D01*
X108712000Y-54610000D02*
X110019000Y-55917000D01*
X119314794Y-48514000D02*
X123190000Y-48514000D01*
X110019000Y-55917000D02*
X110019000Y-57441000D01*
X110019000Y-57441000D02*
X110294000Y-57716000D01*
X110294000Y-57716000D02*
X111702000Y-57716000D01*
X112776000Y-56642000D02*
X112776000Y-55052794D01*
X112776000Y-55052794D02*
X119314794Y-48514000D01*
X123190000Y-48514000D02*
X124460000Y-49784000D01*
X111702000Y-57716000D02*
X112776000Y-56642000D01*
X124460000Y-49784000D02*
X124460000Y-50925604D01*
X124460000Y-50925604D02*
X125730000Y-52195604D01*
X125730000Y-52195604D02*
X125730000Y-55372000D01*
D24*
X185674000Y-39330000D02*
X181864000Y-35520000D01*
X181864000Y-35520000D02*
X141478000Y-35520000D01*
X137668000Y-35306000D02*
X137160000Y-34798000D01*
X137160000Y-34798000D02*
X113498000Y-34798000D01*
X113498000Y-34798000D02*
X107402000Y-40894000D01*
X141478000Y-35520000D02*
X137882000Y-35520000D01*
X137882000Y-35520000D02*
X137668000Y-35306000D01*
X137668000Y-36830000D02*
X137668000Y-35306000D01*
X181600000Y-47234000D02*
X181600000Y-46482000D01*
X179060000Y-46218000D02*
X179060000Y-44450000D01*
X181600000Y-46482000D02*
X179324000Y-46482000D01*
X179324000Y-46482000D02*
X179060000Y-46218000D01*
D22*
X156210000Y-29220000D02*
X154930000Y-27940000D01*
X154930000Y-27940000D02*
X136398000Y-27940000D01*
X136398000Y-27940000D02*
X135128000Y-29210000D01*
X153670000Y-29220000D02*
X150124000Y-32766000D01*
X150124000Y-32766000D02*
X138500405Y-32766000D01*
X138500405Y-32766000D02*
X136214405Y-30480000D01*
X130048000Y-29718000D02*
X130048000Y-29210000D01*
X136214405Y-30480000D02*
X130810000Y-30480000D01*
X130810000Y-30480000D02*
X130048000Y-29718000D01*
X158750000Y-44450000D02*
X156130000Y-41830000D01*
X148505584Y-41830000D02*
X144775584Y-38100000D01*
X156130000Y-41830000D02*
X148505584Y-41830000D01*
X158750000Y-44460000D02*
X158750000Y-44450000D01*
X131318000Y-38100000D02*
X130048000Y-36830000D01*
X144775584Y-38100000D02*
X131318000Y-38100000D01*
X156210000Y-44460000D02*
X155966000Y-44460000D01*
X155966000Y-44460000D02*
X153786000Y-42280000D01*
X148319188Y-42280000D02*
X144589188Y-38550000D01*
X153786000Y-42280000D02*
X148319188Y-42280000D01*
X144589188Y-38550000D02*
X126688000Y-38550000D01*
X126688000Y-38550000D02*
X124968000Y-36830000D01*
X153660000Y-44450000D02*
X151940000Y-42730000D01*
X151940000Y-42730000D02*
X148132792Y-42730000D01*
X148132792Y-42730000D02*
X144402792Y-39000000D01*
X144402792Y-39000000D02*
X122058000Y-39000000D01*
X122058000Y-39000000D02*
X119888000Y-36830000D01*
X151130000Y-44460000D02*
X149850000Y-43180000D01*
X117428000Y-39450000D02*
X114808000Y-36830000D01*
X149850000Y-43180000D02*
X147946396Y-43180000D01*
X147946396Y-43180000D02*
X144216396Y-39450000D01*
X144216396Y-39450000D02*
X117428000Y-39450000D01*
X148590000Y-44460000D02*
X144045000Y-39915000D01*
X144045000Y-39915000D02*
X126709000Y-39915000D01*
X126709000Y-39915000D02*
X126238000Y-40386000D01*
X152360000Y-35520000D02*
X152400000Y-35560000D01*
D25*
X120650000Y-77978000D02*
X120396000Y-78232000D01*
X120396000Y-78232000D02*
X120396000Y-99060000D01*
D22*
X170180000Y-51562000D02*
X168910000Y-50292000D01*
X168910000Y-65278000D02*
X168910000Y-64895604D01*
X168910000Y-64895604D02*
X170180000Y-63625604D01*
X170180000Y-63625604D02*
X170180000Y-51562000D01*
X168910000Y-65278000D02*
X168910000Y-72898000D01*
X166370000Y-64262000D02*
X167640000Y-62992000D01*
X166370000Y-65278000D02*
X166370000Y-72898000D01*
X166370000Y-65278000D02*
X166370000Y-64262000D01*
X167640000Y-51562000D02*
X166370000Y-50292000D01*
X167640000Y-62992000D02*
X167640000Y-51562000D01*
X108712000Y-44450000D02*
X107188000Y-45974000D01*
X110469000Y-61955000D02*
X110469000Y-73375695D01*
X107188000Y-60198000D02*
X107950000Y-60960000D01*
X110469000Y-73375695D02*
X117856000Y-80762695D01*
X107188000Y-45974000D02*
X107188000Y-60198000D01*
X107950000Y-60960000D02*
X109474000Y-60960000D01*
X109474000Y-60960000D02*
X110469000Y-61955000D01*
X117856000Y-80762695D02*
X117856000Y-83566000D01*
X117392000Y-74720000D02*
X120650000Y-77978000D01*
X117389500Y-55372000D02*
X117348000Y-55413500D01*
X117348000Y-55413500D02*
X117348000Y-66419604D01*
X117348000Y-66419604D02*
X117392000Y-66463604D01*
X117392000Y-66463604D02*
X117392000Y-74720000D01*
X101092000Y-57150000D02*
X104902000Y-60960000D01*
X104902000Y-80264000D02*
X103886000Y-81280000D01*
X103886000Y-81280000D02*
X102870000Y-81280000D01*
X102870000Y-81280000D02*
X101092000Y-83058000D01*
X104902000Y-60960000D02*
X104902000Y-80264000D01*
X101092000Y-83058000D02*
X101092000Y-84836000D01*
X103416068Y-71374000D02*
X104141068Y-70649000D01*
X104141068Y-70649000D02*
X104141068Y-69549695D01*
X104140000Y-68326000D02*
X103124000Y-67310000D01*
X104141068Y-69549695D02*
X104140000Y-69548627D01*
X104140000Y-69548627D02*
X104140000Y-68326000D01*
X103124000Y-67310000D02*
X101092000Y-67310000D01*
X151130000Y-66294000D02*
X151130000Y-72898000D01*
X151130000Y-66294000D02*
X151130000Y-64008000D01*
X151130000Y-64008000D02*
X152400000Y-62738000D01*
X152400000Y-51562000D02*
X151130000Y-50292000D01*
X152400000Y-62738000D02*
X152400000Y-51562000D01*
D24*
X120650000Y-72898000D02*
X118364000Y-70612000D01*
X118364000Y-70612000D02*
X118364000Y-52578000D01*
X118364000Y-52578000D02*
X120650000Y-50292000D01*
D22*
X142240000Y-66331500D02*
X142240000Y-64262000D01*
X142240000Y-64262000D02*
X143510000Y-62992000D01*
X143510000Y-62992000D02*
X143510000Y-55372000D01*
X142240000Y-76708000D02*
X143510000Y-77978000D01*
X142240000Y-66331500D02*
X142240000Y-76708000D01*
X179070000Y-72898000D02*
X179070000Y-64008000D01*
X179070000Y-64008000D02*
X180340000Y-62738000D01*
X180340000Y-62738000D02*
X180340000Y-51562000D01*
X180340000Y-51562000D02*
X179070000Y-50292000D01*
X138430000Y-72898000D02*
X138430000Y-64008000D01*
X139700000Y-51562000D02*
X138430000Y-50292000D01*
X138430000Y-64008000D02*
X139700000Y-62738000D01*
X139700000Y-62738000D02*
X139700000Y-51562000D01*
X133350000Y-50292000D02*
X134620000Y-51562000D01*
X133350000Y-64167000D02*
X133350000Y-72898000D01*
X134620000Y-51562000D02*
X134620000Y-62897000D01*
X134620000Y-62897000D02*
X133350000Y-64167000D01*
X143510000Y-72898000D02*
X143510000Y-64167000D01*
X143510000Y-64167000D02*
X144780000Y-62897000D01*
X144780000Y-62897000D02*
X144780000Y-51562000D01*
X144780000Y-51562000D02*
X143510000Y-50292000D01*
X146050000Y-72898000D02*
X146050000Y-64262000D01*
X146050000Y-64262000D02*
X147320000Y-62992000D01*
X147320000Y-62992000D02*
X147320000Y-51562000D01*
X147320000Y-51562000D02*
X146050000Y-50292000D01*
X128270000Y-50292000D02*
X129540000Y-51562000D01*
X129540000Y-62992000D02*
X128270000Y-64262000D01*
X128270000Y-64262000D02*
X128270000Y-72898000D01*
X129540000Y-51562000D02*
X129540000Y-62992000D01*
X123190000Y-50292000D02*
X124460000Y-51562000D01*
X123190000Y-64262000D02*
X123190000Y-72898000D01*
X124460000Y-51562000D02*
X124460000Y-62992000D01*
X124460000Y-62992000D02*
X123190000Y-64262000D01*
X123190000Y-77978000D02*
X121920000Y-76708000D01*
X121920000Y-76708000D02*
X121920000Y-64262000D01*
X121920000Y-64262000D02*
X123190000Y-62992000D01*
X123190000Y-62992000D02*
X123190000Y-55372000D01*
X125730000Y-50292000D02*
X127000000Y-51562000D01*
X127000000Y-62992000D02*
X125730000Y-64262000D01*
X127000000Y-51562000D02*
X127000000Y-62992000D01*
X125730000Y-64262000D02*
X125730000Y-72898000D01*
X130810000Y-50292000D02*
X132080000Y-51562000D01*
X132080000Y-51562000D02*
X132080000Y-63087000D01*
X132080000Y-63087000D02*
X130810000Y-64357000D01*
X130810000Y-64357000D02*
X130810000Y-72898000D01*
X135890000Y-72898000D02*
X135890000Y-64262000D01*
X135890000Y-64262000D02*
X137160000Y-62992000D01*
X137160000Y-62992000D02*
X137160000Y-51562000D01*
X137160000Y-51562000D02*
X135890000Y-50292000D01*
X140970000Y-72898000D02*
X140970000Y-64262000D01*
X142240000Y-51562000D02*
X140970000Y-50292000D01*
X140970000Y-64262000D02*
X142240000Y-62992000D01*
X142240000Y-62992000D02*
X142240000Y-51562000D01*
X153670000Y-77978000D02*
X152400000Y-76708000D01*
X152400000Y-64135000D02*
X153670000Y-62865000D01*
X153670000Y-62865000D02*
X153670000Y-55372000D01*
X152400000Y-76708000D02*
X152400000Y-64135000D01*
X166370000Y-55372000D02*
X166370000Y-62992000D01*
X165100000Y-64262000D02*
X165100000Y-76708000D01*
X166370000Y-62992000D02*
X165100000Y-64262000D01*
X165100000Y-76708000D02*
X166370000Y-77978000D01*
X168910000Y-77978000D02*
X167640000Y-76708000D01*
X167640000Y-76708000D02*
X167640000Y-64262000D01*
X168910000Y-62992000D02*
X168910000Y-55372000D01*
X167640000Y-64262000D02*
X168910000Y-62992000D01*
X171450000Y-77978000D02*
X170180000Y-76708000D01*
X170180000Y-76708000D02*
X170180000Y-64262000D01*
X170180000Y-64262000D02*
X171450000Y-62992000D01*
X171450000Y-62992000D02*
X171450000Y-55372000D01*
X178054000Y-76962000D02*
X177800000Y-76708000D01*
X177800000Y-76708000D02*
X177800000Y-64135000D01*
X179070000Y-62865000D02*
X179070000Y-55372000D01*
X177800000Y-64135000D02*
X179070000Y-62865000D01*
X176530000Y-77978000D02*
X175260000Y-76708000D01*
X175260000Y-64262000D02*
X176530000Y-62992000D01*
X175260000Y-76708000D02*
X175260000Y-64262000D01*
X176530000Y-62992000D02*
X176530000Y-55372000D01*
X173990000Y-77978000D02*
X172720000Y-76708000D01*
X172720000Y-76708000D02*
X172720000Y-64262000D01*
X172720000Y-64262000D02*
X173990000Y-62992000D01*
X173990000Y-62992000D02*
X173990000Y-55372000D01*
X163830000Y-77978000D02*
X162560000Y-76708000D01*
X162560000Y-76708000D02*
X162560000Y-64262000D01*
X162560000Y-64262000D02*
X163830000Y-62992000D01*
X163830000Y-62992000D02*
X163830000Y-55372000D01*
X161290000Y-77978000D02*
X160020000Y-76708000D01*
X160020000Y-76708000D02*
X160020000Y-64262000D01*
X160020000Y-64262000D02*
X161290000Y-62992000D01*
X161290000Y-62992000D02*
X161290000Y-55372000D01*
X158750000Y-77978000D02*
X157480000Y-76708000D01*
X157480000Y-76708000D02*
X157480000Y-64262000D01*
X157480000Y-64262000D02*
X158750000Y-62992000D01*
X158750000Y-62992000D02*
X158750000Y-55372000D01*
X148590000Y-77978000D02*
X147320000Y-76708000D01*
X147320000Y-64262000D02*
X148590000Y-62992000D01*
X147320000Y-76708000D02*
X147320000Y-64262000D01*
X148590000Y-62992000D02*
X148590000Y-55372000D01*
X146050000Y-77978000D02*
X144780000Y-76708000D01*
X144780000Y-76708000D02*
X144780000Y-64262000D01*
X144780000Y-64262000D02*
X146050000Y-62992000D01*
X146050000Y-62992000D02*
X146050000Y-55372000D01*
X140970000Y-77978000D02*
X139700000Y-76708000D01*
X140970000Y-62865000D02*
X140970000Y-55372000D01*
X139700000Y-76708000D02*
X139700000Y-64135000D01*
X139700000Y-64135000D02*
X140970000Y-62865000D01*
X135890000Y-77978000D02*
X134620000Y-76708000D01*
X134620000Y-76708000D02*
X134620000Y-64262000D01*
X134620000Y-64262000D02*
X135890000Y-62992000D01*
X135890000Y-62992000D02*
X135890000Y-55372000D01*
X133350000Y-77978000D02*
X132080000Y-76708000D01*
X132080000Y-76708000D02*
X132080000Y-64262000D01*
X132080000Y-64262000D02*
X133350000Y-62992000D01*
X133350000Y-62992000D02*
X133350000Y-55372000D01*
X130810000Y-77978000D02*
X129540000Y-76708000D01*
X129540000Y-76708000D02*
X129540000Y-64135000D01*
X129540000Y-64135000D02*
X130810000Y-62865000D01*
X130810000Y-62865000D02*
X130810000Y-55372000D01*
X128270000Y-77978000D02*
X127000000Y-76708000D01*
X127000000Y-76708000D02*
X127000000Y-64135000D01*
X127000000Y-64135000D02*
X128270000Y-62865000D01*
X128270000Y-62865000D02*
X128270000Y-55372000D01*
X125730000Y-77978000D02*
X124460000Y-76708000D01*
X125730000Y-62865000D02*
X125730000Y-55372000D01*
X124460000Y-76708000D02*
X124460000Y-64135000D01*
X124460000Y-64135000D02*
X125730000Y-62865000D01*
X138430000Y-77978000D02*
X137205000Y-76753000D01*
X137205000Y-76753000D02*
X137205000Y-64090000D01*
X137205000Y-64090000D02*
X138430000Y-62865000D01*
X138430000Y-62865000D02*
X138430000Y-55372000D01*
X148590000Y-50292000D02*
X149765000Y-51467000D01*
X149765000Y-51467000D02*
X149765000Y-63087000D01*
X149765000Y-63087000D02*
X148590000Y-64262000D01*
X148590000Y-64262000D02*
X148590000Y-72898000D01*
X151130000Y-77978000D02*
X149860000Y-76708000D01*
X149860000Y-64262000D02*
X151130000Y-62992000D01*
X149860000Y-76708000D02*
X149860000Y-64262000D01*
X151130000Y-62992000D02*
X151130000Y-55372000D01*
X153670000Y-50292000D02*
X154845000Y-51467000D01*
X154845000Y-51467000D02*
X154845000Y-62833000D01*
X154845000Y-62833000D02*
X153670000Y-64008000D01*
X153670000Y-64008000D02*
X153670000Y-72898000D01*
X156210000Y-77978000D02*
X154940000Y-76708000D01*
X154940000Y-76708000D02*
X154940000Y-64262000D01*
X154940000Y-64262000D02*
X156210000Y-62992000D01*
X156210000Y-62992000D02*
X156210000Y-55372000D01*
X156210000Y-72898000D02*
X156210000Y-64262000D01*
X156210000Y-64262000D02*
X157480000Y-62992000D01*
X157480000Y-62992000D02*
X157480000Y-51562000D01*
X157480000Y-51562000D02*
X156210000Y-50292000D01*
X158750000Y-72898000D02*
X158750000Y-64262000D01*
X158750000Y-64262000D02*
X160020000Y-62992000D01*
X160020000Y-51562000D02*
X158750000Y-50292000D01*
X160020000Y-62992000D02*
X160020000Y-51562000D01*
X161290000Y-72898000D02*
X161290000Y-64262000D01*
X161290000Y-64262000D02*
X162560000Y-62992000D01*
X162560000Y-62992000D02*
X162560000Y-51562000D01*
X162560000Y-51562000D02*
X161290000Y-50292000D01*
X163830000Y-72898000D02*
X163830000Y-64167000D01*
X163830000Y-64167000D02*
X165100000Y-62897000D01*
X165100000Y-62897000D02*
X165100000Y-51562000D01*
X165100000Y-51562000D02*
X163830000Y-50292000D01*
X173990000Y-72898000D02*
X173990000Y-64008000D01*
X175165000Y-62833000D02*
X175165000Y-51467000D01*
X173990000Y-64008000D02*
X175165000Y-62833000D01*
X175165000Y-51467000D02*
X173990000Y-50292000D01*
X171450000Y-72898000D02*
X171450000Y-64262000D01*
X171450000Y-64262000D02*
X172720000Y-62992000D01*
X172720000Y-62992000D02*
X172720000Y-51562000D01*
X172720000Y-51562000D02*
X171450000Y-50292000D01*
X176530000Y-72898000D02*
X176530000Y-64262000D01*
X177800000Y-51562000D02*
X176530000Y-50292000D01*
X176530000Y-64262000D02*
X177800000Y-62992000D01*
X177800000Y-62992000D02*
X177800000Y-51562000D01*
X179070000Y-77978000D02*
X178054000Y-76962000D01*
D24*
X186182000Y-55372000D02*
X181610000Y-55372000D01*
D25*
X123190000Y-78232000D02*
X122936000Y-77978000D01*
X123190000Y-99060000D02*
X123190000Y-78232000D01*
X125730000Y-99060000D02*
X125730000Y-77978000D01*
X128270000Y-99060000D02*
X128270000Y-77978000D01*
X130810000Y-99060000D02*
X130810000Y-77978000D01*
X133350000Y-99060000D02*
X133350000Y-77978000D01*
X135890000Y-99060000D02*
X135890000Y-77978000D01*
X138430000Y-99060000D02*
X138430000Y-77978000D01*
X140970000Y-99060000D02*
X140970000Y-77978000D01*
X163830000Y-99060000D02*
X163830000Y-77978000D01*
X166370000Y-99060000D02*
X166370000Y-77978000D01*
D24*
X183642000Y-77978000D02*
X187706000Y-82042000D01*
X181864000Y-91948000D02*
X181610000Y-91694000D01*
X181610000Y-91694000D02*
X181610000Y-77978000D01*
X181610000Y-29220000D02*
X181600000Y-29210000D01*
X186182000Y-51816000D02*
X186182000Y-58420000D01*
X186182000Y-75438000D02*
X186182000Y-58420000D01*
X181864000Y-99060000D02*
X181864000Y-91948000D01*
X181610000Y-77978000D02*
X183642000Y-77978000D01*
X181600000Y-47234000D02*
X186182000Y-51816000D01*
X181600000Y-44450000D02*
X181600000Y-47234000D01*
X187706000Y-82042000D02*
X187706000Y-85384000D01*
X183642000Y-77978000D02*
X186182000Y-75438000D01*
X185674000Y-39330000D02*
X185634000Y-39330000D01*
D22*
X98987000Y-70285000D02*
X98987000Y-47191396D01*
X141518000Y-30480000D02*
X141478000Y-30520000D01*
X100458396Y-45720000D02*
X102108000Y-45720000D01*
X102402000Y-45426000D02*
X102402000Y-40894000D01*
X102108000Y-45720000D02*
X102402000Y-45426000D01*
X98987000Y-47191396D02*
X100458396Y-45720000D01*
X101092000Y-72390000D02*
X98987000Y-70285000D01*
X103866068Y-64770000D02*
X101092000Y-64770000D01*
D25*
X143510000Y-99060000D02*
X143510000Y-77978000D01*
X146050000Y-99060000D02*
X146050000Y-77724000D01*
X148590000Y-99060000D02*
X148590000Y-77978000D01*
X151130000Y-99060000D02*
X151130000Y-77978000D01*
X153670000Y-99060000D02*
X153670000Y-77978000D01*
X156210000Y-99060000D02*
X156210000Y-77978000D01*
D22*
X103416068Y-69850000D02*
X101092000Y-69850000D01*
D25*
X158750000Y-99060000D02*
X158750000Y-77978000D01*
X161290000Y-99060000D02*
X161290000Y-77978000D01*
X168910000Y-99060000D02*
X168910000Y-77978000D01*
X171450000Y-99060000D02*
X171450000Y-77978000D01*
X173990000Y-99060000D02*
X173990000Y-77978000D01*
X176530000Y-99060000D02*
X176530000Y-77978000D01*
X179070000Y-99060000D02*
X179070000Y-77978000D01*
D22*
X161280000Y-44450000D02*
X161280000Y-44460000D01*
X166360000Y-44450000D02*
X166360000Y-44460000D01*
X101092000Y-44450000D02*
X98537000Y-47005000D01*
X98537000Y-47005000D02*
X98537000Y-74661000D01*
X98537000Y-74661000D02*
X103632000Y-79756000D01*
G04 #@! TA.AperFunction,Conductor*
G36*
X99700310Y-46840105D02*
G01*
X99756244Y-46881976D01*
X99780661Y-46947441D01*
X99780505Y-46967091D01*
X99778502Y-46989993D01*
X99778502Y-46990001D01*
X99798456Y-47218081D01*
X99798457Y-47218089D01*
X99857714Y-47439238D01*
X99857718Y-47439249D01*
X99930501Y-47595332D01*
X99954477Y-47646749D01*
X100085802Y-47834300D01*
X100247700Y-47996198D01*
X100414507Y-48112998D01*
X100435251Y-48127523D01*
X100478345Y-48147618D01*
X100530784Y-48193791D01*
X100549936Y-48260984D01*
X100529720Y-48327865D01*
X100478345Y-48372382D01*
X100435251Y-48392476D01*
X100310126Y-48480090D01*
X100247700Y-48523802D01*
X100247698Y-48523803D01*
X100247695Y-48523806D01*
X100085806Y-48685695D01*
X99954476Y-48873252D01*
X99954475Y-48873254D01*
X99857718Y-49080750D01*
X99857714Y-49080761D01*
X99798457Y-49301910D01*
X99798456Y-49301918D01*
X99778502Y-49529998D01*
X99778502Y-49530001D01*
X99798456Y-49758081D01*
X99798457Y-49758089D01*
X99857714Y-49979238D01*
X99857718Y-49979249D01*
X99954475Y-50186745D01*
X99954477Y-50186749D01*
X100085802Y-50374300D01*
X100247700Y-50536198D01*
X100435251Y-50667523D01*
X100478345Y-50687618D01*
X100530784Y-50733791D01*
X100549936Y-50800984D01*
X100529720Y-50867865D01*
X100478345Y-50912382D01*
X100435251Y-50932476D01*
X100382265Y-50969578D01*
X100247700Y-51063802D01*
X100247698Y-51063803D01*
X100247695Y-51063806D01*
X100085806Y-51225695D01*
X99954476Y-51413252D01*
X99954475Y-51413254D01*
X99857718Y-51620750D01*
X99857714Y-51620761D01*
X99798457Y-51841910D01*
X99798456Y-51841918D01*
X99778502Y-52069998D01*
X99778502Y-52070001D01*
X99798456Y-52298081D01*
X99798457Y-52298089D01*
X99857714Y-52519238D01*
X99857718Y-52519249D01*
X99922090Y-52657295D01*
X99954477Y-52726749D01*
X100085802Y-52914300D01*
X100247700Y-53076198D01*
X100435251Y-53207523D01*
X100478345Y-53227618D01*
X100530784Y-53273791D01*
X100549936Y-53340984D01*
X100529720Y-53407865D01*
X100478345Y-53452382D01*
X100435251Y-53472476D01*
X100310126Y-53560090D01*
X100247700Y-53603802D01*
X100247698Y-53603803D01*
X100247695Y-53603806D01*
X100085806Y-53765695D01*
X100085803Y-53765698D01*
X100085802Y-53765700D01*
X100051568Y-53814591D01*
X99954476Y-53953252D01*
X99954475Y-53953254D01*
X99857718Y-54160750D01*
X99857714Y-54160761D01*
X99798457Y-54381910D01*
X99798456Y-54381918D01*
X99778502Y-54609998D01*
X99778502Y-54610001D01*
X99798456Y-54838081D01*
X99798457Y-54838089D01*
X99857714Y-55059238D01*
X99857718Y-55059249D01*
X99943596Y-55243414D01*
X99954477Y-55266749D01*
X100085802Y-55454300D01*
X100247700Y-55616198D01*
X100429576Y-55743549D01*
X100435251Y-55747523D01*
X100478345Y-55767618D01*
X100530784Y-55813791D01*
X100549936Y-55880984D01*
X100529720Y-55947865D01*
X100478345Y-55992382D01*
X100435251Y-56012476D01*
X100310126Y-56100090D01*
X100247700Y-56143802D01*
X100247698Y-56143803D01*
X100247695Y-56143806D01*
X100085806Y-56305695D01*
X100085803Y-56305698D01*
X100085802Y-56305700D01*
X100037343Y-56374907D01*
X99954476Y-56493252D01*
X99954475Y-56493254D01*
X99857718Y-56700750D01*
X99857714Y-56700761D01*
X99798457Y-56921910D01*
X99798456Y-56921918D01*
X99778502Y-57149998D01*
X99778502Y-57150001D01*
X99798456Y-57378081D01*
X99798457Y-57378089D01*
X99857714Y-57599238D01*
X99857718Y-57599249D01*
X99954475Y-57806745D01*
X99954477Y-57806749D01*
X100085802Y-57994300D01*
X100247700Y-58156198D01*
X100435251Y-58287523D01*
X100478345Y-58307618D01*
X100530784Y-58353791D01*
X100549936Y-58420984D01*
X100529720Y-58487865D01*
X100478345Y-58532382D01*
X100435251Y-58552476D01*
X100322435Y-58631472D01*
X100247700Y-58683802D01*
X100247698Y-58683803D01*
X100247695Y-58683806D01*
X100085806Y-58845695D01*
X100085803Y-58845698D01*
X100085802Y-58845700D01*
X100003767Y-58962856D01*
X99954476Y-59033252D01*
X99954475Y-59033254D01*
X99857718Y-59240750D01*
X99857714Y-59240761D01*
X99798457Y-59461910D01*
X99798456Y-59461918D01*
X99778502Y-59689998D01*
X99778502Y-59690001D01*
X99798456Y-59918081D01*
X99798457Y-59918089D01*
X99857714Y-60139238D01*
X99857718Y-60139249D01*
X99954475Y-60346745D01*
X99954477Y-60346749D01*
X100085802Y-60534300D01*
X100247700Y-60696198D01*
X100397664Y-60801204D01*
X100435251Y-60827523D01*
X100478345Y-60847618D01*
X100530784Y-60893791D01*
X100549936Y-60960984D01*
X100529720Y-61027865D01*
X100478345Y-61072382D01*
X100435251Y-61092476D01*
X100369192Y-61138732D01*
X100247700Y-61223802D01*
X100247698Y-61223803D01*
X100247695Y-61223806D01*
X100085806Y-61385695D01*
X99954476Y-61573252D01*
X99954475Y-61573254D01*
X99857718Y-61780750D01*
X99857714Y-61780761D01*
X99798457Y-62001910D01*
X99798456Y-62001918D01*
X99778502Y-62229998D01*
X99778502Y-62230001D01*
X99798456Y-62458081D01*
X99798457Y-62458089D01*
X99857714Y-62679238D01*
X99857718Y-62679249D01*
X99908363Y-62787857D01*
X99954477Y-62886749D01*
X100085802Y-63074300D01*
X100247700Y-63236198D01*
X100429076Y-63363199D01*
X100435251Y-63367523D01*
X100478345Y-63387618D01*
X100530784Y-63433791D01*
X100549936Y-63500984D01*
X100529720Y-63567865D01*
X100478345Y-63612382D01*
X100435251Y-63632476D01*
X100310126Y-63720090D01*
X100247700Y-63763802D01*
X100247698Y-63763803D01*
X100247695Y-63763806D01*
X100085806Y-63925695D01*
X100085803Y-63925698D01*
X100085802Y-63925700D01*
X100026877Y-64009854D01*
X99954476Y-64113252D01*
X99954475Y-64113254D01*
X99857718Y-64320750D01*
X99857714Y-64320761D01*
X99798457Y-64541910D01*
X99798456Y-64541918D01*
X99778502Y-64769998D01*
X99778502Y-64770001D01*
X99798456Y-64998081D01*
X99798457Y-64998089D01*
X99857714Y-65219238D01*
X99857718Y-65219249D01*
X99948837Y-65414654D01*
X99954477Y-65426749D01*
X100085802Y-65614300D01*
X100247700Y-65776198D01*
X100418499Y-65895793D01*
X100435251Y-65907523D01*
X100478345Y-65927618D01*
X100530784Y-65973791D01*
X100549936Y-66040984D01*
X100529720Y-66107865D01*
X100478345Y-66152382D01*
X100435251Y-66172476D01*
X100310126Y-66260090D01*
X100247700Y-66303802D01*
X100247698Y-66303803D01*
X100247695Y-66303806D01*
X100085806Y-66465695D01*
X100085803Y-66465698D01*
X100085802Y-66465700D01*
X100006890Y-66578398D01*
X99954476Y-66653252D01*
X99954475Y-66653254D01*
X99857718Y-66860750D01*
X99857714Y-66860761D01*
X99798457Y-67081910D01*
X99798456Y-67081918D01*
X99778502Y-67309998D01*
X99778502Y-67310001D01*
X99798456Y-67538081D01*
X99798457Y-67538089D01*
X99857714Y-67759238D01*
X99857718Y-67759249D01*
X99952815Y-67963185D01*
X99954477Y-67966749D01*
X100085802Y-68154300D01*
X100247700Y-68316198D01*
X100418499Y-68435793D01*
X100435251Y-68447523D01*
X100478345Y-68467618D01*
X100530784Y-68513791D01*
X100549936Y-68580984D01*
X100529720Y-68647865D01*
X100478345Y-68692382D01*
X100435251Y-68712476D01*
X100388089Y-68745500D01*
X100247700Y-68843802D01*
X100247698Y-68843803D01*
X100247695Y-68843806D01*
X100085806Y-69005695D01*
X100085803Y-69005698D01*
X100085802Y-69005700D01*
X100048563Y-69058883D01*
X99954476Y-69193252D01*
X99954475Y-69193254D01*
X99857718Y-69400750D01*
X99857714Y-69400761D01*
X99798457Y-69621910D01*
X99798456Y-69621918D01*
X99778502Y-69849998D01*
X99778502Y-69850001D01*
X99798456Y-70078081D01*
X99798457Y-70078089D01*
X99857714Y-70299238D01*
X99857718Y-70299249D01*
X99952815Y-70503185D01*
X99954477Y-70506749D01*
X100085802Y-70694300D01*
X100247700Y-70856198D01*
X100435251Y-70987523D01*
X100467249Y-71002444D01*
X100488401Y-71012307D01*
X100540840Y-71058479D01*
X100559992Y-71125673D01*
X100539776Y-71192554D01*
X100488401Y-71237071D01*
X100439517Y-71259865D01*
X100253179Y-71390342D01*
X100092342Y-71551179D01*
X99961865Y-71737517D01*
X99865734Y-71943673D01*
X99865730Y-71943682D01*
X99813127Y-72139999D01*
X99813128Y-72140000D01*
X100776314Y-72140000D01*
X100764359Y-72151955D01*
X100706835Y-72264852D01*
X100687014Y-72390000D01*
X100706835Y-72515148D01*
X100764359Y-72628045D01*
X100776314Y-72640000D01*
X99813128Y-72640000D01*
X99865730Y-72836317D01*
X99865734Y-72836326D01*
X99961865Y-73042482D01*
X100092342Y-73228820D01*
X100253179Y-73389657D01*
X100439517Y-73520134D01*
X100645673Y-73616265D01*
X100645682Y-73616269D01*
X100841999Y-73668872D01*
X100842000Y-73668871D01*
X100842000Y-72705686D01*
X100853955Y-72717641D01*
X100966852Y-72775165D01*
X101060519Y-72790000D01*
X101123481Y-72790000D01*
X101217148Y-72775165D01*
X101330045Y-72717641D01*
X101342000Y-72705686D01*
X101342000Y-73668872D01*
X101538317Y-73616269D01*
X101538326Y-73616265D01*
X101744482Y-73520134D01*
X101930820Y-73389657D01*
X102091657Y-73228820D01*
X102222134Y-73042482D01*
X102318265Y-72836326D01*
X102318269Y-72836317D01*
X102370872Y-72640000D01*
X101407686Y-72640000D01*
X101419641Y-72628045D01*
X101477165Y-72515148D01*
X101496986Y-72390000D01*
X101477165Y-72264852D01*
X101419641Y-72151955D01*
X101407686Y-72140000D01*
X102370872Y-72140000D01*
X102370872Y-72139999D01*
X102318269Y-71943682D01*
X102318265Y-71943673D01*
X102222134Y-71737517D01*
X102091657Y-71551179D01*
X101930820Y-71390342D01*
X101744481Y-71259865D01*
X101744479Y-71259864D01*
X101695599Y-71237071D01*
X101643159Y-71190899D01*
X101624007Y-71123706D01*
X101644223Y-71056824D01*
X101695599Y-71012307D01*
X101748749Y-70987523D01*
X101936300Y-70856198D01*
X102098198Y-70694300D01*
X102208779Y-70536374D01*
X102263354Y-70492751D01*
X102310352Y-70483500D01*
X102708759Y-70483500D01*
X102775798Y-70503185D01*
X102800908Y-70524527D01*
X102804959Y-70529026D01*
X102835189Y-70592017D01*
X102826565Y-70661353D01*
X102804961Y-70694971D01*
X102733316Y-70774541D01*
X102677028Y-70837056D01*
X102677026Y-70837057D01*
X102677025Y-70837060D01*
X102581541Y-71002443D01*
X102581538Y-71002450D01*
X102529211Y-71163498D01*
X102522526Y-71184072D01*
X102502564Y-71374000D01*
X102522526Y-71563928D01*
X102522527Y-71563931D01*
X102581538Y-71745549D01*
X102581541Y-71745556D01*
X102677028Y-71910944D01*
X102804815Y-72052866D01*
X102959316Y-72165118D01*
X103133780Y-72242794D01*
X103320581Y-72282500D01*
X103511555Y-72282500D01*
X103698356Y-72242794D01*
X103872820Y-72165118D01*
X104027321Y-72052866D01*
X104052350Y-72025068D01*
X104111836Y-71988420D01*
X104181693Y-71989749D01*
X104239741Y-72028635D01*
X104267551Y-72092732D01*
X104268500Y-72108040D01*
X104268500Y-78364513D01*
X104248815Y-78431552D01*
X104196011Y-78477307D01*
X104126853Y-78487251D01*
X104104237Y-78481794D01*
X103966637Y-78434556D01*
X103744569Y-78397500D01*
X103519431Y-78397500D01*
X103297358Y-78434556D01*
X103293115Y-78435631D01*
X103223295Y-78432998D01*
X103175007Y-78403103D01*
X101192495Y-76420591D01*
X99206819Y-74434914D01*
X99173334Y-74373591D01*
X99170500Y-74347233D01*
X99170500Y-47318765D01*
X99190185Y-47251726D01*
X99206815Y-47231088D01*
X99569299Y-46868604D01*
X99630619Y-46835121D01*
X99700310Y-46840105D01*
G37*
G04 #@! TD.AperFunction*
G04 #@! TA.AperFunction,Conductor*
G36*
X147314811Y-28593185D02*
G01*
X147360566Y-28645989D01*
X147370510Y-28715147D01*
X147360155Y-28749904D01*
X147353732Y-28763677D01*
X147353730Y-28763682D01*
X147301127Y-28959999D01*
X147301128Y-28960000D01*
X148264314Y-28960000D01*
X148252359Y-28971955D01*
X148194835Y-29084852D01*
X148175014Y-29210000D01*
X148194835Y-29335148D01*
X148252359Y-29448045D01*
X148264314Y-29460000D01*
X147301128Y-29460000D01*
X147353730Y-29656317D01*
X147353734Y-29656326D01*
X147449865Y-29862482D01*
X147580342Y-30048820D01*
X147741179Y-30209657D01*
X147927517Y-30340134D01*
X148133673Y-30436265D01*
X148133682Y-30436269D01*
X148329999Y-30488872D01*
X148330000Y-30488871D01*
X148330000Y-29525686D01*
X148341955Y-29537641D01*
X148454852Y-29595165D01*
X148548519Y-29610000D01*
X148611481Y-29610000D01*
X148705148Y-29595165D01*
X148818045Y-29537641D01*
X148830000Y-29525686D01*
X148830000Y-30488872D01*
X149026317Y-30436269D01*
X149026326Y-30436265D01*
X149232482Y-30340134D01*
X149418820Y-30209657D01*
X149579657Y-30048820D01*
X149710133Y-29862483D01*
X149732927Y-29813600D01*
X149779098Y-29761160D01*
X149846292Y-29742007D01*
X149913173Y-29762221D01*
X149957691Y-29813596D01*
X149982477Y-29866749D01*
X150113802Y-30054300D01*
X150275700Y-30216198D01*
X150463251Y-30347523D01*
X150518445Y-30373260D01*
X150670750Y-30444281D01*
X150670752Y-30444281D01*
X150670757Y-30444284D01*
X150891913Y-30503543D01*
X151120000Y-30523498D01*
X151164820Y-30519576D01*
X151233318Y-30533342D01*
X151283502Y-30581956D01*
X151299436Y-30649984D01*
X151276062Y-30715828D01*
X151263308Y-30730785D01*
X149897914Y-32096181D01*
X149836591Y-32129666D01*
X149810233Y-32132500D01*
X138814172Y-32132500D01*
X138747133Y-32112815D01*
X138726491Y-32096181D01*
X137360491Y-30730181D01*
X137327006Y-30668858D01*
X137331990Y-30599166D01*
X137373862Y-30543233D01*
X137436146Y-30520002D01*
X140173034Y-30520002D01*
X140192858Y-30746599D01*
X140192860Y-30746610D01*
X140251730Y-30966317D01*
X140251734Y-30966326D01*
X140347865Y-31172481D01*
X140347866Y-31172483D01*
X140398973Y-31245471D01*
X140398974Y-31245472D01*
X141080046Y-30564399D01*
X141092835Y-30645148D01*
X141150359Y-30758045D01*
X141239955Y-30847641D01*
X141352852Y-30905165D01*
X141433599Y-30917953D01*
X140752526Y-31599025D01*
X140752526Y-31599026D01*
X140825512Y-31650131D01*
X140825516Y-31650133D01*
X141031673Y-31746265D01*
X141031682Y-31746269D01*
X141251389Y-31805139D01*
X141251400Y-31805141D01*
X141477998Y-31824966D01*
X141478002Y-31824966D01*
X141704599Y-31805141D01*
X141704610Y-31805139D01*
X141924317Y-31746269D01*
X141924331Y-31746264D01*
X142130478Y-31650136D01*
X142203472Y-31599025D01*
X141522401Y-30917953D01*
X141603148Y-30905165D01*
X141716045Y-30847641D01*
X141805641Y-30758045D01*
X141863165Y-30645148D01*
X141875953Y-30564400D01*
X142557025Y-31245472D01*
X142608136Y-31172478D01*
X142704264Y-30966331D01*
X142704269Y-30966317D01*
X142763139Y-30746610D01*
X142763141Y-30746599D01*
X142782966Y-30520002D01*
X142782966Y-30519997D01*
X142763141Y-30293400D01*
X142763139Y-30293389D01*
X142704269Y-30073682D01*
X142704265Y-30073673D01*
X142608133Y-29867516D01*
X142608131Y-29867512D01*
X142557026Y-29794526D01*
X142557025Y-29794526D01*
X141875953Y-30475598D01*
X141863165Y-30394852D01*
X141805641Y-30281955D01*
X141716045Y-30192359D01*
X141603148Y-30134835D01*
X141522400Y-30122046D01*
X142203472Y-29440974D01*
X142203471Y-29440973D01*
X142130483Y-29389866D01*
X142130481Y-29389865D01*
X141924326Y-29293734D01*
X141924317Y-29293730D01*
X141704610Y-29234860D01*
X141704599Y-29234858D01*
X141478002Y-29215034D01*
X141477998Y-29215034D01*
X141251400Y-29234858D01*
X141251389Y-29234860D01*
X141031682Y-29293730D01*
X141031673Y-29293734D01*
X140825513Y-29389868D01*
X140752527Y-29440972D01*
X140752526Y-29440973D01*
X141433600Y-30122046D01*
X141352852Y-30134835D01*
X141239955Y-30192359D01*
X141150359Y-30281955D01*
X141092835Y-30394852D01*
X141080046Y-30475599D01*
X140398973Y-29794526D01*
X140398972Y-29794527D01*
X140347868Y-29867513D01*
X140251734Y-30073673D01*
X140251730Y-30073682D01*
X140192860Y-30293389D01*
X140192858Y-30293400D01*
X140173034Y-30519997D01*
X140173034Y-30520002D01*
X137436146Y-30520002D01*
X137439326Y-30518816D01*
X137448172Y-30518500D01*
X138516638Y-30518500D01*
X138516654Y-30518499D01*
X138543692Y-30515591D01*
X138577201Y-30511989D01*
X138580132Y-30510896D01*
X138599851Y-30503541D01*
X138714204Y-30460889D01*
X138831261Y-30373261D01*
X138918889Y-30256204D01*
X138969989Y-30119201D01*
X138974884Y-30073673D01*
X138976499Y-30058654D01*
X138976500Y-30058637D01*
X138976500Y-28697500D01*
X138996185Y-28630461D01*
X139048989Y-28584706D01*
X139100500Y-28573500D01*
X147247772Y-28573500D01*
X147314811Y-28593185D01*
G37*
G04 #@! TD.AperFunction*
G04 #@! TA.AperFunction,Conductor*
G36*
X191967039Y-26435685D02*
G01*
X192012794Y-26488489D01*
X192024000Y-26540000D01*
X192024000Y-93094000D01*
X192004315Y-93161039D01*
X191951511Y-93206794D01*
X191900000Y-93218000D01*
X182871500Y-93218000D01*
X182804461Y-93198315D01*
X182758706Y-93145511D01*
X182747500Y-93094000D01*
X182747500Y-92027289D01*
X182749027Y-92007888D01*
X182751149Y-91994493D01*
X182747584Y-91926481D01*
X182747500Y-91923238D01*
X182747500Y-91901693D01*
X182745248Y-91880277D01*
X182744993Y-91877037D01*
X182742684Y-91832974D01*
X182741430Y-91809029D01*
X182737918Y-91795921D01*
X182734372Y-91776795D01*
X182732954Y-91763298D01*
X182711906Y-91698520D01*
X182710993Y-91695441D01*
X182693362Y-91629637D01*
X182687199Y-91617542D01*
X182679755Y-91599569D01*
X182677626Y-91593017D01*
X182675564Y-91586669D01*
X182641505Y-91527678D01*
X182639956Y-91524824D01*
X182638320Y-91521614D01*
X182609047Y-91464161D01*
X182600508Y-91453617D01*
X182589491Y-91437587D01*
X182582704Y-91425831D01*
X182537137Y-91375223D01*
X182535029Y-91372755D01*
X182521134Y-91355596D01*
X182494242Y-91291109D01*
X182493500Y-91277560D01*
X182493500Y-79071880D01*
X182513185Y-79004841D01*
X182529972Y-78984867D01*
X182529767Y-78984678D01*
X182533237Y-78980907D01*
X182533240Y-78980906D01*
X182606324Y-78901515D01*
X182666211Y-78865526D01*
X182697553Y-78861500D01*
X183224680Y-78861500D01*
X183291719Y-78881185D01*
X183312361Y-78897819D01*
X186786181Y-82371638D01*
X186819666Y-82432961D01*
X186822500Y-82459319D01*
X186822500Y-83986330D01*
X186802815Y-84053369D01*
X186750011Y-84099124D01*
X186741835Y-84102511D01*
X186659795Y-84133111D01*
X186542739Y-84220739D01*
X186455111Y-84337795D01*
X186404011Y-84474795D01*
X186404011Y-84474797D01*
X186397500Y-84535345D01*
X186397500Y-86232654D01*
X186404011Y-86293202D01*
X186404011Y-86293204D01*
X186439774Y-86389084D01*
X186455111Y-86430204D01*
X186542739Y-86547261D01*
X186659796Y-86634889D01*
X186796799Y-86685989D01*
X186824050Y-86688918D01*
X186857345Y-86692499D01*
X186857360Y-86692499D01*
X186857362Y-86692500D01*
X186857364Y-86692500D01*
X186860669Y-86692677D01*
X186860659Y-86692855D01*
X186860665Y-86692856D01*
X186860653Y-86692959D01*
X186860591Y-86694128D01*
X186922084Y-86712185D01*
X186967839Y-86764989D01*
X186973518Y-86797965D01*
X187661600Y-87486046D01*
X187580852Y-87498835D01*
X187467955Y-87556359D01*
X187378359Y-87645955D01*
X187320835Y-87758852D01*
X187308046Y-87839599D01*
X186626973Y-87158526D01*
X186626972Y-87158527D01*
X186575868Y-87231513D01*
X186479734Y-87437673D01*
X186479730Y-87437682D01*
X186420860Y-87657389D01*
X186420858Y-87657400D01*
X186401034Y-87883997D01*
X186401034Y-87884002D01*
X186420858Y-88110599D01*
X186420860Y-88110610D01*
X186479730Y-88330317D01*
X186479734Y-88330326D01*
X186575865Y-88536481D01*
X186575866Y-88536483D01*
X186626973Y-88609471D01*
X186626974Y-88609472D01*
X187308046Y-87928399D01*
X187320835Y-88009148D01*
X187378359Y-88122045D01*
X187467955Y-88211641D01*
X187580852Y-88269165D01*
X187661599Y-88281953D01*
X186980526Y-88963025D01*
X186980526Y-88963026D01*
X187053512Y-89014131D01*
X187053516Y-89014133D01*
X187259673Y-89110265D01*
X187259682Y-89110269D01*
X187479389Y-89169139D01*
X187479400Y-89169141D01*
X187705998Y-89188966D01*
X187706002Y-89188966D01*
X187932599Y-89169141D01*
X187932610Y-89169139D01*
X188152317Y-89110269D01*
X188152331Y-89110264D01*
X188358478Y-89014136D01*
X188431472Y-88963025D01*
X187750401Y-88281953D01*
X187831148Y-88269165D01*
X187944045Y-88211641D01*
X188033641Y-88122045D01*
X188091165Y-88009148D01*
X188103953Y-87928400D01*
X188785025Y-88609472D01*
X188836136Y-88536478D01*
X188932264Y-88330331D01*
X188932269Y-88330317D01*
X188991139Y-88110610D01*
X188991141Y-88110599D01*
X189010966Y-87884002D01*
X189010966Y-87883997D01*
X188991141Y-87657400D01*
X188991139Y-87657389D01*
X188932269Y-87437682D01*
X188932265Y-87437673D01*
X188836133Y-87231516D01*
X188836131Y-87231512D01*
X188785026Y-87158526D01*
X188785025Y-87158526D01*
X188103953Y-87839598D01*
X188091165Y-87758852D01*
X188033641Y-87645955D01*
X187944045Y-87556359D01*
X187831148Y-87498835D01*
X187750400Y-87486046D01*
X188439534Y-86796911D01*
X188447192Y-86758809D01*
X188495807Y-86708625D01*
X188551399Y-86693964D01*
X188551346Y-86692959D01*
X188551335Y-86692856D01*
X188551340Y-86692855D01*
X188551331Y-86692677D01*
X188554635Y-86692500D01*
X188554638Y-86692500D01*
X188554640Y-86692499D01*
X188554654Y-86692499D01*
X188581692Y-86689591D01*
X188615201Y-86685989D01*
X188752204Y-86634889D01*
X188869261Y-86547261D01*
X188956889Y-86430204D01*
X189007989Y-86293201D01*
X189013096Y-86245698D01*
X189014499Y-86232654D01*
X189014500Y-86232637D01*
X189014500Y-84535362D01*
X189014499Y-84535345D01*
X189010193Y-84495299D01*
X189007989Y-84474799D01*
X188956889Y-84337796D01*
X188869261Y-84220739D01*
X188752204Y-84133111D01*
X188670165Y-84102511D01*
X188614232Y-84060639D01*
X188589816Y-83995174D01*
X188589500Y-83986330D01*
X188589500Y-82121295D01*
X188591027Y-82101894D01*
X188593150Y-82088493D01*
X188589585Y-82020469D01*
X188589500Y-82017224D01*
X188589500Y-81995694D01*
X188587246Y-81974261D01*
X188586994Y-81971048D01*
X188584055Y-81914968D01*
X188583430Y-81903029D01*
X188582392Y-81899157D01*
X188579918Y-81889921D01*
X188576372Y-81870795D01*
X188574954Y-81857298D01*
X188553906Y-81792520D01*
X188552993Y-81789441D01*
X188535362Y-81723637D01*
X188529199Y-81711542D01*
X188521755Y-81693569D01*
X188517564Y-81680669D01*
X188483505Y-81621678D01*
X188481956Y-81618824D01*
X188451047Y-81558161D01*
X188442510Y-81547619D01*
X188431491Y-81531587D01*
X188424704Y-81519831D01*
X188399512Y-81491853D01*
X188379117Y-81469201D01*
X188377007Y-81466730D01*
X188363473Y-81450016D01*
X188348252Y-81434795D01*
X188346016Y-81432439D01*
X188300434Y-81381815D01*
X188289448Y-81373833D01*
X188274654Y-81361197D01*
X184979138Y-78065681D01*
X184945653Y-78004358D01*
X184950637Y-77934666D01*
X184979138Y-77890319D01*
X185814973Y-77054484D01*
X186750662Y-76118794D01*
X186765450Y-76106164D01*
X186776434Y-76098185D01*
X186822013Y-76047562D01*
X186824216Y-76045240D01*
X186839472Y-76029986D01*
X186853036Y-76013233D01*
X186855132Y-76010780D01*
X186900704Y-75960169D01*
X186907484Y-75948424D01*
X186918509Y-75932381D01*
X186927047Y-75921840D01*
X186957969Y-75861150D01*
X186959490Y-75858347D01*
X186993564Y-75799331D01*
X186997755Y-75786428D01*
X187005201Y-75768452D01*
X187011362Y-75756363D01*
X187028990Y-75690570D01*
X187029899Y-75687499D01*
X187050954Y-75622702D01*
X187052372Y-75609200D01*
X187055916Y-75590079D01*
X187059429Y-75576972D01*
X187062992Y-75508962D01*
X187063245Y-75505753D01*
X187065500Y-75484306D01*
X187065500Y-75462755D01*
X187065585Y-75459509D01*
X187066423Y-75443517D01*
X187069149Y-75391507D01*
X187067027Y-75378109D01*
X187065500Y-75358710D01*
X187065500Y-70104005D01*
X187358844Y-70104005D01*
X187377434Y-70328359D01*
X187377436Y-70328371D01*
X187432703Y-70546614D01*
X187523140Y-70752792D01*
X187646276Y-70941265D01*
X187646284Y-70941276D01*
X187791489Y-71099008D01*
X187822412Y-71161662D01*
X187814552Y-71231088D01*
X187770405Y-71285244D01*
X187743596Y-71299172D01*
X187625794Y-71343111D01*
X187508739Y-71430739D01*
X187421111Y-71547795D01*
X187370011Y-71684795D01*
X187370011Y-71684797D01*
X187363500Y-71745345D01*
X187363500Y-73542654D01*
X187370011Y-73603202D01*
X187370011Y-73603204D01*
X187419270Y-73735268D01*
X187421111Y-73740204D01*
X187508739Y-73857261D01*
X187625796Y-73944889D01*
X187762799Y-73995989D01*
X187790050Y-73998918D01*
X187823345Y-74002499D01*
X187823362Y-74002500D01*
X189620638Y-74002500D01*
X189620654Y-74002499D01*
X189647692Y-73999591D01*
X189681201Y-73995989D01*
X189818204Y-73944889D01*
X189935261Y-73857261D01*
X190022889Y-73740204D01*
X190073989Y-73603201D01*
X190080054Y-73546791D01*
X190080499Y-73542654D01*
X190080500Y-73542637D01*
X190080500Y-71745362D01*
X190080499Y-71745345D01*
X190075578Y-71699582D01*
X190073989Y-71684799D01*
X190072983Y-71682102D01*
X190050666Y-71622269D01*
X190022889Y-71547796D01*
X189935261Y-71430739D01*
X189818204Y-71343111D01*
X189700404Y-71299172D01*
X189644471Y-71257300D01*
X189620055Y-71191835D01*
X189634908Y-71123562D01*
X189652504Y-71099014D01*
X189797722Y-70941268D01*
X189920860Y-70752791D01*
X190011296Y-70546616D01*
X190066564Y-70328368D01*
X190068977Y-70299249D01*
X190085156Y-70104005D01*
X190085156Y-70103994D01*
X190066565Y-69879640D01*
X190066563Y-69879628D01*
X190011296Y-69661385D01*
X189993984Y-69621918D01*
X189920860Y-69455209D01*
X189885287Y-69400761D01*
X189797723Y-69266734D01*
X189797715Y-69266723D01*
X189645243Y-69101097D01*
X189645238Y-69101092D01*
X189522673Y-69005695D01*
X189467576Y-68962811D01*
X189467575Y-68962810D01*
X189467572Y-68962808D01*
X189269580Y-68855661D01*
X189269577Y-68855659D01*
X189269574Y-68855658D01*
X189269571Y-68855657D01*
X189269569Y-68855656D01*
X189056637Y-68782556D01*
X188834569Y-68745500D01*
X188609431Y-68745500D01*
X188387362Y-68782556D01*
X188174430Y-68855656D01*
X188174419Y-68855661D01*
X187976427Y-68962808D01*
X187976422Y-68962812D01*
X187798761Y-69101092D01*
X187798756Y-69101097D01*
X187646284Y-69266723D01*
X187646276Y-69266734D01*
X187523140Y-69455207D01*
X187432703Y-69661385D01*
X187377436Y-69879628D01*
X187377434Y-69879640D01*
X187358844Y-70103994D01*
X187358844Y-70104005D01*
X187065500Y-70104005D01*
X187065500Y-61976005D01*
X187358844Y-61976005D01*
X187377434Y-62200359D01*
X187377436Y-62200371D01*
X187432703Y-62418614D01*
X187523140Y-62624792D01*
X187646276Y-62813265D01*
X187646284Y-62813276D01*
X187791489Y-62971008D01*
X187822412Y-63033662D01*
X187814552Y-63103088D01*
X187770405Y-63157244D01*
X187743596Y-63171172D01*
X187625794Y-63215111D01*
X187508739Y-63302739D01*
X187421111Y-63419795D01*
X187370011Y-63556795D01*
X187370011Y-63556797D01*
X187363500Y-63617345D01*
X187363500Y-65414654D01*
X187370011Y-65475202D01*
X187370011Y-65475204D01*
X187411077Y-65585302D01*
X187421111Y-65612204D01*
X187508739Y-65729261D01*
X187625796Y-65816889D01*
X187762799Y-65867989D01*
X187790050Y-65870918D01*
X187823345Y-65874499D01*
X187823362Y-65874500D01*
X189620638Y-65874500D01*
X189620654Y-65874499D01*
X189647692Y-65871591D01*
X189681201Y-65867989D01*
X189818204Y-65816889D01*
X189935261Y-65729261D01*
X190022889Y-65612204D01*
X190073989Y-65475201D01*
X190079198Y-65426749D01*
X190080499Y-65414654D01*
X190080500Y-65414637D01*
X190080500Y-63617362D01*
X190080499Y-63617345D01*
X190077157Y-63586270D01*
X190073989Y-63556799D01*
X190066125Y-63535716D01*
X190039482Y-63464284D01*
X190022889Y-63419796D01*
X189935261Y-63302739D01*
X189818204Y-63215111D01*
X189700404Y-63171172D01*
X189644471Y-63129300D01*
X189620055Y-63063835D01*
X189634908Y-62995562D01*
X189652504Y-62971014D01*
X189797722Y-62813268D01*
X189920860Y-62624791D01*
X190011296Y-62418616D01*
X190066564Y-62200368D01*
X190066749Y-62198135D01*
X190085156Y-61976005D01*
X190085156Y-61975994D01*
X190066565Y-61751640D01*
X190066563Y-61751628D01*
X190047268Y-61675433D01*
X190011296Y-61533384D01*
X189920860Y-61327209D01*
X189868723Y-61247408D01*
X189828659Y-61186085D01*
X189797722Y-61138732D01*
X189797719Y-61138729D01*
X189797715Y-61138723D01*
X189645243Y-60973097D01*
X189645238Y-60973092D01*
X189500081Y-60860111D01*
X189467576Y-60834811D01*
X189467575Y-60834810D01*
X189467572Y-60834808D01*
X189269580Y-60727661D01*
X189269577Y-60727659D01*
X189269574Y-60727658D01*
X189269571Y-60727657D01*
X189269569Y-60727656D01*
X189056637Y-60654556D01*
X188834569Y-60617500D01*
X188609431Y-60617500D01*
X188387362Y-60654556D01*
X188174430Y-60727656D01*
X188174419Y-60727661D01*
X187976427Y-60834808D01*
X187976422Y-60834812D01*
X187798761Y-60973092D01*
X187798756Y-60973097D01*
X187646284Y-61138723D01*
X187646276Y-61138734D01*
X187523140Y-61327207D01*
X187432703Y-61533385D01*
X187377436Y-61751628D01*
X187377434Y-61751640D01*
X187358844Y-61975994D01*
X187358844Y-61976005D01*
X187065500Y-61976005D01*
X187065500Y-51895295D01*
X187067027Y-51875894D01*
X187069150Y-51862493D01*
X187065585Y-51794469D01*
X187065500Y-51791224D01*
X187065500Y-51769694D01*
X187063246Y-51748261D01*
X187062994Y-51745048D01*
X187062174Y-51729404D01*
X187059430Y-51677029D01*
X187055918Y-51663921D01*
X187052372Y-51644795D01*
X187050954Y-51631298D01*
X187029899Y-51566501D01*
X187028985Y-51563411D01*
X187011362Y-51497638D01*
X187005202Y-51485550D01*
X186997754Y-51467567D01*
X186995981Y-51462110D01*
X186993564Y-51454669D01*
X186959494Y-51395658D01*
X186957975Y-51392860D01*
X186927048Y-51332161D01*
X186918507Y-51321614D01*
X186907482Y-51305572D01*
X186900704Y-51293831D01*
X186890443Y-51282435D01*
X186855121Y-51243206D01*
X186853038Y-51240768D01*
X186839472Y-51224015D01*
X186824251Y-51208794D01*
X186822016Y-51206439D01*
X186776434Y-51155815D01*
X186765448Y-51147833D01*
X186750654Y-51135197D01*
X182519819Y-46904361D01*
X182486334Y-46843038D01*
X182483500Y-46816680D01*
X182483500Y-45468360D01*
X182503185Y-45401321D01*
X182519819Y-45380679D01*
X182530679Y-45369819D01*
X182592002Y-45336334D01*
X182618360Y-45333500D01*
X184578704Y-45333500D01*
X184598103Y-45335026D01*
X184611507Y-45337150D01*
X184679530Y-45333584D01*
X184682774Y-45333500D01*
X184704306Y-45333500D01*
X184725734Y-45331247D01*
X184728943Y-45330994D01*
X184796971Y-45327430D01*
X184810073Y-45323918D01*
X184829211Y-45320372D01*
X184835036Y-45319759D01*
X184842702Y-45318954D01*
X184892104Y-45302901D01*
X184907479Y-45297906D01*
X184910563Y-45296991D01*
X184976363Y-45279362D01*
X184988451Y-45273202D01*
X185006423Y-45265757D01*
X185019331Y-45261564D01*
X185078347Y-45227489D01*
X185081117Y-45225985D01*
X185141839Y-45195047D01*
X185152391Y-45186501D01*
X185168412Y-45175490D01*
X185180169Y-45168704D01*
X185180172Y-45168700D01*
X185180174Y-45168700D01*
X185191704Y-45158317D01*
X185230812Y-45123103D01*
X185233227Y-45121042D01*
X185249986Y-45107472D01*
X185265240Y-45092216D01*
X185267542Y-45090031D01*
X185318185Y-45044434D01*
X185326165Y-45033449D01*
X185338794Y-45018662D01*
X186242662Y-44114794D01*
X186257450Y-44102164D01*
X186268434Y-44094185D01*
X186268437Y-44094182D01*
X186268440Y-44094179D01*
X186287456Y-44073057D01*
X186314014Y-44043561D01*
X186316216Y-44041240D01*
X186331472Y-44025986D01*
X186345042Y-44009227D01*
X186347103Y-44006812D01*
X186382317Y-43967704D01*
X186392700Y-43956174D01*
X186392700Y-43956172D01*
X186392704Y-43956169D01*
X186399490Y-43944412D01*
X186410501Y-43928391D01*
X186419047Y-43917839D01*
X186449985Y-43857117D01*
X186451489Y-43854347D01*
X186485564Y-43795331D01*
X186489757Y-43782423D01*
X186497202Y-43764451D01*
X186503362Y-43752363D01*
X186520991Y-43686563D01*
X186521906Y-43683479D01*
X186540012Y-43627756D01*
X186542954Y-43618702D01*
X186544198Y-43606866D01*
X186544372Y-43605211D01*
X186547920Y-43586068D01*
X186549504Y-43580158D01*
X186551430Y-43572971D01*
X186554994Y-43504943D01*
X186555247Y-43501734D01*
X186557500Y-43480306D01*
X186557500Y-43458774D01*
X186557585Y-43455528D01*
X186558199Y-43443806D01*
X186561150Y-43387507D01*
X186559026Y-43374101D01*
X186557500Y-43354704D01*
X186557500Y-40348360D01*
X186577185Y-40281321D01*
X186593819Y-40260679D01*
X186617247Y-40237251D01*
X186680198Y-40174300D01*
X186811523Y-39986749D01*
X186908284Y-39779243D01*
X186967543Y-39558087D01*
X186987498Y-39330000D01*
X186967543Y-39101913D01*
X186908284Y-38880757D01*
X186811523Y-38673251D01*
X186680198Y-38485700D01*
X186518300Y-38323802D01*
X186330749Y-38192477D01*
X186330745Y-38192475D01*
X186123249Y-38095718D01*
X186123238Y-38095714D01*
X185902089Y-38036457D01*
X185902081Y-38036456D01*
X185674002Y-38016502D01*
X185673996Y-38016502D01*
X185672703Y-38016615D01*
X185672141Y-38016502D01*
X185668586Y-38016502D01*
X185668586Y-38015787D01*
X185604204Y-38002843D01*
X185574224Y-37980767D01*
X182544798Y-34951340D01*
X182532160Y-34936543D01*
X182524185Y-34925566D01*
X182473553Y-34879977D01*
X182471214Y-34877756D01*
X182455990Y-34862532D01*
X182455977Y-34862520D01*
X182439243Y-34848969D01*
X182436776Y-34846862D01*
X182422259Y-34833792D01*
X182386169Y-34801296D01*
X182382829Y-34799368D01*
X182374411Y-34794507D01*
X182358376Y-34783486D01*
X182347844Y-34774957D01*
X182347843Y-34774956D01*
X182347839Y-34774953D01*
X182343384Y-34772683D01*
X182287157Y-34744033D01*
X182284304Y-34742484D01*
X182225332Y-34708436D01*
X182225325Y-34708433D01*
X182212424Y-34704241D01*
X182194456Y-34696799D01*
X182182361Y-34690637D01*
X182116572Y-34673008D01*
X182113460Y-34672087D01*
X182048708Y-34651047D01*
X182048696Y-34651045D01*
X182035202Y-34649626D01*
X182016088Y-34646083D01*
X182002974Y-34642570D01*
X182002970Y-34642569D01*
X181934957Y-34639004D01*
X181931725Y-34638750D01*
X181917065Y-34637210D01*
X181910306Y-34636500D01*
X181910302Y-34636500D01*
X181888774Y-34636500D01*
X181885530Y-34636415D01*
X181817507Y-34632850D01*
X181817506Y-34632850D01*
X181817505Y-34632850D01*
X181804103Y-34634973D01*
X181784704Y-34636500D01*
X142496360Y-34636500D01*
X142429321Y-34616815D01*
X142408679Y-34600181D01*
X142322304Y-34513806D01*
X142322300Y-34513802D01*
X142134749Y-34382477D01*
X142134745Y-34382475D01*
X142022216Y-34330002D01*
X184369034Y-34330002D01*
X184388858Y-34556599D01*
X184388860Y-34556610D01*
X184447730Y-34776317D01*
X184447734Y-34776326D01*
X184543865Y-34982481D01*
X184543866Y-34982483D01*
X184594973Y-35055471D01*
X184594974Y-35055472D01*
X185276046Y-34374399D01*
X185288835Y-34455148D01*
X185346359Y-34568045D01*
X185435955Y-34657641D01*
X185548852Y-34715165D01*
X185629599Y-34727953D01*
X184948526Y-35409025D01*
X184948526Y-35409026D01*
X185021512Y-35460131D01*
X185021516Y-35460133D01*
X185227673Y-35556265D01*
X185227682Y-35556269D01*
X185447389Y-35615139D01*
X185447400Y-35615141D01*
X185673998Y-35634966D01*
X185674002Y-35634966D01*
X185900599Y-35615141D01*
X185900610Y-35615139D01*
X186120317Y-35556269D01*
X186120331Y-35556264D01*
X186326478Y-35460136D01*
X186399472Y-35409025D01*
X185718401Y-34727953D01*
X185799148Y-34715165D01*
X185912045Y-34657641D01*
X186001641Y-34568045D01*
X186059165Y-34455148D01*
X186071953Y-34374400D01*
X186753025Y-35055472D01*
X186804136Y-34982478D01*
X186900264Y-34776331D01*
X186900269Y-34776317D01*
X186959139Y-34556610D01*
X186959141Y-34556599D01*
X186978966Y-34330002D01*
X186978966Y-34329997D01*
X186959141Y-34103400D01*
X186959139Y-34103389D01*
X186900269Y-33883682D01*
X186900265Y-33883673D01*
X186804133Y-33677516D01*
X186804131Y-33677512D01*
X186753026Y-33604526D01*
X186753025Y-33604526D01*
X186071953Y-34285598D01*
X186059165Y-34204852D01*
X186001641Y-34091955D01*
X185912045Y-34002359D01*
X185799148Y-33944835D01*
X185718400Y-33932046D01*
X186399472Y-33250974D01*
X186399471Y-33250973D01*
X186326483Y-33199866D01*
X186326481Y-33199865D01*
X186120326Y-33103734D01*
X186120317Y-33103730D01*
X185900610Y-33044860D01*
X185900599Y-33044858D01*
X185674002Y-33025034D01*
X185673998Y-33025034D01*
X185447400Y-33044858D01*
X185447389Y-33044860D01*
X185227682Y-33103730D01*
X185227673Y-33103734D01*
X185021513Y-33199868D01*
X184948527Y-33250972D01*
X184948526Y-33250973D01*
X185629600Y-33932046D01*
X185548852Y-33944835D01*
X185435955Y-34002359D01*
X185346359Y-34091955D01*
X185288835Y-34204852D01*
X185276046Y-34285599D01*
X184594973Y-33604526D01*
X184594972Y-33604527D01*
X184543868Y-33677513D01*
X184447734Y-33883673D01*
X184447730Y-33883682D01*
X184388860Y-34103389D01*
X184388858Y-34103400D01*
X184369034Y-34329997D01*
X184369034Y-34330002D01*
X142022216Y-34330002D01*
X141927249Y-34285718D01*
X141927238Y-34285714D01*
X141706089Y-34226457D01*
X141706081Y-34226456D01*
X141478002Y-34206502D01*
X141477998Y-34206502D01*
X141249918Y-34226456D01*
X141249910Y-34226457D01*
X141028761Y-34285714D01*
X141028750Y-34285718D01*
X140821254Y-34382475D01*
X140821252Y-34382476D01*
X140821251Y-34382477D01*
X140633700Y-34513802D01*
X140633698Y-34513803D01*
X140633695Y-34513806D01*
X140547321Y-34600181D01*
X140485998Y-34633666D01*
X140459640Y-34636500D01*
X138299320Y-34636500D01*
X138232281Y-34616815D01*
X138211639Y-34600181D01*
X137840798Y-34229340D01*
X137828160Y-34214543D01*
X137820185Y-34203566D01*
X137820182Y-34203563D01*
X137769553Y-34157977D01*
X137767214Y-34155756D01*
X137751990Y-34140532D01*
X137751977Y-34140520D01*
X137735243Y-34126969D01*
X137732776Y-34124862D01*
X137696228Y-34091955D01*
X137682169Y-34079296D01*
X137678829Y-34077368D01*
X137670411Y-34072507D01*
X137654376Y-34061486D01*
X137643844Y-34052957D01*
X137643841Y-34052955D01*
X137643839Y-34052953D01*
X137639384Y-34050683D01*
X137583157Y-34022033D01*
X137580304Y-34020484D01*
X137521332Y-33986436D01*
X137521325Y-33986433D01*
X137508424Y-33982241D01*
X137490456Y-33974799D01*
X137478361Y-33968637D01*
X137412572Y-33951008D01*
X137409460Y-33950087D01*
X137344708Y-33929047D01*
X137344696Y-33929045D01*
X137331202Y-33927626D01*
X137312088Y-33924083D01*
X137298974Y-33920570D01*
X137298970Y-33920569D01*
X137230957Y-33917004D01*
X137227725Y-33916750D01*
X137213065Y-33915210D01*
X137206306Y-33914500D01*
X137206302Y-33914500D01*
X137184774Y-33914500D01*
X137181530Y-33914415D01*
X137113507Y-33910850D01*
X137113506Y-33910850D01*
X137113505Y-33910850D01*
X137100103Y-33912973D01*
X137080704Y-33914500D01*
X113577296Y-33914500D01*
X113557896Y-33912973D01*
X113544493Y-33910850D01*
X113476469Y-33914415D01*
X113473226Y-33914500D01*
X113451694Y-33914500D01*
X113442574Y-33915458D01*
X113430276Y-33916750D01*
X113427044Y-33917004D01*
X113359032Y-33920569D01*
X113359027Y-33920570D01*
X113345910Y-33924084D01*
X113326798Y-33927626D01*
X113313303Y-33929045D01*
X113313291Y-33929047D01*
X113264703Y-33944835D01*
X113248534Y-33950088D01*
X113245432Y-33951007D01*
X113179642Y-33968635D01*
X113179635Y-33968638D01*
X113167537Y-33974802D01*
X113149579Y-33982240D01*
X113143278Y-33984288D01*
X113136668Y-33986436D01*
X113136663Y-33986438D01*
X113098283Y-34008597D01*
X113077672Y-34020497D01*
X113074843Y-34022033D01*
X113014159Y-34052954D01*
X113014157Y-34052955D01*
X113003604Y-34061500D01*
X112987587Y-34072507D01*
X112975835Y-34079293D01*
X112975829Y-34079296D01*
X112925212Y-34124871D01*
X112922748Y-34126976D01*
X112906015Y-34140526D01*
X112890781Y-34155760D01*
X112888429Y-34157991D01*
X112837816Y-34203563D01*
X112829832Y-34214552D01*
X112817198Y-34229343D01*
X107501774Y-39544767D01*
X107440451Y-39578252D01*
X107407414Y-39580352D01*
X107407414Y-39580502D01*
X107405069Y-39580502D01*
X107403292Y-39580615D01*
X107402000Y-39580502D01*
X107401998Y-39580502D01*
X107173918Y-39600456D01*
X107173910Y-39600457D01*
X106952761Y-39659714D01*
X106952750Y-39659718D01*
X106745254Y-39756475D01*
X106745252Y-39756476D01*
X106712745Y-39779238D01*
X106557700Y-39887802D01*
X106557698Y-39887803D01*
X106557695Y-39887806D01*
X106395806Y-40049695D01*
X106264476Y-40237252D01*
X106264475Y-40237254D01*
X106167718Y-40444750D01*
X106167714Y-40444761D01*
X106108457Y-40665910D01*
X106108456Y-40665918D01*
X106088502Y-40893998D01*
X106088502Y-40894001D01*
X106108456Y-41122081D01*
X106108457Y-41122089D01*
X106167714Y-41343238D01*
X106167718Y-41343249D01*
X106262485Y-41546478D01*
X106264477Y-41550749D01*
X106395802Y-41738300D01*
X106557700Y-41900198D01*
X106745251Y-42031523D01*
X106885726Y-42097027D01*
X106938166Y-42143199D01*
X106957318Y-42210392D01*
X106937103Y-42277273D01*
X106921003Y-42297090D01*
X106349179Y-42868914D01*
X106336820Y-42878818D01*
X106336993Y-42879027D01*
X106330983Y-42883999D01*
X106283016Y-42935078D01*
X106261872Y-42956222D01*
X106261857Y-42956239D01*
X106257531Y-42961814D01*
X106253747Y-42966244D01*
X106221419Y-43000671D01*
X106221412Y-43000681D01*
X106211579Y-43018567D01*
X106200903Y-43034820D01*
X106188386Y-43050957D01*
X106188385Y-43050959D01*
X106169625Y-43094310D01*
X106167055Y-43099556D01*
X106144303Y-43140941D01*
X106144303Y-43140942D01*
X106139225Y-43160720D01*
X106132925Y-43179122D01*
X106124818Y-43197857D01*
X106117431Y-43244495D01*
X106116246Y-43250216D01*
X106104500Y-43295965D01*
X106104500Y-43316384D01*
X106102973Y-43335783D01*
X106099780Y-43355941D01*
X106099780Y-43355942D01*
X106104225Y-43402966D01*
X106104500Y-43408804D01*
X106104500Y-67792366D01*
X106102761Y-67808113D01*
X106103032Y-67808139D01*
X106102298Y-67815905D01*
X106104500Y-67885957D01*
X106104500Y-67915859D01*
X106105384Y-67922856D01*
X106105842Y-67928679D01*
X106107326Y-67975889D01*
X106107327Y-67975891D01*
X106113022Y-67995495D01*
X106116967Y-68014542D01*
X106119526Y-68034797D01*
X106119527Y-68034800D01*
X106119528Y-68034803D01*
X106136914Y-68078716D01*
X106138806Y-68084244D01*
X106151981Y-68129592D01*
X106162372Y-68147162D01*
X106170932Y-68164635D01*
X106178447Y-68183617D01*
X106206209Y-68221827D01*
X106209416Y-68226710D01*
X106233458Y-68267362D01*
X106233462Y-68267366D01*
X106247889Y-68281793D01*
X106260526Y-68296588D01*
X106272528Y-68313107D01*
X106308931Y-68343222D01*
X106313231Y-68347135D01*
X106896390Y-68930294D01*
X107403664Y-69437568D01*
X107437149Y-69498891D01*
X107435758Y-69557341D01*
X107418459Y-69621904D01*
X107418456Y-69621918D01*
X107398502Y-69849998D01*
X107398502Y-69850001D01*
X107418456Y-70078081D01*
X107418457Y-70078089D01*
X107477714Y-70299238D01*
X107477718Y-70299249D01*
X107572815Y-70503185D01*
X107574477Y-70506749D01*
X107705802Y-70694300D01*
X107867700Y-70856198D01*
X107989194Y-70941269D01*
X108055251Y-70987523D01*
X108098345Y-71007618D01*
X108150784Y-71053791D01*
X108169936Y-71120984D01*
X108149720Y-71187865D01*
X108098345Y-71232382D01*
X108055251Y-71252476D01*
X107930126Y-71340090D01*
X107867700Y-71383802D01*
X107867698Y-71383803D01*
X107867695Y-71383806D01*
X107705806Y-71545695D01*
X107705803Y-71545698D01*
X107705802Y-71545700D01*
X107623767Y-71662856D01*
X107574476Y-71733252D01*
X107574475Y-71733254D01*
X107477718Y-71940750D01*
X107477714Y-71940761D01*
X107418457Y-72161910D01*
X107418456Y-72161918D01*
X107398502Y-72389998D01*
X107398502Y-72390001D01*
X107418456Y-72618081D01*
X107418457Y-72618089D01*
X107477714Y-72839238D01*
X107477718Y-72839249D01*
X107572487Y-73042482D01*
X107574477Y-73046749D01*
X107705802Y-73234300D01*
X107867700Y-73396198D01*
X108055251Y-73527523D01*
X108096572Y-73546791D01*
X108262750Y-73624281D01*
X108262752Y-73624281D01*
X108262757Y-73624284D01*
X108483913Y-73683543D01*
X108646832Y-73697796D01*
X108711998Y-73703498D01*
X108712000Y-73703498D01*
X108712002Y-73703498D01*
X108769021Y-73698509D01*
X108940087Y-73683543D01*
X109161243Y-73624284D01*
X109209096Y-73601969D01*
X109278173Y-73591478D01*
X109341957Y-73619998D01*
X109380196Y-73678474D01*
X109385500Y-73714352D01*
X109385500Y-74892671D01*
X109383761Y-74908418D01*
X109384032Y-74908444D01*
X109383298Y-74916210D01*
X109383298Y-74916213D01*
X109383298Y-74916214D01*
X109384349Y-74949635D01*
X109385500Y-74986262D01*
X109385500Y-75016164D01*
X109386384Y-75023161D01*
X109386842Y-75028984D01*
X109388326Y-75076194D01*
X109388327Y-75076196D01*
X109394022Y-75095800D01*
X109397967Y-75114847D01*
X109400526Y-75135102D01*
X109400527Y-75135105D01*
X109400528Y-75135108D01*
X109417914Y-75179021D01*
X109419806Y-75184549D01*
X109432981Y-75229897D01*
X109443372Y-75247467D01*
X109451932Y-75264940D01*
X109459447Y-75283922D01*
X109487209Y-75322132D01*
X109490416Y-75327015D01*
X109514458Y-75367667D01*
X109514462Y-75367671D01*
X109528889Y-75382098D01*
X109541526Y-75396893D01*
X109553528Y-75413412D01*
X109589931Y-75443527D01*
X109594231Y-75447440D01*
X110005106Y-75858315D01*
X110386181Y-76239390D01*
X110419666Y-76300713D01*
X110422500Y-76327071D01*
X110422500Y-78239836D01*
X110402815Y-78306875D01*
X110386181Y-78327517D01*
X103243179Y-85470518D01*
X103230820Y-85480422D01*
X103230993Y-85480631D01*
X103224983Y-85485603D01*
X103177016Y-85536682D01*
X103155872Y-85557826D01*
X103155857Y-85557843D01*
X103151531Y-85563418D01*
X103147747Y-85567848D01*
X103115419Y-85602275D01*
X103115412Y-85602285D01*
X103105579Y-85620171D01*
X103094903Y-85636424D01*
X103082386Y-85652561D01*
X103082385Y-85652563D01*
X103063625Y-85695914D01*
X103061055Y-85701160D01*
X103038303Y-85742545D01*
X103038303Y-85742546D01*
X103033225Y-85762324D01*
X103026925Y-85780726D01*
X103018818Y-85799461D01*
X103011431Y-85846099D01*
X103010246Y-85851820D01*
X102998500Y-85897569D01*
X102998500Y-85917988D01*
X102996973Y-85937387D01*
X102993780Y-85957545D01*
X102993780Y-85957546D01*
X102998225Y-86004570D01*
X102998500Y-86010408D01*
X102998500Y-90086366D01*
X102996761Y-90102113D01*
X102997032Y-90102139D01*
X102996298Y-90109905D01*
X102998500Y-90179957D01*
X102998500Y-90209859D01*
X102999384Y-90216856D01*
X102999842Y-90222679D01*
X103001326Y-90269889D01*
X103001327Y-90269891D01*
X103007022Y-90289495D01*
X103010967Y-90308542D01*
X103013526Y-90328797D01*
X103013527Y-90328800D01*
X103013528Y-90328803D01*
X103030914Y-90372716D01*
X103032806Y-90378244D01*
X103045981Y-90423592D01*
X103056372Y-90441162D01*
X103064932Y-90458635D01*
X103072447Y-90477617D01*
X103100209Y-90515827D01*
X103103418Y-90520712D01*
X103116745Y-90543248D01*
X103127458Y-90561362D01*
X103127462Y-90561366D01*
X103141889Y-90575793D01*
X103154526Y-90590588D01*
X103166528Y-90607107D01*
X103202931Y-90637222D01*
X103207231Y-90641135D01*
X103722794Y-91156698D01*
X104140909Y-91574813D01*
X104150818Y-91587181D01*
X104151028Y-91587008D01*
X104155998Y-91593017D01*
X104207079Y-91640984D01*
X104228224Y-91662130D01*
X104233813Y-91666466D01*
X104238245Y-91670252D01*
X104265036Y-91695409D01*
X104272680Y-91702587D01*
X104290562Y-91712417D01*
X104306829Y-91723102D01*
X104322960Y-91735615D01*
X104344838Y-91745081D01*
X104366307Y-91754371D01*
X104371533Y-91756931D01*
X104412940Y-91779695D01*
X104432716Y-91784772D01*
X104451124Y-91791075D01*
X104469850Y-91799179D01*
X104469852Y-91799180D01*
X104469853Y-91799180D01*
X104469855Y-91799181D01*
X104510784Y-91805663D01*
X104516503Y-91806569D01*
X104522212Y-91807751D01*
X104567970Y-91819500D01*
X104588384Y-91819500D01*
X104607783Y-91821027D01*
X104627943Y-91824220D01*
X104674966Y-91819775D01*
X104680804Y-91819500D01*
X110155726Y-91819500D01*
X110222765Y-91839185D01*
X110257299Y-91872376D01*
X110277828Y-91901693D01*
X110322700Y-91965778D01*
X110472221Y-92115299D01*
X110472224Y-92115301D01*
X110645442Y-92236589D01*
X110837090Y-92325956D01*
X111041345Y-92380686D01*
X111191812Y-92393850D01*
X111251998Y-92399116D01*
X111252000Y-92399116D01*
X111252002Y-92399116D01*
X111304663Y-92394508D01*
X111462655Y-92380686D01*
X111666910Y-92325956D01*
X111858558Y-92236589D01*
X112031776Y-92115301D01*
X112181301Y-91965776D01*
X112302589Y-91792558D01*
X112391956Y-91600910D01*
X112436144Y-91436000D01*
X113377505Y-91436000D01*
X113430239Y-91621349D01*
X113529368Y-91820425D01*
X113663391Y-91997900D01*
X113827738Y-92147721D01*
X114016820Y-92264797D01*
X114016822Y-92264798D01*
X114224195Y-92345135D01*
X114304000Y-92360052D01*
X114304000Y-91436000D01*
X113377505Y-91436000D01*
X112436144Y-91436000D01*
X112446686Y-91396655D01*
X112462552Y-91215302D01*
X114200372Y-91215302D01*
X114229047Y-91328538D01*
X114292936Y-91426327D01*
X114385115Y-91498072D01*
X114495595Y-91536000D01*
X114583005Y-91536000D01*
X114669216Y-91521614D01*
X114771947Y-91466019D01*
X114799581Y-91436000D01*
X114804000Y-91436000D01*
X114804000Y-92360052D01*
X114883804Y-92345135D01*
X115091177Y-92264798D01*
X115091179Y-92264797D01*
X115280261Y-92147721D01*
X115444608Y-91997900D01*
X115578631Y-91820425D01*
X115677760Y-91621349D01*
X115730495Y-91436000D01*
X114804000Y-91436000D01*
X114799581Y-91436000D01*
X114851060Y-91380079D01*
X114897982Y-91273108D01*
X114905200Y-91186001D01*
X116642884Y-91186001D01*
X116661313Y-91396649D01*
X116661315Y-91396660D01*
X116716041Y-91600902D01*
X116716043Y-91600906D01*
X116716044Y-91600910D01*
X116788802Y-91756939D01*
X116805410Y-91792556D01*
X116805411Y-91792558D01*
X116926700Y-91965778D01*
X117076221Y-92115299D01*
X117076224Y-92115301D01*
X117249442Y-92236589D01*
X117441090Y-92325956D01*
X117645345Y-92380686D01*
X117795812Y-92393850D01*
X117855998Y-92399116D01*
X117856000Y-92399116D01*
X117856002Y-92399116D01*
X117908663Y-92394508D01*
X118066655Y-92380686D01*
X118270910Y-92325956D01*
X118462558Y-92236589D01*
X118635776Y-92115301D01*
X118785301Y-91965776D01*
X118906589Y-91792558D01*
X118995956Y-91600910D01*
X119050686Y-91396655D01*
X119069116Y-91186000D01*
X119050686Y-90975345D01*
X118995956Y-90771090D01*
X118906589Y-90579442D01*
X118785301Y-90406224D01*
X118785299Y-90406221D01*
X118635778Y-90256700D01*
X118462558Y-90135411D01*
X118462556Y-90135410D01*
X118407860Y-90109905D01*
X118270910Y-90046044D01*
X118270906Y-90046043D01*
X118270902Y-90046041D01*
X118066660Y-89991315D01*
X118066656Y-89991314D01*
X118066655Y-89991314D01*
X118066654Y-89991313D01*
X118066649Y-89991313D01*
X117856002Y-89972884D01*
X117855998Y-89972884D01*
X117645350Y-89991313D01*
X117645339Y-89991315D01*
X117441097Y-90046041D01*
X117441088Y-90046045D01*
X117249443Y-90135410D01*
X117249441Y-90135411D01*
X117076221Y-90256700D01*
X116926700Y-90406221D01*
X116805411Y-90579441D01*
X116805410Y-90579443D01*
X116716045Y-90771088D01*
X116716041Y-90771097D01*
X116661315Y-90975339D01*
X116661313Y-90975350D01*
X116642884Y-91185998D01*
X116642884Y-91186001D01*
X114905200Y-91186001D01*
X114907628Y-91156698D01*
X114878953Y-91043462D01*
X114815064Y-90945673D01*
X114722885Y-90873928D01*
X114612405Y-90836000D01*
X114524995Y-90836000D01*
X114438784Y-90850386D01*
X114336053Y-90905981D01*
X114256940Y-90991921D01*
X114210018Y-91098892D01*
X114200372Y-91215302D01*
X112462552Y-91215302D01*
X112465116Y-91186000D01*
X112446686Y-90975345D01*
X112436144Y-90936000D01*
X113377505Y-90936000D01*
X114304000Y-90936000D01*
X114304000Y-90011946D01*
X114804000Y-90011946D01*
X114804000Y-90936000D01*
X115730495Y-90936000D01*
X115677760Y-90750650D01*
X115578631Y-90551574D01*
X115444608Y-90374099D01*
X115280261Y-90224278D01*
X115091179Y-90107202D01*
X115091177Y-90107201D01*
X114883799Y-90026864D01*
X114804000Y-90011946D01*
X114304000Y-90011946D01*
X114224200Y-90026864D01*
X114016822Y-90107201D01*
X114016820Y-90107202D01*
X113827738Y-90224278D01*
X113663391Y-90374099D01*
X113529368Y-90551574D01*
X113430239Y-90750650D01*
X113377505Y-90936000D01*
X112436144Y-90936000D01*
X112391956Y-90771090D01*
X112302589Y-90579442D01*
X112181301Y-90406224D01*
X112181299Y-90406221D01*
X112031778Y-90256700D01*
X111858558Y-90135411D01*
X111858556Y-90135410D01*
X111803860Y-90109905D01*
X111666910Y-90046044D01*
X111666906Y-90046043D01*
X111666902Y-90046041D01*
X111462660Y-89991315D01*
X111462656Y-89991314D01*
X111462655Y-89991314D01*
X111462654Y-89991313D01*
X111462649Y-89991313D01*
X111252002Y-89972884D01*
X111251998Y-89972884D01*
X111041350Y-89991313D01*
X111041339Y-89991315D01*
X110837097Y-90046041D01*
X110837088Y-90046045D01*
X110645443Y-90135410D01*
X110645441Y-90135411D01*
X110472221Y-90256700D01*
X110322700Y-90406221D01*
X110257301Y-90499623D01*
X110202725Y-90543248D01*
X110155726Y-90552500D01*
X104961766Y-90552500D01*
X104894727Y-90532815D01*
X104874085Y-90516181D01*
X104301819Y-89943914D01*
X104268334Y-89882591D01*
X104265500Y-89856233D01*
X104265500Y-88758500D01*
X104285185Y-88691461D01*
X104337989Y-88645706D01*
X104389500Y-88634500D01*
X105475638Y-88634500D01*
X105475654Y-88634499D01*
X105502692Y-88631591D01*
X105536201Y-88627989D01*
X105536205Y-88627987D01*
X105536207Y-88627987D01*
X105673199Y-88576891D01*
X105673199Y-88576890D01*
X105673204Y-88576889D01*
X105673207Y-88576886D01*
X105680989Y-88572638D01*
X105682519Y-88575440D01*
X105733255Y-88556503D01*
X105778121Y-88561523D01*
X105969399Y-88619546D01*
X105969398Y-88619546D01*
X105987563Y-88621335D01*
X106172000Y-88639501D01*
X106374601Y-88619546D01*
X106569417Y-88560450D01*
X106748960Y-88464482D01*
X106748962Y-88464480D01*
X106754332Y-88461610D01*
X106755236Y-88463302D01*
X106813403Y-88445069D01*
X106874110Y-88459691D01*
X107047848Y-88552557D01*
X107192000Y-88596285D01*
X107192000Y-87791887D01*
X107192299Y-87785806D01*
X107199729Y-87710363D01*
X107204095Y-87666031D01*
X107261052Y-87710363D01*
X107379424Y-87751000D01*
X107473073Y-87751000D01*
X107565446Y-87735586D01*
X107675514Y-87676019D01*
X107692000Y-87658110D01*
X107692000Y-88596285D01*
X107836153Y-88552557D01*
X108014209Y-88457384D01*
X108014215Y-88457379D01*
X108170292Y-88329292D01*
X108298379Y-88173215D01*
X108298384Y-88173209D01*
X108393556Y-87995154D01*
X108452170Y-87801932D01*
X108467000Y-87651357D01*
X108467000Y-87626000D01*
X107721560Y-87626000D01*
X107760278Y-87583941D01*
X107810551Y-87469330D01*
X107820886Y-87344605D01*
X107790163Y-87223281D01*
X107726606Y-87126000D01*
X108467000Y-87126000D01*
X108467000Y-87100642D01*
X108452170Y-86950067D01*
X108393556Y-86756845D01*
X108298384Y-86578790D01*
X108298379Y-86578784D01*
X108170292Y-86422707D01*
X108014215Y-86294620D01*
X108014209Y-86294615D01*
X107836150Y-86199441D01*
X107692000Y-86155712D01*
X107692000Y-87095382D01*
X107622948Y-87041637D01*
X107504576Y-87001000D01*
X107410927Y-87001000D01*
X107318554Y-87016414D01*
X107208486Y-87075981D01*
X107203631Y-87081254D01*
X107192299Y-86966193D01*
X107192000Y-86960112D01*
X107192000Y-86155712D01*
X107047851Y-86199440D01*
X106987952Y-86231457D01*
X106919550Y-86245698D01*
X106854306Y-86220697D01*
X106812936Y-86164392D01*
X106805500Y-86122098D01*
X106805500Y-85024162D01*
X106825185Y-84957123D01*
X106841819Y-84936481D01*
X107542481Y-84235819D01*
X107603804Y-84202334D01*
X107630162Y-84199500D01*
X110155726Y-84199500D01*
X110222765Y-84219185D01*
X110257301Y-84252377D01*
X110322700Y-84345778D01*
X110472221Y-84495299D01*
X110472224Y-84495301D01*
X110645442Y-84616589D01*
X110837090Y-84705956D01*
X111041345Y-84760686D01*
X111191812Y-84773850D01*
X111251998Y-84779116D01*
X111252000Y-84779116D01*
X111252002Y-84779116D01*
X111304663Y-84774508D01*
X111462655Y-84760686D01*
X111666910Y-84705956D01*
X111858558Y-84616589D01*
X112031776Y-84495301D01*
X112181301Y-84345776D01*
X112302589Y-84172558D01*
X112391956Y-83980910D01*
X112446686Y-83776655D01*
X112465116Y-83566001D01*
X113340884Y-83566001D01*
X113359313Y-83776649D01*
X113359315Y-83776660D01*
X113414041Y-83980902D01*
X113414043Y-83980906D01*
X113414044Y-83980910D01*
X113461188Y-84082011D01*
X113503410Y-84172556D01*
X113503411Y-84172558D01*
X113624700Y-84345778D01*
X113774221Y-84495299D01*
X113774224Y-84495301D01*
X113947442Y-84616589D01*
X114139090Y-84705956D01*
X114343345Y-84760686D01*
X114493812Y-84773850D01*
X114553998Y-84779116D01*
X114554000Y-84779116D01*
X114554002Y-84779116D01*
X114606663Y-84774508D01*
X114764655Y-84760686D01*
X114968910Y-84705956D01*
X115160558Y-84616589D01*
X115333776Y-84495301D01*
X115483301Y-84345776D01*
X115604589Y-84172558D01*
X115693956Y-83980910D01*
X115748686Y-83776655D01*
X115767116Y-83566000D01*
X115748686Y-83355345D01*
X115693956Y-83151090D01*
X115604589Y-82959442D01*
X115483301Y-82786224D01*
X115483299Y-82786221D01*
X115333778Y-82636700D01*
X115160558Y-82515411D01*
X115160556Y-82515410D01*
X115139071Y-82505391D01*
X114968910Y-82426044D01*
X114968906Y-82426043D01*
X114968902Y-82426041D01*
X114764660Y-82371315D01*
X114764656Y-82371314D01*
X114764655Y-82371314D01*
X114764654Y-82371313D01*
X114764649Y-82371313D01*
X114554002Y-82352884D01*
X114553998Y-82352884D01*
X114343350Y-82371313D01*
X114343339Y-82371315D01*
X114139097Y-82426041D01*
X114139090Y-82426043D01*
X114139090Y-82426044D01*
X114117603Y-82436063D01*
X113947443Y-82515410D01*
X113947441Y-82515411D01*
X113774221Y-82636700D01*
X113624700Y-82786221D01*
X113503411Y-82959441D01*
X113503410Y-82959443D01*
X113414045Y-83151088D01*
X113414041Y-83151097D01*
X113359315Y-83355339D01*
X113359313Y-83355350D01*
X113340884Y-83565998D01*
X113340884Y-83566001D01*
X112465116Y-83566001D01*
X112465116Y-83566000D01*
X112446686Y-83355345D01*
X112391956Y-83151090D01*
X112302589Y-82959442D01*
X112181301Y-82786224D01*
X112181299Y-82786221D01*
X112031778Y-82636700D01*
X111858558Y-82515411D01*
X111858556Y-82515410D01*
X111837071Y-82505391D01*
X111666910Y-82426044D01*
X111666906Y-82426043D01*
X111666902Y-82426041D01*
X111462660Y-82371315D01*
X111462656Y-82371314D01*
X111462655Y-82371314D01*
X111462654Y-82371313D01*
X111462649Y-82371313D01*
X111252002Y-82352884D01*
X111251998Y-82352884D01*
X111041350Y-82371313D01*
X111041339Y-82371315D01*
X110837097Y-82426041D01*
X110837090Y-82426043D01*
X110837090Y-82426044D01*
X110815603Y-82436063D01*
X110645443Y-82515410D01*
X110645441Y-82515411D01*
X110472221Y-82636700D01*
X110322700Y-82786221D01*
X110257301Y-82879623D01*
X110202725Y-82923248D01*
X110155726Y-82932500D01*
X108508766Y-82932500D01*
X108441727Y-82912815D01*
X108395972Y-82860011D01*
X108386028Y-82790853D01*
X108415053Y-82727297D01*
X108421085Y-82720819D01*
X109286274Y-81855630D01*
X111894815Y-79247087D01*
X111907180Y-79237183D01*
X111907006Y-79236973D01*
X111913012Y-79232003D01*
X111913018Y-79232000D01*
X111960999Y-79180904D01*
X111982134Y-79159770D01*
X111986463Y-79154187D01*
X111990242Y-79149763D01*
X112022586Y-79115321D01*
X112032423Y-79097424D01*
X112043097Y-79081174D01*
X112055613Y-79065041D01*
X112074372Y-79021689D01*
X112076933Y-79016462D01*
X112099695Y-78975060D01*
X112104774Y-78955274D01*
X112111072Y-78936882D01*
X112119181Y-78918145D01*
X112125754Y-78876638D01*
X112126568Y-78871501D01*
X112127748Y-78865794D01*
X112139500Y-78820030D01*
X112139500Y-78799609D01*
X112141027Y-78780209D01*
X112144219Y-78760057D01*
X112139775Y-78713040D01*
X112139500Y-78707203D01*
X112139500Y-76241461D01*
X112159185Y-76174422D01*
X112211989Y-76128667D01*
X112281147Y-76118723D01*
X112344703Y-76147748D01*
X112351181Y-76153780D01*
X117186181Y-80988780D01*
X117219666Y-81050103D01*
X117222500Y-81076461D01*
X117222500Y-82469724D01*
X117202815Y-82536763D01*
X117169625Y-82571298D01*
X117076224Y-82636699D01*
X116926697Y-82786225D01*
X116805411Y-82959441D01*
X116805410Y-82959443D01*
X116716045Y-83151088D01*
X116716041Y-83151097D01*
X116661315Y-83355339D01*
X116661313Y-83355350D01*
X116642884Y-83565998D01*
X116642884Y-83566001D01*
X116661313Y-83776649D01*
X116661315Y-83776660D01*
X116716041Y-83980902D01*
X116716043Y-83980906D01*
X116716044Y-83980910D01*
X116763188Y-84082011D01*
X116805410Y-84172556D01*
X116805411Y-84172558D01*
X116926700Y-84345778D01*
X117076221Y-84495299D01*
X117076224Y-84495301D01*
X117249442Y-84616589D01*
X117441090Y-84705956D01*
X117645345Y-84760686D01*
X117795812Y-84773850D01*
X117855998Y-84779116D01*
X117856000Y-84779116D01*
X117856002Y-84779116D01*
X117908663Y-84774508D01*
X118066655Y-84760686D01*
X118270910Y-84705956D01*
X118462558Y-84616589D01*
X118635776Y-84495301D01*
X118785301Y-84345776D01*
X118906589Y-84172558D01*
X118995956Y-83980910D01*
X119050686Y-83776655D01*
X119069116Y-83566000D01*
X119050686Y-83355345D01*
X118995956Y-83151090D01*
X118906589Y-82959442D01*
X118811011Y-82822942D01*
X118785302Y-82786225D01*
X118715897Y-82716820D01*
X118635776Y-82636699D01*
X118586735Y-82602360D01*
X118542375Y-82571298D01*
X118498751Y-82516720D01*
X118489500Y-82469724D01*
X118489500Y-80846327D01*
X118491239Y-80830575D01*
X118490968Y-80830550D01*
X118491700Y-80822794D01*
X118491702Y-80822787D01*
X118489500Y-80752723D01*
X118489500Y-80722839D01*
X118488614Y-80715836D01*
X118488157Y-80710017D01*
X118486674Y-80662808D01*
X118486674Y-80662806D01*
X118480974Y-80643187D01*
X118477031Y-80624141D01*
X118474474Y-80603899D01*
X118470264Y-80593265D01*
X118457081Y-80559969D01*
X118455204Y-80554487D01*
X118442019Y-80509102D01*
X118431620Y-80491519D01*
X118423066Y-80474058D01*
X118415552Y-80455078D01*
X118387793Y-80416871D01*
X118384586Y-80411989D01*
X118360544Y-80371336D01*
X118360543Y-80371335D01*
X118360542Y-80371333D01*
X118346108Y-80356899D01*
X118333471Y-80342104D01*
X118321472Y-80325588D01*
X118321470Y-80325585D01*
X118285073Y-80295476D01*
X118280751Y-80291542D01*
X111138819Y-73149609D01*
X111105334Y-73088286D01*
X111102500Y-73061928D01*
X111102500Y-62038626D01*
X111104238Y-62022881D01*
X111103967Y-62022856D01*
X111104700Y-62015095D01*
X111104701Y-62015091D01*
X111104594Y-62011695D01*
X111105267Y-62009105D01*
X111105436Y-62007321D01*
X111105723Y-62007348D01*
X111122162Y-61944072D01*
X111173502Y-61896680D01*
X111242314Y-61884568D01*
X111306750Y-61911581D01*
X111316214Y-61920119D01*
X111506912Y-62110817D01*
X111516819Y-62123183D01*
X111517029Y-62123010D01*
X111521996Y-62129015D01*
X111573079Y-62176984D01*
X111594224Y-62198130D01*
X111594228Y-62198133D01*
X111594230Y-62198135D01*
X111599813Y-62202466D01*
X111604245Y-62206252D01*
X111629536Y-62230000D01*
X111638680Y-62238587D01*
X111656562Y-62248417D01*
X111672829Y-62259102D01*
X111688960Y-62271615D01*
X111710838Y-62281081D01*
X111732307Y-62290371D01*
X111737533Y-62292931D01*
X111778940Y-62315695D01*
X111798716Y-62320772D01*
X111817124Y-62327075D01*
X111835850Y-62335179D01*
X111835852Y-62335180D01*
X111835853Y-62335180D01*
X111835855Y-62335181D01*
X111876784Y-62341663D01*
X111882503Y-62342569D01*
X111888212Y-62343751D01*
X111933970Y-62355500D01*
X111954384Y-62355500D01*
X111973783Y-62357027D01*
X111993943Y-62360220D01*
X112040966Y-62355775D01*
X112046804Y-62355500D01*
X112322691Y-62355500D01*
X112389730Y-62375185D01*
X112414840Y-62396527D01*
X112418747Y-62400866D01*
X112573248Y-62513118D01*
X112747712Y-62590794D01*
X112934513Y-62630500D01*
X113125487Y-62630500D01*
X113312288Y-62590794D01*
X113486752Y-62513118D01*
X113641253Y-62400866D01*
X113769040Y-62258944D01*
X113864527Y-62093556D01*
X113923542Y-61911928D01*
X113943504Y-61722000D01*
X113923542Y-61532072D01*
X113864527Y-61350444D01*
X113769040Y-61185056D01*
X113641253Y-61043134D01*
X113486752Y-60930882D01*
X113312288Y-60853206D01*
X113312286Y-60853205D01*
X113125487Y-60813500D01*
X112934513Y-60813500D01*
X112747714Y-60853205D01*
X112660480Y-60892044D01*
X112588068Y-60924284D01*
X112573246Y-60930883D01*
X112418743Y-61043136D01*
X112418743Y-61043137D01*
X112417237Y-61044810D01*
X112416124Y-61045495D01*
X112413918Y-61047482D01*
X112413554Y-61047078D01*
X112357747Y-61081453D01*
X112287891Y-61080116D01*
X112237414Y-61049510D01*
X110489088Y-59301183D01*
X110479187Y-59288823D01*
X110478977Y-59288998D01*
X110474002Y-59282986D01*
X110474000Y-59282982D01*
X110447657Y-59258245D01*
X110422921Y-59235015D01*
X110401768Y-59213863D01*
X110399792Y-59212331D01*
X110396183Y-59209531D01*
X110391750Y-59205744D01*
X110357321Y-59173414D01*
X110357319Y-59173412D01*
X110339431Y-59163578D01*
X110323170Y-59152897D01*
X110307039Y-59140384D01*
X110263693Y-59121627D01*
X110258445Y-59119056D01*
X110231251Y-59104106D01*
X110217060Y-59096305D01*
X110213660Y-59095432D01*
X110197287Y-59091228D01*
X110178881Y-59084926D01*
X110160144Y-59076818D01*
X110160146Y-59076818D01*
X110113496Y-59069430D01*
X110107781Y-59068246D01*
X110087612Y-59063068D01*
X110062032Y-59056500D01*
X110062030Y-59056500D01*
X110041616Y-59056500D01*
X110022217Y-59054973D01*
X110002058Y-59051780D01*
X110002057Y-59051780D01*
X109955034Y-59056225D01*
X109949196Y-59056500D01*
X109930352Y-59056500D01*
X109863313Y-59036815D01*
X109828778Y-59003624D01*
X109822476Y-58994624D01*
X109800148Y-58928419D01*
X109817157Y-58860651D01*
X109868105Y-58812838D01*
X109924050Y-58799500D01*
X111804762Y-58799500D01*
X111820509Y-58801238D01*
X111820535Y-58800968D01*
X111828301Y-58801701D01*
X111828305Y-58801702D01*
X111898354Y-58799500D01*
X111928252Y-58799500D01*
X111928253Y-58799500D01*
X111929618Y-58799327D01*
X111935258Y-58798614D01*
X111941081Y-58798156D01*
X111967104Y-58797338D01*
X111988286Y-58796673D01*
X111998077Y-58793827D01*
X112007877Y-58790980D01*
X112026934Y-58787032D01*
X112047193Y-58784474D01*
X112091117Y-58767082D01*
X112096617Y-58765199D01*
X112141989Y-58752018D01*
X112159561Y-58741625D01*
X112177028Y-58733068D01*
X112196013Y-58725552D01*
X112234222Y-58697790D01*
X112239100Y-58694585D01*
X112279758Y-58670542D01*
X112294198Y-58656100D01*
X112308988Y-58643470D01*
X112325503Y-58631472D01*
X112355618Y-58595067D01*
X112359522Y-58590776D01*
X113614815Y-57335483D01*
X113627180Y-57325579D01*
X113627006Y-57325369D01*
X113633012Y-57320399D01*
X113633018Y-57320396D01*
X113680999Y-57269300D01*
X113702135Y-57248165D01*
X113706458Y-57242591D01*
X113710257Y-57238143D01*
X113714530Y-57233592D01*
X113742586Y-57203717D01*
X113752420Y-57185825D01*
X113763103Y-57169563D01*
X113775614Y-57153437D01*
X113794371Y-57110087D01*
X113796941Y-57104843D01*
X113819693Y-57063460D01*
X113819693Y-57063459D01*
X113819695Y-57063456D01*
X113824774Y-57043669D01*
X113831070Y-57025281D01*
X113839181Y-57006541D01*
X113846569Y-56959893D01*
X113847751Y-56954182D01*
X113859500Y-56908426D01*
X113859500Y-56888011D01*
X113861027Y-56868610D01*
X113864220Y-56848453D01*
X113859775Y-56801429D01*
X113859500Y-56795591D01*
X113859500Y-55552956D01*
X113879185Y-55485917D01*
X113895819Y-55465275D01*
X115595399Y-53765695D01*
X117443786Y-51917307D01*
X117505107Y-51883824D01*
X117574799Y-51888808D01*
X117630732Y-51930680D01*
X117655149Y-51996144D01*
X117640297Y-52064417D01*
X117638824Y-52067040D01*
X117638483Y-52067630D01*
X117627499Y-52083604D01*
X117618958Y-52094152D01*
X117618954Y-52094159D01*
X117588033Y-52154843D01*
X117586497Y-52157672D01*
X117574597Y-52178283D01*
X117552438Y-52216663D01*
X117552436Y-52216668D01*
X117548242Y-52229576D01*
X117540802Y-52247537D01*
X117534638Y-52259635D01*
X117534635Y-52259642D01*
X117517007Y-52325432D01*
X117516086Y-52328543D01*
X117495047Y-52393291D01*
X117495045Y-52393303D01*
X117493626Y-52406798D01*
X117490084Y-52425910D01*
X117486570Y-52439027D01*
X117486569Y-52439032D01*
X117483004Y-52507044D01*
X117482750Y-52510276D01*
X117480500Y-52531698D01*
X117480500Y-52553224D01*
X117480415Y-52556469D01*
X117476850Y-52624492D01*
X117478973Y-52637895D01*
X117480500Y-52657295D01*
X117480500Y-54339500D01*
X117460815Y-54406539D01*
X117408011Y-54452294D01*
X117356500Y-54463500D01*
X117294013Y-54463500D01*
X117107214Y-54503205D01*
X116932746Y-54580883D01*
X116778245Y-54693135D01*
X116650459Y-54835057D01*
X116554973Y-55000443D01*
X116554970Y-55000450D01*
X116495959Y-55182068D01*
X116495958Y-55182072D01*
X116475996Y-55372000D01*
X116495958Y-55561928D01*
X116495959Y-55561931D01*
X116554970Y-55743549D01*
X116554973Y-55743556D01*
X116650460Y-55908944D01*
X116656558Y-55915716D01*
X116682649Y-55944693D01*
X116712879Y-56007685D01*
X116714500Y-56027666D01*
X116714500Y-66335970D01*
X116712761Y-66351717D01*
X116713032Y-66351743D01*
X116712298Y-66359509D01*
X116714500Y-66429561D01*
X116714500Y-66459463D01*
X116715384Y-66466460D01*
X116715842Y-66472283D01*
X116717326Y-66519493D01*
X116717327Y-66519495D01*
X116723022Y-66539099D01*
X116726967Y-66558146D01*
X116729526Y-66578401D01*
X116729526Y-66578403D01*
X116729527Y-66578404D01*
X116746912Y-66622317D01*
X116748803Y-66627840D01*
X116753574Y-66644257D01*
X116758500Y-66678860D01*
X116758500Y-74636366D01*
X116756761Y-74652113D01*
X116757032Y-74652139D01*
X116756298Y-74659905D01*
X116756298Y-74659908D01*
X116756298Y-74659909D01*
X116757988Y-74713679D01*
X116758500Y-74729957D01*
X116758500Y-74759859D01*
X116759384Y-74766856D01*
X116759842Y-74772679D01*
X116761326Y-74819889D01*
X116761327Y-74819891D01*
X116767022Y-74839495D01*
X116770967Y-74858542D01*
X116773526Y-74878797D01*
X116773527Y-74878800D01*
X116773528Y-74878803D01*
X116790914Y-74922716D01*
X116792806Y-74928244D01*
X116805981Y-74973592D01*
X116816372Y-74991162D01*
X116824932Y-75008635D01*
X116832447Y-75027617D01*
X116860209Y-75065827D01*
X116863416Y-75070710D01*
X116887458Y-75111362D01*
X116887462Y-75111366D01*
X116901889Y-75125793D01*
X116914526Y-75140588D01*
X116926528Y-75157107D01*
X116962931Y-75187222D01*
X116967231Y-75191135D01*
X118170329Y-76394233D01*
X119255181Y-77479085D01*
X119288666Y-77540408D01*
X119291500Y-77566766D01*
X119291500Y-78876654D01*
X119298011Y-78937202D01*
X119298011Y-78937204D01*
X119336552Y-79040532D01*
X119349111Y-79074204D01*
X119436739Y-79191261D01*
X119553796Y-79278889D01*
X119631836Y-79307996D01*
X119687767Y-79349867D01*
X119712184Y-79415331D01*
X119712500Y-79424177D01*
X119712500Y-93094000D01*
X119692815Y-93161039D01*
X119640011Y-93206794D01*
X119588500Y-93218000D01*
X96390000Y-93218000D01*
X96322961Y-93198315D01*
X96277206Y-93145511D01*
X96266000Y-93094000D01*
X96266000Y-46984942D01*
X97898780Y-46984942D01*
X97903225Y-47031966D01*
X97903500Y-47037804D01*
X97903500Y-74577366D01*
X97901761Y-74593113D01*
X97902032Y-74593139D01*
X97901298Y-74600905D01*
X97903500Y-74670957D01*
X97903500Y-74700859D01*
X97904384Y-74707856D01*
X97904842Y-74713679D01*
X97906326Y-74760889D01*
X97906327Y-74760891D01*
X97912022Y-74780495D01*
X97915967Y-74799542D01*
X97918526Y-74819797D01*
X97918527Y-74819800D01*
X97918528Y-74819803D01*
X97935914Y-74863716D01*
X97937806Y-74869244D01*
X97950981Y-74914592D01*
X97961372Y-74932162D01*
X97969932Y-74949635D01*
X97977447Y-74968617D01*
X98005209Y-75006827D01*
X98008416Y-75011710D01*
X98032458Y-75052362D01*
X98032462Y-75052366D01*
X98046889Y-75066793D01*
X98059526Y-75081588D01*
X98071528Y-75098107D01*
X98107931Y-75128222D01*
X98112231Y-75132135D01*
X99649097Y-76669001D01*
X101165915Y-78185819D01*
X101199400Y-78247142D01*
X101194416Y-78316834D01*
X101152544Y-78372767D01*
X101087080Y-78397184D01*
X101078234Y-78397500D01*
X100979431Y-78397500D01*
X100757362Y-78434556D01*
X100544430Y-78507656D01*
X100544419Y-78507661D01*
X100346427Y-78614808D01*
X100346422Y-78614812D01*
X100168761Y-78753092D01*
X100168756Y-78753097D01*
X100016284Y-78918723D01*
X100016276Y-78918734D01*
X99893140Y-79107207D01*
X99802703Y-79313385D01*
X99747436Y-79531628D01*
X99747434Y-79531640D01*
X99728844Y-79755994D01*
X99728844Y-79756005D01*
X99747434Y-79980359D01*
X99747436Y-79980371D01*
X99802703Y-80198614D01*
X99893140Y-80404792D01*
X100016276Y-80593265D01*
X100016284Y-80593276D01*
X100168756Y-80758902D01*
X100168760Y-80758906D01*
X100346424Y-80897189D01*
X100346425Y-80897189D01*
X100346427Y-80897191D01*
X100473135Y-80965761D01*
X100544426Y-81004342D01*
X100757365Y-81077444D01*
X100979431Y-81114500D01*
X101204569Y-81114500D01*
X101426635Y-81077444D01*
X101639574Y-81004342D01*
X101837576Y-80897189D01*
X102015240Y-80758906D01*
X102121761Y-80643195D01*
X102167715Y-80593276D01*
X102167715Y-80593275D01*
X102167722Y-80593268D01*
X102258193Y-80454790D01*
X102311338Y-80409437D01*
X102380569Y-80400013D01*
X102443905Y-80429515D01*
X102465804Y-80454787D01*
X102549579Y-80583014D01*
X102569765Y-80649901D01*
X102550585Y-80717087D01*
X102508894Y-80757563D01*
X102478637Y-80775457D01*
X102464201Y-80789894D01*
X102449415Y-80802523D01*
X102432893Y-80814528D01*
X102432891Y-80814529D01*
X102432891Y-80814530D01*
X102432888Y-80814532D01*
X102402780Y-80850925D01*
X102398849Y-80855246D01*
X100703179Y-82550914D01*
X100690820Y-82560818D01*
X100690993Y-82561027D01*
X100684983Y-82565999D01*
X100637015Y-82617079D01*
X100615872Y-82638222D01*
X100615857Y-82638239D01*
X100611531Y-82643814D01*
X100607747Y-82648244D01*
X100575419Y-82682671D01*
X100575412Y-82682681D01*
X100565579Y-82700567D01*
X100554903Y-82716820D01*
X100542386Y-82732957D01*
X100542385Y-82732959D01*
X100523625Y-82776310D01*
X100521055Y-82781556D01*
X100498303Y-82822941D01*
X100498303Y-82822942D01*
X100493225Y-82842720D01*
X100486925Y-82861122D01*
X100478818Y-82879857D01*
X100471431Y-82926495D01*
X100470246Y-82932216D01*
X100458500Y-82977965D01*
X100458500Y-82998384D01*
X100456973Y-83017783D01*
X100453780Y-83037941D01*
X100453780Y-83037942D01*
X100458225Y-83084966D01*
X100458500Y-83090804D01*
X100458500Y-83353500D01*
X100438815Y-83420539D01*
X100386011Y-83466294D01*
X100334500Y-83477500D01*
X100193345Y-83477500D01*
X100132797Y-83484011D01*
X100132795Y-83484011D01*
X99995795Y-83535111D01*
X99878739Y-83622739D01*
X99791111Y-83739795D01*
X99740011Y-83876795D01*
X99740011Y-83876797D01*
X99733500Y-83937345D01*
X99733500Y-85734654D01*
X99740011Y-85795202D01*
X99740011Y-85795204D01*
X99785809Y-85917988D01*
X99791111Y-85932204D01*
X99878739Y-86049261D01*
X99972699Y-86119599D01*
X99978491Y-86123935D01*
X99995796Y-86136889D01*
X100125382Y-86185222D01*
X100181313Y-86227093D01*
X100205730Y-86292557D01*
X100190878Y-86360830D01*
X100169728Y-86389084D01*
X100053886Y-86504926D01*
X99918400Y-86698420D01*
X99918399Y-86698422D01*
X99818570Y-86912507D01*
X99818567Y-86912513D01*
X99761364Y-87125999D01*
X99761364Y-87126000D01*
X100658314Y-87126000D01*
X100632507Y-87166156D01*
X100592000Y-87304111D01*
X100592000Y-87447889D01*
X100632507Y-87585844D01*
X100658314Y-87626000D01*
X99761364Y-87626000D01*
X99818567Y-87839486D01*
X99818570Y-87839492D01*
X99918399Y-88053578D01*
X100053894Y-88247082D01*
X100220917Y-88414105D01*
X100414421Y-88549600D01*
X100628507Y-88649429D01*
X100628516Y-88649433D01*
X100842000Y-88706634D01*
X100842000Y-87811501D01*
X100949685Y-87860680D01*
X101056237Y-87876000D01*
X101127763Y-87876000D01*
X101234315Y-87860680D01*
X101342000Y-87811501D01*
X101342000Y-88706633D01*
X101555483Y-88649433D01*
X101555492Y-88649429D01*
X101769578Y-88549600D01*
X101963082Y-88414105D01*
X102130105Y-88247082D01*
X102265600Y-88053578D01*
X102365429Y-87839492D01*
X102365432Y-87839486D01*
X102422636Y-87626000D01*
X101525686Y-87626000D01*
X101551493Y-87585844D01*
X101592000Y-87447889D01*
X101592000Y-87304111D01*
X101551493Y-87166156D01*
X101525686Y-87126000D01*
X102422636Y-87126000D01*
X102422635Y-87125999D01*
X102365432Y-86912513D01*
X102365429Y-86912507D01*
X102265600Y-86698422D01*
X102265599Y-86698420D01*
X102130113Y-86504926D01*
X102130108Y-86504920D01*
X102014272Y-86389084D01*
X101980787Y-86327761D01*
X101985771Y-86258069D01*
X102027643Y-86202136D01*
X102058612Y-86185224D01*
X102188204Y-86136889D01*
X102305261Y-86049261D01*
X102392889Y-85932204D01*
X102443989Y-85795201D01*
X102449650Y-85742545D01*
X102450499Y-85734654D01*
X102450500Y-85734637D01*
X102450500Y-83937362D01*
X102450499Y-83937345D01*
X102447157Y-83906270D01*
X102443989Y-83876799D01*
X102392889Y-83739796D01*
X102305261Y-83622739D01*
X102188204Y-83535111D01*
X102051203Y-83484011D01*
X101990654Y-83477500D01*
X101990638Y-83477500D01*
X101867766Y-83477500D01*
X101800727Y-83457815D01*
X101754972Y-83405011D01*
X101745028Y-83335853D01*
X101774053Y-83272297D01*
X101780085Y-83265819D01*
X103096085Y-81949819D01*
X103157408Y-81916334D01*
X103183766Y-81913500D01*
X103802366Y-81913500D01*
X103818113Y-81915238D01*
X103818139Y-81914968D01*
X103825905Y-81915701D01*
X103825909Y-81915702D01*
X103895958Y-81913500D01*
X103925856Y-81913500D01*
X103925857Y-81913500D01*
X103927222Y-81913327D01*
X103932862Y-81912614D01*
X103938685Y-81912156D01*
X103964708Y-81911338D01*
X103985890Y-81910673D01*
X103995681Y-81907827D01*
X104005481Y-81904980D01*
X104024538Y-81901032D01*
X104044797Y-81898474D01*
X104088721Y-81881082D01*
X104094221Y-81879199D01*
X104139593Y-81866018D01*
X104157165Y-81855625D01*
X104174632Y-81847068D01*
X104193617Y-81839552D01*
X104231826Y-81811790D01*
X104236704Y-81808585D01*
X104277362Y-81784542D01*
X104291802Y-81770100D01*
X104306592Y-81757470D01*
X104323107Y-81745472D01*
X104353222Y-81709067D01*
X104357126Y-81704776D01*
X104967894Y-81094008D01*
X105029216Y-81060525D01*
X105098906Y-81065508D01*
X105098908Y-81065509D01*
X105098908Y-81065510D01*
X105212792Y-81107987D01*
X105212795Y-81107987D01*
X105212799Y-81107989D01*
X105242270Y-81111157D01*
X105273345Y-81114499D01*
X105273362Y-81114500D01*
X107070638Y-81114500D01*
X107070654Y-81114499D01*
X107097692Y-81111591D01*
X107131201Y-81107989D01*
X107131207Y-81107987D01*
X107145768Y-81102555D01*
X107268204Y-81056889D01*
X107385261Y-80969261D01*
X107472889Y-80852204D01*
X107523989Y-80715201D01*
X107529622Y-80662806D01*
X107530499Y-80654654D01*
X107530500Y-80654637D01*
X107530500Y-78857362D01*
X107530499Y-78857345D01*
X107527157Y-78826270D01*
X107523989Y-78796799D01*
X107517801Y-78780209D01*
X107492748Y-78713040D01*
X107472889Y-78659796D01*
X107385261Y-78542739D01*
X107268204Y-78455111D01*
X107215977Y-78435631D01*
X107131203Y-78404011D01*
X107070654Y-78397500D01*
X107070638Y-78397500D01*
X105659500Y-78397500D01*
X105592461Y-78377815D01*
X105546706Y-78325011D01*
X105535500Y-78273500D01*
X105535500Y-61043632D01*
X105537239Y-61027880D01*
X105536968Y-61027855D01*
X105537700Y-61020099D01*
X105537702Y-61020092D01*
X105535500Y-60950028D01*
X105535500Y-60920144D01*
X105534614Y-60913141D01*
X105534157Y-60907322D01*
X105532674Y-60860113D01*
X105532674Y-60860111D01*
X105526974Y-60840492D01*
X105523031Y-60821446D01*
X105522027Y-60813500D01*
X105520474Y-60801203D01*
X105503081Y-60757274D01*
X105501204Y-60751792D01*
X105488019Y-60706407D01*
X105477620Y-60688824D01*
X105469066Y-60671363D01*
X105461552Y-60652383D01*
X105433793Y-60614176D01*
X105430586Y-60609294D01*
X105406544Y-60568641D01*
X105406543Y-60568640D01*
X105406542Y-60568638D01*
X105392108Y-60554204D01*
X105379471Y-60539409D01*
X105367472Y-60522893D01*
X105367470Y-60522890D01*
X105331073Y-60492781D01*
X105326751Y-60488847D01*
X102400335Y-57562430D01*
X102366850Y-57501107D01*
X102368242Y-57442654D01*
X102385541Y-57378094D01*
X102385542Y-57378089D01*
X102385543Y-57378087D01*
X102405498Y-57150000D01*
X102385543Y-56921913D01*
X102326284Y-56700757D01*
X102322873Y-56693443D01*
X102275594Y-56592051D01*
X102229523Y-56493251D01*
X102098198Y-56305700D01*
X101936300Y-56143802D01*
X101748749Y-56012477D01*
X101738472Y-56007685D01*
X101705655Y-55992382D01*
X101653215Y-55946210D01*
X101634063Y-55879017D01*
X101654278Y-55812136D01*
X101705655Y-55767618D01*
X101708882Y-55766112D01*
X101748749Y-55747523D01*
X101936300Y-55616198D01*
X102098198Y-55454300D01*
X102229523Y-55266749D01*
X102326284Y-55059243D01*
X102385543Y-54838087D01*
X102405498Y-54610000D01*
X102385543Y-54381913D01*
X102326284Y-54160757D01*
X102322176Y-54151948D01*
X102275888Y-54052681D01*
X102229523Y-53953251D01*
X102098198Y-53765700D01*
X101936300Y-53603802D01*
X101748749Y-53472477D01*
X101705655Y-53452382D01*
X101653215Y-53406210D01*
X101634063Y-53339017D01*
X101654278Y-53272136D01*
X101705655Y-53227618D01*
X101708882Y-53226112D01*
X101748749Y-53207523D01*
X101936300Y-53076198D01*
X102098198Y-52914300D01*
X102229523Y-52726749D01*
X102326284Y-52519243D01*
X102385543Y-52298087D01*
X102405498Y-52070000D01*
X102404258Y-52055831D01*
X102393309Y-51930680D01*
X102385543Y-51841913D01*
X102326284Y-51620757D01*
X102323594Y-51614989D01*
X102266345Y-51492217D01*
X102229523Y-51413251D01*
X102098198Y-51225700D01*
X101936300Y-51063802D01*
X101748749Y-50932477D01*
X101705655Y-50912382D01*
X101653215Y-50866210D01*
X101634063Y-50799017D01*
X101654278Y-50732136D01*
X101705655Y-50687618D01*
X101708882Y-50686112D01*
X101748749Y-50667523D01*
X101936300Y-50536198D01*
X102098198Y-50374300D01*
X102229523Y-50186749D01*
X102326284Y-49979243D01*
X102385543Y-49758087D01*
X102405498Y-49530000D01*
X102385543Y-49301913D01*
X102326284Y-49080757D01*
X102324113Y-49076102D01*
X102270610Y-48961363D01*
X102229523Y-48873251D01*
X102098198Y-48685700D01*
X101936300Y-48523802D01*
X101748749Y-48392477D01*
X101705655Y-48372382D01*
X101653215Y-48326210D01*
X101634063Y-48259017D01*
X101654278Y-48192136D01*
X101705655Y-48147618D01*
X101708882Y-48146112D01*
X101748749Y-48127523D01*
X101936300Y-47996198D01*
X102098198Y-47834300D01*
X102229523Y-47646749D01*
X102326284Y-47439243D01*
X102385543Y-47218087D01*
X102405498Y-46990000D01*
X102405497Y-46989993D01*
X102394828Y-46868042D01*
X102385543Y-46761913D01*
X102326284Y-46540757D01*
X102310924Y-46507818D01*
X102261908Y-46402702D01*
X102229523Y-46333251D01*
X102098198Y-46145700D01*
X101936300Y-45983802D01*
X101928628Y-45978430D01*
X101885006Y-45923853D01*
X101877814Y-45854355D01*
X101909338Y-45792001D01*
X101969568Y-45756588D01*
X101986489Y-45753570D01*
X102001201Y-45751989D01*
X102138204Y-45700889D01*
X102255261Y-45613261D01*
X102342889Y-45496204D01*
X102393989Y-45359201D01*
X102398054Y-45321392D01*
X102400499Y-45298654D01*
X102400500Y-45298637D01*
X102400500Y-43601362D01*
X102400499Y-43601345D01*
X102396130Y-43560717D01*
X102393989Y-43540799D01*
X102342889Y-43403796D01*
X102255261Y-43286739D01*
X102138204Y-43199111D01*
X102121244Y-43192785D01*
X102001203Y-43148011D01*
X101940654Y-43141500D01*
X101940638Y-43141500D01*
X100243362Y-43141500D01*
X100243345Y-43141500D01*
X100182797Y-43148011D01*
X100182795Y-43148011D01*
X100045795Y-43199111D01*
X99928739Y-43286739D01*
X99841111Y-43403795D01*
X99790011Y-43540795D01*
X99790011Y-43540797D01*
X99783500Y-43601345D01*
X99783500Y-44811232D01*
X99763815Y-44878271D01*
X99747181Y-44898913D01*
X98148179Y-46497914D01*
X98135820Y-46507818D01*
X98135993Y-46508027D01*
X98129983Y-46512999D01*
X98082016Y-46564078D01*
X98060872Y-46585222D01*
X98060857Y-46585239D01*
X98056531Y-46590814D01*
X98052747Y-46595244D01*
X98020419Y-46629671D01*
X98020412Y-46629681D01*
X98010579Y-46647567D01*
X97999903Y-46663820D01*
X97987386Y-46679957D01*
X97987385Y-46679959D01*
X97968625Y-46723310D01*
X97966055Y-46728556D01*
X97943303Y-46769941D01*
X97943303Y-46769942D01*
X97938225Y-46789720D01*
X97931925Y-46808122D01*
X97923818Y-46826857D01*
X97916431Y-46873495D01*
X97915246Y-46879216D01*
X97903500Y-46924965D01*
X97903500Y-46945384D01*
X97901973Y-46964783D01*
X97898780Y-46984941D01*
X97898780Y-46984942D01*
X96266000Y-46984942D01*
X96266000Y-40894002D01*
X101097034Y-40894002D01*
X101116858Y-41120599D01*
X101116860Y-41120610D01*
X101175730Y-41340317D01*
X101175734Y-41340326D01*
X101271865Y-41546481D01*
X101271866Y-41546483D01*
X101322973Y-41619471D01*
X101322974Y-41619472D01*
X102004046Y-40938399D01*
X102016835Y-41019148D01*
X102074359Y-41132045D01*
X102163955Y-41221641D01*
X102276852Y-41279165D01*
X102357599Y-41291953D01*
X101676526Y-41973025D01*
X101676526Y-41973026D01*
X101749512Y-42024131D01*
X101749516Y-42024133D01*
X101955673Y-42120265D01*
X101955682Y-42120269D01*
X102175389Y-42179139D01*
X102175400Y-42179141D01*
X102401998Y-42198966D01*
X102402002Y-42198966D01*
X102628599Y-42179141D01*
X102628610Y-42179139D01*
X102848317Y-42120269D01*
X102848331Y-42120264D01*
X103054478Y-42024136D01*
X103127472Y-41973025D01*
X102446401Y-41291953D01*
X102527148Y-41279165D01*
X102640045Y-41221641D01*
X102729641Y-41132045D01*
X102787165Y-41019148D01*
X102799953Y-40938400D01*
X103481025Y-41619472D01*
X103532136Y-41546478D01*
X103628264Y-41340331D01*
X103628269Y-41340317D01*
X103687139Y-41120610D01*
X103687141Y-41120599D01*
X103706966Y-40894002D01*
X103706966Y-40893997D01*
X103687141Y-40667400D01*
X103687139Y-40667389D01*
X103628269Y-40447682D01*
X103628265Y-40447673D01*
X103532133Y-40241516D01*
X103532131Y-40241512D01*
X103481026Y-40168526D01*
X103481025Y-40168526D01*
X102799953Y-40849598D01*
X102787165Y-40768852D01*
X102729641Y-40655955D01*
X102640045Y-40566359D01*
X102527148Y-40508835D01*
X102446400Y-40496046D01*
X103127472Y-39814974D01*
X103127471Y-39814973D01*
X103054483Y-39763866D01*
X103054481Y-39763865D01*
X102848326Y-39667734D01*
X102848317Y-39667730D01*
X102628610Y-39608860D01*
X102628599Y-39608858D01*
X102402002Y-39589034D01*
X102401998Y-39589034D01*
X102175400Y-39608858D01*
X102175389Y-39608860D01*
X101955682Y-39667730D01*
X101955673Y-39667734D01*
X101749513Y-39763868D01*
X101676527Y-39814972D01*
X101676526Y-39814973D01*
X102357600Y-40496046D01*
X102276852Y-40508835D01*
X102163955Y-40566359D01*
X102074359Y-40655955D01*
X102016835Y-40768852D01*
X102004046Y-40849599D01*
X101322973Y-40168526D01*
X101322972Y-40168527D01*
X101271868Y-40241513D01*
X101175734Y-40447673D01*
X101175730Y-40447682D01*
X101116860Y-40667389D01*
X101116858Y-40667400D01*
X101097034Y-40893997D01*
X101097034Y-40894002D01*
X96266000Y-40894002D01*
X96266000Y-28959999D01*
X113529127Y-28959999D01*
X113529128Y-28960000D01*
X114492314Y-28960000D01*
X114480359Y-28971955D01*
X114422835Y-29084852D01*
X114403014Y-29210000D01*
X114422835Y-29335148D01*
X114480359Y-29448045D01*
X114492314Y-29460000D01*
X113529128Y-29460000D01*
X113581730Y-29656317D01*
X113581734Y-29656326D01*
X113677865Y-29862482D01*
X113808342Y-30048820D01*
X113969179Y-30209657D01*
X114155517Y-30340134D01*
X114361673Y-30436265D01*
X114361682Y-30436269D01*
X114557999Y-30488872D01*
X114558000Y-30488871D01*
X114558000Y-29525686D01*
X114569955Y-29537641D01*
X114682852Y-29595165D01*
X114776519Y-29610000D01*
X114839481Y-29610000D01*
X114933148Y-29595165D01*
X115046045Y-29537641D01*
X115058000Y-29525686D01*
X115058000Y-30488872D01*
X115254317Y-30436269D01*
X115254326Y-30436265D01*
X115460482Y-30340134D01*
X115646820Y-30209657D01*
X115807657Y-30048820D01*
X115938133Y-29862483D01*
X115960927Y-29813600D01*
X116007098Y-29761160D01*
X116074292Y-29742007D01*
X116141173Y-29762221D01*
X116185691Y-29813596D01*
X116210477Y-29866749D01*
X116341802Y-30054300D01*
X116503700Y-30216198D01*
X116691251Y-30347523D01*
X116746445Y-30373260D01*
X116898750Y-30444281D01*
X116898752Y-30444281D01*
X116898757Y-30444284D01*
X117119913Y-30503543D01*
X117282832Y-30517796D01*
X117347998Y-30523498D01*
X117348000Y-30523498D01*
X117348002Y-30523498D01*
X117405139Y-30518499D01*
X117576087Y-30503543D01*
X117797243Y-30444284D01*
X118004749Y-30347523D01*
X118192300Y-30216198D01*
X118354198Y-30054300D01*
X118485523Y-29866749D01*
X118505618Y-29823655D01*
X118551790Y-29771215D01*
X118618983Y-29752063D01*
X118685864Y-29772278D01*
X118730382Y-29823655D01*
X118748068Y-29861584D01*
X118750477Y-29866749D01*
X118881802Y-30054300D01*
X119043700Y-30216198D01*
X119231251Y-30347523D01*
X119286445Y-30373260D01*
X119438750Y-30444281D01*
X119438752Y-30444281D01*
X119438757Y-30444284D01*
X119659913Y-30503543D01*
X119822832Y-30517796D01*
X119887998Y-30523498D01*
X119888000Y-30523498D01*
X119888002Y-30523498D01*
X119945139Y-30518499D01*
X120116087Y-30503543D01*
X120337243Y-30444284D01*
X120544749Y-30347523D01*
X120732300Y-30216198D01*
X120894198Y-30054300D01*
X121025523Y-29866749D01*
X121045618Y-29823655D01*
X121091790Y-29771215D01*
X121158983Y-29752063D01*
X121225864Y-29772278D01*
X121270382Y-29823655D01*
X121288068Y-29861584D01*
X121290477Y-29866749D01*
X121421802Y-30054300D01*
X121583700Y-30216198D01*
X121771251Y-30347523D01*
X121826445Y-30373260D01*
X121978750Y-30444281D01*
X121978752Y-30444281D01*
X121978757Y-30444284D01*
X122199913Y-30503543D01*
X122362832Y-30517796D01*
X122427998Y-30523498D01*
X122428000Y-30523498D01*
X122428002Y-30523498D01*
X122485139Y-30518499D01*
X122656087Y-30503543D01*
X122877243Y-30444284D01*
X123084749Y-30347523D01*
X123272300Y-30216198D01*
X123434198Y-30054300D01*
X123565523Y-29866749D01*
X123585618Y-29823655D01*
X123631790Y-29771215D01*
X123698983Y-29752063D01*
X123765864Y-29772278D01*
X123810382Y-29823655D01*
X123828068Y-29861584D01*
X123830477Y-29866749D01*
X123961802Y-30054300D01*
X124123700Y-30216198D01*
X124311251Y-30347523D01*
X124366445Y-30373260D01*
X124518750Y-30444281D01*
X124518752Y-30444281D01*
X124518757Y-30444284D01*
X124739913Y-30503543D01*
X124902832Y-30517796D01*
X124967998Y-30523498D01*
X124968000Y-30523498D01*
X124968002Y-30523498D01*
X125025139Y-30518499D01*
X125196087Y-30503543D01*
X125417243Y-30444284D01*
X125624749Y-30347523D01*
X125812300Y-30216198D01*
X125974198Y-30054300D01*
X126105523Y-29866749D01*
X126125618Y-29823655D01*
X126171790Y-29771215D01*
X126238983Y-29752063D01*
X126305864Y-29772278D01*
X126350382Y-29823655D01*
X126368068Y-29861584D01*
X126370477Y-29866749D01*
X126501802Y-30054300D01*
X126663700Y-30216198D01*
X126851251Y-30347523D01*
X126906445Y-30373260D01*
X127058750Y-30444281D01*
X127058752Y-30444281D01*
X127058757Y-30444284D01*
X127279913Y-30503543D01*
X127442832Y-30517796D01*
X127507998Y-30523498D01*
X127508000Y-30523498D01*
X127508002Y-30523498D01*
X127565139Y-30518499D01*
X127736087Y-30503543D01*
X127957243Y-30444284D01*
X128164749Y-30347523D01*
X128352300Y-30216198D01*
X128514198Y-30054300D01*
X128645523Y-29866749D01*
X128665618Y-29823655D01*
X128711790Y-29771215D01*
X128778983Y-29752063D01*
X128845864Y-29772278D01*
X128890382Y-29823655D01*
X128908068Y-29861584D01*
X128910477Y-29866749D01*
X129041802Y-30054300D01*
X129203700Y-30216198D01*
X129391251Y-30347523D01*
X129446445Y-30373260D01*
X129598750Y-30444281D01*
X129598752Y-30444281D01*
X129598757Y-30444284D01*
X129819913Y-30503543D01*
X129903965Y-30510896D01*
X129969033Y-30536348D01*
X129980838Y-30546743D01*
X130302910Y-30868814D01*
X130312818Y-30881181D01*
X130313028Y-30881008D01*
X130317998Y-30887017D01*
X130369079Y-30934984D01*
X130390224Y-30956130D01*
X130395813Y-30960466D01*
X130400245Y-30964252D01*
X130402460Y-30966331D01*
X130434680Y-30996587D01*
X130452562Y-31006417D01*
X130468829Y-31017102D01*
X130484960Y-31029615D01*
X130506838Y-31039081D01*
X130528307Y-31048371D01*
X130533533Y-31050931D01*
X130574940Y-31073695D01*
X130594716Y-31078772D01*
X130613124Y-31085075D01*
X130631850Y-31093179D01*
X130631852Y-31093180D01*
X130631853Y-31093180D01*
X130631855Y-31093181D01*
X130672784Y-31099663D01*
X130678503Y-31100569D01*
X130684212Y-31101751D01*
X130729970Y-31113500D01*
X130750384Y-31113500D01*
X130769783Y-31115027D01*
X130789943Y-31118220D01*
X130836966Y-31113775D01*
X130842804Y-31113500D01*
X135900639Y-31113500D01*
X135967678Y-31133185D01*
X135988320Y-31149819D01*
X137993315Y-33154814D01*
X138003221Y-33167178D01*
X138003431Y-33167005D01*
X138008406Y-33173019D01*
X138059499Y-33220999D01*
X138080630Y-33242129D01*
X138080635Y-33242134D01*
X138086207Y-33246456D01*
X138090647Y-33250249D01*
X138125083Y-33282586D01*
X138142972Y-33292420D01*
X138159238Y-33303104D01*
X138175364Y-33315613D01*
X138218703Y-33334367D01*
X138223950Y-33336937D01*
X138265345Y-33359695D01*
X138285123Y-33364773D01*
X138303524Y-33371073D01*
X138322260Y-33379181D01*
X138366767Y-33386229D01*
X138368908Y-33386569D01*
X138374617Y-33387751D01*
X138420375Y-33399500D01*
X138440789Y-33399500D01*
X138460188Y-33401027D01*
X138480348Y-33404220D01*
X138527371Y-33399775D01*
X138533209Y-33399500D01*
X150040366Y-33399500D01*
X150056113Y-33401238D01*
X150056139Y-33400968D01*
X150063905Y-33401701D01*
X150063909Y-33401702D01*
X150133958Y-33399500D01*
X150163856Y-33399500D01*
X150163857Y-33399500D01*
X150165222Y-33399327D01*
X150170862Y-33398614D01*
X150176685Y-33398156D01*
X150202708Y-33397338D01*
X150223890Y-33396673D01*
X150233681Y-33393827D01*
X150243481Y-33390980D01*
X150262538Y-33387032D01*
X150282797Y-33384474D01*
X150326721Y-33367082D01*
X150332221Y-33365199D01*
X150377593Y-33352018D01*
X150395165Y-33341625D01*
X150412632Y-33333068D01*
X150431617Y-33325552D01*
X150469826Y-33297790D01*
X150474704Y-33294585D01*
X150515362Y-33270542D01*
X150529802Y-33256100D01*
X150544592Y-33243470D01*
X150561107Y-33231472D01*
X150591222Y-33195067D01*
X150595126Y-33190776D01*
X153263343Y-30522559D01*
X153324664Y-30489076D01*
X153383117Y-30490468D01*
X153431905Y-30503541D01*
X153431906Y-30503541D01*
X153431913Y-30503543D01*
X153626031Y-30520526D01*
X153659998Y-30523498D01*
X153660000Y-30523498D01*
X153660002Y-30523498D01*
X153717139Y-30518499D01*
X153888087Y-30503543D01*
X154109243Y-30444284D01*
X154316749Y-30347523D01*
X154504300Y-30216198D01*
X154666198Y-30054300D01*
X154797523Y-29866749D01*
X154817618Y-29823655D01*
X154863790Y-29771215D01*
X154930983Y-29752063D01*
X154997864Y-29772278D01*
X155042382Y-29823655D01*
X155060068Y-29861584D01*
X155062477Y-29866749D01*
X155193802Y-30054300D01*
X155355700Y-30216198D01*
X155543251Y-30347523D01*
X155598445Y-30373260D01*
X155750750Y-30444281D01*
X155750752Y-30444281D01*
X155750757Y-30444284D01*
X155971913Y-30503543D01*
X156134832Y-30517796D01*
X156199998Y-30523498D01*
X156200000Y-30523498D01*
X156200002Y-30523498D01*
X156257139Y-30518499D01*
X156428087Y-30503543D01*
X156649243Y-30444284D01*
X156856749Y-30347523D01*
X157044300Y-30216198D01*
X157206198Y-30054300D01*
X157337523Y-29866749D01*
X157357618Y-29823655D01*
X157403790Y-29771215D01*
X157470983Y-29752063D01*
X157537864Y-29772278D01*
X157582382Y-29823655D01*
X157600068Y-29861584D01*
X157602477Y-29866749D01*
X157733802Y-30054300D01*
X157895700Y-30216198D01*
X158083251Y-30347523D01*
X158138445Y-30373260D01*
X158290750Y-30444281D01*
X158290752Y-30444281D01*
X158290757Y-30444284D01*
X158511913Y-30503543D01*
X158674832Y-30517796D01*
X158739998Y-30523498D01*
X158740000Y-30523498D01*
X158740002Y-30523498D01*
X158797139Y-30518499D01*
X158968087Y-30503543D01*
X159189243Y-30444284D01*
X159396749Y-30347523D01*
X159584300Y-30216198D01*
X159746198Y-30054300D01*
X159877523Y-29866749D01*
X159897618Y-29823655D01*
X159943790Y-29771215D01*
X160010983Y-29752063D01*
X160077864Y-29772278D01*
X160122382Y-29823655D01*
X160140068Y-29861584D01*
X160142477Y-29866749D01*
X160273802Y-30054300D01*
X160435700Y-30216198D01*
X160623251Y-30347523D01*
X160678445Y-30373260D01*
X160830750Y-30444281D01*
X160830752Y-30444281D01*
X160830757Y-30444284D01*
X161051913Y-30503543D01*
X161214832Y-30517796D01*
X161279998Y-30523498D01*
X161280000Y-30523498D01*
X161280002Y-30523498D01*
X161337139Y-30518499D01*
X161508087Y-30503543D01*
X161729243Y-30444284D01*
X161936749Y-30347523D01*
X162124300Y-30216198D01*
X162286198Y-30054300D01*
X162417523Y-29866749D01*
X162437618Y-29823655D01*
X162483790Y-29771215D01*
X162550983Y-29752063D01*
X162617864Y-29772278D01*
X162662382Y-29823655D01*
X162680068Y-29861584D01*
X162682477Y-29866749D01*
X162813802Y-30054300D01*
X162975700Y-30216198D01*
X163163251Y-30347523D01*
X163218445Y-30373260D01*
X163370750Y-30444281D01*
X163370752Y-30444281D01*
X163370757Y-30444284D01*
X163591913Y-30503543D01*
X163754832Y-30517796D01*
X163819998Y-30523498D01*
X163820000Y-30523498D01*
X163820002Y-30523498D01*
X163877139Y-30518499D01*
X164048087Y-30503543D01*
X164269243Y-30444284D01*
X164476749Y-30347523D01*
X164664300Y-30216198D01*
X164826198Y-30054300D01*
X164957523Y-29866749D01*
X164977618Y-29823655D01*
X165023790Y-29771215D01*
X165090983Y-29752063D01*
X165157864Y-29772278D01*
X165202382Y-29823655D01*
X165220068Y-29861584D01*
X165222477Y-29866749D01*
X165353802Y-30054300D01*
X165515700Y-30216198D01*
X165703251Y-30347523D01*
X165758445Y-30373260D01*
X165910750Y-30444281D01*
X165910752Y-30444281D01*
X165910757Y-30444284D01*
X166131913Y-30503543D01*
X166294832Y-30517796D01*
X166359998Y-30523498D01*
X166360000Y-30523498D01*
X166360002Y-30523498D01*
X166417139Y-30518499D01*
X166588087Y-30503543D01*
X166809243Y-30444284D01*
X167016749Y-30347523D01*
X167204300Y-30216198D01*
X167366198Y-30054300D01*
X167497523Y-29866749D01*
X167517618Y-29823655D01*
X167563790Y-29771215D01*
X167630983Y-29752063D01*
X167697864Y-29772278D01*
X167742382Y-29823655D01*
X167760068Y-29861584D01*
X167762477Y-29866749D01*
X167893802Y-30054300D01*
X168055700Y-30216198D01*
X168243251Y-30347523D01*
X168298445Y-30373260D01*
X168450750Y-30444281D01*
X168450752Y-30444281D01*
X168450757Y-30444284D01*
X168671913Y-30503543D01*
X168834832Y-30517796D01*
X168899998Y-30523498D01*
X168900000Y-30523498D01*
X168900002Y-30523498D01*
X168957139Y-30518499D01*
X169128087Y-30503543D01*
X169349243Y-30444284D01*
X169556749Y-30347523D01*
X169744300Y-30216198D01*
X169906198Y-30054300D01*
X170037523Y-29866749D01*
X170057618Y-29823655D01*
X170103790Y-29771215D01*
X170170983Y-29752063D01*
X170237864Y-29772278D01*
X170282382Y-29823655D01*
X170300068Y-29861584D01*
X170302477Y-29866749D01*
X170433802Y-30054300D01*
X170595700Y-30216198D01*
X170783251Y-30347523D01*
X170838445Y-30373260D01*
X170990750Y-30444281D01*
X170990752Y-30444281D01*
X170990757Y-30444284D01*
X171211913Y-30503543D01*
X171374832Y-30517796D01*
X171439998Y-30523498D01*
X171440000Y-30523498D01*
X171440002Y-30523498D01*
X171497139Y-30518499D01*
X171668087Y-30503543D01*
X171889243Y-30444284D01*
X172096749Y-30347523D01*
X172284300Y-30216198D01*
X172446198Y-30054300D01*
X172577523Y-29866749D01*
X172597618Y-29823655D01*
X172643790Y-29771215D01*
X172710983Y-29752063D01*
X172777864Y-29772278D01*
X172822382Y-29823655D01*
X172840068Y-29861584D01*
X172842477Y-29866749D01*
X172973802Y-30054300D01*
X173135700Y-30216198D01*
X173323251Y-30347523D01*
X173378445Y-30373260D01*
X173530750Y-30444281D01*
X173530752Y-30444281D01*
X173530757Y-30444284D01*
X173751913Y-30503543D01*
X173914832Y-30517796D01*
X173979998Y-30523498D01*
X173980000Y-30523498D01*
X173980002Y-30523498D01*
X174037139Y-30518499D01*
X174208087Y-30503543D01*
X174429243Y-30444284D01*
X174636749Y-30347523D01*
X174824300Y-30216198D01*
X174986198Y-30054300D01*
X175117523Y-29866749D01*
X175137618Y-29823655D01*
X175183790Y-29771215D01*
X175250983Y-29752063D01*
X175317864Y-29772278D01*
X175362382Y-29823655D01*
X175380068Y-29861584D01*
X175382477Y-29866749D01*
X175513802Y-30054300D01*
X175675700Y-30216198D01*
X175863251Y-30347523D01*
X175918445Y-30373260D01*
X176070750Y-30444281D01*
X176070752Y-30444281D01*
X176070757Y-30444284D01*
X176291913Y-30503543D01*
X176454832Y-30517796D01*
X176519998Y-30523498D01*
X176520000Y-30523498D01*
X176520002Y-30523498D01*
X176577139Y-30518499D01*
X176748087Y-30503543D01*
X176969243Y-30444284D01*
X177176749Y-30347523D01*
X177364300Y-30216198D01*
X177526198Y-30054300D01*
X177657523Y-29866749D01*
X177677618Y-29823655D01*
X177723790Y-29771215D01*
X177790983Y-29752063D01*
X177857864Y-29772278D01*
X177902382Y-29823655D01*
X177920068Y-29861584D01*
X177922477Y-29866749D01*
X178053802Y-30054300D01*
X178215700Y-30216198D01*
X178403251Y-30347523D01*
X178458445Y-30373260D01*
X178610750Y-30444281D01*
X178610752Y-30444281D01*
X178610757Y-30444284D01*
X178831913Y-30503543D01*
X178994832Y-30517796D01*
X179059998Y-30523498D01*
X179060000Y-30523498D01*
X179060002Y-30523498D01*
X179117139Y-30518499D01*
X179288087Y-30503543D01*
X179509243Y-30444284D01*
X179716749Y-30347523D01*
X179904300Y-30216198D01*
X180066198Y-30054300D01*
X180079012Y-30035999D01*
X180133585Y-29992376D01*
X180203084Y-29985182D01*
X180265439Y-30016704D01*
X180300853Y-30076933D01*
X180303874Y-30093867D01*
X180306401Y-30117373D01*
X180306403Y-30117379D01*
X180356645Y-30252086D01*
X180356649Y-30252093D01*
X180442809Y-30367187D01*
X180442812Y-30367190D01*
X180557906Y-30453350D01*
X180557913Y-30453354D01*
X180692620Y-30503596D01*
X180692627Y-30503598D01*
X180752155Y-30509999D01*
X180752172Y-30510000D01*
X181350000Y-30510000D01*
X181350000Y-29525686D01*
X181361955Y-29537641D01*
X181474852Y-29595165D01*
X181568519Y-29610000D01*
X181631481Y-29610000D01*
X181725148Y-29595165D01*
X181838045Y-29537641D01*
X181850000Y-29525686D01*
X181850000Y-30510000D01*
X182447828Y-30510000D01*
X182447844Y-30509999D01*
X182507372Y-30503598D01*
X182507379Y-30503596D01*
X182642086Y-30453354D01*
X182642093Y-30453350D01*
X182757187Y-30367190D01*
X182757190Y-30367187D01*
X182843350Y-30252093D01*
X182843354Y-30252086D01*
X182893596Y-30117379D01*
X182893598Y-30117372D01*
X182899999Y-30057844D01*
X182900000Y-30057827D01*
X182900000Y-29460000D01*
X181915686Y-29460000D01*
X181927641Y-29448045D01*
X181985165Y-29335148D01*
X182004986Y-29210000D01*
X181985165Y-29084852D01*
X181927641Y-28971955D01*
X181915686Y-28960000D01*
X182900000Y-28960000D01*
X182900000Y-28362172D01*
X182899999Y-28362155D01*
X182893598Y-28302627D01*
X182893596Y-28302620D01*
X182843354Y-28167913D01*
X182843350Y-28167906D01*
X182757190Y-28052812D01*
X182757187Y-28052809D01*
X182642093Y-27966649D01*
X182642086Y-27966645D01*
X182507379Y-27916403D01*
X182507372Y-27916401D01*
X182447844Y-27910000D01*
X181850000Y-27910000D01*
X181850000Y-28894314D01*
X181838045Y-28882359D01*
X181725148Y-28824835D01*
X181631481Y-28810000D01*
X181568519Y-28810000D01*
X181474852Y-28824835D01*
X181361955Y-28882359D01*
X181350000Y-28894314D01*
X181350000Y-27910000D01*
X180752155Y-27910000D01*
X180692627Y-27916401D01*
X180692620Y-27916403D01*
X180557913Y-27966645D01*
X180557906Y-27966649D01*
X180442812Y-28052809D01*
X180442809Y-28052812D01*
X180356649Y-28167906D01*
X180356645Y-28167913D01*
X180306403Y-28302620D01*
X180306401Y-28302626D01*
X180303874Y-28326133D01*
X180277135Y-28390683D01*
X180219741Y-28430530D01*
X180149916Y-28433023D01*
X180089828Y-28397369D01*
X180079011Y-28383999D01*
X180066197Y-28365699D01*
X179904304Y-28203806D01*
X179904300Y-28203802D01*
X179716749Y-28072477D01*
X179716745Y-28072475D01*
X179509249Y-27975718D01*
X179509238Y-27975714D01*
X179288089Y-27916457D01*
X179288081Y-27916456D01*
X179060002Y-27896502D01*
X179059998Y-27896502D01*
X178831918Y-27916456D01*
X178831910Y-27916457D01*
X178610761Y-27975714D01*
X178610750Y-27975718D01*
X178403254Y-28072475D01*
X178403252Y-28072476D01*
X178403251Y-28072477D01*
X178215700Y-28203802D01*
X178215698Y-28203803D01*
X178215695Y-28203806D01*
X178053806Y-28365695D01*
X177922476Y-28553251D01*
X177902382Y-28596345D01*
X177856209Y-28648784D01*
X177789016Y-28667936D01*
X177722135Y-28647720D01*
X177677618Y-28596345D01*
X177657523Y-28553251D01*
X177526198Y-28365700D01*
X177364300Y-28203802D01*
X177176749Y-28072477D01*
X177176745Y-28072475D01*
X176969249Y-27975718D01*
X176969238Y-27975714D01*
X176748089Y-27916457D01*
X176748081Y-27916456D01*
X176520002Y-27896502D01*
X176519998Y-27896502D01*
X176291918Y-27916456D01*
X176291910Y-27916457D01*
X176070761Y-27975714D01*
X176070750Y-27975718D01*
X175863254Y-28072475D01*
X175863252Y-28072476D01*
X175863251Y-28072477D01*
X175675700Y-28203802D01*
X175675698Y-28203803D01*
X175675695Y-28203806D01*
X175513806Y-28365695D01*
X175382476Y-28553251D01*
X175362382Y-28596345D01*
X175316209Y-28648784D01*
X175249016Y-28667936D01*
X175182135Y-28647720D01*
X175137618Y-28596345D01*
X175117523Y-28553251D01*
X174986198Y-28365700D01*
X174824300Y-28203802D01*
X174636749Y-28072477D01*
X174636745Y-28072475D01*
X174429249Y-27975718D01*
X174429238Y-27975714D01*
X174208089Y-27916457D01*
X174208081Y-27916456D01*
X173980002Y-27896502D01*
X173979998Y-27896502D01*
X173751918Y-27916456D01*
X173751910Y-27916457D01*
X173530761Y-27975714D01*
X173530750Y-27975718D01*
X173323254Y-28072475D01*
X173323252Y-28072476D01*
X173323251Y-28072477D01*
X173135700Y-28203802D01*
X173135698Y-28203803D01*
X173135695Y-28203806D01*
X172973806Y-28365695D01*
X172842476Y-28553251D01*
X172822382Y-28596345D01*
X172776209Y-28648784D01*
X172709016Y-28667936D01*
X172642135Y-28647720D01*
X172597618Y-28596345D01*
X172577523Y-28553251D01*
X172446198Y-28365700D01*
X172284300Y-28203802D01*
X172096749Y-28072477D01*
X172096745Y-28072475D01*
X171889249Y-27975718D01*
X171889238Y-27975714D01*
X171668089Y-27916457D01*
X171668081Y-27916456D01*
X171440002Y-27896502D01*
X171439998Y-27896502D01*
X171211918Y-27916456D01*
X171211910Y-27916457D01*
X170990761Y-27975714D01*
X170990750Y-27975718D01*
X170783254Y-28072475D01*
X170783252Y-28072476D01*
X170783251Y-28072477D01*
X170595700Y-28203802D01*
X170595698Y-28203803D01*
X170595695Y-28203806D01*
X170433806Y-28365695D01*
X170302476Y-28553251D01*
X170282382Y-28596345D01*
X170236209Y-28648784D01*
X170169016Y-28667936D01*
X170102135Y-28647720D01*
X170057618Y-28596345D01*
X170037523Y-28553251D01*
X169906198Y-28365700D01*
X169744300Y-28203802D01*
X169556749Y-28072477D01*
X169556745Y-28072475D01*
X169349249Y-27975718D01*
X169349238Y-27975714D01*
X169128089Y-27916457D01*
X169128081Y-27916456D01*
X168900002Y-27896502D01*
X168899998Y-27896502D01*
X168671918Y-27916456D01*
X168671910Y-27916457D01*
X168450761Y-27975714D01*
X168450750Y-27975718D01*
X168243254Y-28072475D01*
X168243252Y-28072476D01*
X168243251Y-28072477D01*
X168055700Y-28203802D01*
X168055698Y-28203803D01*
X168055695Y-28203806D01*
X167893806Y-28365695D01*
X167762476Y-28553251D01*
X167742382Y-28596345D01*
X167696209Y-28648784D01*
X167629016Y-28667936D01*
X167562135Y-28647720D01*
X167517618Y-28596345D01*
X167497523Y-28553251D01*
X167366198Y-28365700D01*
X167204300Y-28203802D01*
X167016749Y-28072477D01*
X167016745Y-28072475D01*
X166809249Y-27975718D01*
X166809238Y-27975714D01*
X166588089Y-27916457D01*
X166588081Y-27916456D01*
X166360002Y-27896502D01*
X166359998Y-27896502D01*
X166131918Y-27916456D01*
X166131910Y-27916457D01*
X165910761Y-27975714D01*
X165910750Y-27975718D01*
X165703254Y-28072475D01*
X165703252Y-28072476D01*
X165703251Y-28072477D01*
X165515700Y-28203802D01*
X165515698Y-28203803D01*
X165515695Y-28203806D01*
X165353806Y-28365695D01*
X165222476Y-28553251D01*
X165202382Y-28596345D01*
X165156209Y-28648784D01*
X165089016Y-28667936D01*
X165022135Y-28647720D01*
X164977618Y-28596345D01*
X164957523Y-28553251D01*
X164826198Y-28365700D01*
X164664300Y-28203802D01*
X164476749Y-28072477D01*
X164476745Y-28072475D01*
X164269249Y-27975718D01*
X164269238Y-27975714D01*
X164048089Y-27916457D01*
X164048081Y-27916456D01*
X163820002Y-27896502D01*
X163819998Y-27896502D01*
X163591918Y-27916456D01*
X163591910Y-27916457D01*
X163370761Y-27975714D01*
X163370750Y-27975718D01*
X163163254Y-28072475D01*
X163163252Y-28072476D01*
X163163251Y-28072477D01*
X162975700Y-28203802D01*
X162975698Y-28203803D01*
X162975695Y-28203806D01*
X162813806Y-28365695D01*
X162682476Y-28553251D01*
X162662382Y-28596345D01*
X162616209Y-28648784D01*
X162549016Y-28667936D01*
X162482135Y-28647720D01*
X162437618Y-28596345D01*
X162417523Y-28553251D01*
X162286198Y-28365700D01*
X162124300Y-28203802D01*
X161936749Y-28072477D01*
X161936745Y-28072475D01*
X161729249Y-27975718D01*
X161729238Y-27975714D01*
X161508089Y-27916457D01*
X161508081Y-27916456D01*
X161280002Y-27896502D01*
X161279998Y-27896502D01*
X161051918Y-27916456D01*
X161051910Y-27916457D01*
X160830761Y-27975714D01*
X160830750Y-27975718D01*
X160623254Y-28072475D01*
X160623252Y-28072476D01*
X160623251Y-28072477D01*
X160435700Y-28203802D01*
X160435698Y-28203803D01*
X160435695Y-28203806D01*
X160273806Y-28365695D01*
X160142476Y-28553251D01*
X160122382Y-28596345D01*
X160076209Y-28648784D01*
X160009016Y-28667936D01*
X159942135Y-28647720D01*
X159897618Y-28596345D01*
X159877523Y-28553251D01*
X159746198Y-28365700D01*
X159584300Y-28203802D01*
X159396749Y-28072477D01*
X159396745Y-28072475D01*
X159189249Y-27975718D01*
X159189238Y-27975714D01*
X158968089Y-27916457D01*
X158968081Y-27916456D01*
X158740002Y-27896502D01*
X158739998Y-27896502D01*
X158511918Y-27916456D01*
X158511910Y-27916457D01*
X158290761Y-27975714D01*
X158290750Y-27975718D01*
X158083254Y-28072475D01*
X158083252Y-28072476D01*
X158083251Y-28072477D01*
X157895700Y-28203802D01*
X157895698Y-28203803D01*
X157895695Y-28203806D01*
X157733806Y-28365695D01*
X157602476Y-28553251D01*
X157582382Y-28596345D01*
X157536209Y-28648784D01*
X157469016Y-28667936D01*
X157402135Y-28647720D01*
X157357618Y-28596345D01*
X157337523Y-28553251D01*
X157206198Y-28365700D01*
X157044300Y-28203802D01*
X156856749Y-28072477D01*
X156856745Y-28072475D01*
X156649249Y-27975718D01*
X156649238Y-27975714D01*
X156428089Y-27916457D01*
X156428081Y-27916456D01*
X156200002Y-27896502D01*
X156199998Y-27896502D01*
X155971918Y-27916456D01*
X155971907Y-27916458D01*
X155907343Y-27933758D01*
X155837493Y-27932095D01*
X155787569Y-27901664D01*
X155437088Y-27551183D01*
X155427187Y-27538823D01*
X155426977Y-27538998D01*
X155422002Y-27532986D01*
X155422000Y-27532982D01*
X155395658Y-27508245D01*
X155370922Y-27485016D01*
X155349768Y-27463863D01*
X155347792Y-27462331D01*
X155344183Y-27459531D01*
X155339750Y-27455744D01*
X155333524Y-27449898D01*
X155305321Y-27423414D01*
X155305319Y-27423412D01*
X155287431Y-27413578D01*
X155271170Y-27402897D01*
X155255039Y-27390384D01*
X155211693Y-27371627D01*
X155206445Y-27369056D01*
X155179024Y-27353982D01*
X155165060Y-27346305D01*
X155161660Y-27345432D01*
X155145287Y-27341228D01*
X155126881Y-27334926D01*
X155108144Y-27326818D01*
X155108146Y-27326818D01*
X155061496Y-27319430D01*
X155055781Y-27318246D01*
X155035612Y-27313068D01*
X155010032Y-27306500D01*
X155010030Y-27306500D01*
X154989616Y-27306500D01*
X154970217Y-27304973D01*
X154950058Y-27301780D01*
X154950057Y-27301780D01*
X154903034Y-27306225D01*
X154897196Y-27306500D01*
X136481634Y-27306500D01*
X136465886Y-27304761D01*
X136465861Y-27305032D01*
X136458094Y-27304298D01*
X136458091Y-27304298D01*
X136388042Y-27306500D01*
X136358137Y-27306500D01*
X136351143Y-27307384D01*
X136345320Y-27307842D01*
X136298111Y-27309326D01*
X136298108Y-27309327D01*
X136278505Y-27315022D01*
X136259459Y-27318966D01*
X136239203Y-27321526D01*
X136239201Y-27321526D01*
X136239199Y-27321527D01*
X136195282Y-27338914D01*
X136189756Y-27340806D01*
X136144406Y-27353982D01*
X136126833Y-27364374D01*
X136109370Y-27372929D01*
X136090385Y-27380446D01*
X136090383Y-27380447D01*
X136052179Y-27408204D01*
X136047296Y-27411412D01*
X136006637Y-27435458D01*
X135992196Y-27449898D01*
X135977408Y-27462527D01*
X135960897Y-27474523D01*
X135960892Y-27474528D01*
X135930790Y-27510914D01*
X135926858Y-27515236D01*
X135540429Y-27901664D01*
X135479106Y-27935149D01*
X135420655Y-27933758D01*
X135356087Y-27916457D01*
X135356085Y-27916456D01*
X135356081Y-27916456D01*
X135128002Y-27896502D01*
X135127998Y-27896502D01*
X134899918Y-27916456D01*
X134899910Y-27916457D01*
X134678761Y-27975714D01*
X134678750Y-27975718D01*
X134471254Y-28072475D01*
X134471252Y-28072476D01*
X134471251Y-28072477D01*
X134283700Y-28203802D01*
X134283698Y-28203803D01*
X134283695Y-28203806D01*
X134121806Y-28365695D01*
X133990476Y-28553251D01*
X133970382Y-28596345D01*
X133924209Y-28648784D01*
X133857016Y-28667936D01*
X133790135Y-28647720D01*
X133745618Y-28596345D01*
X133725523Y-28553251D01*
X133594198Y-28365700D01*
X133432300Y-28203802D01*
X133244749Y-28072477D01*
X133244745Y-28072475D01*
X133037249Y-27975718D01*
X133037238Y-27975714D01*
X132816089Y-27916457D01*
X132816081Y-27916456D01*
X132588002Y-27896502D01*
X132587998Y-27896502D01*
X132359918Y-27916456D01*
X132359910Y-27916457D01*
X132138761Y-27975714D01*
X132138750Y-27975718D01*
X131931254Y-28072475D01*
X131931252Y-28072476D01*
X131931251Y-28072477D01*
X131743700Y-28203802D01*
X131743698Y-28203803D01*
X131743695Y-28203806D01*
X131581806Y-28365695D01*
X131450476Y-28553251D01*
X131430382Y-28596345D01*
X131384209Y-28648784D01*
X131317016Y-28667936D01*
X131250135Y-28647720D01*
X131205618Y-28596345D01*
X131185523Y-28553251D01*
X131054198Y-28365700D01*
X130892300Y-28203802D01*
X130704749Y-28072477D01*
X130704745Y-28072475D01*
X130497249Y-27975718D01*
X130497238Y-27975714D01*
X130276089Y-27916457D01*
X130276081Y-27916456D01*
X130048002Y-27896502D01*
X130047998Y-27896502D01*
X129819918Y-27916456D01*
X129819910Y-27916457D01*
X129598761Y-27975714D01*
X129598750Y-27975718D01*
X129391254Y-28072475D01*
X129391252Y-28072476D01*
X129391251Y-28072477D01*
X129203700Y-28203802D01*
X129203698Y-28203803D01*
X129203695Y-28203806D01*
X129041806Y-28365695D01*
X128910476Y-28553251D01*
X128890382Y-28596345D01*
X128844209Y-28648784D01*
X128777016Y-28667936D01*
X128710135Y-28647720D01*
X128665618Y-28596345D01*
X128645523Y-28553251D01*
X128514198Y-28365700D01*
X128352300Y-28203802D01*
X128164749Y-28072477D01*
X128164745Y-28072475D01*
X127957249Y-27975718D01*
X127957238Y-27975714D01*
X127736089Y-27916457D01*
X127736081Y-27916456D01*
X127508002Y-27896502D01*
X127507998Y-27896502D01*
X127279918Y-27916456D01*
X127279910Y-27916457D01*
X127058761Y-27975714D01*
X127058750Y-27975718D01*
X126851254Y-28072475D01*
X126851252Y-28072476D01*
X126851251Y-28072477D01*
X126663700Y-28203802D01*
X126663698Y-28203803D01*
X126663695Y-28203806D01*
X126501806Y-28365695D01*
X126370476Y-28553251D01*
X126350382Y-28596345D01*
X126304209Y-28648784D01*
X126237016Y-28667936D01*
X126170135Y-28647720D01*
X126125618Y-28596345D01*
X126105523Y-28553251D01*
X125974198Y-28365700D01*
X125812300Y-28203802D01*
X125624749Y-28072477D01*
X125624745Y-28072475D01*
X125417249Y-27975718D01*
X125417238Y-27975714D01*
X125196089Y-27916457D01*
X125196081Y-27916456D01*
X124968002Y-27896502D01*
X124967998Y-27896502D01*
X124739918Y-27916456D01*
X124739910Y-27916457D01*
X124518761Y-27975714D01*
X124518750Y-27975718D01*
X124311254Y-28072475D01*
X124311252Y-28072476D01*
X124311251Y-28072477D01*
X124123700Y-28203802D01*
X124123698Y-28203803D01*
X124123695Y-28203806D01*
X123961806Y-28365695D01*
X123830476Y-28553251D01*
X123810382Y-28596345D01*
X123764209Y-28648784D01*
X123697016Y-28667936D01*
X123630135Y-28647720D01*
X123585618Y-28596345D01*
X123565523Y-28553251D01*
X123434198Y-28365700D01*
X123272300Y-28203802D01*
X123084749Y-28072477D01*
X123084745Y-28072475D01*
X122877249Y-27975718D01*
X122877238Y-27975714D01*
X122656089Y-27916457D01*
X122656081Y-27916456D01*
X122428002Y-27896502D01*
X122427998Y-27896502D01*
X122199918Y-27916456D01*
X122199910Y-27916457D01*
X121978761Y-27975714D01*
X121978750Y-27975718D01*
X121771254Y-28072475D01*
X121771252Y-28072476D01*
X121771251Y-28072477D01*
X121583700Y-28203802D01*
X121583698Y-28203803D01*
X121583695Y-28203806D01*
X121421806Y-28365695D01*
X121290476Y-28553251D01*
X121270382Y-28596345D01*
X121224209Y-28648784D01*
X121157016Y-28667936D01*
X121090135Y-28647720D01*
X121045618Y-28596345D01*
X121025523Y-28553251D01*
X120894198Y-28365700D01*
X120732300Y-28203802D01*
X120544749Y-28072477D01*
X120544745Y-28072475D01*
X120337249Y-27975718D01*
X120337238Y-27975714D01*
X120116089Y-27916457D01*
X120116081Y-27916456D01*
X119888002Y-27896502D01*
X119887998Y-27896502D01*
X119659918Y-27916456D01*
X119659910Y-27916457D01*
X119438761Y-27975714D01*
X119438750Y-27975718D01*
X119231254Y-28072475D01*
X119231252Y-28072476D01*
X119231251Y-28072477D01*
X119043700Y-28203802D01*
X119043698Y-28203803D01*
X119043695Y-28203806D01*
X118881806Y-28365695D01*
X118750476Y-28553251D01*
X118730382Y-28596345D01*
X118684209Y-28648784D01*
X118617016Y-28667936D01*
X118550135Y-28647720D01*
X118505618Y-28596345D01*
X118485523Y-28553251D01*
X118354198Y-28365700D01*
X118192300Y-28203802D01*
X118004749Y-28072477D01*
X118004745Y-28072475D01*
X117797249Y-27975718D01*
X117797238Y-27975714D01*
X117576089Y-27916457D01*
X117576081Y-27916456D01*
X117348002Y-27896502D01*
X117347998Y-27896502D01*
X117119918Y-27916456D01*
X117119910Y-27916457D01*
X116898761Y-27975714D01*
X116898750Y-27975718D01*
X116691254Y-28072475D01*
X116691252Y-28072476D01*
X116691251Y-28072477D01*
X116503700Y-28203802D01*
X116503698Y-28203803D01*
X116503695Y-28203806D01*
X116341806Y-28365695D01*
X116341803Y-28365698D01*
X116341802Y-28365700D01*
X116294662Y-28433023D01*
X116210476Y-28553252D01*
X116210474Y-28553256D01*
X116185691Y-28606402D01*
X116139518Y-28658841D01*
X116072324Y-28677992D01*
X116005444Y-28657775D01*
X115960927Y-28606399D01*
X115938133Y-28557517D01*
X115807657Y-28371179D01*
X115646820Y-28210342D01*
X115460482Y-28079865D01*
X115254328Y-27983734D01*
X115058000Y-27931127D01*
X115058000Y-28894314D01*
X115046045Y-28882359D01*
X114933148Y-28824835D01*
X114839481Y-28810000D01*
X114776519Y-28810000D01*
X114682852Y-28824835D01*
X114569955Y-28882359D01*
X114558000Y-28894314D01*
X114558000Y-27931127D01*
X114361671Y-27983734D01*
X114155517Y-28079865D01*
X113969179Y-28210342D01*
X113808342Y-28371179D01*
X113677865Y-28557517D01*
X113581734Y-28763673D01*
X113581730Y-28763682D01*
X113529127Y-28959999D01*
X96266000Y-28959999D01*
X96266000Y-26540000D01*
X96285685Y-26472961D01*
X96338489Y-26427206D01*
X96390000Y-26416000D01*
X191900000Y-26416000D01*
X191967039Y-26435685D01*
G37*
G04 #@! TD.AperFunction*
G04 #@! TA.AperFunction,Conductor*
G36*
X185241539Y-56275185D02*
G01*
X185287294Y-56327989D01*
X185298500Y-56379500D01*
X185298500Y-75020680D01*
X185278815Y-75087719D01*
X185262181Y-75108361D01*
X183312361Y-77058181D01*
X183251038Y-77091666D01*
X183224680Y-77094500D01*
X182697553Y-77094500D01*
X182630514Y-77074815D01*
X182606324Y-77054484D01*
X182533240Y-76975094D01*
X182533237Y-76975092D01*
X182533238Y-76975092D01*
X182355577Y-76836812D01*
X182355572Y-76836808D01*
X182157580Y-76729661D01*
X182157577Y-76729659D01*
X182157574Y-76729658D01*
X182157571Y-76729657D01*
X182157569Y-76729656D01*
X181944637Y-76656556D01*
X181722569Y-76619500D01*
X181497431Y-76619500D01*
X181275362Y-76656556D01*
X181062430Y-76729656D01*
X181062419Y-76729661D01*
X180864427Y-76836808D01*
X180864422Y-76836812D01*
X180686761Y-76975092D01*
X180686756Y-76975097D01*
X180534284Y-77140723D01*
X180534276Y-77140734D01*
X180443808Y-77279206D01*
X180390662Y-77324562D01*
X180321431Y-77333986D01*
X180258095Y-77304484D01*
X180236192Y-77279206D01*
X180145723Y-77140734D01*
X180145715Y-77140723D01*
X179993243Y-76975097D01*
X179993238Y-76975092D01*
X179815577Y-76836812D01*
X179815572Y-76836808D01*
X179617580Y-76729661D01*
X179617577Y-76729659D01*
X179617574Y-76729658D01*
X179617571Y-76729657D01*
X179617569Y-76729656D01*
X179404637Y-76656556D01*
X179182569Y-76619500D01*
X178957431Y-76619500D01*
X178735359Y-76656556D01*
X178731120Y-76657630D01*
X178661299Y-76654999D01*
X178613008Y-76625103D01*
X178469819Y-76481914D01*
X178436334Y-76420591D01*
X178433500Y-76394233D01*
X178433500Y-74289486D01*
X178453185Y-74222447D01*
X178505989Y-74176692D01*
X178575147Y-74166748D01*
X178597760Y-74172204D01*
X178735365Y-74219444D01*
X178957431Y-74256500D01*
X179182569Y-74256500D01*
X179404635Y-74219444D01*
X179617574Y-74146342D01*
X179815576Y-74039189D01*
X179993240Y-73900906D01*
X180114594Y-73769082D01*
X180145715Y-73735276D01*
X180145715Y-73735275D01*
X180145722Y-73735268D01*
X180239749Y-73591347D01*
X180292894Y-73545994D01*
X180362125Y-73536570D01*
X180425461Y-73566072D01*
X180445130Y-73588048D01*
X180571890Y-73769078D01*
X180738917Y-73936105D01*
X180932421Y-74071600D01*
X181146507Y-74171429D01*
X181146516Y-74171433D01*
X181360000Y-74228634D01*
X181360000Y-73333501D01*
X181467685Y-73382680D01*
X181574237Y-73398000D01*
X181645763Y-73398000D01*
X181752315Y-73382680D01*
X181860000Y-73333501D01*
X181860000Y-74228633D01*
X182073483Y-74171433D01*
X182073492Y-74171429D01*
X182287578Y-74071600D01*
X182481082Y-73936105D01*
X182648105Y-73769082D01*
X182783600Y-73575578D01*
X182883429Y-73361492D01*
X182883432Y-73361486D01*
X182940636Y-73148000D01*
X182043686Y-73148000D01*
X182069493Y-73107844D01*
X182110000Y-72969889D01*
X182110000Y-72826111D01*
X182069493Y-72688156D01*
X182043686Y-72648000D01*
X182940636Y-72648000D01*
X182940635Y-72647999D01*
X182883432Y-72434513D01*
X182883429Y-72434507D01*
X182783600Y-72220422D01*
X182783599Y-72220420D01*
X182648113Y-72026926D01*
X182648108Y-72026920D01*
X182481082Y-71859894D01*
X182287578Y-71724399D01*
X182073492Y-71624570D01*
X182073486Y-71624567D01*
X181860000Y-71567364D01*
X181860000Y-72462498D01*
X181752315Y-72413320D01*
X181645763Y-72398000D01*
X181574237Y-72398000D01*
X181467685Y-72413320D01*
X181360000Y-72462498D01*
X181360000Y-71567364D01*
X181359999Y-71567364D01*
X181146513Y-71624567D01*
X181146507Y-71624570D01*
X180932422Y-71724399D01*
X180932420Y-71724400D01*
X180738926Y-71859886D01*
X180738920Y-71859891D01*
X180571891Y-72026920D01*
X180571890Y-72026922D01*
X180445131Y-72207952D01*
X180390554Y-72251577D01*
X180321055Y-72258769D01*
X180258701Y-72227247D01*
X180239752Y-72204656D01*
X180145722Y-72060732D01*
X180145715Y-72060725D01*
X180145715Y-72060723D01*
X179993243Y-71895097D01*
X179993238Y-71895092D01*
X179815577Y-71756812D01*
X179815577Y-71756811D01*
X179768480Y-71731323D01*
X179718891Y-71682102D01*
X179703500Y-71622269D01*
X179703500Y-64321765D01*
X179723185Y-64254726D01*
X179739814Y-64234088D01*
X180728815Y-63245087D01*
X180741180Y-63235183D01*
X180741006Y-63234973D01*
X180747012Y-63230003D01*
X180747018Y-63230000D01*
X180794999Y-63178904D01*
X180816134Y-63157770D01*
X180820463Y-63152187D01*
X180824242Y-63147763D01*
X180856586Y-63113321D01*
X180866423Y-63095424D01*
X180877097Y-63079174D01*
X180889613Y-63063041D01*
X180908372Y-63019689D01*
X180910933Y-63014462D01*
X180933695Y-62973060D01*
X180938774Y-62953274D01*
X180945072Y-62934882D01*
X180953181Y-62916145D01*
X180960569Y-62869497D01*
X180961751Y-62863786D01*
X180973500Y-62818030D01*
X180973500Y-62797615D01*
X180975027Y-62778214D01*
X180978220Y-62758057D01*
X180973775Y-62711033D01*
X180973500Y-62705195D01*
X180973500Y-56763486D01*
X180993185Y-56696447D01*
X181045989Y-56650692D01*
X181115147Y-56640748D01*
X181137760Y-56646204D01*
X181275365Y-56693444D01*
X181497431Y-56730500D01*
X181722569Y-56730500D01*
X181944635Y-56693444D01*
X182157574Y-56620342D01*
X182355576Y-56513189D01*
X182533240Y-56374906D01*
X182606324Y-56295515D01*
X182666211Y-56259526D01*
X182697553Y-56255500D01*
X185174500Y-56255500D01*
X185241539Y-56275185D01*
G37*
G04 #@! TD.AperFunction*
G04 #@! TA.AperFunction,Conductor*
G36*
X115702877Y-39261185D02*
G01*
X115723518Y-39277818D01*
X116260671Y-39814972D01*
X116734516Y-40288817D01*
X116744423Y-40301183D01*
X116744633Y-40301010D01*
X116749600Y-40307015D01*
X116800683Y-40354984D01*
X116821828Y-40376130D01*
X116827417Y-40380466D01*
X116831849Y-40384252D01*
X116863763Y-40414220D01*
X116866284Y-40416587D01*
X116884166Y-40426417D01*
X116900433Y-40437102D01*
X116916564Y-40449615D01*
X116938442Y-40459081D01*
X116959911Y-40468371D01*
X116965137Y-40470931D01*
X117006544Y-40493695D01*
X117026320Y-40498772D01*
X117044728Y-40505075D01*
X117063454Y-40513179D01*
X117063456Y-40513180D01*
X117063457Y-40513180D01*
X117063459Y-40513181D01*
X117104388Y-40519663D01*
X117110107Y-40520569D01*
X117115816Y-40521751D01*
X117161574Y-40533500D01*
X117181988Y-40533500D01*
X117201387Y-40535027D01*
X117221547Y-40538220D01*
X117268570Y-40533775D01*
X117274408Y-40533500D01*
X124412929Y-40533500D01*
X124479968Y-40553185D01*
X124500610Y-40569819D01*
X124729308Y-40798517D01*
X124762793Y-40859840D01*
X124757809Y-40929532D01*
X124715937Y-40985465D01*
X124694184Y-40997629D01*
X124694219Y-40997691D01*
X124687385Y-41001447D01*
X124649181Y-41029204D01*
X124644298Y-41032412D01*
X124603639Y-41056458D01*
X124589198Y-41070898D01*
X124574410Y-41083527D01*
X124557899Y-41095523D01*
X124557894Y-41095528D01*
X124527792Y-41131914D01*
X124523860Y-41136236D01*
X110416681Y-55243414D01*
X110355358Y-55276899D01*
X110285666Y-55271915D01*
X110241319Y-55243414D01*
X110020335Y-55022430D01*
X109986850Y-54961107D01*
X109988242Y-54902654D01*
X110005541Y-54838094D01*
X110005542Y-54838089D01*
X110005543Y-54838087D01*
X110025498Y-54610000D01*
X110005543Y-54381913D01*
X109946284Y-54160757D01*
X109942176Y-54151948D01*
X109895888Y-54052681D01*
X109849523Y-53953251D01*
X109718198Y-53765700D01*
X109556300Y-53603802D01*
X109368749Y-53472477D01*
X109325655Y-53452382D01*
X109273215Y-53406210D01*
X109254063Y-53339017D01*
X109274278Y-53272136D01*
X109325655Y-53227618D01*
X109328882Y-53226112D01*
X109368749Y-53207523D01*
X109556300Y-53076198D01*
X109718198Y-52914300D01*
X109849523Y-52726749D01*
X109946284Y-52519243D01*
X110005543Y-52298087D01*
X110025498Y-52070000D01*
X110024258Y-52055831D01*
X110013309Y-51930680D01*
X110005543Y-51841913D01*
X109946284Y-51620757D01*
X109943594Y-51614989D01*
X109886345Y-51492217D01*
X109849523Y-51413251D01*
X109718198Y-51225700D01*
X109556300Y-51063802D01*
X109368749Y-50932477D01*
X109325655Y-50912382D01*
X109273215Y-50866210D01*
X109254063Y-50799017D01*
X109274278Y-50732136D01*
X109325655Y-50687618D01*
X109328882Y-50686112D01*
X109368749Y-50667523D01*
X109556300Y-50536198D01*
X109718198Y-50374300D01*
X109849523Y-50186749D01*
X109946284Y-49979243D01*
X110005543Y-49758087D01*
X110025498Y-49530000D01*
X110005543Y-49301913D01*
X109946284Y-49080757D01*
X109944113Y-49076102D01*
X109890610Y-48961363D01*
X109849523Y-48873251D01*
X109718198Y-48685700D01*
X109556300Y-48523802D01*
X109368749Y-48392477D01*
X109325655Y-48372382D01*
X109273215Y-48326210D01*
X109254063Y-48259017D01*
X109274278Y-48192136D01*
X109325655Y-48147618D01*
X109328882Y-48146112D01*
X109368749Y-48127523D01*
X109556300Y-47996198D01*
X109718198Y-47834300D01*
X109849523Y-47646749D01*
X109946284Y-47439243D01*
X110005543Y-47218087D01*
X110025498Y-46990000D01*
X110025497Y-46989993D01*
X110014828Y-46868042D01*
X110005543Y-46761913D01*
X109946284Y-46540757D01*
X109930924Y-46507818D01*
X109881908Y-46402702D01*
X109849523Y-46333251D01*
X109718198Y-46145700D01*
X109556300Y-45983802D01*
X109368749Y-45852477D01*
X109325655Y-45832382D01*
X109273215Y-45786210D01*
X109254063Y-45719017D01*
X109274278Y-45652136D01*
X109325655Y-45607618D01*
X109328882Y-45606112D01*
X109368749Y-45587523D01*
X109556300Y-45456198D01*
X109718198Y-45294300D01*
X109849523Y-45106749D01*
X109946284Y-44899243D01*
X110005543Y-44678087D01*
X110025498Y-44450000D01*
X110005543Y-44221913D01*
X109946284Y-44000757D01*
X109925492Y-43956169D01*
X109849524Y-43793254D01*
X109849523Y-43793252D01*
X109849523Y-43793251D01*
X109718198Y-43605700D01*
X109556300Y-43443802D01*
X109368749Y-43312477D01*
X109336736Y-43297549D01*
X109161249Y-43215718D01*
X109161238Y-43215714D01*
X108940089Y-43156457D01*
X108940081Y-43156456D01*
X108712002Y-43136502D01*
X108711998Y-43136502D01*
X108483918Y-43156456D01*
X108483910Y-43156457D01*
X108262761Y-43215714D01*
X108262750Y-43215718D01*
X108055254Y-43312475D01*
X108055246Y-43312480D01*
X108022681Y-43335282D01*
X107956474Y-43357610D01*
X107888707Y-43340598D01*
X107840895Y-43289650D01*
X107828217Y-43220940D01*
X107854699Y-43156284D01*
X107863868Y-43146035D01*
X111732085Y-39277819D01*
X111793408Y-39244334D01*
X111819766Y-39241500D01*
X115635838Y-39241500D01*
X115702877Y-39261185D01*
G37*
G04 #@! TD.AperFunction*
G04 #@! TA.AperFunction,Conductor*
G36*
X183135224Y-50018682D02*
G01*
X183184175Y-50067632D01*
X185262181Y-52145638D01*
X185295666Y-52206961D01*
X185298500Y-52233319D01*
X185298500Y-54364500D01*
X185278815Y-54431539D01*
X185226011Y-54477294D01*
X185174500Y-54488500D01*
X182697553Y-54488500D01*
X182630514Y-54468815D01*
X182606324Y-54448484D01*
X182590725Y-54431539D01*
X182533240Y-54369094D01*
X182533237Y-54369092D01*
X182533238Y-54369092D01*
X182355577Y-54230812D01*
X182355572Y-54230808D01*
X182157580Y-54123661D01*
X182157577Y-54123659D01*
X182157574Y-54123658D01*
X182157571Y-54123657D01*
X182157569Y-54123656D01*
X181944637Y-54050556D01*
X181722569Y-54013500D01*
X181497431Y-54013500D01*
X181275362Y-54050556D01*
X181137763Y-54097794D01*
X181067964Y-54100944D01*
X181007543Y-54065858D01*
X180975682Y-54003675D01*
X180973500Y-53980513D01*
X180973500Y-51679396D01*
X180993185Y-51612357D01*
X181045989Y-51566602D01*
X181115147Y-51556658D01*
X181141129Y-51564401D01*
X181141428Y-51563581D01*
X181146516Y-51565433D01*
X181360000Y-51622634D01*
X181360000Y-50727501D01*
X181467685Y-50776680D01*
X181574237Y-50792000D01*
X181645763Y-50792000D01*
X181752315Y-50776680D01*
X181860000Y-50727501D01*
X181860000Y-51622633D01*
X182073483Y-51565433D01*
X182073492Y-51565429D01*
X182287578Y-51465600D01*
X182481082Y-51330105D01*
X182648105Y-51163082D01*
X182783600Y-50969578D01*
X182883429Y-50755492D01*
X182883432Y-50755486D01*
X182940636Y-50542000D01*
X182043686Y-50542000D01*
X182069493Y-50501844D01*
X182110000Y-50363889D01*
X182110000Y-50220111D01*
X182069493Y-50082156D01*
X182043686Y-50042000D01*
X182940635Y-50042000D01*
X182949168Y-50030879D01*
X183005595Y-49989675D01*
X183075341Y-49985520D01*
X183135224Y-50018682D01*
G37*
G04 #@! TD.AperFunction*
G04 #@! TA.AperFunction,Conductor*
G36*
X143076877Y-42505185D02*
G01*
X143097519Y-42521819D01*
X147134514Y-46558814D01*
X147144420Y-46571178D01*
X147144630Y-46571005D01*
X147149605Y-46577019D01*
X147200698Y-46624999D01*
X147214004Y-46638304D01*
X147221834Y-46646134D01*
X147227406Y-46650456D01*
X147231846Y-46654249D01*
X147266282Y-46686586D01*
X147284171Y-46696420D01*
X147300435Y-46707103D01*
X147316563Y-46719613D01*
X147337229Y-46728556D01*
X147359902Y-46738367D01*
X147365149Y-46740937D01*
X147406544Y-46763695D01*
X147426322Y-46768773D01*
X147444723Y-46775073D01*
X147463459Y-46783181D01*
X147507966Y-46790229D01*
X147510107Y-46790569D01*
X147515816Y-46791751D01*
X147561574Y-46803500D01*
X147581988Y-46803500D01*
X147601387Y-46805027D01*
X147621547Y-46808220D01*
X147668570Y-46803775D01*
X147674408Y-46803500D01*
X164556366Y-46803500D01*
X164572113Y-46805238D01*
X164572139Y-46804968D01*
X164579905Y-46805701D01*
X164579909Y-46805702D01*
X164649958Y-46803500D01*
X164679856Y-46803500D01*
X164679857Y-46803500D01*
X164681222Y-46803327D01*
X164686862Y-46802614D01*
X164692685Y-46802156D01*
X164718708Y-46801338D01*
X164739890Y-46800673D01*
X164749681Y-46797827D01*
X164759481Y-46794980D01*
X164778538Y-46791032D01*
X164798797Y-46788474D01*
X164842721Y-46771082D01*
X164848221Y-46769199D01*
X164893593Y-46756018D01*
X164911165Y-46745625D01*
X164928632Y-46737068D01*
X164947617Y-46729552D01*
X164985826Y-46701790D01*
X164990704Y-46698585D01*
X165031362Y-46674542D01*
X165045802Y-46660100D01*
X165060592Y-46647470D01*
X165077107Y-46635472D01*
X165107222Y-46599067D01*
X165111126Y-46594776D01*
X165947569Y-45758333D01*
X166008890Y-45724850D01*
X166067341Y-45726241D01*
X166085979Y-45731234D01*
X166131913Y-45743543D01*
X166294832Y-45757796D01*
X166359998Y-45763498D01*
X166360000Y-45763498D01*
X166360002Y-45763498D01*
X166419013Y-45758335D01*
X166588087Y-45743543D01*
X166809243Y-45684284D01*
X167016749Y-45587523D01*
X167204300Y-45456198D01*
X167366198Y-45294300D01*
X167497523Y-45106749D01*
X167517618Y-45063655D01*
X167563790Y-45011215D01*
X167630983Y-44992063D01*
X167697864Y-45012278D01*
X167742382Y-45063655D01*
X167755709Y-45092236D01*
X167762477Y-45106749D01*
X167893802Y-45294300D01*
X168055700Y-45456198D01*
X168243251Y-45587523D01*
X168298445Y-45613260D01*
X168450750Y-45684281D01*
X168450752Y-45684281D01*
X168450757Y-45684284D01*
X168671913Y-45743543D01*
X168834832Y-45757796D01*
X168899998Y-45763498D01*
X168900000Y-45763498D01*
X168900002Y-45763498D01*
X168959013Y-45758335D01*
X169128087Y-45743543D01*
X169349243Y-45684284D01*
X169556749Y-45587523D01*
X169744300Y-45456198D01*
X169906198Y-45294300D01*
X170037523Y-45106749D01*
X170057618Y-45063655D01*
X170103790Y-45011215D01*
X170170983Y-44992063D01*
X170237864Y-45012278D01*
X170282382Y-45063655D01*
X170295709Y-45092236D01*
X170302477Y-45106749D01*
X170433802Y-45294300D01*
X170595700Y-45456198D01*
X170783251Y-45587523D01*
X170838445Y-45613260D01*
X170990750Y-45684281D01*
X170990752Y-45684281D01*
X170990757Y-45684284D01*
X171211913Y-45743543D01*
X171374832Y-45757796D01*
X171439998Y-45763498D01*
X171440000Y-45763498D01*
X171440002Y-45763498D01*
X171499013Y-45758335D01*
X171668087Y-45743543D01*
X171889243Y-45684284D01*
X172096749Y-45587523D01*
X172284300Y-45456198D01*
X172446198Y-45294300D01*
X172577523Y-45106749D01*
X172597618Y-45063655D01*
X172643790Y-45011215D01*
X172710983Y-44992063D01*
X172777864Y-45012278D01*
X172822382Y-45063655D01*
X172835709Y-45092236D01*
X172842477Y-45106749D01*
X172973802Y-45294300D01*
X173135700Y-45456198D01*
X173323251Y-45587523D01*
X173378445Y-45613260D01*
X173530750Y-45684281D01*
X173530752Y-45684281D01*
X173530757Y-45684284D01*
X173751913Y-45743543D01*
X173914832Y-45757796D01*
X173979998Y-45763498D01*
X173980000Y-45763498D01*
X173980002Y-45763498D01*
X174039013Y-45758335D01*
X174208087Y-45743543D01*
X174429243Y-45684284D01*
X174636749Y-45587523D01*
X174824300Y-45456198D01*
X174986198Y-45294300D01*
X175117523Y-45106749D01*
X175137618Y-45063655D01*
X175183790Y-45011215D01*
X175250983Y-44992063D01*
X175317864Y-45012278D01*
X175362382Y-45063655D01*
X175375709Y-45092236D01*
X175382477Y-45106749D01*
X175513802Y-45294300D01*
X175675700Y-45456198D01*
X175863251Y-45587523D01*
X175918445Y-45613260D01*
X176070750Y-45684281D01*
X176070752Y-45684281D01*
X176070757Y-45684284D01*
X176291913Y-45743543D01*
X176454832Y-45757796D01*
X176519998Y-45763498D01*
X176520000Y-45763498D01*
X176520002Y-45763498D01*
X176579013Y-45758335D01*
X176748087Y-45743543D01*
X176969243Y-45684284D01*
X177176749Y-45587523D01*
X177364300Y-45456198D01*
X177526198Y-45294300D01*
X177657523Y-45106749D01*
X177677618Y-45063655D01*
X177723790Y-45011215D01*
X177790983Y-44992063D01*
X177857864Y-45012278D01*
X177902382Y-45063655D01*
X177915709Y-45092236D01*
X177922477Y-45106749D01*
X178053802Y-45294300D01*
X178053806Y-45294304D01*
X178140181Y-45380679D01*
X178173666Y-45442002D01*
X178176500Y-45468360D01*
X178176500Y-46138704D01*
X178174973Y-46158103D01*
X178172850Y-46171505D01*
X178176415Y-46239528D01*
X178176500Y-46242774D01*
X178176500Y-46264302D01*
X178178750Y-46285725D01*
X178179004Y-46288957D01*
X178182569Y-46356970D01*
X178182570Y-46356974D01*
X178186083Y-46370088D01*
X178189626Y-46389202D01*
X178191045Y-46402696D01*
X178191047Y-46402708D01*
X178212087Y-46467460D01*
X178213008Y-46470572D01*
X178230637Y-46536361D01*
X178236799Y-46548456D01*
X178244241Y-46566424D01*
X178248433Y-46579325D01*
X178248436Y-46579332D01*
X178282484Y-46638304D01*
X178284033Y-46641157D01*
X178295581Y-46663820D01*
X178314953Y-46701839D01*
X178319216Y-46707104D01*
X178323486Y-46712376D01*
X178334507Y-46728411D01*
X178335166Y-46729552D01*
X178341296Y-46740169D01*
X178368165Y-46770010D01*
X178386862Y-46790776D01*
X178388969Y-46793243D01*
X178402520Y-46809977D01*
X178402532Y-46809990D01*
X178417756Y-46825214D01*
X178419991Y-46827569D01*
X178463948Y-46876389D01*
X178465566Y-46878185D01*
X178476551Y-46886166D01*
X178491340Y-46898798D01*
X178643201Y-47050659D01*
X178655835Y-47065450D01*
X178663815Y-47076434D01*
X178714447Y-47122023D01*
X178716784Y-47124242D01*
X178732010Y-47139468D01*
X178732020Y-47139477D01*
X178748756Y-47153030D01*
X178751224Y-47155138D01*
X178801826Y-47200700D01*
X178801829Y-47200702D01*
X178801831Y-47200704D01*
X178813587Y-47207491D01*
X178829619Y-47218510D01*
X178840161Y-47227047D01*
X178900824Y-47257956D01*
X178903678Y-47259505D01*
X178962669Y-47293564D01*
X178962671Y-47293564D01*
X178962672Y-47293565D01*
X178975569Y-47297756D01*
X178993547Y-47305201D01*
X179005637Y-47311362D01*
X179071416Y-47328987D01*
X179074517Y-47329905D01*
X179139298Y-47350954D01*
X179150442Y-47352125D01*
X179152791Y-47352372D01*
X179171932Y-47355920D01*
X179179623Y-47357980D01*
X179185028Y-47359429D01*
X179253039Y-47362992D01*
X179256242Y-47363244D01*
X179277694Y-47365500D01*
X179299244Y-47365500D01*
X179302487Y-47365584D01*
X179370493Y-47369149D01*
X179383891Y-47367027D01*
X179403290Y-47365500D01*
X180623668Y-47365500D01*
X180690707Y-47385185D01*
X180736462Y-47437989D01*
X180741599Y-47451182D01*
X180752087Y-47483460D01*
X180753008Y-47486572D01*
X180770637Y-47552361D01*
X180776799Y-47564456D01*
X180784241Y-47582424D01*
X180788433Y-47595325D01*
X180788436Y-47595332D01*
X180822484Y-47654304D01*
X180824033Y-47657157D01*
X180852683Y-47713384D01*
X180854953Y-47717839D01*
X180854956Y-47717843D01*
X180854957Y-47717844D01*
X180863486Y-47728376D01*
X180874507Y-47744411D01*
X180881296Y-47756169D01*
X180913792Y-47792259D01*
X180926862Y-47806776D01*
X180928969Y-47809243D01*
X180942520Y-47825977D01*
X180942532Y-47825990D01*
X180957756Y-47841214D01*
X180959991Y-47843569D01*
X181004474Y-47892973D01*
X181005566Y-47894185D01*
X181016551Y-47902166D01*
X181031340Y-47914798D01*
X181883315Y-48766773D01*
X181916800Y-48828096D01*
X181911816Y-48897788D01*
X181871122Y-48952829D01*
X181860000Y-48961363D01*
X181860000Y-49856498D01*
X181752315Y-49807320D01*
X181645763Y-49792000D01*
X181574237Y-49792000D01*
X181467685Y-49807320D01*
X181360000Y-49856498D01*
X181360000Y-48961364D01*
X181359999Y-48961364D01*
X181146513Y-49018567D01*
X181146507Y-49018570D01*
X180932422Y-49118399D01*
X180932420Y-49118400D01*
X180738926Y-49253886D01*
X180738920Y-49253891D01*
X180571891Y-49420920D01*
X180571890Y-49420922D01*
X180445131Y-49601952D01*
X180390554Y-49645577D01*
X180321055Y-49652769D01*
X180258701Y-49621247D01*
X180239752Y-49598656D01*
X180145722Y-49454732D01*
X180145715Y-49454725D01*
X180145715Y-49454723D01*
X179993243Y-49289097D01*
X179993238Y-49289092D01*
X179815577Y-49150812D01*
X179815572Y-49150808D01*
X179617580Y-49043661D01*
X179617577Y-49043659D01*
X179617574Y-49043658D01*
X179617571Y-49043657D01*
X179617569Y-49043656D01*
X179404637Y-48970556D01*
X179182569Y-48933500D01*
X178957431Y-48933500D01*
X178735362Y-48970556D01*
X178522430Y-49043656D01*
X178522419Y-49043661D01*
X178324427Y-49150808D01*
X178324422Y-49150812D01*
X178146761Y-49289092D01*
X178146756Y-49289097D01*
X177994284Y-49454723D01*
X177994276Y-49454734D01*
X177903808Y-49593206D01*
X177850662Y-49638562D01*
X177781431Y-49647986D01*
X177718095Y-49618484D01*
X177696192Y-49593206D01*
X177605723Y-49454734D01*
X177605715Y-49454723D01*
X177453243Y-49289097D01*
X177453238Y-49289092D01*
X177275577Y-49150812D01*
X177275572Y-49150808D01*
X177077580Y-49043661D01*
X177077577Y-49043659D01*
X177077574Y-49043658D01*
X177077571Y-49043657D01*
X177077569Y-49043656D01*
X176864637Y-48970556D01*
X176642569Y-48933500D01*
X176417431Y-48933500D01*
X176195362Y-48970556D01*
X175982430Y-49043656D01*
X175982419Y-49043661D01*
X175784427Y-49150808D01*
X175784422Y-49150812D01*
X175606761Y-49289092D01*
X175606756Y-49289097D01*
X175454284Y-49454723D01*
X175454276Y-49454734D01*
X175363808Y-49593206D01*
X175310662Y-49638562D01*
X175241431Y-49647986D01*
X175178095Y-49618484D01*
X175156192Y-49593206D01*
X175065723Y-49454734D01*
X175065715Y-49454723D01*
X174913243Y-49289097D01*
X174913238Y-49289092D01*
X174735577Y-49150812D01*
X174735572Y-49150808D01*
X174537580Y-49043661D01*
X174537577Y-49043659D01*
X174537574Y-49043658D01*
X174537571Y-49043657D01*
X174537569Y-49043656D01*
X174324637Y-48970556D01*
X174102569Y-48933500D01*
X173877431Y-48933500D01*
X173655362Y-48970556D01*
X173442430Y-49043656D01*
X173442419Y-49043661D01*
X173244427Y-49150808D01*
X173244422Y-49150812D01*
X173066761Y-49289092D01*
X173066756Y-49289097D01*
X172914284Y-49454723D01*
X172914276Y-49454734D01*
X172823808Y-49593206D01*
X172770662Y-49638562D01*
X172701431Y-49647986D01*
X172638095Y-49618484D01*
X172616192Y-49593206D01*
X172525723Y-49454734D01*
X172525715Y-49454723D01*
X172373243Y-49289097D01*
X172373238Y-49289092D01*
X172195577Y-49150812D01*
X172195572Y-49150808D01*
X171997580Y-49043661D01*
X171997577Y-49043659D01*
X171997574Y-49043658D01*
X171997571Y-49043657D01*
X171997569Y-49043656D01*
X171784637Y-48970556D01*
X171562569Y-48933500D01*
X171337431Y-48933500D01*
X171115362Y-48970556D01*
X170902430Y-49043656D01*
X170902419Y-49043661D01*
X170704427Y-49150808D01*
X170704422Y-49150812D01*
X170526761Y-49289092D01*
X170526756Y-49289097D01*
X170374284Y-49454723D01*
X170374276Y-49454734D01*
X170283808Y-49593206D01*
X170230662Y-49638562D01*
X170161431Y-49647986D01*
X170098095Y-49618484D01*
X170076192Y-49593206D01*
X169985723Y-49454734D01*
X169985715Y-49454723D01*
X169833243Y-49289097D01*
X169833238Y-49289092D01*
X169655577Y-49150812D01*
X169655572Y-49150808D01*
X169457580Y-49043661D01*
X169457577Y-49043659D01*
X169457574Y-49043658D01*
X169457571Y-49043657D01*
X169457569Y-49043656D01*
X169244637Y-48970556D01*
X169022569Y-48933500D01*
X168797431Y-48933500D01*
X168575362Y-48970556D01*
X168362430Y-49043656D01*
X168362419Y-49043661D01*
X168164427Y-49150808D01*
X168164422Y-49150812D01*
X167986761Y-49289092D01*
X167986756Y-49289097D01*
X167834284Y-49454723D01*
X167834276Y-49454734D01*
X167743808Y-49593206D01*
X167690662Y-49638562D01*
X167621431Y-49647986D01*
X167558095Y-49618484D01*
X167536192Y-49593206D01*
X167445723Y-49454734D01*
X167445715Y-49454723D01*
X167293243Y-49289097D01*
X167293238Y-49289092D01*
X167115577Y-49150812D01*
X167115572Y-49150808D01*
X166917580Y-49043661D01*
X166917577Y-49043659D01*
X166917574Y-49043658D01*
X166917571Y-49043657D01*
X166917569Y-49043656D01*
X166704637Y-48970556D01*
X166482569Y-48933500D01*
X166257431Y-48933500D01*
X166035362Y-48970556D01*
X165822430Y-49043656D01*
X165822419Y-49043661D01*
X165624427Y-49150808D01*
X165624422Y-49150812D01*
X165446761Y-49289092D01*
X165446756Y-49289097D01*
X165294284Y-49454723D01*
X165294276Y-49454734D01*
X165203808Y-49593206D01*
X165150662Y-49638562D01*
X165081431Y-49647986D01*
X165018095Y-49618484D01*
X164996192Y-49593206D01*
X164905723Y-49454734D01*
X164905715Y-49454723D01*
X164753243Y-49289097D01*
X164753238Y-49289092D01*
X164575577Y-49150812D01*
X164575572Y-49150808D01*
X164377580Y-49043661D01*
X164377577Y-49043659D01*
X164377574Y-49043658D01*
X164377571Y-49043657D01*
X164377569Y-49043656D01*
X164164637Y-48970556D01*
X163942569Y-48933500D01*
X163717431Y-48933500D01*
X163495362Y-48970556D01*
X163282430Y-49043656D01*
X163282419Y-49043661D01*
X163084427Y-49150808D01*
X163084422Y-49150812D01*
X162906761Y-49289092D01*
X162906756Y-49289097D01*
X162754284Y-49454723D01*
X162754276Y-49454734D01*
X162663808Y-49593206D01*
X162610662Y-49638562D01*
X162541431Y-49647986D01*
X162478095Y-49618484D01*
X162456192Y-49593206D01*
X162365723Y-49454734D01*
X162365715Y-49454723D01*
X162213243Y-49289097D01*
X162213238Y-49289092D01*
X162035577Y-49150812D01*
X162035572Y-49150808D01*
X161837580Y-49043661D01*
X161837577Y-49043659D01*
X161837574Y-49043658D01*
X161837571Y-49043657D01*
X161837569Y-49043656D01*
X161624637Y-48970556D01*
X161402569Y-48933500D01*
X161177431Y-48933500D01*
X160955362Y-48970556D01*
X160742430Y-49043656D01*
X160742419Y-49043661D01*
X160544427Y-49150808D01*
X160544422Y-49150812D01*
X160366761Y-49289092D01*
X160366756Y-49289097D01*
X160214284Y-49454723D01*
X160214276Y-49454734D01*
X160123808Y-49593206D01*
X160070662Y-49638562D01*
X160001431Y-49647986D01*
X159938095Y-49618484D01*
X159916192Y-49593206D01*
X159825723Y-49454734D01*
X159825715Y-49454723D01*
X159673243Y-49289097D01*
X159673238Y-49289092D01*
X159495577Y-49150812D01*
X159495572Y-49150808D01*
X159297580Y-49043661D01*
X159297577Y-49043659D01*
X159297574Y-49043658D01*
X159297571Y-49043657D01*
X159297569Y-49043656D01*
X159084637Y-48970556D01*
X158862569Y-48933500D01*
X158637431Y-48933500D01*
X158415362Y-48970556D01*
X158202430Y-49043656D01*
X158202419Y-49043661D01*
X158004427Y-49150808D01*
X158004422Y-49150812D01*
X157826761Y-49289092D01*
X157826756Y-49289097D01*
X157674284Y-49454723D01*
X157674276Y-49454734D01*
X157583808Y-49593206D01*
X157530662Y-49638562D01*
X157461431Y-49647986D01*
X157398095Y-49618484D01*
X157376192Y-49593206D01*
X157285723Y-49454734D01*
X157285715Y-49454723D01*
X157133243Y-49289097D01*
X157133238Y-49289092D01*
X156955577Y-49150812D01*
X156955572Y-49150808D01*
X156757580Y-49043661D01*
X156757577Y-49043659D01*
X156757574Y-49043658D01*
X156757571Y-49043657D01*
X156757569Y-49043656D01*
X156544637Y-48970556D01*
X156322569Y-48933500D01*
X156097431Y-48933500D01*
X155875362Y-48970556D01*
X155662430Y-49043656D01*
X155662419Y-49043661D01*
X155464427Y-49150808D01*
X155464422Y-49150812D01*
X155286761Y-49289092D01*
X155286756Y-49289097D01*
X155134284Y-49454723D01*
X155134276Y-49454734D01*
X155043808Y-49593206D01*
X154990662Y-49638562D01*
X154921431Y-49647986D01*
X154858095Y-49618484D01*
X154836192Y-49593206D01*
X154745723Y-49454734D01*
X154745715Y-49454723D01*
X154593243Y-49289097D01*
X154593238Y-49289092D01*
X154415577Y-49150812D01*
X154415572Y-49150808D01*
X154217580Y-49043661D01*
X154217577Y-49043659D01*
X154217574Y-49043658D01*
X154217571Y-49043657D01*
X154217569Y-49043656D01*
X154004637Y-48970556D01*
X153782569Y-48933500D01*
X153557431Y-48933500D01*
X153335362Y-48970556D01*
X153122430Y-49043656D01*
X153122419Y-49043661D01*
X152924427Y-49150808D01*
X152924422Y-49150812D01*
X152746761Y-49289092D01*
X152746756Y-49289097D01*
X152594284Y-49454723D01*
X152594276Y-49454734D01*
X152503808Y-49593206D01*
X152450662Y-49638562D01*
X152381431Y-49647986D01*
X152318095Y-49618484D01*
X152296192Y-49593206D01*
X152205723Y-49454734D01*
X152205715Y-49454723D01*
X152053243Y-49289097D01*
X152053238Y-49289092D01*
X151875577Y-49150812D01*
X151875572Y-49150808D01*
X151677580Y-49043661D01*
X151677577Y-49043659D01*
X151677574Y-49043658D01*
X151677571Y-49043657D01*
X151677569Y-49043656D01*
X151464637Y-48970556D01*
X151242569Y-48933500D01*
X151017431Y-48933500D01*
X150795362Y-48970556D01*
X150582430Y-49043656D01*
X150582419Y-49043661D01*
X150384427Y-49150808D01*
X150384422Y-49150812D01*
X150206761Y-49289092D01*
X150206756Y-49289097D01*
X150054284Y-49454723D01*
X150054276Y-49454734D01*
X149963808Y-49593206D01*
X149910662Y-49638562D01*
X149841431Y-49647986D01*
X149778095Y-49618484D01*
X149756192Y-49593206D01*
X149665723Y-49454734D01*
X149665715Y-49454723D01*
X149513243Y-49289097D01*
X149513238Y-49289092D01*
X149335577Y-49150812D01*
X149335572Y-49150808D01*
X149137580Y-49043661D01*
X149137577Y-49043659D01*
X149137574Y-49043658D01*
X149137571Y-49043657D01*
X149137569Y-49043656D01*
X148924637Y-48970556D01*
X148702569Y-48933500D01*
X148477431Y-48933500D01*
X148255362Y-48970556D01*
X148042430Y-49043656D01*
X148042419Y-49043661D01*
X147844427Y-49150808D01*
X147844422Y-49150812D01*
X147666761Y-49289092D01*
X147666756Y-49289097D01*
X147514284Y-49454723D01*
X147514276Y-49454734D01*
X147423808Y-49593206D01*
X147370662Y-49638562D01*
X147301431Y-49647986D01*
X147238095Y-49618484D01*
X147216192Y-49593206D01*
X147125723Y-49454734D01*
X147125715Y-49454723D01*
X146973243Y-49289097D01*
X146973238Y-49289092D01*
X146795577Y-49150812D01*
X146795572Y-49150808D01*
X146597580Y-49043661D01*
X146597577Y-49043659D01*
X146597574Y-49043658D01*
X146597571Y-49043657D01*
X146597569Y-49043656D01*
X146384637Y-48970556D01*
X146162569Y-48933500D01*
X145937431Y-48933500D01*
X145715362Y-48970556D01*
X145502430Y-49043656D01*
X145502419Y-49043661D01*
X145304427Y-49150808D01*
X145304422Y-49150812D01*
X145126761Y-49289092D01*
X145126756Y-49289097D01*
X144974284Y-49454723D01*
X144974276Y-49454734D01*
X144883808Y-49593206D01*
X144830662Y-49638562D01*
X144761431Y-49647986D01*
X144698095Y-49618484D01*
X144676192Y-49593206D01*
X144585723Y-49454734D01*
X144585715Y-49454723D01*
X144433243Y-49289097D01*
X144433238Y-49289092D01*
X144255577Y-49150812D01*
X144255572Y-49150808D01*
X144057580Y-49043661D01*
X144057577Y-49043659D01*
X144057574Y-49043658D01*
X144057571Y-49043657D01*
X144057569Y-49043656D01*
X143844637Y-48970556D01*
X143622569Y-48933500D01*
X143397431Y-48933500D01*
X143175362Y-48970556D01*
X142962430Y-49043656D01*
X142962419Y-49043661D01*
X142764427Y-49150808D01*
X142764422Y-49150812D01*
X142586761Y-49289092D01*
X142586756Y-49289097D01*
X142434284Y-49454723D01*
X142434276Y-49454734D01*
X142343808Y-49593206D01*
X142290662Y-49638562D01*
X142221431Y-49647986D01*
X142158095Y-49618484D01*
X142136192Y-49593206D01*
X142045723Y-49454734D01*
X142045715Y-49454723D01*
X141893243Y-49289097D01*
X141893238Y-49289092D01*
X141715577Y-49150812D01*
X141715578Y-49150812D01*
X141715576Y-49150811D01*
X141705742Y-49145489D01*
X141643481Y-49111794D01*
X141593891Y-49062574D01*
X141578500Y-49002740D01*
X141578500Y-43655522D01*
X141598185Y-43588483D01*
X141610350Y-43572550D01*
X141709040Y-43462944D01*
X141804527Y-43297556D01*
X141863542Y-43115928D01*
X141883504Y-42926000D01*
X141863542Y-42736072D01*
X141834865Y-42647816D01*
X141832871Y-42577978D01*
X141868951Y-42518145D01*
X141931652Y-42487316D01*
X141952797Y-42485500D01*
X143009838Y-42485500D01*
X143076877Y-42505185D01*
G37*
G04 #@! TD.AperFunction*
G04 #@! TA.AperFunction,Conductor*
G36*
X140526679Y-36423185D02*
G01*
X140547321Y-36439819D01*
X140633700Y-36526198D01*
X140821251Y-36657523D01*
X140946091Y-36715736D01*
X141028750Y-36754281D01*
X141028752Y-36754281D01*
X141028757Y-36754284D01*
X141249913Y-36813543D01*
X141412832Y-36827796D01*
X141477998Y-36833498D01*
X141478000Y-36833498D01*
X141478002Y-36833498D01*
X141535021Y-36828509D01*
X141706087Y-36813543D01*
X141927243Y-36754284D01*
X142134749Y-36657523D01*
X142322300Y-36526198D01*
X142408679Y-36439819D01*
X142470002Y-36406334D01*
X142496360Y-36403500D01*
X181446680Y-36403500D01*
X181513719Y-36423185D01*
X181534361Y-36439819D01*
X182930740Y-37836198D01*
X184324767Y-39230224D01*
X184358252Y-39291547D01*
X184360353Y-39324586D01*
X184360502Y-39324586D01*
X184360502Y-39326926D01*
X184360615Y-39328703D01*
X184360502Y-39329995D01*
X184360502Y-39330001D01*
X184380456Y-39558081D01*
X184380457Y-39558089D01*
X184439714Y-39779238D01*
X184439718Y-39779249D01*
X184490339Y-39887806D01*
X184536477Y-39986749D01*
X184667802Y-40174300D01*
X184667806Y-40174304D01*
X184754181Y-40260679D01*
X184787666Y-40322002D01*
X184790500Y-40348360D01*
X184790500Y-43016680D01*
X184770815Y-43083719D01*
X184754181Y-43104361D01*
X184328361Y-43530181D01*
X184267038Y-43563666D01*
X184240680Y-43566500D01*
X182618360Y-43566500D01*
X182551321Y-43546815D01*
X182530679Y-43530181D01*
X182444304Y-43443806D01*
X182444300Y-43443802D01*
X182256749Y-43312477D01*
X182224736Y-43297549D01*
X182049249Y-43215718D01*
X182049238Y-43215714D01*
X181828089Y-43156457D01*
X181828081Y-43156456D01*
X181600002Y-43136502D01*
X181599998Y-43136502D01*
X181371918Y-43156456D01*
X181371910Y-43156457D01*
X181150761Y-43215714D01*
X181150750Y-43215718D01*
X180943254Y-43312475D01*
X180943252Y-43312476D01*
X180903090Y-43340598D01*
X180755700Y-43443802D01*
X180755698Y-43443803D01*
X180755695Y-43443806D01*
X180593806Y-43605695D01*
X180593803Y-43605698D01*
X180593802Y-43605700D01*
X180558916Y-43655522D01*
X180462476Y-43793251D01*
X180442382Y-43836345D01*
X180396209Y-43888784D01*
X180329016Y-43907936D01*
X180262135Y-43887720D01*
X180217618Y-43836345D01*
X180197523Y-43793251D01*
X180144215Y-43717120D01*
X180066198Y-43605700D01*
X179904300Y-43443802D01*
X179716749Y-43312477D01*
X179684736Y-43297549D01*
X179509249Y-43215718D01*
X179509238Y-43215714D01*
X179288089Y-43156457D01*
X179288081Y-43156456D01*
X179060002Y-43136502D01*
X179059998Y-43136502D01*
X178831918Y-43156456D01*
X178831910Y-43156457D01*
X178610761Y-43215714D01*
X178610750Y-43215718D01*
X178403254Y-43312475D01*
X178403252Y-43312476D01*
X178363090Y-43340598D01*
X178215700Y-43443802D01*
X178215698Y-43443803D01*
X178215695Y-43443806D01*
X178053806Y-43605695D01*
X178053803Y-43605698D01*
X178053802Y-43605700D01*
X178018916Y-43655522D01*
X177922476Y-43793251D01*
X177902382Y-43836345D01*
X177856209Y-43888784D01*
X177789016Y-43907936D01*
X177722135Y-43887720D01*
X177677618Y-43836345D01*
X177657523Y-43793251D01*
X177604215Y-43717120D01*
X177526198Y-43605700D01*
X177364300Y-43443802D01*
X177176749Y-43312477D01*
X177144736Y-43297549D01*
X176969249Y-43215718D01*
X176969238Y-43215714D01*
X176748089Y-43156457D01*
X176748081Y-43156456D01*
X176520002Y-43136502D01*
X176519998Y-43136502D01*
X176291918Y-43156456D01*
X176291910Y-43156457D01*
X176070761Y-43215714D01*
X176070750Y-43215718D01*
X175863254Y-43312475D01*
X175863252Y-43312476D01*
X175823090Y-43340598D01*
X175675700Y-43443802D01*
X175675698Y-43443803D01*
X175675695Y-43443806D01*
X175513806Y-43605695D01*
X175513803Y-43605698D01*
X175513802Y-43605700D01*
X175478916Y-43655522D01*
X175382476Y-43793251D01*
X175362382Y-43836345D01*
X175316209Y-43888784D01*
X175249016Y-43907936D01*
X175182135Y-43887720D01*
X175137618Y-43836345D01*
X175117523Y-43793251D01*
X175064215Y-43717120D01*
X174986198Y-43605700D01*
X174824300Y-43443802D01*
X174636749Y-43312477D01*
X174604736Y-43297549D01*
X174429249Y-43215718D01*
X174429238Y-43215714D01*
X174208089Y-43156457D01*
X174208081Y-43156456D01*
X173980002Y-43136502D01*
X173979998Y-43136502D01*
X173751918Y-43156456D01*
X173751910Y-43156457D01*
X173530761Y-43215714D01*
X173530750Y-43215718D01*
X173323254Y-43312475D01*
X173323252Y-43312476D01*
X173283090Y-43340598D01*
X173135700Y-43443802D01*
X173135698Y-43443803D01*
X173135695Y-43443806D01*
X172973806Y-43605695D01*
X172973803Y-43605698D01*
X172973802Y-43605700D01*
X172938916Y-43655522D01*
X172842476Y-43793251D01*
X172822382Y-43836345D01*
X172776209Y-43888784D01*
X172709016Y-43907936D01*
X172642135Y-43887720D01*
X172597618Y-43836345D01*
X172577523Y-43793251D01*
X172524215Y-43717120D01*
X172446198Y-43605700D01*
X172284300Y-43443802D01*
X172096749Y-43312477D01*
X172064736Y-43297549D01*
X171889249Y-43215718D01*
X171889238Y-43215714D01*
X171668089Y-43156457D01*
X171668081Y-43156456D01*
X171440002Y-43136502D01*
X171439998Y-43136502D01*
X171211918Y-43156456D01*
X171211910Y-43156457D01*
X170990761Y-43215714D01*
X170990750Y-43215718D01*
X170783254Y-43312475D01*
X170783252Y-43312476D01*
X170743090Y-43340598D01*
X170595700Y-43443802D01*
X170595698Y-43443803D01*
X170595695Y-43443806D01*
X170433806Y-43605695D01*
X170433803Y-43605698D01*
X170433802Y-43605700D01*
X170398916Y-43655522D01*
X170302476Y-43793251D01*
X170282382Y-43836345D01*
X170236209Y-43888784D01*
X170169016Y-43907936D01*
X170102135Y-43887720D01*
X170057618Y-43836345D01*
X170037523Y-43793251D01*
X169984215Y-43717120D01*
X169906198Y-43605700D01*
X169744300Y-43443802D01*
X169556749Y-43312477D01*
X169524736Y-43297549D01*
X169349249Y-43215718D01*
X169349238Y-43215714D01*
X169128089Y-43156457D01*
X169128081Y-43156456D01*
X168900002Y-43136502D01*
X168899998Y-43136502D01*
X168671918Y-43156456D01*
X168671910Y-43156457D01*
X168450761Y-43215714D01*
X168450750Y-43215718D01*
X168243254Y-43312475D01*
X168243252Y-43312476D01*
X168203090Y-43340598D01*
X168055700Y-43443802D01*
X168055698Y-43443803D01*
X168055695Y-43443806D01*
X167893806Y-43605695D01*
X167893803Y-43605698D01*
X167893802Y-43605700D01*
X167858916Y-43655522D01*
X167762476Y-43793251D01*
X167742382Y-43836345D01*
X167696209Y-43888784D01*
X167629016Y-43907936D01*
X167562135Y-43887720D01*
X167517618Y-43836345D01*
X167497523Y-43793251D01*
X167444215Y-43717120D01*
X167366198Y-43605700D01*
X167204300Y-43443802D01*
X167016749Y-43312477D01*
X166984736Y-43297549D01*
X166809249Y-43215718D01*
X166809238Y-43215714D01*
X166588089Y-43156457D01*
X166588081Y-43156456D01*
X166360002Y-43136502D01*
X166359998Y-43136502D01*
X166131918Y-43156456D01*
X166131910Y-43156457D01*
X165910761Y-43215714D01*
X165910750Y-43215718D01*
X165703254Y-43312475D01*
X165703252Y-43312476D01*
X165663090Y-43340598D01*
X165515700Y-43443802D01*
X165515698Y-43443803D01*
X165515695Y-43443806D01*
X165353806Y-43605695D01*
X165353803Y-43605698D01*
X165353802Y-43605700D01*
X165318916Y-43655522D01*
X165222476Y-43793251D01*
X165202382Y-43836345D01*
X165156209Y-43888784D01*
X165089016Y-43907936D01*
X165022135Y-43887720D01*
X164977618Y-43836345D01*
X164957523Y-43793251D01*
X164904215Y-43717120D01*
X164826198Y-43605700D01*
X164664300Y-43443802D01*
X164476749Y-43312477D01*
X164444736Y-43297549D01*
X164269249Y-43215718D01*
X164269238Y-43215714D01*
X164048089Y-43156457D01*
X164048081Y-43156456D01*
X163820002Y-43136502D01*
X163819998Y-43136502D01*
X163591918Y-43156456D01*
X163591910Y-43156457D01*
X163370761Y-43215714D01*
X163370750Y-43215718D01*
X163163254Y-43312475D01*
X163163252Y-43312476D01*
X163123090Y-43340598D01*
X162975700Y-43443802D01*
X162975698Y-43443803D01*
X162975695Y-43443806D01*
X162813806Y-43605695D01*
X162813803Y-43605698D01*
X162813802Y-43605700D01*
X162778916Y-43655522D01*
X162682476Y-43793251D01*
X162662382Y-43836345D01*
X162616209Y-43888784D01*
X162549016Y-43907936D01*
X162482135Y-43887720D01*
X162437618Y-43836345D01*
X162417523Y-43793251D01*
X162364215Y-43717120D01*
X162286198Y-43605700D01*
X162124300Y-43443802D01*
X161936749Y-43312477D01*
X161904736Y-43297549D01*
X161729249Y-43215718D01*
X161729238Y-43215714D01*
X161508089Y-43156457D01*
X161508081Y-43156456D01*
X161280002Y-43136502D01*
X161279998Y-43136502D01*
X161051918Y-43156456D01*
X161051910Y-43156457D01*
X160830761Y-43215714D01*
X160830750Y-43215718D01*
X160623254Y-43312475D01*
X160623252Y-43312476D01*
X160583090Y-43340598D01*
X160435700Y-43443802D01*
X160435698Y-43443803D01*
X160435695Y-43443806D01*
X160273806Y-43605695D01*
X160273803Y-43605698D01*
X160273802Y-43605700D01*
X160238916Y-43655522D01*
X160142476Y-43793251D01*
X160122382Y-43836345D01*
X160076209Y-43888784D01*
X160009016Y-43907936D01*
X159942135Y-43887720D01*
X159897618Y-43836345D01*
X159877523Y-43793251D01*
X159824215Y-43717120D01*
X159746198Y-43605700D01*
X159584300Y-43443802D01*
X159396749Y-43312477D01*
X159364736Y-43297549D01*
X159189249Y-43215718D01*
X159189238Y-43215714D01*
X158968089Y-43156457D01*
X158968081Y-43156456D01*
X158740002Y-43136502D01*
X158739998Y-43136502D01*
X158511918Y-43156456D01*
X158511907Y-43156458D01*
X158455229Y-43171645D01*
X158385379Y-43169982D01*
X158335455Y-43139551D01*
X157492994Y-42297090D01*
X156637088Y-41441183D01*
X156627187Y-41428823D01*
X156626977Y-41428998D01*
X156622002Y-41422986D01*
X156622000Y-41422982D01*
X156595658Y-41398245D01*
X156570922Y-41375016D01*
X156549768Y-41353863D01*
X156547792Y-41352331D01*
X156544183Y-41349531D01*
X156539750Y-41345744D01*
X156505321Y-41313414D01*
X156505319Y-41313412D01*
X156487431Y-41303578D01*
X156471170Y-41292897D01*
X156455039Y-41280384D01*
X156411693Y-41261627D01*
X156406445Y-41259056D01*
X156379251Y-41244106D01*
X156365060Y-41236305D01*
X156361660Y-41235432D01*
X156345287Y-41231228D01*
X156326881Y-41224926D01*
X156308144Y-41216818D01*
X156308146Y-41216818D01*
X156261496Y-41209430D01*
X156255781Y-41208246D01*
X156235612Y-41203068D01*
X156210032Y-41196500D01*
X156210030Y-41196500D01*
X156189616Y-41196500D01*
X156170217Y-41194973D01*
X156150058Y-41191780D01*
X156150057Y-41191780D01*
X156103034Y-41196225D01*
X156097196Y-41196500D01*
X148819350Y-41196500D01*
X148752311Y-41176815D01*
X148731669Y-41160181D01*
X145282672Y-37711183D01*
X145272771Y-37698823D01*
X145272561Y-37698998D01*
X145267586Y-37692986D01*
X145267584Y-37692982D01*
X145241242Y-37668245D01*
X145216506Y-37645016D01*
X145195352Y-37623863D01*
X145193376Y-37622331D01*
X145189767Y-37619531D01*
X145185334Y-37615744D01*
X145150905Y-37583414D01*
X145150903Y-37583412D01*
X145133015Y-37573578D01*
X145116754Y-37562897D01*
X145100623Y-37550384D01*
X145057277Y-37531627D01*
X145052029Y-37529056D01*
X145024835Y-37514106D01*
X145010644Y-37506305D01*
X145007244Y-37505432D01*
X144990871Y-37501228D01*
X144972465Y-37494926D01*
X144953728Y-37486818D01*
X144953730Y-37486818D01*
X144907080Y-37479430D01*
X144901365Y-37478246D01*
X144881196Y-37473068D01*
X144855616Y-37466500D01*
X144855614Y-37466500D01*
X144835200Y-37466500D01*
X144815801Y-37464973D01*
X144795642Y-37461780D01*
X144795641Y-37461780D01*
X144748618Y-37466225D01*
X144742780Y-37466500D01*
X139009605Y-37466500D01*
X138942566Y-37446815D01*
X138896811Y-37394011D01*
X138886867Y-37324853D01*
X138897222Y-37290096D01*
X138902284Y-37279243D01*
X138961543Y-37058087D01*
X138981498Y-36830000D01*
X138961543Y-36601913D01*
X138950203Y-36559592D01*
X138951866Y-36489744D01*
X138991028Y-36431882D01*
X139055256Y-36404377D01*
X139069978Y-36403500D01*
X140459640Y-36403500D01*
X140526679Y-36423185D01*
G37*
G04 #@! TD.AperFunction*
M02*
