M48
; DRILL file {KiCad 7.0.8} date 2026 January 28, Wednesday 21:35:09
; FORMAT={-:-/ absolute / inch / decimal}
; #@! TF.CreationDate,2026-01-28T21:35:09+01:00
; #@! TF.GenerationSoftware,Kicad,Pcbnew,7.0.8
; #@! TF.FileFunction,Plated,1,2,PTH
FMAT,2
INCH
; #@! TA.AperFunction,Plated,PTH,ViaDrill
T1C0.0157
; #@! TA.AperFunction,Plated,PTH,ComponentDrill
T2C0.0276
; #@! TA.AperFunction,Plated,PTH,ComponentDrill
T3C0.0295
; #@! TA.AperFunction,Plated,PTH,ComponentDrill
T4C0.0315
; #@! TA.AperFunction,Plated,PTH,ComponentDrill
T5C0.0394
%
G90
G05
T1
X4.0715Y-2.75
X4.0715Y-2.81
X4.0892Y-2.55
X4.36Y-2.23
X4.36Y-2.94
X4.3994Y-2.23
X4.45Y-2.43
X4.47Y-1.81
X4.47Y-1.93
X4.6216Y-2.18
X4.95Y-1.69
X4.97Y-1.59
X5.05Y-1.69
X5.14Y-1.69
X5.25Y-1.69
X5.35Y-1.69
X5.45Y-1.69
X5.47Y-1.6
X5.55Y-1.69
X5.95Y-2.61
X6.1Y-2.5903
X6.2Y-2.59
X6.25Y-1.49
X6.25Y-1.6
X6.4Y-2.57
X6.55Y-2.57
X6.65Y-2.57
X7.07Y-1.47
X7.07Y-1.6
T2
X4.38Y-3.29
X4.38Y-3.59
X4.51Y-3.29
X4.51Y-3.59
X4.64Y-3.29
X4.64Y-3.59
T3
X4.13Y-3.44
X4.18Y-3.44
X4.23Y-3.44
T4
X3.98Y-1.75
X3.98Y-1.85
X3.98Y-1.95
X3.98Y-2.05
X3.98Y-2.15
X3.98Y-2.25
X3.98Y-2.35
X3.98Y-2.45
X3.98Y-2.55
X3.98Y-2.65
X3.98Y-2.75
X3.98Y-2.85
X4.0316Y-1.61
X4.2284Y-1.61
X4.28Y-1.75
X4.28Y-1.85
X4.28Y-1.95
X4.28Y-2.05
X4.28Y-2.15
X4.28Y-2.25
X4.28Y-2.35
X4.28Y-2.45
X4.28Y-2.55
X4.28Y-2.65
X4.28Y-2.75
X4.28Y-2.85
X4.52Y-1.15
X4.52Y-1.45
X4.62Y-1.15
X4.62Y-1.45
X4.72Y-1.15
X4.72Y-1.45
X4.82Y-1.15
X4.82Y-1.45
X4.92Y-1.15
X4.92Y-1.45
X5.02Y-1.15
X5.02Y-1.45
X5.12Y-1.15
X5.12Y-1.45
X5.22Y-1.15
X5.22Y-1.45
X5.32Y-1.15
X5.32Y-1.45
X5.42Y-1.15
X5.42Y-1.45
X5.57Y-1.2016
X5.57Y-1.3984
X5.8496Y-1.15
X5.8496Y-1.75
X5.9496Y-1.15
X5.9496Y-1.75
X6.0496Y-1.15
X6.0496Y-1.75
X6.1496Y-1.15
X6.1496Y-1.75
X6.2496Y-1.15
X6.2496Y-1.75
X6.3496Y-1.15
X6.3496Y-1.75
X6.4496Y-1.15
X6.4496Y-1.75
X6.5496Y-1.15
X6.5496Y-1.75
X6.6496Y-1.15
X6.6496Y-1.75
X6.7496Y-1.15
X6.7496Y-1.75
X6.8496Y-1.15
X6.8496Y-1.75
X6.9496Y-1.15
X6.9496Y-1.75
X7.0496Y-1.15
X7.0496Y-1.75
X7.1496Y-1.15
X7.1496Y-1.75
X7.31Y-1.3516
X7.31Y-1.5484
X7.39Y-3.3616
X7.39Y-3.46
T5
X3.98Y-3.14
X3.98Y-3.34
X3.98Y-3.44
X4.08Y-3.14
X4.18Y-3.14
X4.75Y-1.98
X4.75Y-2.18
X4.75Y-2.87
X4.75Y-3.07
X4.85Y-1.98
X4.85Y-2.18
X4.85Y-2.87
X4.85Y-3.07
X4.95Y-1.98
X4.95Y-2.18
X4.95Y-2.87
X4.95Y-3.07
X5.05Y-1.98
X5.05Y-2.18
X5.05Y-2.87
X5.05Y-3.07
X5.15Y-1.98
X5.15Y-2.18
X5.15Y-2.87
X5.15Y-3.07
X5.25Y-1.98
X5.25Y-2.18
X5.25Y-2.87
X5.25Y-3.07
X5.35Y-1.98
X5.35Y-2.18
X5.35Y-2.87
X5.35Y-3.07
X5.45Y-1.98
X5.45Y-2.18
X5.45Y-2.87
X5.45Y-3.07
X5.55Y-1.98
X5.55Y-2.18
X5.55Y-2.87
X5.55Y-3.07
X5.65Y-1.98
X5.65Y-2.18
X5.65Y-2.87
X5.65Y-3.07
X5.75Y-1.98
X5.75Y-2.18
X5.75Y-2.87
X5.75Y-3.07
X5.85Y-1.98
X5.85Y-2.18
X5.85Y-2.87
X5.85Y-3.07
X5.95Y-1.98
X5.95Y-2.18
X5.95Y-2.87
X5.95Y-3.07
X6.05Y-1.98
X6.05Y-2.18
X6.05Y-2.87
X6.05Y-3.07
X6.15Y-1.98
X6.15Y-2.18
X6.15Y-2.87
X6.15Y-3.07
X6.25Y-1.98
X6.25Y-2.18
X6.25Y-2.87
X6.25Y-3.07
X6.35Y-1.98
X6.35Y-2.18
X6.35Y-2.87
X6.35Y-3.07
X6.45Y-1.98
X6.45Y-2.18
X6.45Y-2.87
X6.45Y-3.07
X6.55Y-1.98
X6.55Y-2.18
X6.55Y-2.87
X6.55Y-3.07
X6.65Y-1.98
X6.65Y-2.18
X6.65Y-2.87
X6.65Y-3.07
X6.75Y-1.98
X6.75Y-2.18
X6.75Y-2.87
X6.75Y-3.07
X6.85Y-1.98
X6.85Y-2.18
X6.85Y-2.87
X6.85Y-3.07
X6.95Y-1.98
X6.95Y-2.18
X6.95Y-2.87
X6.95Y-3.07
X7.05Y-1.98
X7.05Y-2.18
X7.05Y-2.87
X7.05Y-3.07
X7.15Y-1.98
X7.15Y-2.18
X7.15Y-2.87
X7.15Y-3.07
X7.43Y-2.44
X7.43Y-2.54
X7.43Y-2.76
X7.43Y-2.86
T0
M30
