G04 #@! TF.GenerationSoftware,KiCad,Pcbnew,7.0.8*
G04 #@! TF.CreationDate,2026-01-28T21:35:14+01:00*
G04 #@! TF.ProjectId,Apple2Card,4170706c-6532-4436-9172-642e6b696361,rev?*
G04 #@! TF.SameCoordinates,Original*
G04 #@! TF.FileFunction,Legend,Bot*
G04 #@! TF.FilePolarity,Positive*
%FSLAX46Y46*%
G04 Gerber Fmt 4.6, Leading zero omitted, Abs format (unit mm)*
G04 Created by KiCad (PCBNEW 7.0.8) date 2026-01-28 21:35:14*
%MOMM*%
%LPD*%
G01*
G04 APERTURE LIST*
%ADD10C,0.150000*%
%ADD11C,0.120000*%
G04 APERTURE END LIST*
D10*
X174716839Y-40113057D02*
X174669220Y-40065438D01*
X174669220Y-40065438D02*
X174573982Y-40017819D01*
X174573982Y-40017819D02*
X174335887Y-40017819D01*
X174335887Y-40017819D02*
X174240649Y-40065438D01*
X174240649Y-40065438D02*
X174193030Y-40113057D01*
X174193030Y-40113057D02*
X174145411Y-40208295D01*
X174145411Y-40208295D02*
X174145411Y-40303533D01*
X174145411Y-40303533D02*
X174193030Y-40446390D01*
X174193030Y-40446390D02*
X174764458Y-41017819D01*
X174764458Y-41017819D02*
X174145411Y-41017819D01*
X173812077Y-40017819D02*
X173145411Y-40017819D01*
X173145411Y-40017819D02*
X173573982Y-41017819D01*
X172240649Y-41017819D02*
X172812077Y-41017819D01*
X172526363Y-41017819D02*
X172526363Y-40017819D01*
X172526363Y-40017819D02*
X172621601Y-40160676D01*
X172621601Y-40160676D02*
X172716839Y-40255914D01*
X172716839Y-40255914D02*
X172812077Y-40303533D01*
X171859696Y-40113057D02*
X171812077Y-40065438D01*
X171812077Y-40065438D02*
X171716839Y-40017819D01*
X171716839Y-40017819D02*
X171478744Y-40017819D01*
X171478744Y-40017819D02*
X171383506Y-40065438D01*
X171383506Y-40065438D02*
X171335887Y-40113057D01*
X171335887Y-40113057D02*
X171288268Y-40208295D01*
X171288268Y-40208295D02*
X171288268Y-40303533D01*
X171288268Y-40303533D02*
X171335887Y-40446390D01*
X171335887Y-40446390D02*
X171907315Y-41017819D01*
X171907315Y-41017819D02*
X171288268Y-41017819D01*
X170716839Y-40446390D02*
X170812077Y-40398771D01*
X170812077Y-40398771D02*
X170859696Y-40351152D01*
X170859696Y-40351152D02*
X170907315Y-40255914D01*
X170907315Y-40255914D02*
X170907315Y-40208295D01*
X170907315Y-40208295D02*
X170859696Y-40113057D01*
X170859696Y-40113057D02*
X170812077Y-40065438D01*
X170812077Y-40065438D02*
X170716839Y-40017819D01*
X170716839Y-40017819D02*
X170526363Y-40017819D01*
X170526363Y-40017819D02*
X170431125Y-40065438D01*
X170431125Y-40065438D02*
X170383506Y-40113057D01*
X170383506Y-40113057D02*
X170335887Y-40208295D01*
X170335887Y-40208295D02*
X170335887Y-40255914D01*
X170335887Y-40255914D02*
X170383506Y-40351152D01*
X170383506Y-40351152D02*
X170431125Y-40398771D01*
X170431125Y-40398771D02*
X170526363Y-40446390D01*
X170526363Y-40446390D02*
X170716839Y-40446390D01*
X170716839Y-40446390D02*
X170812077Y-40494009D01*
X170812077Y-40494009D02*
X170859696Y-40541628D01*
X170859696Y-40541628D02*
X170907315Y-40636866D01*
X170907315Y-40636866D02*
X170907315Y-40827342D01*
X170907315Y-40827342D02*
X170859696Y-40922580D01*
X170859696Y-40922580D02*
X170812077Y-40970200D01*
X170812077Y-40970200D02*
X170716839Y-41017819D01*
X170716839Y-41017819D02*
X170526363Y-41017819D01*
X170526363Y-41017819D02*
X170431125Y-40970200D01*
X170431125Y-40970200D02*
X170383506Y-40922580D01*
X170383506Y-40922580D02*
X170335887Y-40827342D01*
X170335887Y-40827342D02*
X170335887Y-40636866D01*
X170335887Y-40636866D02*
X170383506Y-40541628D01*
X170383506Y-40541628D02*
X170431125Y-40494009D01*
X170431125Y-40494009D02*
X170526363Y-40446390D01*
X174716839Y-37319057D02*
X174669220Y-37271438D01*
X174669220Y-37271438D02*
X174573982Y-37223819D01*
X174573982Y-37223819D02*
X174335887Y-37223819D01*
X174335887Y-37223819D02*
X174240649Y-37271438D01*
X174240649Y-37271438D02*
X174193030Y-37319057D01*
X174193030Y-37319057D02*
X174145411Y-37414295D01*
X174145411Y-37414295D02*
X174145411Y-37509533D01*
X174145411Y-37509533D02*
X174193030Y-37652390D01*
X174193030Y-37652390D02*
X174764458Y-38223819D01*
X174764458Y-38223819D02*
X174145411Y-38223819D01*
X173812077Y-37223819D02*
X173145411Y-37223819D01*
X173145411Y-37223819D02*
X173573982Y-38223819D01*
X172335887Y-37223819D02*
X172526363Y-37223819D01*
X172526363Y-37223819D02*
X172621601Y-37271438D01*
X172621601Y-37271438D02*
X172669220Y-37319057D01*
X172669220Y-37319057D02*
X172764458Y-37461914D01*
X172764458Y-37461914D02*
X172812077Y-37652390D01*
X172812077Y-37652390D02*
X172812077Y-38033342D01*
X172812077Y-38033342D02*
X172764458Y-38128580D01*
X172764458Y-38128580D02*
X172716839Y-38176200D01*
X172716839Y-38176200D02*
X172621601Y-38223819D01*
X172621601Y-38223819D02*
X172431125Y-38223819D01*
X172431125Y-38223819D02*
X172335887Y-38176200D01*
X172335887Y-38176200D02*
X172288268Y-38128580D01*
X172288268Y-38128580D02*
X172240649Y-38033342D01*
X172240649Y-38033342D02*
X172240649Y-37795247D01*
X172240649Y-37795247D02*
X172288268Y-37700009D01*
X172288268Y-37700009D02*
X172335887Y-37652390D01*
X172335887Y-37652390D02*
X172431125Y-37604771D01*
X172431125Y-37604771D02*
X172621601Y-37604771D01*
X172621601Y-37604771D02*
X172716839Y-37652390D01*
X172716839Y-37652390D02*
X172764458Y-37700009D01*
X172764458Y-37700009D02*
X172812077Y-37795247D01*
X171383506Y-37557152D02*
X171383506Y-38223819D01*
X171621601Y-37176200D02*
X171859696Y-37890485D01*
X171859696Y-37890485D02*
X171240649Y-37890485D01*
X178524819Y-38028666D02*
X179239104Y-38028666D01*
X179239104Y-38028666D02*
X179381961Y-37981047D01*
X179381961Y-37981047D02*
X179477200Y-37885809D01*
X179477200Y-37885809D02*
X179524819Y-37742952D01*
X179524819Y-37742952D02*
X179524819Y-37647714D01*
X179524819Y-38504857D02*
X178524819Y-38504857D01*
X178524819Y-38504857D02*
X178524819Y-38885809D01*
X178524819Y-38885809D02*
X178572438Y-38981047D01*
X178572438Y-38981047D02*
X178620057Y-39028666D01*
X178620057Y-39028666D02*
X178715295Y-39076285D01*
X178715295Y-39076285D02*
X178858152Y-39076285D01*
X178858152Y-39076285D02*
X178953390Y-39028666D01*
X178953390Y-39028666D02*
X179001009Y-38981047D01*
X179001009Y-38981047D02*
X179048628Y-38885809D01*
X179048628Y-38885809D02*
X179048628Y-38504857D01*
X178524819Y-39981047D02*
X178524819Y-39504857D01*
X178524819Y-39504857D02*
X179001009Y-39457238D01*
X179001009Y-39457238D02*
X178953390Y-39504857D01*
X178953390Y-39504857D02*
X178905771Y-39600095D01*
X178905771Y-39600095D02*
X178905771Y-39838190D01*
X178905771Y-39838190D02*
X178953390Y-39933428D01*
X178953390Y-39933428D02*
X179001009Y-39981047D01*
X179001009Y-39981047D02*
X179096247Y-40028666D01*
X179096247Y-40028666D02*
X179334342Y-40028666D01*
X179334342Y-40028666D02*
X179429580Y-39981047D01*
X179429580Y-39981047D02*
X179477200Y-39933428D01*
X179477200Y-39933428D02*
X179524819Y-39838190D01*
X179524819Y-39838190D02*
X179524819Y-39600095D01*
X179524819Y-39600095D02*
X179477200Y-39504857D01*
X179477200Y-39504857D02*
X179429580Y-39457238D01*
D11*
X178238000Y-37916000D02*
X178538000Y-38216000D01*
X178538000Y-37616000D02*
X178538000Y-38216000D01*
X176738000Y-41166000D02*
X177338000Y-41166000D01*
X176038000Y-37716000D02*
X176038000Y-40516000D01*
X177338000Y-37066000D02*
X176738000Y-37066000D01*
X178038000Y-40516000D02*
X178038000Y-37716000D01*
X178238000Y-37916000D02*
X178538000Y-37616000D01*
X176738000Y-37066000D02*
G75*
G03*
X176038000Y-37766000I-1J-699999D01*
G01*
X178038000Y-37766000D02*
G75*
G03*
X177338000Y-37066000I-699999J1D01*
G01*
X177338000Y-41166000D02*
G75*
G03*
X178038000Y-40466000I0J700000D01*
G01*
X176038000Y-40466000D02*
G75*
G03*
X176738000Y-41166000I700000J0D01*
G01*
M02*
