G04 #@! TF.GenerationSoftware,KiCad,Pcbnew,7.0.8*
G04 #@! TF.CreationDate,2026-01-28T21:35:14+01:00*
G04 #@! TF.ProjectId,Apple2Card,4170706c-6532-4436-9172-642e6b696361,rev?*
G04 #@! TF.SameCoordinates,Original*
G04 #@! TF.FileFunction,Soldermask,Bot*
G04 #@! TF.FilePolarity,Negative*
%FSLAX46Y46*%
G04 Gerber Fmt 4.6, Leading zero omitted, Abs format (unit mm)*
G04 Created by KiCad (PCBNEW 7.0.8) date 2026-01-28 21:35:14*
%MOMM*%
%LPD*%
G01*
G04 APERTURE LIST*
G04 Aperture macros list*
%AMFreePoly0*
4,1,19,0.550000,-0.750000,0.000000,-0.750000,0.000000,-0.744911,-0.071157,-0.744911,-0.207708,-0.704816,-0.327430,-0.627875,-0.420627,-0.520320,-0.479746,-0.390866,-0.500000,-0.250000,-0.500000,0.250000,-0.479746,0.390866,-0.420627,0.520320,-0.327430,0.627875,-0.207708,0.704816,-0.071157,0.744911,0.000000,0.744911,0.000000,0.750000,0.550000,0.750000,0.550000,-0.750000,0.550000,-0.750000,
$1*%
%AMFreePoly1*
4,1,19,0.000000,0.744911,0.071157,0.744911,0.207708,0.704816,0.327430,0.627875,0.420627,0.520320,0.479746,0.390866,0.500000,0.250000,0.500000,-0.250000,0.479746,-0.390866,0.420627,-0.520320,0.327430,-0.627875,0.207708,-0.704816,0.071157,-0.744911,0.000000,-0.744911,0.000000,-0.750000,-0.550000,-0.750000,-0.550000,0.750000,0.000000,0.750000,0.000000,0.744911,0.000000,0.744911,
$1*%
G04 Aperture macros list end*
%ADD10FreePoly0,270.000000*%
%ADD11R,1.500000X1.000000*%
%ADD12FreePoly1,270.000000*%
%ADD13C,1.400000*%
%ADD14O,1.400000X1.400000*%
%ADD15O,1.050000X1.500000*%
%ADD16R,1.050000X1.500000*%
%ADD17C,1.600000*%
%ADD18R,1.700000X1.700000*%
%ADD19O,1.700000X1.700000*%
%ADD20R,1.600000X1.600000*%
%ADD21O,1.600000X1.600000*%
%ADD22R,1.910000X8.530000*%
%ADD23R,1.270000X8.530000*%
G04 APERTURE END LIST*
D10*
X177038000Y-37816000D03*
D11*
X177038000Y-39116000D03*
D12*
X177038000Y-40416000D03*
D13*
X111252000Y-83566000D03*
D14*
X111252000Y-91186000D03*
D13*
X114554000Y-83566000D03*
D14*
X114554000Y-91186000D03*
D13*
X117856000Y-83566000D03*
D14*
X117856000Y-91186000D03*
D15*
X107442000Y-87376000D03*
X106172000Y-87376000D03*
D16*
X104902000Y-87376000D03*
D17*
X107402000Y-40894000D03*
X102402000Y-40894000D03*
D18*
X106172000Y-79756000D03*
D19*
X103632000Y-79756000D03*
X101092000Y-79756000D03*
D17*
X185674000Y-39330000D03*
X185674000Y-34330000D03*
D20*
X101092000Y-44450000D03*
D21*
X101092000Y-46990000D03*
X101092000Y-49530000D03*
X101092000Y-52070000D03*
X101092000Y-54610000D03*
X101092000Y-57150000D03*
X101092000Y-59690000D03*
X101092000Y-62230000D03*
X101092000Y-64770000D03*
X101092000Y-67310000D03*
X101092000Y-69850000D03*
X101092000Y-72390000D03*
X108712000Y-72390000D03*
X108712000Y-69850000D03*
X108712000Y-67310000D03*
X108712000Y-64770000D03*
X108712000Y-62230000D03*
X108712000Y-59690000D03*
X108712000Y-57150000D03*
X108712000Y-54610000D03*
X108712000Y-52070000D03*
X108712000Y-49530000D03*
X108712000Y-46990000D03*
X108712000Y-44450000D03*
D18*
X120650000Y-50292000D03*
D19*
X123190000Y-50292000D03*
X125730000Y-50292000D03*
X128270000Y-50292000D03*
X130810000Y-50292000D03*
X133350000Y-50292000D03*
X135890000Y-50292000D03*
X138430000Y-50292000D03*
X140970000Y-50292000D03*
X143510000Y-50292000D03*
X146050000Y-50292000D03*
X148590000Y-50292000D03*
X151130000Y-50292000D03*
X153670000Y-50292000D03*
X156210000Y-50292000D03*
X158750000Y-50292000D03*
X161290000Y-50292000D03*
X163830000Y-50292000D03*
X166370000Y-50292000D03*
X168910000Y-50292000D03*
X171450000Y-50292000D03*
X173990000Y-50292000D03*
X176530000Y-50292000D03*
X179070000Y-50292000D03*
X181610000Y-50292000D03*
D20*
X137668000Y-29210000D03*
D21*
X135128000Y-29210000D03*
X132588000Y-29210000D03*
X130048000Y-29210000D03*
X127508000Y-29210000D03*
X124968000Y-29210000D03*
X122428000Y-29210000D03*
X119888000Y-29210000D03*
X117348000Y-29210000D03*
X114808000Y-29210000D03*
X114808000Y-36830000D03*
X117348000Y-36830000D03*
X119888000Y-36830000D03*
X122428000Y-36830000D03*
X124968000Y-36830000D03*
X127508000Y-36830000D03*
X130048000Y-36830000D03*
X132588000Y-36830000D03*
X135128000Y-36830000D03*
X137668000Y-36830000D03*
D22*
X181864000Y-99060000D03*
D23*
X179070000Y-99060000D03*
X176530000Y-99060000D03*
X173990000Y-99060000D03*
X171450000Y-99060000D03*
X168910000Y-99060000D03*
X166370000Y-99060000D03*
X163830000Y-99060000D03*
X161290000Y-99060000D03*
X158750000Y-99060000D03*
X156210000Y-99060000D03*
X153670000Y-99060000D03*
X151130000Y-99060000D03*
X148590000Y-99060000D03*
X146050000Y-99060000D03*
X143510000Y-99060000D03*
X140970000Y-99060000D03*
X138430000Y-99060000D03*
X135890000Y-99060000D03*
X133350000Y-99060000D03*
X130810000Y-99060000D03*
X128270000Y-99060000D03*
X125730000Y-99060000D03*
X123190000Y-99060000D03*
X120396000Y-99060000D03*
D18*
X120650000Y-77978000D03*
D19*
X123190000Y-77978000D03*
X125730000Y-77978000D03*
X128270000Y-77978000D03*
X130810000Y-77978000D03*
X133350000Y-77978000D03*
X135890000Y-77978000D03*
X138430000Y-77978000D03*
X140970000Y-77978000D03*
X143510000Y-77978000D03*
X146050000Y-77978000D03*
X148590000Y-77978000D03*
X151130000Y-77978000D03*
X153670000Y-77978000D03*
X156210000Y-77978000D03*
X158750000Y-77978000D03*
X161290000Y-77978000D03*
X163830000Y-77978000D03*
X166370000Y-77978000D03*
X168910000Y-77978000D03*
X171450000Y-77978000D03*
X173990000Y-77978000D03*
X176530000Y-77978000D03*
X179070000Y-77978000D03*
X181610000Y-77978000D03*
D18*
X120650000Y-72898000D03*
D19*
X123190000Y-72898000D03*
X125730000Y-72898000D03*
X128270000Y-72898000D03*
X130810000Y-72898000D03*
X133350000Y-72898000D03*
X135890000Y-72898000D03*
X138430000Y-72898000D03*
X140970000Y-72898000D03*
X143510000Y-72898000D03*
X146050000Y-72898000D03*
X148590000Y-72898000D03*
X151130000Y-72898000D03*
X153670000Y-72898000D03*
X156210000Y-72898000D03*
X158750000Y-72898000D03*
X161290000Y-72898000D03*
X163830000Y-72898000D03*
X166370000Y-72898000D03*
X168910000Y-72898000D03*
X171450000Y-72898000D03*
X173990000Y-72898000D03*
X176530000Y-72898000D03*
X179070000Y-72898000D03*
X181610000Y-72898000D03*
D18*
X188722000Y-64516000D03*
D19*
X188722000Y-61976000D03*
D20*
X187706000Y-85384000D03*
D17*
X187706000Y-87884000D03*
D20*
X181600000Y-29210000D03*
D21*
X179060000Y-29210000D03*
X176520000Y-29210000D03*
X173980000Y-29210000D03*
X171440000Y-29210000D03*
X168900000Y-29210000D03*
X166360000Y-29210000D03*
X163820000Y-29210000D03*
X161280000Y-29210000D03*
X158740000Y-29210000D03*
X156200000Y-29210000D03*
X153660000Y-29210000D03*
X151120000Y-29210000D03*
X148580000Y-29210000D03*
X148580000Y-44450000D03*
X151120000Y-44450000D03*
X153660000Y-44450000D03*
X156200000Y-44450000D03*
X158740000Y-44450000D03*
X161280000Y-44450000D03*
X163820000Y-44450000D03*
X166360000Y-44450000D03*
X168900000Y-44450000D03*
X171440000Y-44450000D03*
X173980000Y-44450000D03*
X176520000Y-44450000D03*
X179060000Y-44450000D03*
X181600000Y-44450000D03*
D17*
X141478000Y-30520000D03*
X141478000Y-35520000D03*
D18*
X188722000Y-72644000D03*
D19*
X188722000Y-70104000D03*
D18*
X101092000Y-84836000D03*
D19*
X101092000Y-87376000D03*
X181610000Y-55372000D03*
X179070000Y-55372000D03*
X176530000Y-55372000D03*
X173990000Y-55372000D03*
X171450000Y-55372000D03*
X168910000Y-55372000D03*
X166370000Y-55372000D03*
X163830000Y-55372000D03*
X161290000Y-55372000D03*
X158750000Y-55372000D03*
X156210000Y-55372000D03*
X153670000Y-55372000D03*
X151130000Y-55372000D03*
X148590000Y-55372000D03*
X146050000Y-55372000D03*
X143510000Y-55372000D03*
X140970000Y-55372000D03*
X138430000Y-55372000D03*
X135890000Y-55372000D03*
X133350000Y-55372000D03*
X130810000Y-55372000D03*
X128270000Y-55372000D03*
X125730000Y-55372000D03*
X123190000Y-55372000D03*
D18*
X120650000Y-55372000D03*
M02*
