G04 #@! TF.GenerationSoftware,KiCad,Pcbnew,7.0.8*
G04 #@! TF.CreationDate,2026-01-28T21:35:14+01:00*
G04 #@! TF.ProjectId,Apple2Card,4170706c-6532-4436-9172-642e6b696361,rev?*
G04 #@! TF.SameCoordinates,Original*
G04 #@! TF.FileFunction,Legend,Top*
G04 #@! TF.FilePolarity,Positive*
%FSLAX46Y46*%
G04 Gerber Fmt 4.6, Leading zero omitted, Abs format (unit mm)*
G04 Created by KiCad (PCBNEW 7.0.8) date 2026-01-28 21:35:14*
%MOMM*%
%LPD*%
G01*
G04 APERTURE LIST*
%ADD10C,0.150000*%
%ADD11C,0.300000*%
%ADD12C,0.120000*%
G04 APERTURE END LIST*
D10*
X162814000Y-83014000D02*
X162814000Y-81744000D01*
X140769104Y-83312285D02*
X140769104Y-82836095D01*
X141054819Y-83407523D02*
X140054819Y-83074190D01*
X140054819Y-83074190D02*
X141054819Y-82740857D01*
X140054819Y-82502761D02*
X140054819Y-81836095D01*
X140054819Y-81836095D02*
X141054819Y-82264666D01*
X148559104Y-84248475D02*
X148559104Y-83772285D01*
X148844819Y-84343713D02*
X147844819Y-84010380D01*
X147844819Y-84010380D02*
X148844819Y-83677047D01*
X148844819Y-82819904D02*
X148844819Y-83391332D01*
X148844819Y-83105618D02*
X147844819Y-83105618D01*
X147844819Y-83105618D02*
X147987676Y-83200856D01*
X147987676Y-83200856D02*
X148082914Y-83296094D01*
X148082914Y-83296094D02*
X148130533Y-83391332D01*
X147844819Y-82200856D02*
X147844819Y-82105618D01*
X147844819Y-82105618D02*
X147892438Y-82010380D01*
X147892438Y-82010380D02*
X147940057Y-81962761D01*
X147940057Y-81962761D02*
X148035295Y-81915142D01*
X148035295Y-81915142D02*
X148225771Y-81867523D01*
X148225771Y-81867523D02*
X148463866Y-81867523D01*
X148463866Y-81867523D02*
X148654342Y-81915142D01*
X148654342Y-81915142D02*
X148749580Y-81962761D01*
X148749580Y-81962761D02*
X148797200Y-82010380D01*
X148797200Y-82010380D02*
X148844819Y-82105618D01*
X148844819Y-82105618D02*
X148844819Y-82200856D01*
X148844819Y-82200856D02*
X148797200Y-82296094D01*
X148797200Y-82296094D02*
X148749580Y-82343713D01*
X148749580Y-82343713D02*
X148654342Y-82391332D01*
X148654342Y-82391332D02*
X148463866Y-82438951D01*
X148463866Y-82438951D02*
X148225771Y-82438951D01*
X148225771Y-82438951D02*
X148035295Y-82391332D01*
X148035295Y-82391332D02*
X147940057Y-82343713D01*
X147940057Y-82343713D02*
X147892438Y-82296094D01*
X147892438Y-82296094D02*
X147844819Y-82200856D01*
X138359104Y-83312285D02*
X138359104Y-82836095D01*
X138644819Y-83407523D02*
X137644819Y-83074190D01*
X137644819Y-83074190D02*
X138644819Y-82740857D01*
X137644819Y-81978952D02*
X137644819Y-82169428D01*
X137644819Y-82169428D02*
X137692438Y-82264666D01*
X137692438Y-82264666D02*
X137740057Y-82312285D01*
X137740057Y-82312285D02*
X137882914Y-82407523D01*
X137882914Y-82407523D02*
X138073390Y-82455142D01*
X138073390Y-82455142D02*
X138454342Y-82455142D01*
X138454342Y-82455142D02*
X138549580Y-82407523D01*
X138549580Y-82407523D02*
X138597200Y-82359904D01*
X138597200Y-82359904D02*
X138644819Y-82264666D01*
X138644819Y-82264666D02*
X138644819Y-82074190D01*
X138644819Y-82074190D02*
X138597200Y-81978952D01*
X138597200Y-81978952D02*
X138549580Y-81931333D01*
X138549580Y-81931333D02*
X138454342Y-81883714D01*
X138454342Y-81883714D02*
X138216247Y-81883714D01*
X138216247Y-81883714D02*
X138121009Y-81931333D01*
X138121009Y-81931333D02*
X138073390Y-81978952D01*
X138073390Y-81978952D02*
X138025771Y-82074190D01*
X138025771Y-82074190D02*
X138025771Y-82264666D01*
X138025771Y-82264666D02*
X138073390Y-82359904D01*
X138073390Y-82359904D02*
X138121009Y-82407523D01*
X138121009Y-82407523D02*
X138216247Y-82455142D01*
X143509104Y-83282285D02*
X143509104Y-82806095D01*
X143794819Y-83377523D02*
X142794819Y-83044190D01*
X142794819Y-83044190D02*
X143794819Y-82710857D01*
X143223390Y-82234666D02*
X143175771Y-82329904D01*
X143175771Y-82329904D02*
X143128152Y-82377523D01*
X143128152Y-82377523D02*
X143032914Y-82425142D01*
X143032914Y-82425142D02*
X142985295Y-82425142D01*
X142985295Y-82425142D02*
X142890057Y-82377523D01*
X142890057Y-82377523D02*
X142842438Y-82329904D01*
X142842438Y-82329904D02*
X142794819Y-82234666D01*
X142794819Y-82234666D02*
X142794819Y-82044190D01*
X142794819Y-82044190D02*
X142842438Y-81948952D01*
X142842438Y-81948952D02*
X142890057Y-81901333D01*
X142890057Y-81901333D02*
X142985295Y-81853714D01*
X142985295Y-81853714D02*
X143032914Y-81853714D01*
X143032914Y-81853714D02*
X143128152Y-81901333D01*
X143128152Y-81901333D02*
X143175771Y-81948952D01*
X143175771Y-81948952D02*
X143223390Y-82044190D01*
X143223390Y-82044190D02*
X143223390Y-82234666D01*
X143223390Y-82234666D02*
X143271009Y-82329904D01*
X143271009Y-82329904D02*
X143318628Y-82377523D01*
X143318628Y-82377523D02*
X143413866Y-82425142D01*
X143413866Y-82425142D02*
X143604342Y-82425142D01*
X143604342Y-82425142D02*
X143699580Y-82377523D01*
X143699580Y-82377523D02*
X143747200Y-82329904D01*
X143747200Y-82329904D02*
X143794819Y-82234666D01*
X143794819Y-82234666D02*
X143794819Y-82044190D01*
X143794819Y-82044190D02*
X143747200Y-81948952D01*
X143747200Y-81948952D02*
X143699580Y-81901333D01*
X143699580Y-81901333D02*
X143604342Y-81853714D01*
X143604342Y-81853714D02*
X143413866Y-81853714D01*
X143413866Y-81853714D02*
X143318628Y-81901333D01*
X143318628Y-81901333D02*
X143271009Y-81948952D01*
X143271009Y-81948952D02*
X143223390Y-82044190D01*
X168187200Y-86728476D02*
X169472914Y-87585618D01*
X169234819Y-86395142D02*
X168234819Y-86395142D01*
X168234819Y-85728476D02*
X168234819Y-85538000D01*
X168234819Y-85538000D02*
X168282438Y-85442762D01*
X168282438Y-85442762D02*
X168377676Y-85347524D01*
X168377676Y-85347524D02*
X168568152Y-85299905D01*
X168568152Y-85299905D02*
X168901485Y-85299905D01*
X168901485Y-85299905D02*
X169091961Y-85347524D01*
X169091961Y-85347524D02*
X169187200Y-85442762D01*
X169187200Y-85442762D02*
X169234819Y-85538000D01*
X169234819Y-85538000D02*
X169234819Y-85728476D01*
X169234819Y-85728476D02*
X169187200Y-85823714D01*
X169187200Y-85823714D02*
X169091961Y-85918952D01*
X169091961Y-85918952D02*
X168901485Y-85966571D01*
X168901485Y-85966571D02*
X168568152Y-85966571D01*
X168568152Y-85966571D02*
X168377676Y-85918952D01*
X168377676Y-85918952D02*
X168282438Y-85823714D01*
X168282438Y-85823714D02*
X168234819Y-85728476D01*
X169187200Y-84918952D02*
X169234819Y-84776095D01*
X169234819Y-84776095D02*
X169234819Y-84538000D01*
X169234819Y-84538000D02*
X169187200Y-84442762D01*
X169187200Y-84442762D02*
X169139580Y-84395143D01*
X169139580Y-84395143D02*
X169044342Y-84347524D01*
X169044342Y-84347524D02*
X168949104Y-84347524D01*
X168949104Y-84347524D02*
X168853866Y-84395143D01*
X168853866Y-84395143D02*
X168806247Y-84442762D01*
X168806247Y-84442762D02*
X168758628Y-84538000D01*
X168758628Y-84538000D02*
X168711009Y-84728476D01*
X168711009Y-84728476D02*
X168663390Y-84823714D01*
X168663390Y-84823714D02*
X168615771Y-84871333D01*
X168615771Y-84871333D02*
X168520533Y-84918952D01*
X168520533Y-84918952D02*
X168425295Y-84918952D01*
X168425295Y-84918952D02*
X168330057Y-84871333D01*
X168330057Y-84871333D02*
X168282438Y-84823714D01*
X168282438Y-84823714D02*
X168234819Y-84728476D01*
X168234819Y-84728476D02*
X168234819Y-84490381D01*
X168234819Y-84490381D02*
X168282438Y-84347524D01*
X168234819Y-84061809D02*
X168234819Y-83490381D01*
X169234819Y-83776095D02*
X168234819Y-83776095D01*
X169234819Y-82585619D02*
X168758628Y-82918952D01*
X169234819Y-83157047D02*
X168234819Y-83157047D01*
X168234819Y-83157047D02*
X168234819Y-82776095D01*
X168234819Y-82776095D02*
X168282438Y-82680857D01*
X168282438Y-82680857D02*
X168330057Y-82633238D01*
X168330057Y-82633238D02*
X168425295Y-82585619D01*
X168425295Y-82585619D02*
X168568152Y-82585619D01*
X168568152Y-82585619D02*
X168663390Y-82633238D01*
X168663390Y-82633238D02*
X168711009Y-82680857D01*
X168711009Y-82680857D02*
X168758628Y-82776095D01*
X168758628Y-82776095D02*
X168758628Y-83157047D01*
X168711009Y-81823714D02*
X168758628Y-81680857D01*
X168758628Y-81680857D02*
X168806247Y-81633238D01*
X168806247Y-81633238D02*
X168901485Y-81585619D01*
X168901485Y-81585619D02*
X169044342Y-81585619D01*
X169044342Y-81585619D02*
X169139580Y-81633238D01*
X169139580Y-81633238D02*
X169187200Y-81680857D01*
X169187200Y-81680857D02*
X169234819Y-81776095D01*
X169234819Y-81776095D02*
X169234819Y-82157047D01*
X169234819Y-82157047D02*
X168234819Y-82157047D01*
X168234819Y-82157047D02*
X168234819Y-81823714D01*
X168234819Y-81823714D02*
X168282438Y-81728476D01*
X168282438Y-81728476D02*
X168330057Y-81680857D01*
X168330057Y-81680857D02*
X168425295Y-81633238D01*
X168425295Y-81633238D02*
X168520533Y-81633238D01*
X168520533Y-81633238D02*
X168615771Y-81680857D01*
X168615771Y-81680857D02*
X168663390Y-81728476D01*
X168663390Y-81728476D02*
X168711009Y-81823714D01*
X168711009Y-81823714D02*
X168711009Y-82157047D01*
X161269104Y-84258475D02*
X161269104Y-83782285D01*
X161554819Y-84353713D02*
X160554819Y-84020380D01*
X160554819Y-84020380D02*
X161554819Y-83687047D01*
X161554819Y-82829904D02*
X161554819Y-83401332D01*
X161554819Y-83115618D02*
X160554819Y-83115618D01*
X160554819Y-83115618D02*
X160697676Y-83210856D01*
X160697676Y-83210856D02*
X160792914Y-83306094D01*
X160792914Y-83306094D02*
X160840533Y-83401332D01*
X160554819Y-81925142D02*
X160554819Y-82401332D01*
X160554819Y-82401332D02*
X161031009Y-82448951D01*
X161031009Y-82448951D02*
X160983390Y-82401332D01*
X160983390Y-82401332D02*
X160935771Y-82306094D01*
X160935771Y-82306094D02*
X160935771Y-82067999D01*
X160935771Y-82067999D02*
X160983390Y-81972761D01*
X160983390Y-81972761D02*
X161031009Y-81925142D01*
X161031009Y-81925142D02*
X161126247Y-81877523D01*
X161126247Y-81877523D02*
X161364342Y-81877523D01*
X161364342Y-81877523D02*
X161459580Y-81925142D01*
X161459580Y-81925142D02*
X161507200Y-81972761D01*
X161507200Y-81972761D02*
X161554819Y-82067999D01*
X161554819Y-82067999D02*
X161554819Y-82306094D01*
X161554819Y-82306094D02*
X161507200Y-82401332D01*
X161507200Y-82401332D02*
X161459580Y-82448951D01*
X130739104Y-83222285D02*
X130739104Y-82746095D01*
X131024819Y-83317523D02*
X130024819Y-82984190D01*
X130024819Y-82984190D02*
X131024819Y-82650857D01*
X130024819Y-82412761D02*
X130024819Y-81793714D01*
X130024819Y-81793714D02*
X130405771Y-82127047D01*
X130405771Y-82127047D02*
X130405771Y-81984190D01*
X130405771Y-81984190D02*
X130453390Y-81888952D01*
X130453390Y-81888952D02*
X130501009Y-81841333D01*
X130501009Y-81841333D02*
X130596247Y-81793714D01*
X130596247Y-81793714D02*
X130834342Y-81793714D01*
X130834342Y-81793714D02*
X130929580Y-81841333D01*
X130929580Y-81841333D02*
X130977200Y-81888952D01*
X130977200Y-81888952D02*
X131024819Y-81984190D01*
X131024819Y-81984190D02*
X131024819Y-82269904D01*
X131024819Y-82269904D02*
X130977200Y-82365142D01*
X130977200Y-82365142D02*
X130929580Y-82412761D01*
X120723866Y-69579904D02*
X120723866Y-68818000D01*
X121104819Y-69198952D02*
X120342914Y-69198952D01*
X121104819Y-67818000D02*
X121104819Y-68389428D01*
X121104819Y-68103714D02*
X120104819Y-68103714D01*
X120104819Y-68103714D02*
X120247676Y-68198952D01*
X120247676Y-68198952D02*
X120342914Y-68294190D01*
X120342914Y-68294190D02*
X120390533Y-68389428D01*
X120200057Y-67437047D02*
X120152438Y-67389428D01*
X120152438Y-67389428D02*
X120104819Y-67294190D01*
X120104819Y-67294190D02*
X120104819Y-67056095D01*
X120104819Y-67056095D02*
X120152438Y-66960857D01*
X120152438Y-66960857D02*
X120200057Y-66913238D01*
X120200057Y-66913238D02*
X120295295Y-66865619D01*
X120295295Y-66865619D02*
X120390533Y-66865619D01*
X120390533Y-66865619D02*
X120533390Y-66913238D01*
X120533390Y-66913238D02*
X121104819Y-67484666D01*
X121104819Y-67484666D02*
X121104819Y-66865619D01*
X120104819Y-66579904D02*
X121104819Y-66246571D01*
X121104819Y-66246571D02*
X120104819Y-65913238D01*
X126184819Y-69572094D02*
X125184819Y-69572094D01*
X125184819Y-69572094D02*
X125184819Y-69333999D01*
X125184819Y-69333999D02*
X125232438Y-69191142D01*
X125232438Y-69191142D02*
X125327676Y-69095904D01*
X125327676Y-69095904D02*
X125422914Y-69048285D01*
X125422914Y-69048285D02*
X125613390Y-69000666D01*
X125613390Y-69000666D02*
X125756247Y-69000666D01*
X125756247Y-69000666D02*
X125946723Y-69048285D01*
X125946723Y-69048285D02*
X126041961Y-69095904D01*
X126041961Y-69095904D02*
X126137200Y-69191142D01*
X126137200Y-69191142D02*
X126184819Y-69333999D01*
X126184819Y-69333999D02*
X126184819Y-69572094D01*
X126184819Y-68048285D02*
X126184819Y-68619713D01*
X126184819Y-68333999D02*
X125184819Y-68333999D01*
X125184819Y-68333999D02*
X125327676Y-68429237D01*
X125327676Y-68429237D02*
X125422914Y-68524475D01*
X125422914Y-68524475D02*
X125470533Y-68619713D01*
X161363866Y-69611713D02*
X161363866Y-68849809D01*
X160744819Y-67897428D02*
X160744819Y-68373618D01*
X160744819Y-68373618D02*
X161221009Y-68421237D01*
X161221009Y-68421237D02*
X161173390Y-68373618D01*
X161173390Y-68373618D02*
X161125771Y-68278380D01*
X161125771Y-68278380D02*
X161125771Y-68040285D01*
X161125771Y-68040285D02*
X161173390Y-67945047D01*
X161173390Y-67945047D02*
X161221009Y-67897428D01*
X161221009Y-67897428D02*
X161316247Y-67849809D01*
X161316247Y-67849809D02*
X161554342Y-67849809D01*
X161554342Y-67849809D02*
X161649580Y-67897428D01*
X161649580Y-67897428D02*
X161697200Y-67945047D01*
X161697200Y-67945047D02*
X161744819Y-68040285D01*
X161744819Y-68040285D02*
X161744819Y-68278380D01*
X161744819Y-68278380D02*
X161697200Y-68373618D01*
X161697200Y-68373618D02*
X161649580Y-68421237D01*
X160744819Y-67564094D02*
X161744819Y-67230761D01*
X161744819Y-67230761D02*
X160744819Y-66897428D01*
X170857200Y-68651333D02*
X172142914Y-69508475D01*
X171904819Y-68317999D02*
X170904819Y-68317999D01*
X171904819Y-67270381D02*
X171428628Y-67603714D01*
X171904819Y-67841809D02*
X170904819Y-67841809D01*
X170904819Y-67841809D02*
X170904819Y-67460857D01*
X170904819Y-67460857D02*
X170952438Y-67365619D01*
X170952438Y-67365619D02*
X171000057Y-67318000D01*
X171000057Y-67318000D02*
X171095295Y-67270381D01*
X171095295Y-67270381D02*
X171238152Y-67270381D01*
X171238152Y-67270381D02*
X171333390Y-67318000D01*
X171333390Y-67318000D02*
X171381009Y-67365619D01*
X171381009Y-67365619D02*
X171428628Y-67460857D01*
X171428628Y-67460857D02*
X171428628Y-67841809D01*
X172000057Y-66175143D02*
X171952438Y-66270381D01*
X171952438Y-66270381D02*
X171857200Y-66365619D01*
X171857200Y-66365619D02*
X171714342Y-66508476D01*
X171714342Y-66508476D02*
X171666723Y-66603714D01*
X171666723Y-66603714D02*
X171666723Y-66698952D01*
X171904819Y-66651333D02*
X171857200Y-66746571D01*
X171857200Y-66746571D02*
X171761961Y-66841809D01*
X171761961Y-66841809D02*
X171571485Y-66889428D01*
X171571485Y-66889428D02*
X171238152Y-66889428D01*
X171238152Y-66889428D02*
X171047676Y-66841809D01*
X171047676Y-66841809D02*
X170952438Y-66746571D01*
X170952438Y-66746571D02*
X170904819Y-66651333D01*
X170904819Y-66651333D02*
X170904819Y-66460857D01*
X170904819Y-66460857D02*
X170952438Y-66365619D01*
X170952438Y-66365619D02*
X171047676Y-66270381D01*
X171047676Y-66270381D02*
X171238152Y-66222762D01*
X171238152Y-66222762D02*
X171571485Y-66222762D01*
X171571485Y-66222762D02*
X171761961Y-66270381D01*
X171761961Y-66270381D02*
X171857200Y-66365619D01*
X171857200Y-66365619D02*
X171904819Y-66460857D01*
X171904819Y-66460857D02*
X171904819Y-66651333D01*
X176774819Y-86441332D02*
X175774819Y-86441332D01*
X176774819Y-85965142D02*
X175774819Y-85965142D01*
X175774819Y-85965142D02*
X176774819Y-85393714D01*
X176774819Y-85393714D02*
X175774819Y-85393714D01*
X175774819Y-85060380D02*
X175774819Y-84488952D01*
X176774819Y-84774666D02*
X175774819Y-84774666D01*
X175774819Y-83965142D02*
X175774819Y-83774666D01*
X175774819Y-83774666D02*
X175822438Y-83679428D01*
X175822438Y-83679428D02*
X175917676Y-83584190D01*
X175917676Y-83584190D02*
X176108152Y-83536571D01*
X176108152Y-83536571D02*
X176441485Y-83536571D01*
X176441485Y-83536571D02*
X176631961Y-83584190D01*
X176631961Y-83584190D02*
X176727200Y-83679428D01*
X176727200Y-83679428D02*
X176774819Y-83774666D01*
X176774819Y-83774666D02*
X176774819Y-83965142D01*
X176774819Y-83965142D02*
X176727200Y-84060380D01*
X176727200Y-84060380D02*
X176631961Y-84155618D01*
X176631961Y-84155618D02*
X176441485Y-84203237D01*
X176441485Y-84203237D02*
X176108152Y-84203237D01*
X176108152Y-84203237D02*
X175917676Y-84155618D01*
X175917676Y-84155618D02*
X175822438Y-84060380D01*
X175822438Y-84060380D02*
X175774819Y-83965142D01*
X175774819Y-83107999D02*
X176584342Y-83107999D01*
X176584342Y-83107999D02*
X176679580Y-83060380D01*
X176679580Y-83060380D02*
X176727200Y-83012761D01*
X176727200Y-83012761D02*
X176774819Y-82917523D01*
X176774819Y-82917523D02*
X176774819Y-82727047D01*
X176774819Y-82727047D02*
X176727200Y-82631809D01*
X176727200Y-82631809D02*
X176679580Y-82584190D01*
X176679580Y-82584190D02*
X176584342Y-82536571D01*
X176584342Y-82536571D02*
X175774819Y-82536571D01*
X175774819Y-82203237D02*
X175774819Y-81631809D01*
X176774819Y-81917523D02*
X175774819Y-81917523D01*
X146069104Y-83412285D02*
X146069104Y-82936095D01*
X146354819Y-83507523D02*
X145354819Y-83174190D01*
X145354819Y-83174190D02*
X146354819Y-82840857D01*
X146354819Y-82459904D02*
X146354819Y-82269428D01*
X146354819Y-82269428D02*
X146307200Y-82174190D01*
X146307200Y-82174190D02*
X146259580Y-82126571D01*
X146259580Y-82126571D02*
X146116723Y-82031333D01*
X146116723Y-82031333D02*
X145926247Y-81983714D01*
X145926247Y-81983714D02*
X145545295Y-81983714D01*
X145545295Y-81983714D02*
X145450057Y-82031333D01*
X145450057Y-82031333D02*
X145402438Y-82078952D01*
X145402438Y-82078952D02*
X145354819Y-82174190D01*
X145354819Y-82174190D02*
X145354819Y-82364666D01*
X145354819Y-82364666D02*
X145402438Y-82459904D01*
X145402438Y-82459904D02*
X145450057Y-82507523D01*
X145450057Y-82507523D02*
X145545295Y-82555142D01*
X145545295Y-82555142D02*
X145783390Y-82555142D01*
X145783390Y-82555142D02*
X145878628Y-82507523D01*
X145878628Y-82507523D02*
X145926247Y-82459904D01*
X145926247Y-82459904D02*
X145973866Y-82364666D01*
X145973866Y-82364666D02*
X145973866Y-82174190D01*
X145973866Y-82174190D02*
X145926247Y-82078952D01*
X145926247Y-82078952D02*
X145878628Y-82031333D01*
X145878628Y-82031333D02*
X145783390Y-81983714D01*
X146504819Y-69056190D02*
X145504819Y-69056190D01*
X145647676Y-69151428D02*
X145647676Y-68960952D01*
X145647676Y-68960952D02*
X145695295Y-68818095D01*
X145695295Y-68818095D02*
X145790533Y-68722857D01*
X145790533Y-68722857D02*
X145885771Y-68675238D01*
X145885771Y-68675238D02*
X146076247Y-68675238D01*
X146076247Y-68675238D02*
X146171485Y-68722857D01*
X146171485Y-68722857D02*
X146266723Y-68818095D01*
X146266723Y-68818095D02*
X146314342Y-68960952D01*
X146314342Y-68960952D02*
X146314342Y-69151428D01*
X146314342Y-69151428D02*
X146266723Y-69294285D01*
X146266723Y-69294285D02*
X146171485Y-69389523D01*
X146171485Y-69389523D02*
X146076247Y-69437142D01*
X146076247Y-69437142D02*
X145885771Y-69437142D01*
X145885771Y-69437142D02*
X145790533Y-69389523D01*
X145790533Y-69389523D02*
X145695295Y-69294285D01*
X145695295Y-69294285D02*
X145647676Y-69151428D01*
X145504819Y-68103809D02*
X145504819Y-68008571D01*
X145504819Y-68008571D02*
X145552438Y-67913333D01*
X145552438Y-67913333D02*
X145600057Y-67865714D01*
X145600057Y-67865714D02*
X145695295Y-67818095D01*
X145695295Y-67818095D02*
X145885771Y-67770476D01*
X145885771Y-67770476D02*
X146123866Y-67770476D01*
X146123866Y-67770476D02*
X146314342Y-67818095D01*
X146314342Y-67818095D02*
X146409580Y-67865714D01*
X146409580Y-67865714D02*
X146457200Y-67913333D01*
X146457200Y-67913333D02*
X146504819Y-68008571D01*
X146504819Y-68008571D02*
X146504819Y-68103809D01*
X146504819Y-68103809D02*
X146457200Y-68199047D01*
X146457200Y-68199047D02*
X146409580Y-68246666D01*
X146409580Y-68246666D02*
X146314342Y-68294285D01*
X146314342Y-68294285D02*
X146123866Y-68341904D01*
X146123866Y-68341904D02*
X145885771Y-68341904D01*
X145885771Y-68341904D02*
X145695295Y-68294285D01*
X145695295Y-68294285D02*
X145600057Y-68246666D01*
X145600057Y-68246666D02*
X145552438Y-68199047D01*
X145552438Y-68199047D02*
X145504819Y-68103809D01*
D11*
X97876225Y-27764828D02*
X98376225Y-29264828D01*
X98376225Y-29264828D02*
X98876225Y-27764828D01*
X99661939Y-27764828D02*
X99804796Y-27764828D01*
X99804796Y-27764828D02*
X99947653Y-27836257D01*
X99947653Y-27836257D02*
X100019082Y-27907685D01*
X100019082Y-27907685D02*
X100090510Y-28050542D01*
X100090510Y-28050542D02*
X100161939Y-28336257D01*
X100161939Y-28336257D02*
X100161939Y-28693400D01*
X100161939Y-28693400D02*
X100090510Y-28979114D01*
X100090510Y-28979114D02*
X100019082Y-29121971D01*
X100019082Y-29121971D02*
X99947653Y-29193400D01*
X99947653Y-29193400D02*
X99804796Y-29264828D01*
X99804796Y-29264828D02*
X99661939Y-29264828D01*
X99661939Y-29264828D02*
X99519082Y-29193400D01*
X99519082Y-29193400D02*
X99447653Y-29121971D01*
X99447653Y-29121971D02*
X99376224Y-28979114D01*
X99376224Y-28979114D02*
X99304796Y-28693400D01*
X99304796Y-28693400D02*
X99304796Y-28336257D01*
X99304796Y-28336257D02*
X99376224Y-28050542D01*
X99376224Y-28050542D02*
X99447653Y-27907685D01*
X99447653Y-27907685D02*
X99519082Y-27836257D01*
X99519082Y-27836257D02*
X99661939Y-27764828D01*
X100804795Y-29121971D02*
X100876224Y-29193400D01*
X100876224Y-29193400D02*
X100804795Y-29264828D01*
X100804795Y-29264828D02*
X100733367Y-29193400D01*
X100733367Y-29193400D02*
X100804795Y-29121971D01*
X100804795Y-29121971D02*
X100804795Y-29264828D01*
X102304796Y-29264828D02*
X101447653Y-29264828D01*
X101876224Y-29264828D02*
X101876224Y-27764828D01*
X101876224Y-27764828D02*
X101733367Y-27979114D01*
X101733367Y-27979114D02*
X101590510Y-28121971D01*
X101590510Y-28121971D02*
X101447653Y-28193400D01*
D10*
X181112438Y-68833904D02*
X181064819Y-68929142D01*
X181064819Y-68929142D02*
X181064819Y-69071999D01*
X181064819Y-69071999D02*
X181112438Y-69214856D01*
X181112438Y-69214856D02*
X181207676Y-69310094D01*
X181207676Y-69310094D02*
X181302914Y-69357713D01*
X181302914Y-69357713D02*
X181493390Y-69405332D01*
X181493390Y-69405332D02*
X181636247Y-69405332D01*
X181636247Y-69405332D02*
X181826723Y-69357713D01*
X181826723Y-69357713D02*
X181921961Y-69310094D01*
X181921961Y-69310094D02*
X182017200Y-69214856D01*
X182017200Y-69214856D02*
X182064819Y-69071999D01*
X182064819Y-69071999D02*
X182064819Y-68976761D01*
X182064819Y-68976761D02*
X182017200Y-68833904D01*
X182017200Y-68833904D02*
X181969580Y-68786285D01*
X181969580Y-68786285D02*
X181636247Y-68786285D01*
X181636247Y-68786285D02*
X181636247Y-68976761D01*
X182064819Y-68357713D02*
X181064819Y-68357713D01*
X181064819Y-68357713D02*
X182064819Y-67786285D01*
X182064819Y-67786285D02*
X181064819Y-67786285D01*
X182064819Y-67310094D02*
X181064819Y-67310094D01*
X181064819Y-67310094D02*
X181064819Y-67071999D01*
X181064819Y-67071999D02*
X181112438Y-66929142D01*
X181112438Y-66929142D02*
X181207676Y-66833904D01*
X181207676Y-66833904D02*
X181302914Y-66786285D01*
X181302914Y-66786285D02*
X181493390Y-66738666D01*
X181493390Y-66738666D02*
X181636247Y-66738666D01*
X181636247Y-66738666D02*
X181826723Y-66786285D01*
X181826723Y-66786285D02*
X181921961Y-66833904D01*
X181921961Y-66833904D02*
X182017200Y-66929142D01*
X182017200Y-66929142D02*
X182064819Y-67071999D01*
X182064819Y-67071999D02*
X182064819Y-67310094D01*
X166634819Y-83623713D02*
X165634819Y-83623713D01*
X165634819Y-83623713D02*
X166634819Y-83052285D01*
X166634819Y-83052285D02*
X165634819Y-83052285D01*
X166539580Y-82004666D02*
X166587200Y-82052285D01*
X166587200Y-82052285D02*
X166634819Y-82195142D01*
X166634819Y-82195142D02*
X166634819Y-82290380D01*
X166634819Y-82290380D02*
X166587200Y-82433237D01*
X166587200Y-82433237D02*
X166491961Y-82528475D01*
X166491961Y-82528475D02*
X166396723Y-82576094D01*
X166396723Y-82576094D02*
X166206247Y-82623713D01*
X166206247Y-82623713D02*
X166063390Y-82623713D01*
X166063390Y-82623713D02*
X165872914Y-82576094D01*
X165872914Y-82576094D02*
X165777676Y-82528475D01*
X165777676Y-82528475D02*
X165682438Y-82433237D01*
X165682438Y-82433237D02*
X165634819Y-82290380D01*
X165634819Y-82290380D02*
X165634819Y-82195142D01*
X165634819Y-82195142D02*
X165682438Y-82052285D01*
X165682438Y-82052285D02*
X165730057Y-82004666D01*
X123139104Y-83182285D02*
X123139104Y-82706095D01*
X123424819Y-83277523D02*
X122424819Y-82944190D01*
X122424819Y-82944190D02*
X123424819Y-82610857D01*
X122424819Y-82087047D02*
X122424819Y-81991809D01*
X122424819Y-81991809D02*
X122472438Y-81896571D01*
X122472438Y-81896571D02*
X122520057Y-81848952D01*
X122520057Y-81848952D02*
X122615295Y-81801333D01*
X122615295Y-81801333D02*
X122805771Y-81753714D01*
X122805771Y-81753714D02*
X123043866Y-81753714D01*
X123043866Y-81753714D02*
X123234342Y-81801333D01*
X123234342Y-81801333D02*
X123329580Y-81848952D01*
X123329580Y-81848952D02*
X123377200Y-81896571D01*
X123377200Y-81896571D02*
X123424819Y-81991809D01*
X123424819Y-81991809D02*
X123424819Y-82087047D01*
X123424819Y-82087047D02*
X123377200Y-82182285D01*
X123377200Y-82182285D02*
X123329580Y-82229904D01*
X123329580Y-82229904D02*
X123234342Y-82277523D01*
X123234342Y-82277523D02*
X123043866Y-82325142D01*
X123043866Y-82325142D02*
X122805771Y-82325142D01*
X122805771Y-82325142D02*
X122615295Y-82277523D01*
X122615295Y-82277523D02*
X122520057Y-82229904D01*
X122520057Y-82229904D02*
X122472438Y-82182285D01*
X122472438Y-82182285D02*
X122424819Y-82087047D01*
X131264819Y-69572094D02*
X130264819Y-69572094D01*
X130264819Y-69572094D02*
X130264819Y-69333999D01*
X130264819Y-69333999D02*
X130312438Y-69191142D01*
X130312438Y-69191142D02*
X130407676Y-69095904D01*
X130407676Y-69095904D02*
X130502914Y-69048285D01*
X130502914Y-69048285D02*
X130693390Y-69000666D01*
X130693390Y-69000666D02*
X130836247Y-69000666D01*
X130836247Y-69000666D02*
X131026723Y-69048285D01*
X131026723Y-69048285D02*
X131121961Y-69095904D01*
X131121961Y-69095904D02*
X131217200Y-69191142D01*
X131217200Y-69191142D02*
X131264819Y-69333999D01*
X131264819Y-69333999D02*
X131264819Y-69572094D01*
X130264819Y-68667332D02*
X130264819Y-68048285D01*
X130264819Y-68048285D02*
X130645771Y-68381618D01*
X130645771Y-68381618D02*
X130645771Y-68238761D01*
X130645771Y-68238761D02*
X130693390Y-68143523D01*
X130693390Y-68143523D02*
X130741009Y-68095904D01*
X130741009Y-68095904D02*
X130836247Y-68048285D01*
X130836247Y-68048285D02*
X131074342Y-68048285D01*
X131074342Y-68048285D02*
X131169580Y-68095904D01*
X131169580Y-68095904D02*
X131217200Y-68143523D01*
X131217200Y-68143523D02*
X131264819Y-68238761D01*
X131264819Y-68238761D02*
X131264819Y-68524475D01*
X131264819Y-68524475D02*
X131217200Y-68619713D01*
X131217200Y-68619713D02*
X131169580Y-68667332D01*
X168317200Y-68635333D02*
X169602914Y-69492475D01*
X169364819Y-67730571D02*
X168888628Y-68063904D01*
X169364819Y-68301999D02*
X168364819Y-68301999D01*
X168364819Y-68301999D02*
X168364819Y-67921047D01*
X168364819Y-67921047D02*
X168412438Y-67825809D01*
X168412438Y-67825809D02*
X168460057Y-67778190D01*
X168460057Y-67778190D02*
X168555295Y-67730571D01*
X168555295Y-67730571D02*
X168698152Y-67730571D01*
X168698152Y-67730571D02*
X168793390Y-67778190D01*
X168793390Y-67778190D02*
X168841009Y-67825809D01*
X168841009Y-67825809D02*
X168888628Y-67921047D01*
X168888628Y-67921047D02*
X168888628Y-68301999D01*
X168841009Y-67301999D02*
X168841009Y-66968666D01*
X169364819Y-66825809D02*
X169364819Y-67301999D01*
X169364819Y-67301999D02*
X168364819Y-67301999D01*
X168364819Y-67301999D02*
X168364819Y-66825809D01*
X169317200Y-66444856D02*
X169364819Y-66301999D01*
X169364819Y-66301999D02*
X169364819Y-66063904D01*
X169364819Y-66063904D02*
X169317200Y-65968666D01*
X169317200Y-65968666D02*
X169269580Y-65921047D01*
X169269580Y-65921047D02*
X169174342Y-65873428D01*
X169174342Y-65873428D02*
X169079104Y-65873428D01*
X169079104Y-65873428D02*
X168983866Y-65921047D01*
X168983866Y-65921047D02*
X168936247Y-65968666D01*
X168936247Y-65968666D02*
X168888628Y-66063904D01*
X168888628Y-66063904D02*
X168841009Y-66254380D01*
X168841009Y-66254380D02*
X168793390Y-66349618D01*
X168793390Y-66349618D02*
X168745771Y-66397237D01*
X168745771Y-66397237D02*
X168650533Y-66444856D01*
X168650533Y-66444856D02*
X168555295Y-66444856D01*
X168555295Y-66444856D02*
X168460057Y-66397237D01*
X168460057Y-66397237D02*
X168412438Y-66349618D01*
X168412438Y-66349618D02*
X168364819Y-66254380D01*
X168364819Y-66254380D02*
X168364819Y-66016285D01*
X168364819Y-66016285D02*
X168412438Y-65873428D01*
X168841009Y-65444856D02*
X168841009Y-65111523D01*
X169364819Y-64968666D02*
X169364819Y-65444856D01*
X169364819Y-65444856D02*
X168364819Y-65444856D01*
X168364819Y-65444856D02*
X168364819Y-64968666D01*
X168364819Y-64682951D02*
X168364819Y-64111523D01*
X169364819Y-64397237D02*
X168364819Y-64397237D01*
X125559104Y-83182285D02*
X125559104Y-82706095D01*
X125844819Y-83277523D02*
X124844819Y-82944190D01*
X124844819Y-82944190D02*
X125844819Y-82610857D01*
X125844819Y-81753714D02*
X125844819Y-82325142D01*
X125844819Y-82039428D02*
X124844819Y-82039428D01*
X124844819Y-82039428D02*
X124987676Y-82134666D01*
X124987676Y-82134666D02*
X125082914Y-82229904D01*
X125082914Y-82229904D02*
X125130533Y-82325142D01*
X165777200Y-68675142D02*
X167062914Y-69532284D01*
X166824819Y-68341808D02*
X165824819Y-68341808D01*
X166824819Y-67865618D02*
X165824819Y-67865618D01*
X165824819Y-67865618D02*
X166824819Y-67294190D01*
X166824819Y-67294190D02*
X165824819Y-67294190D01*
X166824819Y-66817999D02*
X165824819Y-66817999D01*
X166301009Y-66817999D02*
X166301009Y-66246571D01*
X166824819Y-66246571D02*
X165824819Y-66246571D01*
X179524819Y-69587808D02*
X178524819Y-69587808D01*
X178524819Y-69587808D02*
X178524819Y-69349713D01*
X178524819Y-69349713D02*
X178572438Y-69206856D01*
X178572438Y-69206856D02*
X178667676Y-69111618D01*
X178667676Y-69111618D02*
X178762914Y-69063999D01*
X178762914Y-69063999D02*
X178953390Y-69016380D01*
X178953390Y-69016380D02*
X179096247Y-69016380D01*
X179096247Y-69016380D02*
X179286723Y-69063999D01*
X179286723Y-69063999D02*
X179381961Y-69111618D01*
X179381961Y-69111618D02*
X179477200Y-69206856D01*
X179477200Y-69206856D02*
X179524819Y-69349713D01*
X179524819Y-69349713D02*
X179524819Y-69587808D01*
X179524819Y-68587808D02*
X178524819Y-68587808D01*
X178524819Y-68587808D02*
X179239104Y-68254475D01*
X179239104Y-68254475D02*
X178524819Y-67921142D01*
X178524819Y-67921142D02*
X179524819Y-67921142D01*
X179239104Y-67492570D02*
X179239104Y-67016380D01*
X179524819Y-67587808D02*
X178524819Y-67254475D01*
X178524819Y-67254475D02*
X179524819Y-66921142D01*
X179524819Y-66587808D02*
X178524819Y-66587808D01*
X179524819Y-66111618D02*
X178524819Y-66111618D01*
X178524819Y-66111618D02*
X179524819Y-65540190D01*
X179524819Y-65540190D02*
X178524819Y-65540190D01*
X179394819Y-87218475D02*
X178394819Y-87218475D01*
X178394819Y-87218475D02*
X178394819Y-86980380D01*
X178394819Y-86980380D02*
X178442438Y-86837523D01*
X178442438Y-86837523D02*
X178537676Y-86742285D01*
X178537676Y-86742285D02*
X178632914Y-86694666D01*
X178632914Y-86694666D02*
X178823390Y-86647047D01*
X178823390Y-86647047D02*
X178966247Y-86647047D01*
X178966247Y-86647047D02*
X179156723Y-86694666D01*
X179156723Y-86694666D02*
X179251961Y-86742285D01*
X179251961Y-86742285D02*
X179347200Y-86837523D01*
X179347200Y-86837523D02*
X179394819Y-86980380D01*
X179394819Y-86980380D02*
X179394819Y-87218475D01*
X179394819Y-86218475D02*
X178394819Y-86218475D01*
X178394819Y-86218475D02*
X179109104Y-85885142D01*
X179109104Y-85885142D02*
X178394819Y-85551809D01*
X178394819Y-85551809D02*
X179394819Y-85551809D01*
X179109104Y-85123237D02*
X179109104Y-84647047D01*
X179394819Y-85218475D02*
X178394819Y-84885142D01*
X178394819Y-84885142D02*
X179394819Y-84551809D01*
X178394819Y-84027999D02*
X178394819Y-83837523D01*
X178394819Y-83837523D02*
X178442438Y-83742285D01*
X178442438Y-83742285D02*
X178537676Y-83647047D01*
X178537676Y-83647047D02*
X178728152Y-83599428D01*
X178728152Y-83599428D02*
X179061485Y-83599428D01*
X179061485Y-83599428D02*
X179251961Y-83647047D01*
X179251961Y-83647047D02*
X179347200Y-83742285D01*
X179347200Y-83742285D02*
X179394819Y-83837523D01*
X179394819Y-83837523D02*
X179394819Y-84027999D01*
X179394819Y-84027999D02*
X179347200Y-84123237D01*
X179347200Y-84123237D02*
X179251961Y-84218475D01*
X179251961Y-84218475D02*
X179061485Y-84266094D01*
X179061485Y-84266094D02*
X178728152Y-84266094D01*
X178728152Y-84266094D02*
X178537676Y-84218475D01*
X178537676Y-84218475D02*
X178442438Y-84123237D01*
X178442438Y-84123237D02*
X178394819Y-84027999D01*
X178394819Y-83170856D02*
X179204342Y-83170856D01*
X179204342Y-83170856D02*
X179299580Y-83123237D01*
X179299580Y-83123237D02*
X179347200Y-83075618D01*
X179347200Y-83075618D02*
X179394819Y-82980380D01*
X179394819Y-82980380D02*
X179394819Y-82789904D01*
X179394819Y-82789904D02*
X179347200Y-82694666D01*
X179347200Y-82694666D02*
X179299580Y-82647047D01*
X179299580Y-82647047D02*
X179204342Y-82599428D01*
X179204342Y-82599428D02*
X178394819Y-82599428D01*
X178394819Y-82266094D02*
X178394819Y-81694666D01*
X179394819Y-81980380D02*
X178394819Y-81980380D01*
X156199104Y-84258475D02*
X156199104Y-83782285D01*
X156484819Y-84353713D02*
X155484819Y-84020380D01*
X155484819Y-84020380D02*
X156484819Y-83687047D01*
X156484819Y-82829904D02*
X156484819Y-83401332D01*
X156484819Y-83115618D02*
X155484819Y-83115618D01*
X155484819Y-83115618D02*
X155627676Y-83210856D01*
X155627676Y-83210856D02*
X155722914Y-83306094D01*
X155722914Y-83306094D02*
X155770533Y-83401332D01*
X155484819Y-82496570D02*
X155484819Y-81877523D01*
X155484819Y-81877523D02*
X155865771Y-82210856D01*
X155865771Y-82210856D02*
X155865771Y-82067999D01*
X155865771Y-82067999D02*
X155913390Y-81972761D01*
X155913390Y-81972761D02*
X155961009Y-81925142D01*
X155961009Y-81925142D02*
X156056247Y-81877523D01*
X156056247Y-81877523D02*
X156294342Y-81877523D01*
X156294342Y-81877523D02*
X156389580Y-81925142D01*
X156389580Y-81925142D02*
X156437200Y-81972761D01*
X156437200Y-81972761D02*
X156484819Y-82067999D01*
X156484819Y-82067999D02*
X156484819Y-82353713D01*
X156484819Y-82353713D02*
X156437200Y-82448951D01*
X156437200Y-82448951D02*
X156389580Y-82496570D01*
X155664819Y-69484761D02*
X155664819Y-68818095D01*
X155664819Y-68818095D02*
X156664819Y-69246666D01*
X156664819Y-68437142D02*
X155664819Y-68437142D01*
X155664819Y-68437142D02*
X156379104Y-68103809D01*
X156379104Y-68103809D02*
X155664819Y-67770476D01*
X155664819Y-67770476D02*
X156664819Y-67770476D01*
X164074819Y-83129904D02*
X163598628Y-83463237D01*
X164074819Y-83701332D02*
X163074819Y-83701332D01*
X163074819Y-83701332D02*
X163074819Y-83320380D01*
X163074819Y-83320380D02*
X163122438Y-83225142D01*
X163122438Y-83225142D02*
X163170057Y-83177523D01*
X163170057Y-83177523D02*
X163265295Y-83129904D01*
X163265295Y-83129904D02*
X163408152Y-83129904D01*
X163408152Y-83129904D02*
X163503390Y-83177523D01*
X163503390Y-83177523D02*
X163551009Y-83225142D01*
X163551009Y-83225142D02*
X163598628Y-83320380D01*
X163598628Y-83320380D02*
X163598628Y-83701332D01*
X163074819Y-82796570D02*
X164074819Y-82558475D01*
X164074819Y-82558475D02*
X163360533Y-82367999D01*
X163360533Y-82367999D02*
X164074819Y-82177523D01*
X164074819Y-82177523D02*
X163074819Y-81939428D01*
X135719104Y-83272285D02*
X135719104Y-82796095D01*
X136004819Y-83367523D02*
X135004819Y-83034190D01*
X135004819Y-83034190D02*
X136004819Y-82700857D01*
X135004819Y-81891333D02*
X135004819Y-82367523D01*
X135004819Y-82367523D02*
X135481009Y-82415142D01*
X135481009Y-82415142D02*
X135433390Y-82367523D01*
X135433390Y-82367523D02*
X135385771Y-82272285D01*
X135385771Y-82272285D02*
X135385771Y-82034190D01*
X135385771Y-82034190D02*
X135433390Y-81938952D01*
X135433390Y-81938952D02*
X135481009Y-81891333D01*
X135481009Y-81891333D02*
X135576247Y-81843714D01*
X135576247Y-81843714D02*
X135814342Y-81843714D01*
X135814342Y-81843714D02*
X135909580Y-81891333D01*
X135909580Y-81891333D02*
X135957200Y-81938952D01*
X135957200Y-81938952D02*
X136004819Y-82034190D01*
X136004819Y-82034190D02*
X136004819Y-82272285D01*
X136004819Y-82272285D02*
X135957200Y-82367523D01*
X135957200Y-82367523D02*
X135909580Y-82415142D01*
X173143200Y-84593428D02*
X174428914Y-85450570D01*
X174190819Y-84260094D02*
X173190819Y-84260094D01*
X173190819Y-84260094D02*
X173190819Y-84021999D01*
X173190819Y-84021999D02*
X173238438Y-83879142D01*
X173238438Y-83879142D02*
X173333676Y-83783904D01*
X173333676Y-83783904D02*
X173428914Y-83736285D01*
X173428914Y-83736285D02*
X173619390Y-83688666D01*
X173619390Y-83688666D02*
X173762247Y-83688666D01*
X173762247Y-83688666D02*
X173952723Y-83736285D01*
X173952723Y-83736285D02*
X174047961Y-83783904D01*
X174047961Y-83783904D02*
X174143200Y-83879142D01*
X174143200Y-83879142D02*
X174190819Y-84021999D01*
X174190819Y-84021999D02*
X174190819Y-84260094D01*
X174190819Y-83260094D02*
X173190819Y-83260094D01*
X173190819Y-83260094D02*
X173905104Y-82926761D01*
X173905104Y-82926761D02*
X173190819Y-82593428D01*
X173190819Y-82593428D02*
X174190819Y-82593428D01*
X173905104Y-82164856D02*
X173905104Y-81688666D01*
X174190819Y-82260094D02*
X173190819Y-81926761D01*
X173190819Y-81926761D02*
X174190819Y-81593428D01*
X151584819Y-69056190D02*
X150584819Y-69056190D01*
X150727676Y-69151428D02*
X150727676Y-68960952D01*
X150727676Y-68960952D02*
X150775295Y-68818095D01*
X150775295Y-68818095D02*
X150870533Y-68722857D01*
X150870533Y-68722857D02*
X150965771Y-68675238D01*
X150965771Y-68675238D02*
X151156247Y-68675238D01*
X151156247Y-68675238D02*
X151251485Y-68722857D01*
X151251485Y-68722857D02*
X151346723Y-68818095D01*
X151346723Y-68818095D02*
X151394342Y-68960952D01*
X151394342Y-68960952D02*
X151394342Y-69151428D01*
X151394342Y-69151428D02*
X151346723Y-69294285D01*
X151346723Y-69294285D02*
X151251485Y-69389523D01*
X151251485Y-69389523D02*
X151156247Y-69437142D01*
X151156247Y-69437142D02*
X150965771Y-69437142D01*
X150965771Y-69437142D02*
X150870533Y-69389523D01*
X150870533Y-69389523D02*
X150775295Y-69294285D01*
X150775295Y-69294285D02*
X150727676Y-69151428D01*
X151584819Y-67770476D02*
X151584819Y-68341904D01*
X151584819Y-68056190D02*
X150584819Y-68056190D01*
X150584819Y-68056190D02*
X150727676Y-68151428D01*
X150727676Y-68151428D02*
X150822914Y-68246666D01*
X150822914Y-68246666D02*
X150870533Y-68341904D01*
X136344819Y-69572094D02*
X135344819Y-69572094D01*
X135344819Y-69572094D02*
X135344819Y-69333999D01*
X135344819Y-69333999D02*
X135392438Y-69191142D01*
X135392438Y-69191142D02*
X135487676Y-69095904D01*
X135487676Y-69095904D02*
X135582914Y-69048285D01*
X135582914Y-69048285D02*
X135773390Y-69000666D01*
X135773390Y-69000666D02*
X135916247Y-69000666D01*
X135916247Y-69000666D02*
X136106723Y-69048285D01*
X136106723Y-69048285D02*
X136201961Y-69095904D01*
X136201961Y-69095904D02*
X136297200Y-69191142D01*
X136297200Y-69191142D02*
X136344819Y-69333999D01*
X136344819Y-69333999D02*
X136344819Y-69572094D01*
X135344819Y-68095904D02*
X135344819Y-68572094D01*
X135344819Y-68572094D02*
X135821009Y-68619713D01*
X135821009Y-68619713D02*
X135773390Y-68572094D01*
X135773390Y-68572094D02*
X135725771Y-68476856D01*
X135725771Y-68476856D02*
X135725771Y-68238761D01*
X135725771Y-68238761D02*
X135773390Y-68143523D01*
X135773390Y-68143523D02*
X135821009Y-68095904D01*
X135821009Y-68095904D02*
X135916247Y-68048285D01*
X135916247Y-68048285D02*
X136154342Y-68048285D01*
X136154342Y-68048285D02*
X136249580Y-68095904D01*
X136249580Y-68095904D02*
X136297200Y-68143523D01*
X136297200Y-68143523D02*
X136344819Y-68238761D01*
X136344819Y-68238761D02*
X136344819Y-68476856D01*
X136344819Y-68476856D02*
X136297200Y-68572094D01*
X136297200Y-68572094D02*
X136249580Y-68619713D01*
X123644819Y-69572094D02*
X122644819Y-69572094D01*
X122644819Y-69572094D02*
X122644819Y-69333999D01*
X122644819Y-69333999D02*
X122692438Y-69191142D01*
X122692438Y-69191142D02*
X122787676Y-69095904D01*
X122787676Y-69095904D02*
X122882914Y-69048285D01*
X122882914Y-69048285D02*
X123073390Y-69000666D01*
X123073390Y-69000666D02*
X123216247Y-69000666D01*
X123216247Y-69000666D02*
X123406723Y-69048285D01*
X123406723Y-69048285D02*
X123501961Y-69095904D01*
X123501961Y-69095904D02*
X123597200Y-69191142D01*
X123597200Y-69191142D02*
X123644819Y-69333999D01*
X123644819Y-69333999D02*
X123644819Y-69572094D01*
X122644819Y-68381618D02*
X122644819Y-68286380D01*
X122644819Y-68286380D02*
X122692438Y-68191142D01*
X122692438Y-68191142D02*
X122740057Y-68143523D01*
X122740057Y-68143523D02*
X122835295Y-68095904D01*
X122835295Y-68095904D02*
X123025771Y-68048285D01*
X123025771Y-68048285D02*
X123263866Y-68048285D01*
X123263866Y-68048285D02*
X123454342Y-68095904D01*
X123454342Y-68095904D02*
X123549580Y-68143523D01*
X123549580Y-68143523D02*
X123597200Y-68191142D01*
X123597200Y-68191142D02*
X123644819Y-68286380D01*
X123644819Y-68286380D02*
X123644819Y-68381618D01*
X123644819Y-68381618D02*
X123597200Y-68476856D01*
X123597200Y-68476856D02*
X123549580Y-68524475D01*
X123549580Y-68524475D02*
X123454342Y-68572094D01*
X123454342Y-68572094D02*
X123263866Y-68619713D01*
X123263866Y-68619713D02*
X123025771Y-68619713D01*
X123025771Y-68619713D02*
X122835295Y-68572094D01*
X122835295Y-68572094D02*
X122740057Y-68524475D01*
X122740057Y-68524475D02*
X122692438Y-68476856D01*
X122692438Y-68476856D02*
X122644819Y-68381618D01*
X181613866Y-84573713D02*
X181613866Y-83811809D01*
X181994819Y-84192761D02*
X181232914Y-84192761D01*
X180994819Y-82859428D02*
X180994819Y-83335618D01*
X180994819Y-83335618D02*
X181471009Y-83383237D01*
X181471009Y-83383237D02*
X181423390Y-83335618D01*
X181423390Y-83335618D02*
X181375771Y-83240380D01*
X181375771Y-83240380D02*
X181375771Y-83002285D01*
X181375771Y-83002285D02*
X181423390Y-82907047D01*
X181423390Y-82907047D02*
X181471009Y-82859428D01*
X181471009Y-82859428D02*
X181566247Y-82811809D01*
X181566247Y-82811809D02*
X181804342Y-82811809D01*
X181804342Y-82811809D02*
X181899580Y-82859428D01*
X181899580Y-82859428D02*
X181947200Y-82907047D01*
X181947200Y-82907047D02*
X181994819Y-83002285D01*
X181994819Y-83002285D02*
X181994819Y-83240380D01*
X181994819Y-83240380D02*
X181947200Y-83335618D01*
X181947200Y-83335618D02*
X181899580Y-83383237D01*
X180994819Y-82526094D02*
X181994819Y-82192761D01*
X181994819Y-82192761D02*
X180994819Y-81859428D01*
X171714819Y-83657047D02*
X171238628Y-83990380D01*
X171714819Y-84228475D02*
X170714819Y-84228475D01*
X170714819Y-84228475D02*
X170714819Y-83847523D01*
X170714819Y-83847523D02*
X170762438Y-83752285D01*
X170762438Y-83752285D02*
X170810057Y-83704666D01*
X170810057Y-83704666D02*
X170905295Y-83657047D01*
X170905295Y-83657047D02*
X171048152Y-83657047D01*
X171048152Y-83657047D02*
X171143390Y-83704666D01*
X171143390Y-83704666D02*
X171191009Y-83752285D01*
X171191009Y-83752285D02*
X171238628Y-83847523D01*
X171238628Y-83847523D02*
X171238628Y-84228475D01*
X171714819Y-83228475D02*
X170714819Y-83228475D01*
X170714819Y-83228475D02*
X170714819Y-82990380D01*
X170714819Y-82990380D02*
X170762438Y-82847523D01*
X170762438Y-82847523D02*
X170857676Y-82752285D01*
X170857676Y-82752285D02*
X170952914Y-82704666D01*
X170952914Y-82704666D02*
X171143390Y-82657047D01*
X171143390Y-82657047D02*
X171286247Y-82657047D01*
X171286247Y-82657047D02*
X171476723Y-82704666D01*
X171476723Y-82704666D02*
X171571961Y-82752285D01*
X171571961Y-82752285D02*
X171667200Y-82847523D01*
X171667200Y-82847523D02*
X171714819Y-82990380D01*
X171714819Y-82990380D02*
X171714819Y-83228475D01*
X171238628Y-82037999D02*
X171714819Y-82037999D01*
X170714819Y-82371332D02*
X171238628Y-82037999D01*
X171238628Y-82037999D02*
X170714819Y-81704666D01*
X133804819Y-69572094D02*
X132804819Y-69572094D01*
X132804819Y-69572094D02*
X132804819Y-69333999D01*
X132804819Y-69333999D02*
X132852438Y-69191142D01*
X132852438Y-69191142D02*
X132947676Y-69095904D01*
X132947676Y-69095904D02*
X133042914Y-69048285D01*
X133042914Y-69048285D02*
X133233390Y-69000666D01*
X133233390Y-69000666D02*
X133376247Y-69000666D01*
X133376247Y-69000666D02*
X133566723Y-69048285D01*
X133566723Y-69048285D02*
X133661961Y-69095904D01*
X133661961Y-69095904D02*
X133757200Y-69191142D01*
X133757200Y-69191142D02*
X133804819Y-69333999D01*
X133804819Y-69333999D02*
X133804819Y-69572094D01*
X133138152Y-68143523D02*
X133804819Y-68143523D01*
X132757200Y-68381618D02*
X133471485Y-68619713D01*
X133471485Y-68619713D02*
X133471485Y-68000666D01*
X151159104Y-84268475D02*
X151159104Y-83792285D01*
X151444819Y-84363713D02*
X150444819Y-84030380D01*
X150444819Y-84030380D02*
X151444819Y-83697047D01*
X151444819Y-82839904D02*
X151444819Y-83411332D01*
X151444819Y-83125618D02*
X150444819Y-83125618D01*
X150444819Y-83125618D02*
X150587676Y-83220856D01*
X150587676Y-83220856D02*
X150682914Y-83316094D01*
X150682914Y-83316094D02*
X150730533Y-83411332D01*
X151444819Y-81887523D02*
X151444819Y-82458951D01*
X151444819Y-82173237D02*
X150444819Y-82173237D01*
X150444819Y-82173237D02*
X150587676Y-82268475D01*
X150587676Y-82268475D02*
X150682914Y-82363713D01*
X150682914Y-82363713D02*
X150730533Y-82458951D01*
D11*
X97455368Y-92780828D02*
X96312510Y-93209400D01*
X96312510Y-93209400D02*
X97455368Y-93637971D01*
X98169653Y-93209400D02*
X99312511Y-93209400D01*
X100026796Y-93209400D02*
X101169654Y-93209400D01*
X103026796Y-93780828D02*
X103026796Y-92280828D01*
X103169654Y-93209400D02*
X103598225Y-93780828D01*
X103598225Y-92780828D02*
X103026796Y-93352257D01*
X104812511Y-93709400D02*
X104669654Y-93780828D01*
X104669654Y-93780828D02*
X104383940Y-93780828D01*
X104383940Y-93780828D02*
X104241082Y-93709400D01*
X104241082Y-93709400D02*
X104169654Y-93566542D01*
X104169654Y-93566542D02*
X104169654Y-92995114D01*
X104169654Y-92995114D02*
X104241082Y-92852257D01*
X104241082Y-92852257D02*
X104383940Y-92780828D01*
X104383940Y-92780828D02*
X104669654Y-92780828D01*
X104669654Y-92780828D02*
X104812511Y-92852257D01*
X104812511Y-92852257D02*
X104883940Y-92995114D01*
X104883940Y-92995114D02*
X104883940Y-93137971D01*
X104883940Y-93137971D02*
X104169654Y-93280828D01*
X105383939Y-92780828D02*
X105741082Y-93780828D01*
X106098225Y-92780828D02*
X105741082Y-93780828D01*
X105741082Y-93780828D02*
X105598225Y-94137971D01*
X105598225Y-94137971D02*
X105526796Y-94209400D01*
X105526796Y-94209400D02*
X105383939Y-94280828D01*
X106669653Y-93780828D02*
X106669653Y-92280828D01*
X106669653Y-92852257D02*
X106812511Y-92780828D01*
X106812511Y-92780828D02*
X107098225Y-92780828D01*
X107098225Y-92780828D02*
X107241082Y-92852257D01*
X107241082Y-92852257D02*
X107312511Y-92923685D01*
X107312511Y-92923685D02*
X107383939Y-93066542D01*
X107383939Y-93066542D02*
X107383939Y-93495114D01*
X107383939Y-93495114D02*
X107312511Y-93637971D01*
X107312511Y-93637971D02*
X107241082Y-93709400D01*
X107241082Y-93709400D02*
X107098225Y-93780828D01*
X107098225Y-93780828D02*
X106812511Y-93780828D01*
X106812511Y-93780828D02*
X106669653Y-93709400D01*
X108241082Y-93780828D02*
X108098225Y-93709400D01*
X108098225Y-93709400D02*
X108026796Y-93637971D01*
X108026796Y-93637971D02*
X107955368Y-93495114D01*
X107955368Y-93495114D02*
X107955368Y-93066542D01*
X107955368Y-93066542D02*
X108026796Y-92923685D01*
X108026796Y-92923685D02*
X108098225Y-92852257D01*
X108098225Y-92852257D02*
X108241082Y-92780828D01*
X108241082Y-92780828D02*
X108455368Y-92780828D01*
X108455368Y-92780828D02*
X108598225Y-92852257D01*
X108598225Y-92852257D02*
X108669654Y-92923685D01*
X108669654Y-92923685D02*
X108741082Y-93066542D01*
X108741082Y-93066542D02*
X108741082Y-93495114D01*
X108741082Y-93495114D02*
X108669654Y-93637971D01*
X108669654Y-93637971D02*
X108598225Y-93709400D01*
X108598225Y-93709400D02*
X108455368Y-93780828D01*
X108455368Y-93780828D02*
X108241082Y-93780828D01*
X110026797Y-93780828D02*
X110026797Y-92995114D01*
X110026797Y-92995114D02*
X109955368Y-92852257D01*
X109955368Y-92852257D02*
X109812511Y-92780828D01*
X109812511Y-92780828D02*
X109526797Y-92780828D01*
X109526797Y-92780828D02*
X109383939Y-92852257D01*
X110026797Y-93709400D02*
X109883939Y-93780828D01*
X109883939Y-93780828D02*
X109526797Y-93780828D01*
X109526797Y-93780828D02*
X109383939Y-93709400D01*
X109383939Y-93709400D02*
X109312511Y-93566542D01*
X109312511Y-93566542D02*
X109312511Y-93423685D01*
X109312511Y-93423685D02*
X109383939Y-93280828D01*
X109383939Y-93280828D02*
X109526797Y-93209400D01*
X109526797Y-93209400D02*
X109883939Y-93209400D01*
X109883939Y-93209400D02*
X110026797Y-93137971D01*
X110741082Y-93780828D02*
X110741082Y-92780828D01*
X110741082Y-93066542D02*
X110812511Y-92923685D01*
X110812511Y-92923685D02*
X110883940Y-92852257D01*
X110883940Y-92852257D02*
X111026797Y-92780828D01*
X111026797Y-92780828D02*
X111169654Y-92780828D01*
X112312511Y-93780828D02*
X112312511Y-92280828D01*
X112312511Y-93709400D02*
X112169653Y-93780828D01*
X112169653Y-93780828D02*
X111883939Y-93780828D01*
X111883939Y-93780828D02*
X111741082Y-93709400D01*
X111741082Y-93709400D02*
X111669653Y-93637971D01*
X111669653Y-93637971D02*
X111598225Y-93495114D01*
X111598225Y-93495114D02*
X111598225Y-93066542D01*
X111598225Y-93066542D02*
X111669653Y-92923685D01*
X111669653Y-92923685D02*
X111741082Y-92852257D01*
X111741082Y-92852257D02*
X111883939Y-92780828D01*
X111883939Y-92780828D02*
X112169653Y-92780828D01*
X112169653Y-92780828D02*
X112312511Y-92852257D01*
D10*
X154220057Y-68929238D02*
X154172438Y-69024476D01*
X154172438Y-69024476D02*
X154077200Y-69119714D01*
X154077200Y-69119714D02*
X153934342Y-69262571D01*
X153934342Y-69262571D02*
X153886723Y-69357809D01*
X153886723Y-69357809D02*
X153886723Y-69453047D01*
X154124819Y-69405428D02*
X154077200Y-69500666D01*
X154077200Y-69500666D02*
X153981961Y-69595904D01*
X153981961Y-69595904D02*
X153791485Y-69643523D01*
X153791485Y-69643523D02*
X153458152Y-69643523D01*
X153458152Y-69643523D02*
X153267676Y-69595904D01*
X153267676Y-69595904D02*
X153172438Y-69500666D01*
X153172438Y-69500666D02*
X153124819Y-69405428D01*
X153124819Y-69405428D02*
X153124819Y-69214952D01*
X153124819Y-69214952D02*
X153172438Y-69119714D01*
X153172438Y-69119714D02*
X153267676Y-69024476D01*
X153267676Y-69024476D02*
X153458152Y-68976857D01*
X153458152Y-68976857D02*
X153791485Y-68976857D01*
X153791485Y-68976857D02*
X153981961Y-69024476D01*
X153981961Y-69024476D02*
X154077200Y-69119714D01*
X154077200Y-69119714D02*
X154124819Y-69214952D01*
X154124819Y-69214952D02*
X154124819Y-69405428D01*
X153124819Y-68643523D02*
X153124819Y-68024476D01*
X153124819Y-68024476D02*
X153505771Y-68357809D01*
X153505771Y-68357809D02*
X153505771Y-68214952D01*
X153505771Y-68214952D02*
X153553390Y-68119714D01*
X153553390Y-68119714D02*
X153601009Y-68072095D01*
X153601009Y-68072095D02*
X153696247Y-68024476D01*
X153696247Y-68024476D02*
X153934342Y-68024476D01*
X153934342Y-68024476D02*
X154029580Y-68072095D01*
X154029580Y-68072095D02*
X154077200Y-68119714D01*
X154077200Y-68119714D02*
X154124819Y-68214952D01*
X154124819Y-68214952D02*
X154124819Y-68500666D01*
X154124819Y-68500666D02*
X154077200Y-68595904D01*
X154077200Y-68595904D02*
X154029580Y-68643523D01*
X120057200Y-85696666D02*
X121342914Y-86553808D01*
X121104819Y-85363332D02*
X120104819Y-85363332D01*
X120104819Y-84696666D02*
X120104819Y-84506190D01*
X120104819Y-84506190D02*
X120152438Y-84410952D01*
X120152438Y-84410952D02*
X120247676Y-84315714D01*
X120247676Y-84315714D02*
X120438152Y-84268095D01*
X120438152Y-84268095D02*
X120771485Y-84268095D01*
X120771485Y-84268095D02*
X120961961Y-84315714D01*
X120961961Y-84315714D02*
X121057200Y-84410952D01*
X121057200Y-84410952D02*
X121104819Y-84506190D01*
X121104819Y-84506190D02*
X121104819Y-84696666D01*
X121104819Y-84696666D02*
X121057200Y-84791904D01*
X121057200Y-84791904D02*
X120961961Y-84887142D01*
X120961961Y-84887142D02*
X120771485Y-84934761D01*
X120771485Y-84934761D02*
X120438152Y-84934761D01*
X120438152Y-84934761D02*
X120247676Y-84887142D01*
X120247676Y-84887142D02*
X120152438Y-84791904D01*
X120152438Y-84791904D02*
X120104819Y-84696666D01*
X121057200Y-83887142D02*
X121104819Y-83744285D01*
X121104819Y-83744285D02*
X121104819Y-83506190D01*
X121104819Y-83506190D02*
X121057200Y-83410952D01*
X121057200Y-83410952D02*
X121009580Y-83363333D01*
X121009580Y-83363333D02*
X120914342Y-83315714D01*
X120914342Y-83315714D02*
X120819104Y-83315714D01*
X120819104Y-83315714D02*
X120723866Y-83363333D01*
X120723866Y-83363333D02*
X120676247Y-83410952D01*
X120676247Y-83410952D02*
X120628628Y-83506190D01*
X120628628Y-83506190D02*
X120581009Y-83696666D01*
X120581009Y-83696666D02*
X120533390Y-83791904D01*
X120533390Y-83791904D02*
X120485771Y-83839523D01*
X120485771Y-83839523D02*
X120390533Y-83887142D01*
X120390533Y-83887142D02*
X120295295Y-83887142D01*
X120295295Y-83887142D02*
X120200057Y-83839523D01*
X120200057Y-83839523D02*
X120152438Y-83791904D01*
X120152438Y-83791904D02*
X120104819Y-83696666D01*
X120104819Y-83696666D02*
X120104819Y-83458571D01*
X120104819Y-83458571D02*
X120152438Y-83315714D01*
X120581009Y-82887142D02*
X120581009Y-82553809D01*
X121104819Y-82410952D02*
X121104819Y-82887142D01*
X121104819Y-82887142D02*
X120104819Y-82887142D01*
X120104819Y-82887142D02*
X120104819Y-82410952D01*
X121104819Y-81506190D02*
X121104819Y-81982380D01*
X121104819Y-81982380D02*
X120104819Y-81982380D01*
X176984819Y-69484665D02*
X175984819Y-69484665D01*
X176984819Y-69008475D02*
X175984819Y-69008475D01*
X175984819Y-69008475D02*
X176984819Y-68437047D01*
X176984819Y-68437047D02*
X175984819Y-68437047D01*
X175984819Y-68103713D02*
X175984819Y-67532285D01*
X176984819Y-67817999D02*
X175984819Y-67817999D01*
X176984819Y-67198951D02*
X175984819Y-67198951D01*
X176984819Y-66722761D02*
X175984819Y-66722761D01*
X175984819Y-66722761D02*
X176984819Y-66151333D01*
X176984819Y-66151333D02*
X175984819Y-66151333D01*
X153619104Y-84238475D02*
X153619104Y-83762285D01*
X153904819Y-84333713D02*
X152904819Y-84000380D01*
X152904819Y-84000380D02*
X153904819Y-83667047D01*
X153904819Y-82809904D02*
X153904819Y-83381332D01*
X153904819Y-83095618D02*
X152904819Y-83095618D01*
X152904819Y-83095618D02*
X153047676Y-83190856D01*
X153047676Y-83190856D02*
X153142914Y-83286094D01*
X153142914Y-83286094D02*
X153190533Y-83381332D01*
X153000057Y-82428951D02*
X152952438Y-82381332D01*
X152952438Y-82381332D02*
X152904819Y-82286094D01*
X152904819Y-82286094D02*
X152904819Y-82047999D01*
X152904819Y-82047999D02*
X152952438Y-81952761D01*
X152952438Y-81952761D02*
X153000057Y-81905142D01*
X153000057Y-81905142D02*
X153095295Y-81857523D01*
X153095295Y-81857523D02*
X153190533Y-81857523D01*
X153190533Y-81857523D02*
X153333390Y-81905142D01*
X153333390Y-81905142D02*
X153904819Y-82476570D01*
X153904819Y-82476570D02*
X153904819Y-81857523D01*
X142917200Y-68833714D02*
X144202914Y-69690856D01*
X143964819Y-68500380D02*
X142964819Y-68500380D01*
X142964819Y-68500380D02*
X142964819Y-68262285D01*
X142964819Y-68262285D02*
X143012438Y-68119428D01*
X143012438Y-68119428D02*
X143107676Y-68024190D01*
X143107676Y-68024190D02*
X143202914Y-67976571D01*
X143202914Y-67976571D02*
X143393390Y-67928952D01*
X143393390Y-67928952D02*
X143536247Y-67928952D01*
X143536247Y-67928952D02*
X143726723Y-67976571D01*
X143726723Y-67976571D02*
X143821961Y-68024190D01*
X143821961Y-68024190D02*
X143917200Y-68119428D01*
X143917200Y-68119428D02*
X143964819Y-68262285D01*
X143964819Y-68262285D02*
X143964819Y-68500380D01*
X143441009Y-67500380D02*
X143441009Y-67167047D01*
X143964819Y-67024190D02*
X143964819Y-67500380D01*
X143964819Y-67500380D02*
X142964819Y-67500380D01*
X142964819Y-67500380D02*
X142964819Y-67024190D01*
X142964819Y-66738475D02*
X143964819Y-66405142D01*
X143964819Y-66405142D02*
X142964819Y-66071809D01*
X143917200Y-65786094D02*
X143964819Y-65643237D01*
X143964819Y-65643237D02*
X143964819Y-65405142D01*
X143964819Y-65405142D02*
X143917200Y-65309904D01*
X143917200Y-65309904D02*
X143869580Y-65262285D01*
X143869580Y-65262285D02*
X143774342Y-65214666D01*
X143774342Y-65214666D02*
X143679104Y-65214666D01*
X143679104Y-65214666D02*
X143583866Y-65262285D01*
X143583866Y-65262285D02*
X143536247Y-65309904D01*
X143536247Y-65309904D02*
X143488628Y-65405142D01*
X143488628Y-65405142D02*
X143441009Y-65595618D01*
X143441009Y-65595618D02*
X143393390Y-65690856D01*
X143393390Y-65690856D02*
X143345771Y-65738475D01*
X143345771Y-65738475D02*
X143250533Y-65786094D01*
X143250533Y-65786094D02*
X143155295Y-65786094D01*
X143155295Y-65786094D02*
X143060057Y-65738475D01*
X143060057Y-65738475D02*
X143012438Y-65690856D01*
X143012438Y-65690856D02*
X142964819Y-65595618D01*
X142964819Y-65595618D02*
X142964819Y-65357523D01*
X142964819Y-65357523D02*
X143012438Y-65214666D01*
X143441009Y-64786094D02*
X143441009Y-64452761D01*
X143964819Y-64309904D02*
X143964819Y-64786094D01*
X143964819Y-64786094D02*
X142964819Y-64786094D01*
X142964819Y-64786094D02*
X142964819Y-64309904D01*
X143964819Y-63405142D02*
X143964819Y-63881332D01*
X143964819Y-63881332D02*
X142964819Y-63881332D01*
X163903866Y-69579904D02*
X163903866Y-68818000D01*
X164284819Y-67818000D02*
X164284819Y-68389428D01*
X164284819Y-68103714D02*
X163284819Y-68103714D01*
X163284819Y-68103714D02*
X163427676Y-68198952D01*
X163427676Y-68198952D02*
X163522914Y-68294190D01*
X163522914Y-68294190D02*
X163570533Y-68389428D01*
X163380057Y-67437047D02*
X163332438Y-67389428D01*
X163332438Y-67389428D02*
X163284819Y-67294190D01*
X163284819Y-67294190D02*
X163284819Y-67056095D01*
X163284819Y-67056095D02*
X163332438Y-66960857D01*
X163332438Y-66960857D02*
X163380057Y-66913238D01*
X163380057Y-66913238D02*
X163475295Y-66865619D01*
X163475295Y-66865619D02*
X163570533Y-66865619D01*
X163570533Y-66865619D02*
X163713390Y-66913238D01*
X163713390Y-66913238D02*
X164284819Y-67484666D01*
X164284819Y-67484666D02*
X164284819Y-66865619D01*
X163284819Y-66579904D02*
X164284819Y-66246571D01*
X164284819Y-66246571D02*
X163284819Y-65913238D01*
X128199104Y-83162285D02*
X128199104Y-82686095D01*
X128484819Y-83257523D02*
X127484819Y-82924190D01*
X127484819Y-82924190D02*
X128484819Y-82590857D01*
X127580057Y-82305142D02*
X127532438Y-82257523D01*
X127532438Y-82257523D02*
X127484819Y-82162285D01*
X127484819Y-82162285D02*
X127484819Y-81924190D01*
X127484819Y-81924190D02*
X127532438Y-81828952D01*
X127532438Y-81828952D02*
X127580057Y-81781333D01*
X127580057Y-81781333D02*
X127675295Y-81733714D01*
X127675295Y-81733714D02*
X127770533Y-81733714D01*
X127770533Y-81733714D02*
X127913390Y-81781333D01*
X127913390Y-81781333D02*
X128484819Y-82352761D01*
X128484819Y-82352761D02*
X128484819Y-81733714D01*
X133229104Y-83272285D02*
X133229104Y-82796095D01*
X133514819Y-83367523D02*
X132514819Y-83034190D01*
X132514819Y-83034190D02*
X133514819Y-82700857D01*
X132848152Y-81938952D02*
X133514819Y-81938952D01*
X132467200Y-82177047D02*
X133181485Y-82415142D01*
X133181485Y-82415142D02*
X133181485Y-81796095D01*
X173397200Y-68722761D02*
X174682914Y-69579903D01*
X174444819Y-68389427D02*
X173444819Y-68389427D01*
X173444819Y-68389427D02*
X174444819Y-67817999D01*
X174444819Y-67817999D02*
X173444819Y-67817999D01*
X174444819Y-67341808D02*
X173444819Y-67341808D01*
X173444819Y-67341808D02*
X174159104Y-67008475D01*
X174159104Y-67008475D02*
X173444819Y-66675142D01*
X173444819Y-66675142D02*
X174444819Y-66675142D01*
X174444819Y-66198951D02*
X173444819Y-66198951D01*
X141424819Y-69572094D02*
X140424819Y-69572094D01*
X140424819Y-69572094D02*
X140424819Y-69333999D01*
X140424819Y-69333999D02*
X140472438Y-69191142D01*
X140472438Y-69191142D02*
X140567676Y-69095904D01*
X140567676Y-69095904D02*
X140662914Y-69048285D01*
X140662914Y-69048285D02*
X140853390Y-69000666D01*
X140853390Y-69000666D02*
X140996247Y-69000666D01*
X140996247Y-69000666D02*
X141186723Y-69048285D01*
X141186723Y-69048285D02*
X141281961Y-69095904D01*
X141281961Y-69095904D02*
X141377200Y-69191142D01*
X141377200Y-69191142D02*
X141424819Y-69333999D01*
X141424819Y-69333999D02*
X141424819Y-69572094D01*
X140424819Y-68667332D02*
X140424819Y-68000666D01*
X140424819Y-68000666D02*
X141424819Y-68429237D01*
X148044819Y-69556094D02*
X148854342Y-69556094D01*
X148854342Y-69556094D02*
X148949580Y-69508475D01*
X148949580Y-69508475D02*
X148997200Y-69460856D01*
X148997200Y-69460856D02*
X149044819Y-69365618D01*
X149044819Y-69365618D02*
X149044819Y-69175142D01*
X149044819Y-69175142D02*
X148997200Y-69079904D01*
X148997200Y-69079904D02*
X148949580Y-69032285D01*
X148949580Y-69032285D02*
X148854342Y-68984666D01*
X148854342Y-68984666D02*
X148044819Y-68984666D01*
X148997200Y-68556094D02*
X149044819Y-68413237D01*
X149044819Y-68413237D02*
X149044819Y-68175142D01*
X149044819Y-68175142D02*
X148997200Y-68079904D01*
X148997200Y-68079904D02*
X148949580Y-68032285D01*
X148949580Y-68032285D02*
X148854342Y-67984666D01*
X148854342Y-67984666D02*
X148759104Y-67984666D01*
X148759104Y-67984666D02*
X148663866Y-68032285D01*
X148663866Y-68032285D02*
X148616247Y-68079904D01*
X148616247Y-68079904D02*
X148568628Y-68175142D01*
X148568628Y-68175142D02*
X148521009Y-68365618D01*
X148521009Y-68365618D02*
X148473390Y-68460856D01*
X148473390Y-68460856D02*
X148425771Y-68508475D01*
X148425771Y-68508475D02*
X148330533Y-68556094D01*
X148330533Y-68556094D02*
X148235295Y-68556094D01*
X148235295Y-68556094D02*
X148140057Y-68508475D01*
X148140057Y-68508475D02*
X148092438Y-68460856D01*
X148092438Y-68460856D02*
X148044819Y-68365618D01*
X148044819Y-68365618D02*
X148044819Y-68127523D01*
X148044819Y-68127523D02*
X148092438Y-67984666D01*
X149044819Y-66984666D02*
X148568628Y-67317999D01*
X149044819Y-67556094D02*
X148044819Y-67556094D01*
X148044819Y-67556094D02*
X148044819Y-67175142D01*
X148044819Y-67175142D02*
X148092438Y-67079904D01*
X148092438Y-67079904D02*
X148140057Y-67032285D01*
X148140057Y-67032285D02*
X148235295Y-66984666D01*
X148235295Y-66984666D02*
X148378152Y-66984666D01*
X148378152Y-66984666D02*
X148473390Y-67032285D01*
X148473390Y-67032285D02*
X148521009Y-67079904D01*
X148521009Y-67079904D02*
X148568628Y-67175142D01*
X148568628Y-67175142D02*
X148568628Y-67556094D01*
X149044819Y-66032285D02*
X149044819Y-66603713D01*
X149044819Y-66317999D02*
X148044819Y-66317999D01*
X148044819Y-66317999D02*
X148187676Y-66413237D01*
X148187676Y-66413237D02*
X148282914Y-66508475D01*
X148282914Y-66508475D02*
X148330533Y-66603713D01*
X128724819Y-69572094D02*
X127724819Y-69572094D01*
X127724819Y-69572094D02*
X127724819Y-69333999D01*
X127724819Y-69333999D02*
X127772438Y-69191142D01*
X127772438Y-69191142D02*
X127867676Y-69095904D01*
X127867676Y-69095904D02*
X127962914Y-69048285D01*
X127962914Y-69048285D02*
X128153390Y-69000666D01*
X128153390Y-69000666D02*
X128296247Y-69000666D01*
X128296247Y-69000666D02*
X128486723Y-69048285D01*
X128486723Y-69048285D02*
X128581961Y-69095904D01*
X128581961Y-69095904D02*
X128677200Y-69191142D01*
X128677200Y-69191142D02*
X128724819Y-69333999D01*
X128724819Y-69333999D02*
X128724819Y-69572094D01*
X127820057Y-68619713D02*
X127772438Y-68572094D01*
X127772438Y-68572094D02*
X127724819Y-68476856D01*
X127724819Y-68476856D02*
X127724819Y-68238761D01*
X127724819Y-68238761D02*
X127772438Y-68143523D01*
X127772438Y-68143523D02*
X127820057Y-68095904D01*
X127820057Y-68095904D02*
X127915295Y-68048285D01*
X127915295Y-68048285D02*
X128010533Y-68048285D01*
X128010533Y-68048285D02*
X128153390Y-68095904D01*
X128153390Y-68095904D02*
X128724819Y-68667332D01*
X128724819Y-68667332D02*
X128724819Y-68048285D01*
X138884819Y-69572094D02*
X137884819Y-69572094D01*
X137884819Y-69572094D02*
X137884819Y-69333999D01*
X137884819Y-69333999D02*
X137932438Y-69191142D01*
X137932438Y-69191142D02*
X138027676Y-69095904D01*
X138027676Y-69095904D02*
X138122914Y-69048285D01*
X138122914Y-69048285D02*
X138313390Y-69000666D01*
X138313390Y-69000666D02*
X138456247Y-69000666D01*
X138456247Y-69000666D02*
X138646723Y-69048285D01*
X138646723Y-69048285D02*
X138741961Y-69095904D01*
X138741961Y-69095904D02*
X138837200Y-69191142D01*
X138837200Y-69191142D02*
X138884819Y-69333999D01*
X138884819Y-69333999D02*
X138884819Y-69572094D01*
X137884819Y-68143523D02*
X137884819Y-68333999D01*
X137884819Y-68333999D02*
X137932438Y-68429237D01*
X137932438Y-68429237D02*
X137980057Y-68476856D01*
X137980057Y-68476856D02*
X138122914Y-68572094D01*
X138122914Y-68572094D02*
X138313390Y-68619713D01*
X138313390Y-68619713D02*
X138694342Y-68619713D01*
X138694342Y-68619713D02*
X138789580Y-68572094D01*
X138789580Y-68572094D02*
X138837200Y-68524475D01*
X138837200Y-68524475D02*
X138884819Y-68429237D01*
X138884819Y-68429237D02*
X138884819Y-68238761D01*
X138884819Y-68238761D02*
X138837200Y-68143523D01*
X138837200Y-68143523D02*
X138789580Y-68095904D01*
X138789580Y-68095904D02*
X138694342Y-68048285D01*
X138694342Y-68048285D02*
X138456247Y-68048285D01*
X138456247Y-68048285D02*
X138361009Y-68095904D01*
X138361009Y-68095904D02*
X138313390Y-68143523D01*
X138313390Y-68143523D02*
X138265771Y-68238761D01*
X138265771Y-68238761D02*
X138265771Y-68429237D01*
X138265771Y-68429237D02*
X138313390Y-68524475D01*
X138313390Y-68524475D02*
X138361009Y-68572094D01*
X138361009Y-68572094D02*
X138456247Y-68619713D01*
X158689104Y-84238475D02*
X158689104Y-83762285D01*
X158974819Y-84333713D02*
X157974819Y-84000380D01*
X157974819Y-84000380D02*
X158974819Y-83667047D01*
X158974819Y-82809904D02*
X158974819Y-83381332D01*
X158974819Y-83095618D02*
X157974819Y-83095618D01*
X157974819Y-83095618D02*
X158117676Y-83190856D01*
X158117676Y-83190856D02*
X158212914Y-83286094D01*
X158212914Y-83286094D02*
X158260533Y-83381332D01*
X158308152Y-81952761D02*
X158974819Y-81952761D01*
X157927200Y-82190856D02*
X158641485Y-82428951D01*
X158641485Y-82428951D02*
X158641485Y-81809904D01*
X110090295Y-87542666D02*
X109709342Y-87875999D01*
X110090295Y-88114094D02*
X109290295Y-88114094D01*
X109290295Y-88114094D02*
X109290295Y-87733142D01*
X109290295Y-87733142D02*
X109328390Y-87637904D01*
X109328390Y-87637904D02*
X109366485Y-87590285D01*
X109366485Y-87590285D02*
X109442676Y-87542666D01*
X109442676Y-87542666D02*
X109556961Y-87542666D01*
X109556961Y-87542666D02*
X109633152Y-87590285D01*
X109633152Y-87590285D02*
X109671247Y-87637904D01*
X109671247Y-87637904D02*
X109709342Y-87733142D01*
X109709342Y-87733142D02*
X109709342Y-88114094D01*
X109290295Y-87209332D02*
X109290295Y-86590285D01*
X109290295Y-86590285D02*
X109595057Y-86923618D01*
X109595057Y-86923618D02*
X109595057Y-86780761D01*
X109595057Y-86780761D02*
X109633152Y-86685523D01*
X109633152Y-86685523D02*
X109671247Y-86637904D01*
X109671247Y-86637904D02*
X109747438Y-86590285D01*
X109747438Y-86590285D02*
X109937914Y-86590285D01*
X109937914Y-86590285D02*
X110014104Y-86637904D01*
X110014104Y-86637904D02*
X110052200Y-86685523D01*
X110052200Y-86685523D02*
X110090295Y-86780761D01*
X110090295Y-86780761D02*
X110090295Y-87066475D01*
X110090295Y-87066475D02*
X110052200Y-87161713D01*
X110052200Y-87161713D02*
X110014104Y-87209332D01*
X111706819Y-87590285D02*
X111706819Y-88161713D01*
X111706819Y-87875999D02*
X110706819Y-87875999D01*
X110706819Y-87875999D02*
X110849676Y-87971237D01*
X110849676Y-87971237D02*
X110944914Y-88066475D01*
X110944914Y-88066475D02*
X110992533Y-88161713D01*
X111706819Y-87161713D02*
X110706819Y-87161713D01*
X111706819Y-86590285D02*
X111135390Y-87018856D01*
X110706819Y-86590285D02*
X111278247Y-87161713D01*
X113392295Y-87542666D02*
X113011342Y-87875999D01*
X113392295Y-88114094D02*
X112592295Y-88114094D01*
X112592295Y-88114094D02*
X112592295Y-87733142D01*
X112592295Y-87733142D02*
X112630390Y-87637904D01*
X112630390Y-87637904D02*
X112668485Y-87590285D01*
X112668485Y-87590285D02*
X112744676Y-87542666D01*
X112744676Y-87542666D02*
X112858961Y-87542666D01*
X112858961Y-87542666D02*
X112935152Y-87590285D01*
X112935152Y-87590285D02*
X112973247Y-87637904D01*
X112973247Y-87637904D02*
X113011342Y-87733142D01*
X113011342Y-87733142D02*
X113011342Y-88114094D01*
X112668485Y-87161713D02*
X112630390Y-87114094D01*
X112630390Y-87114094D02*
X112592295Y-87018856D01*
X112592295Y-87018856D02*
X112592295Y-86780761D01*
X112592295Y-86780761D02*
X112630390Y-86685523D01*
X112630390Y-86685523D02*
X112668485Y-86637904D01*
X112668485Y-86637904D02*
X112744676Y-86590285D01*
X112744676Y-86590285D02*
X112820866Y-86590285D01*
X112820866Y-86590285D02*
X112935152Y-86637904D01*
X112935152Y-86637904D02*
X113392295Y-87209332D01*
X113392295Y-87209332D02*
X113392295Y-86590285D01*
X115008819Y-88066476D02*
X115008819Y-88637904D01*
X115008819Y-88352190D02*
X114008819Y-88352190D01*
X114008819Y-88352190D02*
X114151676Y-88447428D01*
X114151676Y-88447428D02*
X114246914Y-88542666D01*
X114246914Y-88542666D02*
X114294533Y-88637904D01*
X114008819Y-87447428D02*
X114008819Y-87352190D01*
X114008819Y-87352190D02*
X114056438Y-87256952D01*
X114056438Y-87256952D02*
X114104057Y-87209333D01*
X114104057Y-87209333D02*
X114199295Y-87161714D01*
X114199295Y-87161714D02*
X114389771Y-87114095D01*
X114389771Y-87114095D02*
X114627866Y-87114095D01*
X114627866Y-87114095D02*
X114818342Y-87161714D01*
X114818342Y-87161714D02*
X114913580Y-87209333D01*
X114913580Y-87209333D02*
X114961200Y-87256952D01*
X114961200Y-87256952D02*
X115008819Y-87352190D01*
X115008819Y-87352190D02*
X115008819Y-87447428D01*
X115008819Y-87447428D02*
X114961200Y-87542666D01*
X114961200Y-87542666D02*
X114913580Y-87590285D01*
X114913580Y-87590285D02*
X114818342Y-87637904D01*
X114818342Y-87637904D02*
X114627866Y-87685523D01*
X114627866Y-87685523D02*
X114389771Y-87685523D01*
X114389771Y-87685523D02*
X114199295Y-87637904D01*
X114199295Y-87637904D02*
X114104057Y-87590285D01*
X114104057Y-87590285D02*
X114056438Y-87542666D01*
X114056438Y-87542666D02*
X114008819Y-87447428D01*
X115008819Y-86685523D02*
X114008819Y-86685523D01*
X115008819Y-86114095D02*
X114437390Y-86542666D01*
X114008819Y-86114095D02*
X114580247Y-86685523D01*
X116694295Y-87542666D02*
X116313342Y-87875999D01*
X116694295Y-88114094D02*
X115894295Y-88114094D01*
X115894295Y-88114094D02*
X115894295Y-87733142D01*
X115894295Y-87733142D02*
X115932390Y-87637904D01*
X115932390Y-87637904D02*
X115970485Y-87590285D01*
X115970485Y-87590285D02*
X116046676Y-87542666D01*
X116046676Y-87542666D02*
X116160961Y-87542666D01*
X116160961Y-87542666D02*
X116237152Y-87590285D01*
X116237152Y-87590285D02*
X116275247Y-87637904D01*
X116275247Y-87637904D02*
X116313342Y-87733142D01*
X116313342Y-87733142D02*
X116313342Y-88114094D01*
X116694295Y-86590285D02*
X116694295Y-87161713D01*
X116694295Y-86875999D02*
X115894295Y-86875999D01*
X115894295Y-86875999D02*
X116008580Y-86971237D01*
X116008580Y-86971237D02*
X116084771Y-87066475D01*
X116084771Y-87066475D02*
X116122866Y-87161713D01*
X118310819Y-88066476D02*
X118310819Y-88637904D01*
X118310819Y-88352190D02*
X117310819Y-88352190D01*
X117310819Y-88352190D02*
X117453676Y-88447428D01*
X117453676Y-88447428D02*
X117548914Y-88542666D01*
X117548914Y-88542666D02*
X117596533Y-88637904D01*
X117310819Y-87447428D02*
X117310819Y-87352190D01*
X117310819Y-87352190D02*
X117358438Y-87256952D01*
X117358438Y-87256952D02*
X117406057Y-87209333D01*
X117406057Y-87209333D02*
X117501295Y-87161714D01*
X117501295Y-87161714D02*
X117691771Y-87114095D01*
X117691771Y-87114095D02*
X117929866Y-87114095D01*
X117929866Y-87114095D02*
X118120342Y-87161714D01*
X118120342Y-87161714D02*
X118215580Y-87209333D01*
X118215580Y-87209333D02*
X118263200Y-87256952D01*
X118263200Y-87256952D02*
X118310819Y-87352190D01*
X118310819Y-87352190D02*
X118310819Y-87447428D01*
X118310819Y-87447428D02*
X118263200Y-87542666D01*
X118263200Y-87542666D02*
X118215580Y-87590285D01*
X118215580Y-87590285D02*
X118120342Y-87637904D01*
X118120342Y-87637904D02*
X117929866Y-87685523D01*
X117929866Y-87685523D02*
X117691771Y-87685523D01*
X117691771Y-87685523D02*
X117501295Y-87637904D01*
X117501295Y-87637904D02*
X117406057Y-87590285D01*
X117406057Y-87590285D02*
X117358438Y-87542666D01*
X117358438Y-87542666D02*
X117310819Y-87447428D01*
X118310819Y-86685523D02*
X117310819Y-86685523D01*
X118310819Y-86114095D02*
X117739390Y-86542666D01*
X117310819Y-86114095D02*
X117882247Y-86685523D01*
X106076761Y-84366057D02*
X105981523Y-84318438D01*
X105981523Y-84318438D02*
X105886285Y-84223200D01*
X105886285Y-84223200D02*
X105743428Y-84080342D01*
X105743428Y-84080342D02*
X105648190Y-84032723D01*
X105648190Y-84032723D02*
X105552952Y-84032723D01*
X105600571Y-84270819D02*
X105505333Y-84223200D01*
X105505333Y-84223200D02*
X105410095Y-84127961D01*
X105410095Y-84127961D02*
X105362476Y-83937485D01*
X105362476Y-83937485D02*
X105362476Y-83604152D01*
X105362476Y-83604152D02*
X105410095Y-83413676D01*
X105410095Y-83413676D02*
X105505333Y-83318438D01*
X105505333Y-83318438D02*
X105600571Y-83270819D01*
X105600571Y-83270819D02*
X105791047Y-83270819D01*
X105791047Y-83270819D02*
X105886285Y-83318438D01*
X105886285Y-83318438D02*
X105981523Y-83413676D01*
X105981523Y-83413676D02*
X106029142Y-83604152D01*
X106029142Y-83604152D02*
X106029142Y-83937485D01*
X106029142Y-83937485D02*
X105981523Y-84127961D01*
X105981523Y-84127961D02*
X105886285Y-84223200D01*
X105886285Y-84223200D02*
X105791047Y-84270819D01*
X105791047Y-84270819D02*
X105600571Y-84270819D01*
X106981523Y-84270819D02*
X106410095Y-84270819D01*
X106695809Y-84270819D02*
X106695809Y-83270819D01*
X106695809Y-83270819D02*
X106600571Y-83413676D01*
X106600571Y-83413676D02*
X106505333Y-83508914D01*
X106505333Y-83508914D02*
X106410095Y-83556533D01*
X104338666Y-90355009D02*
X104481523Y-90402628D01*
X104481523Y-90402628D02*
X104529142Y-90450247D01*
X104529142Y-90450247D02*
X104576761Y-90545485D01*
X104576761Y-90545485D02*
X104576761Y-90688342D01*
X104576761Y-90688342D02*
X104529142Y-90783580D01*
X104529142Y-90783580D02*
X104481523Y-90831200D01*
X104481523Y-90831200D02*
X104386285Y-90878819D01*
X104386285Y-90878819D02*
X104005333Y-90878819D01*
X104005333Y-90878819D02*
X104005333Y-89878819D01*
X104005333Y-89878819D02*
X104338666Y-89878819D01*
X104338666Y-89878819D02*
X104433904Y-89926438D01*
X104433904Y-89926438D02*
X104481523Y-89974057D01*
X104481523Y-89974057D02*
X104529142Y-90069295D01*
X104529142Y-90069295D02*
X104529142Y-90164533D01*
X104529142Y-90164533D02*
X104481523Y-90259771D01*
X104481523Y-90259771D02*
X104433904Y-90307390D01*
X104433904Y-90307390D02*
X104338666Y-90355009D01*
X104338666Y-90355009D02*
X104005333Y-90355009D01*
X104957714Y-90831200D02*
X105100571Y-90878819D01*
X105100571Y-90878819D02*
X105338666Y-90878819D01*
X105338666Y-90878819D02*
X105433904Y-90831200D01*
X105433904Y-90831200D02*
X105481523Y-90783580D01*
X105481523Y-90783580D02*
X105529142Y-90688342D01*
X105529142Y-90688342D02*
X105529142Y-90593104D01*
X105529142Y-90593104D02*
X105481523Y-90497866D01*
X105481523Y-90497866D02*
X105433904Y-90450247D01*
X105433904Y-90450247D02*
X105338666Y-90402628D01*
X105338666Y-90402628D02*
X105148190Y-90355009D01*
X105148190Y-90355009D02*
X105052952Y-90307390D01*
X105052952Y-90307390D02*
X105005333Y-90259771D01*
X105005333Y-90259771D02*
X104957714Y-90164533D01*
X104957714Y-90164533D02*
X104957714Y-90069295D01*
X104957714Y-90069295D02*
X105005333Y-89974057D01*
X105005333Y-89974057D02*
X105052952Y-89926438D01*
X105052952Y-89926438D02*
X105148190Y-89878819D01*
X105148190Y-89878819D02*
X105386285Y-89878819D01*
X105386285Y-89878819D02*
X105529142Y-89926438D01*
X106481523Y-90878819D02*
X105910095Y-90878819D01*
X106195809Y-90878819D02*
X106195809Y-89878819D01*
X106195809Y-89878819D02*
X106100571Y-90021676D01*
X106100571Y-90021676D02*
X106005333Y-90116914D01*
X106005333Y-90116914D02*
X105910095Y-90164533D01*
X106814857Y-89878819D02*
X107481523Y-89878819D01*
X107481523Y-89878819D02*
X107052952Y-90878819D01*
X108052952Y-89878819D02*
X108148190Y-89878819D01*
X108148190Y-89878819D02*
X108243428Y-89926438D01*
X108243428Y-89926438D02*
X108291047Y-89974057D01*
X108291047Y-89974057D02*
X108338666Y-90069295D01*
X108338666Y-90069295D02*
X108386285Y-90259771D01*
X108386285Y-90259771D02*
X108386285Y-90497866D01*
X108386285Y-90497866D02*
X108338666Y-90688342D01*
X108338666Y-90688342D02*
X108291047Y-90783580D01*
X108291047Y-90783580D02*
X108243428Y-90831200D01*
X108243428Y-90831200D02*
X108148190Y-90878819D01*
X108148190Y-90878819D02*
X108052952Y-90878819D01*
X108052952Y-90878819D02*
X107957714Y-90831200D01*
X107957714Y-90831200D02*
X107910095Y-90783580D01*
X107910095Y-90783580D02*
X107862476Y-90688342D01*
X107862476Y-90688342D02*
X107814857Y-90497866D01*
X107814857Y-90497866D02*
X107814857Y-90259771D01*
X107814857Y-90259771D02*
X107862476Y-90069295D01*
X107862476Y-90069295D02*
X107910095Y-89974057D01*
X107910095Y-89974057D02*
X107957714Y-89926438D01*
X107957714Y-89926438D02*
X108052952Y-89878819D01*
X104735333Y-38967580D02*
X104687714Y-39015200D01*
X104687714Y-39015200D02*
X104544857Y-39062819D01*
X104544857Y-39062819D02*
X104449619Y-39062819D01*
X104449619Y-39062819D02*
X104306762Y-39015200D01*
X104306762Y-39015200D02*
X104211524Y-38919961D01*
X104211524Y-38919961D02*
X104163905Y-38824723D01*
X104163905Y-38824723D02*
X104116286Y-38634247D01*
X104116286Y-38634247D02*
X104116286Y-38491390D01*
X104116286Y-38491390D02*
X104163905Y-38300914D01*
X104163905Y-38300914D02*
X104211524Y-38205676D01*
X104211524Y-38205676D02*
X104306762Y-38110438D01*
X104306762Y-38110438D02*
X104449619Y-38062819D01*
X104449619Y-38062819D02*
X104544857Y-38062819D01*
X104544857Y-38062819D02*
X104687714Y-38110438D01*
X104687714Y-38110438D02*
X104735333Y-38158057D01*
X105116286Y-38158057D02*
X105163905Y-38110438D01*
X105163905Y-38110438D02*
X105259143Y-38062819D01*
X105259143Y-38062819D02*
X105497238Y-38062819D01*
X105497238Y-38062819D02*
X105592476Y-38110438D01*
X105592476Y-38110438D02*
X105640095Y-38158057D01*
X105640095Y-38158057D02*
X105687714Y-38253295D01*
X105687714Y-38253295D02*
X105687714Y-38348533D01*
X105687714Y-38348533D02*
X105640095Y-38491390D01*
X105640095Y-38491390D02*
X105068667Y-39062819D01*
X105068667Y-39062819D02*
X105687714Y-39062819D01*
X107956819Y-80589333D02*
X108671104Y-80589333D01*
X108671104Y-80589333D02*
X108813961Y-80636952D01*
X108813961Y-80636952D02*
X108909200Y-80732190D01*
X108909200Y-80732190D02*
X108956819Y-80875047D01*
X108956819Y-80875047D02*
X108956819Y-80970285D01*
X108956819Y-80113142D02*
X107956819Y-80113142D01*
X107956819Y-80113142D02*
X107956819Y-79732190D01*
X107956819Y-79732190D02*
X108004438Y-79636952D01*
X108004438Y-79636952D02*
X108052057Y-79589333D01*
X108052057Y-79589333D02*
X108147295Y-79541714D01*
X108147295Y-79541714D02*
X108290152Y-79541714D01*
X108290152Y-79541714D02*
X108385390Y-79589333D01*
X108385390Y-79589333D02*
X108433009Y-79636952D01*
X108433009Y-79636952D02*
X108480628Y-79732190D01*
X108480628Y-79732190D02*
X108480628Y-80113142D01*
X107956819Y-79208380D02*
X107956819Y-78589333D01*
X107956819Y-78589333D02*
X108337771Y-78922666D01*
X108337771Y-78922666D02*
X108337771Y-78779809D01*
X108337771Y-78779809D02*
X108385390Y-78684571D01*
X108385390Y-78684571D02*
X108433009Y-78636952D01*
X108433009Y-78636952D02*
X108528247Y-78589333D01*
X108528247Y-78589333D02*
X108766342Y-78589333D01*
X108766342Y-78589333D02*
X108861580Y-78636952D01*
X108861580Y-78636952D02*
X108909200Y-78684571D01*
X108909200Y-78684571D02*
X108956819Y-78779809D01*
X108956819Y-78779809D02*
X108956819Y-79065523D01*
X108956819Y-79065523D02*
X108909200Y-79160761D01*
X108909200Y-79160761D02*
X108861580Y-79208380D01*
X188573580Y-36996666D02*
X188621200Y-37044285D01*
X188621200Y-37044285D02*
X188668819Y-37187142D01*
X188668819Y-37187142D02*
X188668819Y-37282380D01*
X188668819Y-37282380D02*
X188621200Y-37425237D01*
X188621200Y-37425237D02*
X188525961Y-37520475D01*
X188525961Y-37520475D02*
X188430723Y-37568094D01*
X188430723Y-37568094D02*
X188240247Y-37615713D01*
X188240247Y-37615713D02*
X188097390Y-37615713D01*
X188097390Y-37615713D02*
X187906914Y-37568094D01*
X187906914Y-37568094D02*
X187811676Y-37520475D01*
X187811676Y-37520475D02*
X187716438Y-37425237D01*
X187716438Y-37425237D02*
X187668819Y-37282380D01*
X187668819Y-37282380D02*
X187668819Y-37187142D01*
X187668819Y-37187142D02*
X187716438Y-37044285D01*
X187716438Y-37044285D02*
X187764057Y-36996666D01*
X187668819Y-36663332D02*
X187668819Y-36044285D01*
X187668819Y-36044285D02*
X188049771Y-36377618D01*
X188049771Y-36377618D02*
X188049771Y-36234761D01*
X188049771Y-36234761D02*
X188097390Y-36139523D01*
X188097390Y-36139523D02*
X188145009Y-36091904D01*
X188145009Y-36091904D02*
X188240247Y-36044285D01*
X188240247Y-36044285D02*
X188478342Y-36044285D01*
X188478342Y-36044285D02*
X188573580Y-36091904D01*
X188573580Y-36091904D02*
X188621200Y-36139523D01*
X188621200Y-36139523D02*
X188668819Y-36234761D01*
X188668819Y-36234761D02*
X188668819Y-36520475D01*
X188668819Y-36520475D02*
X188621200Y-36615713D01*
X188621200Y-36615713D02*
X188573580Y-36663332D01*
X108966095Y-41574819D02*
X108966095Y-42384342D01*
X108966095Y-42384342D02*
X109013714Y-42479580D01*
X109013714Y-42479580D02*
X109061333Y-42527200D01*
X109061333Y-42527200D02*
X109156571Y-42574819D01*
X109156571Y-42574819D02*
X109347047Y-42574819D01*
X109347047Y-42574819D02*
X109442285Y-42527200D01*
X109442285Y-42527200D02*
X109489904Y-42479580D01*
X109489904Y-42479580D02*
X109537523Y-42384342D01*
X109537523Y-42384342D02*
X109537523Y-41574819D01*
X109918476Y-41574819D02*
X110537523Y-41574819D01*
X110537523Y-41574819D02*
X110204190Y-41955771D01*
X110204190Y-41955771D02*
X110347047Y-41955771D01*
X110347047Y-41955771D02*
X110442285Y-42003390D01*
X110442285Y-42003390D02*
X110489904Y-42051009D01*
X110489904Y-42051009D02*
X110537523Y-42146247D01*
X110537523Y-42146247D02*
X110537523Y-42384342D01*
X110537523Y-42384342D02*
X110489904Y-42479580D01*
X110489904Y-42479580D02*
X110442285Y-42527200D01*
X110442285Y-42527200D02*
X110347047Y-42574819D01*
X110347047Y-42574819D02*
X110061333Y-42574819D01*
X110061333Y-42574819D02*
X109966095Y-42527200D01*
X109966095Y-42527200D02*
X109918476Y-42479580D01*
X101521047Y-74889104D02*
X101997237Y-74889104D01*
X101425809Y-75174819D02*
X101759142Y-74174819D01*
X101759142Y-74174819D02*
X102092475Y-75174819D01*
X102282952Y-74174819D02*
X102854380Y-74174819D01*
X102568666Y-75174819D02*
X102568666Y-74174819D01*
X103521047Y-74651009D02*
X103187714Y-74651009D01*
X103187714Y-75174819D02*
X103187714Y-74174819D01*
X103187714Y-74174819D02*
X103663904Y-74174819D01*
X103997238Y-74270057D02*
X104044857Y-74222438D01*
X104044857Y-74222438D02*
X104140095Y-74174819D01*
X104140095Y-74174819D02*
X104378190Y-74174819D01*
X104378190Y-74174819D02*
X104473428Y-74222438D01*
X104473428Y-74222438D02*
X104521047Y-74270057D01*
X104521047Y-74270057D02*
X104568666Y-74365295D01*
X104568666Y-74365295D02*
X104568666Y-74460533D01*
X104568666Y-74460533D02*
X104521047Y-74603390D01*
X104521047Y-74603390D02*
X103949619Y-75174819D01*
X103949619Y-75174819D02*
X104568666Y-75174819D01*
X104949619Y-74270057D02*
X104997238Y-74222438D01*
X104997238Y-74222438D02*
X105092476Y-74174819D01*
X105092476Y-74174819D02*
X105330571Y-74174819D01*
X105330571Y-74174819D02*
X105425809Y-74222438D01*
X105425809Y-74222438D02*
X105473428Y-74270057D01*
X105473428Y-74270057D02*
X105521047Y-74365295D01*
X105521047Y-74365295D02*
X105521047Y-74460533D01*
X105521047Y-74460533D02*
X105473428Y-74603390D01*
X105473428Y-74603390D02*
X104902000Y-75174819D01*
X104902000Y-75174819D02*
X105521047Y-75174819D01*
X105806762Y-74174819D02*
X106140095Y-75174819D01*
X106140095Y-75174819D02*
X106473428Y-74174819D01*
X107330571Y-75174819D02*
X106759143Y-75174819D01*
X107044857Y-75174819D02*
X107044857Y-74174819D01*
X107044857Y-74174819D02*
X106949619Y-74317676D01*
X106949619Y-74317676D02*
X106854381Y-74412914D01*
X106854381Y-74412914D02*
X106759143Y-74460533D01*
X107949619Y-74174819D02*
X108044857Y-74174819D01*
X108044857Y-74174819D02*
X108140095Y-74222438D01*
X108140095Y-74222438D02*
X108187714Y-74270057D01*
X108187714Y-74270057D02*
X108235333Y-74365295D01*
X108235333Y-74365295D02*
X108282952Y-74555771D01*
X108282952Y-74555771D02*
X108282952Y-74793866D01*
X108282952Y-74793866D02*
X108235333Y-74984342D01*
X108235333Y-74984342D02*
X108187714Y-75079580D01*
X108187714Y-75079580D02*
X108140095Y-75127200D01*
X108140095Y-75127200D02*
X108044857Y-75174819D01*
X108044857Y-75174819D02*
X107949619Y-75174819D01*
X107949619Y-75174819D02*
X107854381Y-75127200D01*
X107854381Y-75127200D02*
X107806762Y-75079580D01*
X107806762Y-75079580D02*
X107759143Y-74984342D01*
X107759143Y-74984342D02*
X107711524Y-74793866D01*
X107711524Y-74793866D02*
X107711524Y-74555771D01*
X107711524Y-74555771D02*
X107759143Y-74365295D01*
X107759143Y-74365295D02*
X107806762Y-74270057D01*
X107806762Y-74270057D02*
X107854381Y-74222438D01*
X107854381Y-74222438D02*
X107949619Y-74174819D01*
X117564819Y-52911333D02*
X118279104Y-52911333D01*
X118279104Y-52911333D02*
X118421961Y-52958952D01*
X118421961Y-52958952D02*
X118517200Y-53054190D01*
X118517200Y-53054190D02*
X118564819Y-53197047D01*
X118564819Y-53197047D02*
X118564819Y-53292285D01*
X118564819Y-51911333D02*
X118564819Y-52482761D01*
X118564819Y-52197047D02*
X117564819Y-52197047D01*
X117564819Y-52197047D02*
X117707676Y-52292285D01*
X117707676Y-52292285D02*
X117802914Y-52387523D01*
X117802914Y-52387523D02*
X117850533Y-52482761D01*
X139662819Y-28955904D02*
X140472342Y-28955904D01*
X140472342Y-28955904D02*
X140567580Y-28908285D01*
X140567580Y-28908285D02*
X140615200Y-28860666D01*
X140615200Y-28860666D02*
X140662819Y-28765428D01*
X140662819Y-28765428D02*
X140662819Y-28574952D01*
X140662819Y-28574952D02*
X140615200Y-28479714D01*
X140615200Y-28479714D02*
X140567580Y-28432095D01*
X140567580Y-28432095D02*
X140472342Y-28384476D01*
X140472342Y-28384476D02*
X139662819Y-28384476D01*
X139758057Y-27955904D02*
X139710438Y-27908285D01*
X139710438Y-27908285D02*
X139662819Y-27813047D01*
X139662819Y-27813047D02*
X139662819Y-27574952D01*
X139662819Y-27574952D02*
X139710438Y-27479714D01*
X139710438Y-27479714D02*
X139758057Y-27432095D01*
X139758057Y-27432095D02*
X139853295Y-27384476D01*
X139853295Y-27384476D02*
X139948533Y-27384476D01*
X139948533Y-27384476D02*
X140091390Y-27432095D01*
X140091390Y-27432095D02*
X140662819Y-28003523D01*
X140662819Y-28003523D02*
X140662819Y-27384476D01*
X111932819Y-36139047D02*
X111932819Y-35472381D01*
X111932819Y-35472381D02*
X112932819Y-35900952D01*
X112266152Y-34662857D02*
X112932819Y-34662857D01*
X111885200Y-34900952D02*
X112599485Y-35139047D01*
X112599485Y-35139047D02*
X112599485Y-34520000D01*
X112932819Y-33662857D02*
X112932819Y-34139047D01*
X112932819Y-34139047D02*
X111932819Y-34139047D01*
X112885200Y-33377142D02*
X112932819Y-33234285D01*
X112932819Y-33234285D02*
X112932819Y-32996190D01*
X112932819Y-32996190D02*
X112885200Y-32900952D01*
X112885200Y-32900952D02*
X112837580Y-32853333D01*
X112837580Y-32853333D02*
X112742342Y-32805714D01*
X112742342Y-32805714D02*
X112647104Y-32805714D01*
X112647104Y-32805714D02*
X112551866Y-32853333D01*
X112551866Y-32853333D02*
X112504247Y-32900952D01*
X112504247Y-32900952D02*
X112456628Y-32996190D01*
X112456628Y-32996190D02*
X112409009Y-33186666D01*
X112409009Y-33186666D02*
X112361390Y-33281904D01*
X112361390Y-33281904D02*
X112313771Y-33329523D01*
X112313771Y-33329523D02*
X112218533Y-33377142D01*
X112218533Y-33377142D02*
X112123295Y-33377142D01*
X112123295Y-33377142D02*
X112028057Y-33329523D01*
X112028057Y-33329523D02*
X111980438Y-33281904D01*
X111980438Y-33281904D02*
X111932819Y-33186666D01*
X111932819Y-33186666D02*
X111932819Y-32948571D01*
X111932819Y-32948571D02*
X111980438Y-32805714D01*
X112028057Y-32424761D02*
X111980438Y-32377142D01*
X111980438Y-32377142D02*
X111932819Y-32281904D01*
X111932819Y-32281904D02*
X111932819Y-32043809D01*
X111932819Y-32043809D02*
X111980438Y-31948571D01*
X111980438Y-31948571D02*
X112028057Y-31900952D01*
X112028057Y-31900952D02*
X112123295Y-31853333D01*
X112123295Y-31853333D02*
X112218533Y-31853333D01*
X112218533Y-31853333D02*
X112361390Y-31900952D01*
X112361390Y-31900952D02*
X112932819Y-32472380D01*
X112932819Y-32472380D02*
X112932819Y-31853333D01*
X112266152Y-30996190D02*
X112932819Y-30996190D01*
X111885200Y-31234285D02*
X112599485Y-31472380D01*
X112599485Y-31472380D02*
X112599485Y-30853333D01*
X112266152Y-30043809D02*
X112932819Y-30043809D01*
X111885200Y-30281904D02*
X112599485Y-30519999D01*
X112599485Y-30519999D02*
X112599485Y-29900952D01*
X117564819Y-75517333D02*
X118279104Y-75517333D01*
X118279104Y-75517333D02*
X118421961Y-75564952D01*
X118421961Y-75564952D02*
X118517200Y-75660190D01*
X118517200Y-75660190D02*
X118564819Y-75803047D01*
X118564819Y-75803047D02*
X118564819Y-75898285D01*
X117660057Y-75088761D02*
X117612438Y-75041142D01*
X117612438Y-75041142D02*
X117564819Y-74945904D01*
X117564819Y-74945904D02*
X117564819Y-74707809D01*
X117564819Y-74707809D02*
X117612438Y-74612571D01*
X117612438Y-74612571D02*
X117660057Y-74564952D01*
X117660057Y-74564952D02*
X117755295Y-74517333D01*
X117755295Y-74517333D02*
X117850533Y-74517333D01*
X117850533Y-74517333D02*
X117993390Y-74564952D01*
X117993390Y-74564952D02*
X118564819Y-75136380D01*
X118564819Y-75136380D02*
X118564819Y-74517333D01*
X187888666Y-66300819D02*
X187888666Y-67015104D01*
X187888666Y-67015104D02*
X187841047Y-67157961D01*
X187841047Y-67157961D02*
X187745809Y-67253200D01*
X187745809Y-67253200D02*
X187602952Y-67300819D01*
X187602952Y-67300819D02*
X187507714Y-67300819D01*
X188364857Y-67300819D02*
X188364857Y-66300819D01*
X188364857Y-66300819D02*
X188745809Y-66300819D01*
X188745809Y-66300819D02*
X188841047Y-66348438D01*
X188841047Y-66348438D02*
X188888666Y-66396057D01*
X188888666Y-66396057D02*
X188936285Y-66491295D01*
X188936285Y-66491295D02*
X188936285Y-66634152D01*
X188936285Y-66634152D02*
X188888666Y-66729390D01*
X188888666Y-66729390D02*
X188841047Y-66777009D01*
X188841047Y-66777009D02*
X188745809Y-66824628D01*
X188745809Y-66824628D02*
X188364857Y-66824628D01*
X189888666Y-67300819D02*
X189317238Y-67300819D01*
X189602952Y-67300819D02*
X189602952Y-66300819D01*
X189602952Y-66300819D02*
X189507714Y-66443676D01*
X189507714Y-66443676D02*
X189412476Y-66538914D01*
X189412476Y-66538914D02*
X189317238Y-66586533D01*
X191815580Y-87276857D02*
X191863200Y-87324476D01*
X191863200Y-87324476D02*
X191910819Y-87467333D01*
X191910819Y-87467333D02*
X191910819Y-87562571D01*
X191910819Y-87562571D02*
X191863200Y-87705428D01*
X191863200Y-87705428D02*
X191767961Y-87800666D01*
X191767961Y-87800666D02*
X191672723Y-87848285D01*
X191672723Y-87848285D02*
X191482247Y-87895904D01*
X191482247Y-87895904D02*
X191339390Y-87895904D01*
X191339390Y-87895904D02*
X191148914Y-87848285D01*
X191148914Y-87848285D02*
X191053676Y-87800666D01*
X191053676Y-87800666D02*
X190958438Y-87705428D01*
X190958438Y-87705428D02*
X190910819Y-87562571D01*
X190910819Y-87562571D02*
X190910819Y-87467333D01*
X190910819Y-87467333D02*
X190958438Y-87324476D01*
X190958438Y-87324476D02*
X191006057Y-87276857D01*
X191910819Y-86324476D02*
X191910819Y-86895904D01*
X191910819Y-86610190D02*
X190910819Y-86610190D01*
X190910819Y-86610190D02*
X191053676Y-86705428D01*
X191053676Y-86705428D02*
X191148914Y-86800666D01*
X191148914Y-86800666D02*
X191196533Y-86895904D01*
X191244152Y-85467333D02*
X191910819Y-85467333D01*
X190863200Y-85705428D02*
X191577485Y-85943523D01*
X191577485Y-85943523D02*
X191577485Y-85324476D01*
X184410819Y-88086381D02*
X184410819Y-88657809D01*
X184410819Y-88372095D02*
X183410819Y-88372095D01*
X183410819Y-88372095D02*
X183553676Y-88467333D01*
X183553676Y-88467333D02*
X183648914Y-88562571D01*
X183648914Y-88562571D02*
X183696533Y-88657809D01*
X183410819Y-87467333D02*
X183410819Y-87372095D01*
X183410819Y-87372095D02*
X183458438Y-87276857D01*
X183458438Y-87276857D02*
X183506057Y-87229238D01*
X183506057Y-87229238D02*
X183601295Y-87181619D01*
X183601295Y-87181619D02*
X183791771Y-87134000D01*
X183791771Y-87134000D02*
X184029866Y-87134000D01*
X184029866Y-87134000D02*
X184220342Y-87181619D01*
X184220342Y-87181619D02*
X184315580Y-87229238D01*
X184315580Y-87229238D02*
X184363200Y-87276857D01*
X184363200Y-87276857D02*
X184410819Y-87372095D01*
X184410819Y-87372095D02*
X184410819Y-87467333D01*
X184410819Y-87467333D02*
X184363200Y-87562571D01*
X184363200Y-87562571D02*
X184315580Y-87610190D01*
X184315580Y-87610190D02*
X184220342Y-87657809D01*
X184220342Y-87657809D02*
X184029866Y-87705428D01*
X184029866Y-87705428D02*
X183791771Y-87705428D01*
X183791771Y-87705428D02*
X183601295Y-87657809D01*
X183601295Y-87657809D02*
X183506057Y-87610190D01*
X183506057Y-87610190D02*
X183458438Y-87562571D01*
X183458438Y-87562571D02*
X183410819Y-87467333D01*
X183744152Y-85514952D02*
X184410819Y-85514952D01*
X183744152Y-85943523D02*
X184267961Y-85943523D01*
X184267961Y-85943523D02*
X184363200Y-85895904D01*
X184363200Y-85895904D02*
X184410819Y-85800666D01*
X184410819Y-85800666D02*
X184410819Y-85657809D01*
X184410819Y-85657809D02*
X184363200Y-85562571D01*
X184363200Y-85562571D02*
X184315580Y-85514952D01*
X183887009Y-84705428D02*
X183887009Y-85038761D01*
X184410819Y-85038761D02*
X183410819Y-85038761D01*
X183410819Y-85038761D02*
X183410819Y-84562571D01*
X183594819Y-32003904D02*
X184404342Y-32003904D01*
X184404342Y-32003904D02*
X184499580Y-31956285D01*
X184499580Y-31956285D02*
X184547200Y-31908666D01*
X184547200Y-31908666D02*
X184594819Y-31813428D01*
X184594819Y-31813428D02*
X184594819Y-31622952D01*
X184594819Y-31622952D02*
X184547200Y-31527714D01*
X184547200Y-31527714D02*
X184499580Y-31480095D01*
X184499580Y-31480095D02*
X184404342Y-31432476D01*
X184404342Y-31432476D02*
X183594819Y-31432476D01*
X184594819Y-30432476D02*
X184594819Y-31003904D01*
X184594819Y-30718190D02*
X183594819Y-30718190D01*
X183594819Y-30718190D02*
X183737676Y-30813428D01*
X183737676Y-30813428D02*
X183832914Y-30908666D01*
X183832914Y-30908666D02*
X183880533Y-31003904D01*
X145800057Y-38544285D02*
X145752438Y-38496666D01*
X145752438Y-38496666D02*
X145704819Y-38401428D01*
X145704819Y-38401428D02*
X145704819Y-38163333D01*
X145704819Y-38163333D02*
X145752438Y-38068095D01*
X145752438Y-38068095D02*
X145800057Y-38020476D01*
X145800057Y-38020476D02*
X145895295Y-37972857D01*
X145895295Y-37972857D02*
X145990533Y-37972857D01*
X145990533Y-37972857D02*
X146133390Y-38020476D01*
X146133390Y-38020476D02*
X146704819Y-38591904D01*
X146704819Y-38591904D02*
X146704819Y-37972857D01*
X145704819Y-37639523D02*
X145704819Y-36972857D01*
X145704819Y-36972857D02*
X146704819Y-37401428D01*
X145704819Y-36163333D02*
X145704819Y-36353809D01*
X145704819Y-36353809D02*
X145752438Y-36449047D01*
X145752438Y-36449047D02*
X145800057Y-36496666D01*
X145800057Y-36496666D02*
X145942914Y-36591904D01*
X145942914Y-36591904D02*
X146133390Y-36639523D01*
X146133390Y-36639523D02*
X146514342Y-36639523D01*
X146514342Y-36639523D02*
X146609580Y-36591904D01*
X146609580Y-36591904D02*
X146657200Y-36544285D01*
X146657200Y-36544285D02*
X146704819Y-36449047D01*
X146704819Y-36449047D02*
X146704819Y-36258571D01*
X146704819Y-36258571D02*
X146657200Y-36163333D01*
X146657200Y-36163333D02*
X146609580Y-36115714D01*
X146609580Y-36115714D02*
X146514342Y-36068095D01*
X146514342Y-36068095D02*
X146276247Y-36068095D01*
X146276247Y-36068095D02*
X146181009Y-36115714D01*
X146181009Y-36115714D02*
X146133390Y-36163333D01*
X146133390Y-36163333D02*
X146085771Y-36258571D01*
X146085771Y-36258571D02*
X146085771Y-36449047D01*
X146085771Y-36449047D02*
X146133390Y-36544285D01*
X146133390Y-36544285D02*
X146181009Y-36591904D01*
X146181009Y-36591904D02*
X146276247Y-36639523D01*
X146038152Y-35210952D02*
X146704819Y-35210952D01*
X145657200Y-35449047D02*
X146371485Y-35687142D01*
X146371485Y-35687142D02*
X146371485Y-35068095D01*
X144123580Y-33440666D02*
X144171200Y-33488285D01*
X144171200Y-33488285D02*
X144218819Y-33631142D01*
X144218819Y-33631142D02*
X144218819Y-33726380D01*
X144218819Y-33726380D02*
X144171200Y-33869237D01*
X144171200Y-33869237D02*
X144075961Y-33964475D01*
X144075961Y-33964475D02*
X143980723Y-34012094D01*
X143980723Y-34012094D02*
X143790247Y-34059713D01*
X143790247Y-34059713D02*
X143647390Y-34059713D01*
X143647390Y-34059713D02*
X143456914Y-34012094D01*
X143456914Y-34012094D02*
X143361676Y-33964475D01*
X143361676Y-33964475D02*
X143266438Y-33869237D01*
X143266438Y-33869237D02*
X143218819Y-33726380D01*
X143218819Y-33726380D02*
X143218819Y-33631142D01*
X143218819Y-33631142D02*
X143266438Y-33488285D01*
X143266438Y-33488285D02*
X143314057Y-33440666D01*
X144218819Y-32488285D02*
X144218819Y-33059713D01*
X144218819Y-32773999D02*
X143218819Y-32773999D01*
X143218819Y-32773999D02*
X143361676Y-32869237D01*
X143361676Y-32869237D02*
X143456914Y-32964475D01*
X143456914Y-32964475D02*
X143504533Y-33059713D01*
X187888666Y-74428819D02*
X187888666Y-75143104D01*
X187888666Y-75143104D02*
X187841047Y-75285961D01*
X187841047Y-75285961D02*
X187745809Y-75381200D01*
X187745809Y-75381200D02*
X187602952Y-75428819D01*
X187602952Y-75428819D02*
X187507714Y-75428819D01*
X188364857Y-75428819D02*
X188364857Y-74428819D01*
X188364857Y-74428819D02*
X188745809Y-74428819D01*
X188745809Y-74428819D02*
X188841047Y-74476438D01*
X188841047Y-74476438D02*
X188888666Y-74524057D01*
X188888666Y-74524057D02*
X188936285Y-74619295D01*
X188936285Y-74619295D02*
X188936285Y-74762152D01*
X188936285Y-74762152D02*
X188888666Y-74857390D01*
X188888666Y-74857390D02*
X188841047Y-74905009D01*
X188841047Y-74905009D02*
X188745809Y-74952628D01*
X188745809Y-74952628D02*
X188364857Y-74952628D01*
X189317238Y-74524057D02*
X189364857Y-74476438D01*
X189364857Y-74476438D02*
X189460095Y-74428819D01*
X189460095Y-74428819D02*
X189698190Y-74428819D01*
X189698190Y-74428819D02*
X189793428Y-74476438D01*
X189793428Y-74476438D02*
X189841047Y-74524057D01*
X189841047Y-74524057D02*
X189888666Y-74619295D01*
X189888666Y-74619295D02*
X189888666Y-74714533D01*
X189888666Y-74714533D02*
X189841047Y-74857390D01*
X189841047Y-74857390D02*
X189269619Y-75428819D01*
X189269619Y-75428819D02*
X189888666Y-75428819D01*
X100258666Y-89116819D02*
X100258666Y-89831104D01*
X100258666Y-89831104D02*
X100211047Y-89973961D01*
X100211047Y-89973961D02*
X100115809Y-90069200D01*
X100115809Y-90069200D02*
X99972952Y-90116819D01*
X99972952Y-90116819D02*
X99877714Y-90116819D01*
X100734857Y-90116819D02*
X100734857Y-89116819D01*
X100734857Y-89116819D02*
X101115809Y-89116819D01*
X101115809Y-89116819D02*
X101211047Y-89164438D01*
X101211047Y-89164438D02*
X101258666Y-89212057D01*
X101258666Y-89212057D02*
X101306285Y-89307295D01*
X101306285Y-89307295D02*
X101306285Y-89450152D01*
X101306285Y-89450152D02*
X101258666Y-89545390D01*
X101258666Y-89545390D02*
X101211047Y-89593009D01*
X101211047Y-89593009D02*
X101115809Y-89640628D01*
X101115809Y-89640628D02*
X100734857Y-89640628D01*
X102163428Y-89450152D02*
X102163428Y-90116819D01*
X101925333Y-89069200D02*
X101687238Y-89783485D01*
X101687238Y-89783485D02*
X102306285Y-89783485D01*
D12*
X110332000Y-89296000D02*
X112172000Y-89296000D01*
X112172000Y-89296000D02*
X112172000Y-85456000D01*
X110332000Y-85456000D02*
X110332000Y-89296000D01*
X111252000Y-90246000D02*
X111252000Y-89296000D01*
X112172000Y-85456000D02*
X110332000Y-85456000D01*
X111252000Y-84506000D02*
X111252000Y-85456000D01*
X113634000Y-89296000D02*
X115474000Y-89296000D01*
X115474000Y-89296000D02*
X115474000Y-85456000D01*
X113634000Y-85456000D02*
X113634000Y-89296000D01*
X114554000Y-90246000D02*
X114554000Y-89296000D01*
X115474000Y-85456000D02*
X113634000Y-85456000D01*
X114554000Y-84506000D02*
X114554000Y-85456000D01*
X116936000Y-89296000D02*
X118776000Y-89296000D01*
X118776000Y-89296000D02*
X118776000Y-85456000D01*
X116936000Y-85456000D02*
X116936000Y-89296000D01*
X117856000Y-90246000D02*
X117856000Y-89296000D01*
X118776000Y-85456000D02*
X116936000Y-85456000D01*
X117856000Y-84506000D02*
X117856000Y-85456000D01*
X106172000Y-84776000D02*
G75*
G03*
X104333522Y-89214478I0J-2600000D01*
G01*
X108010478Y-89214478D02*
G75*
G03*
X106172000Y-84776000I-1838478J1838478D01*
G01*
X104372000Y-89226000D02*
X107972000Y-89226000D01*
X107372000Y-42264000D02*
X107372000Y-41949000D01*
X107372000Y-42264000D02*
X102432000Y-42264000D01*
X107372000Y-39839000D02*
X107372000Y-39524000D01*
X107372000Y-39524000D02*
X102432000Y-39524000D01*
X102432000Y-42264000D02*
X102432000Y-41949000D01*
X102432000Y-39839000D02*
X102432000Y-39524000D01*
X107502000Y-78426000D02*
X107502000Y-79756000D01*
X106172000Y-78426000D02*
X107502000Y-78426000D01*
X104902000Y-78426000D02*
X99762000Y-78426000D01*
X104902000Y-78426000D02*
X104902000Y-81086000D01*
X99762000Y-78426000D02*
X99762000Y-81086000D01*
X104902000Y-81086000D02*
X99762000Y-81086000D01*
X184304000Y-39300000D02*
X184619000Y-39300000D01*
X184304000Y-39300000D02*
X184304000Y-34360000D01*
X186729000Y-39300000D02*
X187044000Y-39300000D01*
X187044000Y-39300000D02*
X187044000Y-34360000D01*
X184304000Y-34360000D02*
X184619000Y-34360000D01*
X186729000Y-34360000D02*
X187044000Y-34360000D01*
X99762000Y-43060000D02*
X99762000Y-73780000D01*
X99762000Y-73780000D02*
X110042000Y-73780000D01*
X102252000Y-43120000D02*
X102252000Y-73720000D01*
X102252000Y-73720000D02*
X107552000Y-73720000D01*
X103902000Y-43120000D02*
X102252000Y-43120000D01*
X107552000Y-43120000D02*
X105902000Y-43120000D01*
X107552000Y-73720000D02*
X107552000Y-43120000D01*
X110042000Y-43060000D02*
X99762000Y-43060000D01*
X110042000Y-73780000D02*
X110042000Y-43060000D01*
X103902000Y-43120000D02*
G75*
G03*
X105902000Y-43120000I1000000J0D01*
G01*
X139058000Y-27880000D02*
X113418000Y-27880000D01*
X113418000Y-27880000D02*
X113418000Y-38160000D01*
X138998000Y-30370000D02*
X113478000Y-30370000D01*
X113478000Y-30370000D02*
X113478000Y-35670000D01*
X138998000Y-32020000D02*
X138998000Y-30370000D01*
X138998000Y-35670000D02*
X138998000Y-34020000D01*
X113478000Y-35670000D02*
X138998000Y-35670000D01*
X139058000Y-38160000D02*
X139058000Y-27880000D01*
X113418000Y-38160000D02*
X139058000Y-38160000D01*
X138998000Y-32020000D02*
G75*
G03*
X138998000Y-34020000I0J-1000000D01*
G01*
X190052000Y-65846000D02*
X188722000Y-65846000D01*
X190052000Y-64516000D02*
X190052000Y-65846000D01*
X190052000Y-63246000D02*
X190052000Y-60646000D01*
X190052000Y-63246000D02*
X187392000Y-63246000D01*
X190052000Y-60646000D02*
X187392000Y-60646000D01*
X187392000Y-63246000D02*
X187392000Y-60646000D01*
X189181000Y-83829225D02*
X189181000Y-84329225D01*
X189431000Y-84079225D02*
X188931000Y-84079225D01*
X190286000Y-86634000D02*
X185126000Y-86634000D01*
X190286000Y-86674000D02*
X185126000Y-86674000D01*
X190285000Y-86714000D02*
X185127000Y-86714000D01*
X190284000Y-86754000D02*
X185128000Y-86754000D01*
X190282000Y-86794000D02*
X185130000Y-86794000D01*
X190279000Y-86834000D02*
X185133000Y-86834000D01*
X190275000Y-86874000D02*
X188746000Y-86874000D01*
X186666000Y-86874000D02*
X185137000Y-86874000D01*
X190271000Y-86914000D02*
X188746000Y-86914000D01*
X186666000Y-86914000D02*
X185141000Y-86914000D01*
X190267000Y-86954000D02*
X188746000Y-86954000D01*
X186666000Y-86954000D02*
X185145000Y-86954000D01*
X190262000Y-86994000D02*
X188746000Y-86994000D01*
X186666000Y-86994000D02*
X185150000Y-86994000D01*
X190256000Y-87034000D02*
X188746000Y-87034000D01*
X186666000Y-87034000D02*
X185156000Y-87034000D01*
X190249000Y-87074000D02*
X188746000Y-87074000D01*
X186666000Y-87074000D02*
X185163000Y-87074000D01*
X190242000Y-87114000D02*
X188746000Y-87114000D01*
X186666000Y-87114000D02*
X185170000Y-87114000D01*
X190234000Y-87154000D02*
X188746000Y-87154000D01*
X186666000Y-87154000D02*
X185178000Y-87154000D01*
X190226000Y-87194000D02*
X188746000Y-87194000D01*
X186666000Y-87194000D02*
X185186000Y-87194000D01*
X190217000Y-87234000D02*
X188746000Y-87234000D01*
X186666000Y-87234000D02*
X185195000Y-87234000D01*
X190207000Y-87274000D02*
X188746000Y-87274000D01*
X186666000Y-87274000D02*
X185205000Y-87274000D01*
X190197000Y-87314000D02*
X188746000Y-87314000D01*
X186666000Y-87314000D02*
X185215000Y-87314000D01*
X190186000Y-87355000D02*
X188746000Y-87355000D01*
X186666000Y-87355000D02*
X185226000Y-87355000D01*
X190174000Y-87395000D02*
X188746000Y-87395000D01*
X186666000Y-87395000D02*
X185238000Y-87395000D01*
X190161000Y-87435000D02*
X188746000Y-87435000D01*
X186666000Y-87435000D02*
X185251000Y-87435000D01*
X190148000Y-87475000D02*
X188746000Y-87475000D01*
X186666000Y-87475000D02*
X185264000Y-87475000D01*
X190134000Y-87515000D02*
X188746000Y-87515000D01*
X186666000Y-87515000D02*
X185278000Y-87515000D01*
X190120000Y-87555000D02*
X188746000Y-87555000D01*
X186666000Y-87555000D02*
X185292000Y-87555000D01*
X190104000Y-87595000D02*
X188746000Y-87595000D01*
X186666000Y-87595000D02*
X185308000Y-87595000D01*
X190088000Y-87635000D02*
X188746000Y-87635000D01*
X186666000Y-87635000D02*
X185324000Y-87635000D01*
X190071000Y-87675000D02*
X188746000Y-87675000D01*
X186666000Y-87675000D02*
X185341000Y-87675000D01*
X190054000Y-87715000D02*
X188746000Y-87715000D01*
X186666000Y-87715000D02*
X185358000Y-87715000D01*
X190035000Y-87755000D02*
X188746000Y-87755000D01*
X186666000Y-87755000D02*
X185377000Y-87755000D01*
X190016000Y-87795000D02*
X188746000Y-87795000D01*
X186666000Y-87795000D02*
X185396000Y-87795000D01*
X189996000Y-87835000D02*
X188746000Y-87835000D01*
X186666000Y-87835000D02*
X185416000Y-87835000D01*
X189974000Y-87875000D02*
X188746000Y-87875000D01*
X186666000Y-87875000D02*
X185438000Y-87875000D01*
X189953000Y-87915000D02*
X188746000Y-87915000D01*
X186666000Y-87915000D02*
X185459000Y-87915000D01*
X189930000Y-87955000D02*
X188746000Y-87955000D01*
X186666000Y-87955000D02*
X185482000Y-87955000D01*
X189906000Y-87995000D02*
X188746000Y-87995000D01*
X186666000Y-87995000D02*
X185506000Y-87995000D01*
X189881000Y-88035000D02*
X188746000Y-88035000D01*
X186666000Y-88035000D02*
X185531000Y-88035000D01*
X189855000Y-88075000D02*
X188746000Y-88075000D01*
X186666000Y-88075000D02*
X185557000Y-88075000D01*
X189828000Y-88115000D02*
X188746000Y-88115000D01*
X186666000Y-88115000D02*
X185584000Y-88115000D01*
X189801000Y-88155000D02*
X188746000Y-88155000D01*
X186666000Y-88155000D02*
X185611000Y-88155000D01*
X189771000Y-88195000D02*
X188746000Y-88195000D01*
X186666000Y-88195000D02*
X185641000Y-88195000D01*
X189741000Y-88235000D02*
X188746000Y-88235000D01*
X186666000Y-88235000D02*
X185671000Y-88235000D01*
X189710000Y-88275000D02*
X188746000Y-88275000D01*
X186666000Y-88275000D02*
X185702000Y-88275000D01*
X189677000Y-88315000D02*
X188746000Y-88315000D01*
X186666000Y-88315000D02*
X185735000Y-88315000D01*
X189643000Y-88355000D02*
X188746000Y-88355000D01*
X186666000Y-88355000D02*
X185769000Y-88355000D01*
X189607000Y-88395000D02*
X188746000Y-88395000D01*
X186666000Y-88395000D02*
X185805000Y-88395000D01*
X189570000Y-88435000D02*
X188746000Y-88435000D01*
X186666000Y-88435000D02*
X185842000Y-88435000D01*
X189532000Y-88475000D02*
X188746000Y-88475000D01*
X186666000Y-88475000D02*
X185880000Y-88475000D01*
X189491000Y-88515000D02*
X188746000Y-88515000D01*
X186666000Y-88515000D02*
X185921000Y-88515000D01*
X189449000Y-88555000D02*
X188746000Y-88555000D01*
X186666000Y-88555000D02*
X185963000Y-88555000D01*
X189405000Y-88595000D02*
X188746000Y-88595000D01*
X186666000Y-88595000D02*
X186007000Y-88595000D01*
X189359000Y-88635000D02*
X188746000Y-88635000D01*
X186666000Y-88635000D02*
X186053000Y-88635000D01*
X189311000Y-88675000D02*
X188746000Y-88675000D01*
X186666000Y-88675000D02*
X186101000Y-88675000D01*
X189260000Y-88715000D02*
X188746000Y-88715000D01*
X186666000Y-88715000D02*
X186152000Y-88715000D01*
X189206000Y-88755000D02*
X188746000Y-88755000D01*
X186666000Y-88755000D02*
X186206000Y-88755000D01*
X189149000Y-88795000D02*
X188746000Y-88795000D01*
X186666000Y-88795000D02*
X186263000Y-88795000D01*
X189089000Y-88835000D02*
X188746000Y-88835000D01*
X186666000Y-88835000D02*
X186323000Y-88835000D01*
X189025000Y-88875000D02*
X188746000Y-88875000D01*
X186666000Y-88875000D02*
X186387000Y-88875000D01*
X188957000Y-88915000D02*
X188746000Y-88915000D01*
X186666000Y-88915000D02*
X186455000Y-88915000D01*
X188884000Y-88955000D02*
X186528000Y-88955000D01*
X188804000Y-88995000D02*
X186608000Y-88995000D01*
X188717000Y-89035000D02*
X186695000Y-89035000D01*
X188621000Y-89075000D02*
X186791000Y-89075000D01*
X188511000Y-89115000D02*
X186901000Y-89115000D01*
X188383000Y-89155000D02*
X187029000Y-89155000D01*
X188224000Y-89195000D02*
X187188000Y-89195000D01*
X187990000Y-89235000D02*
X187422000Y-89235000D01*
X190326000Y-86634000D02*
G75*
G03*
X190326000Y-86634000I-2620000J0D01*
G01*
X182930000Y-30370000D02*
X147250000Y-30370000D01*
X147250000Y-30370000D02*
X147250000Y-43290000D01*
X182930000Y-35830000D02*
X182930000Y-30370000D01*
X182930000Y-43290000D02*
X182930000Y-37830000D01*
X147250000Y-43290000D02*
X182930000Y-43290000D01*
X182930000Y-35830000D02*
G75*
G03*
X182930000Y-37830000I0J-1000000D01*
G01*
X142533000Y-30550000D02*
X142848000Y-30550000D01*
X140108000Y-30550000D02*
X140423000Y-30550000D01*
X142848000Y-35490000D02*
X142848000Y-30550000D01*
X142533000Y-35490000D02*
X142848000Y-35490000D01*
X140108000Y-35490000D02*
X140108000Y-30550000D01*
X140108000Y-35490000D02*
X140423000Y-35490000D01*
X190052000Y-73974000D02*
X188722000Y-73974000D01*
X190052000Y-72644000D02*
X190052000Y-73974000D01*
X190052000Y-71374000D02*
X190052000Y-68774000D01*
X190052000Y-71374000D02*
X187392000Y-71374000D01*
X190052000Y-68774000D02*
X187392000Y-68774000D01*
X187392000Y-71374000D02*
X187392000Y-68774000D01*
X99762000Y-83506000D02*
X101092000Y-83506000D01*
X99762000Y-84836000D02*
X99762000Y-83506000D01*
X99762000Y-86106000D02*
X99762000Y-88706000D01*
X99762000Y-86106000D02*
X102422000Y-86106000D01*
X99762000Y-88706000D02*
X102422000Y-88706000D01*
X102422000Y-86106000D02*
X102422000Y-88706000D01*
M02*
